<svg width="81" height="80" viewBox="0 0 81 80" fill="none" xmlns="http://www.w3.org/2000/svg">
<path d="M68.451 61.4609C68.451 61.4584 68.4503 61.456 68.4499 61.4536C68.4489 61.4466 68.4482 61.4397 68.4467 61.4327C68.446 61.4286 68.4446 61.4248 68.4436 61.4206C68.4422 61.4154 68.4411 61.4098 68.4393 61.4046C68.4379 61.3994 68.4358 61.3946 68.434 61.3897C68.4326 61.3859 68.4312 61.3817 68.4298 61.3779C68.4277 61.373 68.4252 61.3685 68.4231 61.3637C68.4224 61.3619 68.4217 61.3605 68.4206 61.3588C68.4196 61.3564 68.4185 61.354 68.4171 61.3519C68.4125 61.3432 68.4072 61.3349 68.4016 61.3265V61.3258H68.4009L68.367 61.2762C68.3391 61.2356 68.3113 61.1946 68.2834 61.154L68.2831 61.153L68.1945 61.0232H68.1935L67.043 59.3426L66.8409 59.0472L66.8056 58.9955C66.7499 58.9143 66.6945 58.8331 66.6388 58.7519C65.7261 57.4184 64.8135 56.0852 63.9009 54.7517C63.9009 54.7517 63.9009 54.7514 63.9005 54.751C63.8949 54.743 63.8889 54.735 63.8829 54.7278C63.8797 54.7239 63.8758 54.7201 63.8723 54.7163C63.8691 54.7132 63.8663 54.7097 63.8631 54.7066C63.8614 54.7049 63.8589 54.7031 63.8571 54.701C63.8546 54.6986 63.8518 54.6965 63.8494 54.6941C63.8476 54.6927 63.8458 54.691 63.8444 54.6896C63.8437 54.6889 63.8426 54.6882 63.8419 54.6875C63.8374 54.6837 63.8321 54.6802 63.8271 54.6767C63.8243 54.6747 63.8211 54.6726 63.8183 54.6705C63.8137 54.6674 63.8091 54.6649 63.8042 54.6622C63.8007 54.6601 63.7968 54.6576 63.7933 54.6559C63.789 54.6538 63.7848 54.6517 63.7809 54.65C63.7799 54.6497 63.7788 54.649 63.7781 54.6486C63.7742 54.6469 63.7707 54.6452 63.7668 54.6434C63.764 54.6424 63.7612 54.6413 63.7583 54.6403C63.7573 54.6403 63.7566 54.6396 63.7559 54.6393C63.7509 54.6375 63.746 54.6358 63.7407 54.634C63.7403 54.634 63.7396 54.6337 63.7393 54.6337C63.7358 54.6327 63.7319 54.632 63.728 54.6309C63.7248 54.6302 63.7216 54.6295 63.7188 54.6288C63.7164 54.6281 63.7139 54.6275 63.7114 54.6271C63.7061 54.6261 63.7012 54.6254 63.6959 54.6247C63.6917 54.624 63.6874 54.6233 63.6828 54.6229C63.673 54.6219 63.6631 54.6215 63.6532 54.6215H63.6518L63.3216 54.6209L58.7789 54.6136L58.9532 55.204L63.493 55.2112C64.3006 56.3913 65.1084 57.5714 65.9163 58.7515C65.9837 58.8501 66.051 58.9483 66.1184 59.0469C66.1819 59.1399 66.2458 59.2329 66.3093 59.3259L66.3206 59.3423L67.471 61.0228C60.0164 61.0114 51.8697 61.0003 43.7231 60.9888C36.1659 60.9784 28.6083 60.9676 21.6036 60.9572C21.4762 60.9572 21.3492 60.9569 21.2222 60.9565C21.0952 60.9565 20.9675 60.9562 20.8409 60.9558C20.5576 60.9555 20.2757 60.9552 19.9946 60.9545L21.7546 58.7578C22.7169 57.5565 23.6797 56.3552 24.642 55.154C26.8462 55.1575 29.7481 55.1609 32.6508 55.1644C34.0894 55.1661 35.5277 55.1679 36.8813 55.1696C37.0418 55.1696 37.2013 55.1699 37.3597 55.1703C38.3598 55.1717 39.3063 55.1727 40.1632 55.1741C40.1776 55.1571 40.1921 55.1401 40.2066 55.1231C40.2986 55.0155 40.3904 54.9075 40.4821 54.8C40.5435 54.7281 40.6045 54.6566 40.6655 54.5848C40.6641 54.5848 40.6627 54.5848 40.6613 54.5848C40.6066 54.5848 40.5509 54.5848 40.4955 54.5848C40.4729 54.5848 40.4507 54.5848 40.4281 54.5848C40.2376 54.5848 40.0418 54.5841 39.8422 54.5841C39.8185 54.5841 39.7949 54.5841 39.7709 54.5841C39.7328 54.5841 39.6947 54.5841 39.6562 54.5841C39.604 54.5841 39.5515 54.5841 39.4989 54.5841C39.4887 54.5841 39.4788 54.5841 39.4686 54.5841C39.3433 54.5841 39.2163 54.5837 39.0879 54.5834C39.0244 54.5834 38.9606 54.5834 38.896 54.5834C38.7799 54.5834 38.6632 54.5834 38.545 54.583C38.4356 54.583 38.3252 54.583 38.2141 54.5827C38.1647 54.5827 38.115 54.5827 38.0649 54.5827C38.0271 54.5827 37.9894 54.5827 37.9513 54.5827C37.9417 54.5827 37.9322 54.5827 37.9227 54.5827C37.7474 54.5827 37.5699 54.5823 37.3911 54.582C37.2651 54.582 37.1388 54.582 37.0111 54.5816C36.9956 54.5816 36.9797 54.5816 36.9642 54.5816C36.9399 54.5816 36.9155 54.5816 36.8908 54.5816C36.8397 54.5816 36.7882 54.5816 36.7367 54.5816C35.8978 54.5806 35.0278 54.5796 34.1466 54.5785C34.0118 54.5785 33.8767 54.5785 33.7412 54.5782C33.6199 54.5782 33.4982 54.5782 33.3765 54.5778C33.1348 54.5778 32.8928 54.5771 32.6511 54.5771C32.002 54.5764 31.3533 54.5757 30.7119 54.5747C30.5288 54.5747 30.3461 54.5743 30.1644 54.574C29.8917 54.574 29.6211 54.5733 29.3527 54.573C28.995 54.5726 28.6415 54.5719 28.294 54.5716C28.2072 54.5716 28.1204 54.5716 28.0343 54.5716C26.7425 54.5698 25.5374 54.5684 24.4963 54.5667H24.496H24.4953C24.4946 54.5667 24.4939 54.5667 24.4928 54.5667C24.4893 54.5667 24.4858 54.5671 24.4822 54.5674C24.4801 54.5674 24.4784 54.5674 24.4762 54.5674C24.4759 54.5674 24.4752 54.5674 24.4748 54.5674C24.4709 54.5674 24.4667 54.5678 24.4628 54.5681C24.4582 54.5684 24.454 54.5695 24.4498 54.5702C24.4445 54.5709 24.4388 54.5716 24.4336 54.573C24.4311 54.5733 24.429 54.574 24.4265 54.5747C24.4258 54.5747 24.4247 54.575 24.4237 54.5754C24.4173 54.5768 24.4113 54.5785 24.4053 54.5802C24.4053 54.5802 24.4036 54.5809 24.4025 54.5813C24.4007 54.582 24.3986 54.5827 24.3969 54.5834C24.3905 54.5855 24.3845 54.5875 24.3785 54.5903C24.3743 54.5921 24.3704 54.5941 24.3665 54.5959C24.3619 54.5979 24.3574 54.6 24.3528 54.6025C24.3475 54.6052 24.3425 54.6084 24.3376 54.6115C24.3362 54.6122 24.3348 54.6132 24.3334 54.6139C24.3316 54.615 24.3298 54.616 24.3281 54.617C24.3235 54.6202 24.3193 54.6233 24.315 54.6268C24.3147 54.6268 24.3143 54.6275 24.3136 54.6278C24.3122 54.6288 24.3111 54.6295 24.3097 54.6306C24.308 54.632 24.3062 54.633 24.3044 54.6347C24.3027 54.6365 24.3006 54.6379 24.2988 54.6396C24.2967 54.6413 24.2949 54.6431 24.2928 54.6448C24.2893 54.6479 24.2857 54.6511 24.2826 54.6545C24.2808 54.6563 24.279 54.6583 24.2773 54.6601C24.2762 54.6615 24.2748 54.6625 24.2737 54.6639C24.2713 54.6663 24.2692 54.6691 24.2667 54.6719C24.2653 54.6736 24.2639 54.675 24.2625 54.6767C24.2617 54.6774 24.261 54.6781 24.2603 54.6792C23.268 55.9179 22.2753 57.1567 21.2825 58.3954L19.174 61.027L19.1634 61.0402C19.1571 61.0482 19.1507 61.0558 19.1444 61.0638C19.1444 61.0638 19.1444 61.0638 19.144 61.0641C19.144 61.0645 19.1433 61.0648 19.143 61.0655C19.1422 61.0662 19.1419 61.0669 19.1415 61.0676C19.1401 61.0697 19.1384 61.0714 19.137 61.0735C19.1334 61.078 19.1295 61.0829 19.1264 61.0877C19.1253 61.0895 19.1243 61.0912 19.1232 61.0926C19.1221 61.094 19.1214 61.0954 19.1207 61.0968C19.1193 61.0988 19.1179 61.1013 19.1168 61.1034C19.1151 61.1065 19.113 61.1093 19.1116 61.1124C19.1116 61.1127 19.1112 61.1131 19.1108 61.1138C19.1091 61.1172 19.1077 61.1204 19.1059 61.1238C19.1059 61.1238 19.1059 61.1238 19.1059 61.1242C19.1059 61.1242 19.1059 61.1242 19.1059 61.1245C19.1038 61.129 19.1013 61.1336 19.0992 61.1384C19.0974 61.1429 19.096 61.1474 19.0943 61.1516C19.0936 61.1533 19.0932 61.1547 19.0925 61.1565C19.0914 61.1596 19.0904 61.1624 19.0893 61.1655C19.089 61.1669 19.0886 61.1683 19.0883 61.1697C19.0872 61.1731 19.0865 61.1769 19.0854 61.1804C19.0851 61.1822 19.0847 61.1839 19.084 61.1856C19.0833 61.1884 19.0826 61.1908 19.0819 61.1936C19.0819 61.1946 19.0819 61.1957 19.0816 61.1967C19.0809 61.2012 19.0802 61.2061 19.0795 61.211C19.0795 61.2123 19.0791 61.2134 19.0787 61.2148C19.0787 61.2172 19.078 61.22 19.0777 61.2224C19.077 61.23 19.0766 61.2377 19.0766 61.2453C19.0766 61.2457 19.0766 61.2464 19.0766 61.2467C19.0766 61.2481 19.0766 61.2498 19.0766 61.2512C19.0766 61.2602 19.0773 61.2689 19.078 61.2779C19.078 61.2786 19.078 61.2797 19.078 61.2804C19.0784 61.2856 19.0795 61.2904 19.0802 61.2956C19.0802 61.2956 19.0802 61.2956 19.0802 61.296C19.0802 61.296 19.0802 61.296 19.0802 61.2963C19.0802 61.297 19.0802 61.2977 19.0802 61.2984C19.0805 61.3019 19.0812 61.3054 19.0816 61.3085C19.0823 61.3123 19.0833 61.3158 19.0844 61.3192C19.0847 61.3213 19.0854 61.3234 19.0862 61.3258C19.0862 61.3265 19.0865 61.3276 19.0869 61.3283C19.0876 61.331 19.0883 61.3338 19.089 61.3366C19.0893 61.338 19.0897 61.339 19.0904 61.3404C19.0918 61.3446 19.0932 61.3484 19.0946 61.3526C19.0953 61.3543 19.096 61.3564 19.0967 61.3581C19.0974 61.3602 19.0981 61.3619 19.0989 61.364C19.0999 61.3661 19.101 61.3682 19.102 61.3706C19.1031 61.373 19.1041 61.3751 19.1052 61.3772C19.1052 61.3772 19.1052 61.3772 19.1052 61.3776C19.1063 61.38 19.1077 61.3828 19.1087 61.3852C19.1087 61.3852 19.1087 61.3852 19.1087 61.3855V64.9262C19.1087 64.9668 19.1172 65.0056 19.1324 65.041C19.1338 65.0442 19.1355 65.0473 19.137 65.0504C19.1437 65.0646 19.1511 65.0782 19.1599 65.091C19.2082 65.1615 19.2872 65.2104 19.3779 65.2194C19.3881 65.2205 19.3984 65.2208 19.4086 65.2208H68.1525C68.2266 65.2208 68.294 65.1944 68.3466 65.1507C68.4115 65.0966 68.4524 65.016 68.4524 64.9258V61.4945C68.4524 61.4845 68.4517 61.4747 68.451 61.465V61.4609ZM19.7085 62.8423V61.5424C19.9275 61.5424 20.147 61.5431 20.3671 61.5435C20.4941 61.5435 20.6211 61.5438 20.7484 61.5442C20.8754 61.5442 21.0024 61.5445 21.1298 61.5449C28.2665 61.5556 35.9934 61.5664 43.7206 61.5771C52.0073 61.5886 60.2941 61.6004 67.8523 61.6118V64.627H19.7088V62.8426L19.7085 62.8423Z" fill="#6194F6"/>
<path d="M46.0725 26.8548C46.0725 26.8579 46.0725 26.8614 46.0729 26.8645C46.0729 26.8655 46.0729 26.8669 46.0729 26.868C46.0729 26.8693 46.0729 26.8704 46.0729 26.8718C46.0736 26.8791 46.075 26.8864 46.0764 26.8936C46.0764 26.8947 46.0768 26.8957 46.0771 26.8968C46.0771 26.8978 46.0775 26.8992 46.0778 26.9002C46.0793 26.9072 46.0814 26.9141 46.0831 26.9211C46.0835 26.9225 46.0838 26.9238 46.0842 26.9252C46.0842 26.9263 46.0849 26.9277 46.0852 26.9287C46.0874 26.9353 46.0898 26.9415 46.0923 26.9478C46.0934 26.9506 46.0944 26.953 46.0955 26.9558C46.0979 26.9617 46.1011 26.9672 46.1039 26.9731C46.1039 26.9731 46.1039 26.9731 46.1039 26.9735C46.1039 26.9735 46.1039 26.9735 46.1039 26.9738C46.1054 26.9762 46.1064 26.979 46.1078 26.9815C46.1085 26.9828 46.1096 26.9842 46.1106 26.9856C46.1131 26.9898 46.1156 26.9939 46.1181 26.9978C46.1191 26.9992 46.1198 27.0005 46.1209 27.0023C46.1216 27.0033 46.1223 27.0044 46.123 27.0054C46.1269 27.011 46.1311 27.0162 46.1353 27.0214C46.1371 27.0235 46.1385 27.0259 46.1403 27.028C46.1449 27.0335 46.1498 27.0384 46.1547 27.0436C46.1565 27.0453 46.1579 27.0471 46.1597 27.0488C46.165 27.054 46.1706 27.0589 46.1763 27.0634C46.177 27.0641 46.1777 27.0644 46.1784 27.0651C46.1794 27.0658 46.1801 27.0668 46.1812 27.0675C46.183 27.0689 46.1851 27.0703 46.1868 27.0717C46.1907 27.0748 46.1946 27.0776 46.1988 27.0804C46.2006 27.0818 46.2024 27.0828 46.2041 27.0842C46.2077 27.0866 46.2115 27.0887 46.2154 27.0908C46.2179 27.0922 46.22 27.0936 46.2225 27.095C46.2246 27.0963 46.2267 27.0977 46.2292 27.0988C46.2348 27.1019 46.2412 27.1047 46.2472 27.1071C46.25 27.1085 46.2528 27.1099 46.256 27.1113C46.2613 27.1133 46.2669 27.1154 46.2722 27.1172C46.2761 27.1186 46.2796 27.1199 46.2835 27.121C46.2867 27.122 46.2899 27.1227 46.293 27.1234C46.2952 27.1238 46.2969 27.1245 46.299 27.1248C46.3036 27.1258 46.3082 27.1272 46.3128 27.1279C46.3177 27.129 46.323 27.1293 46.328 27.1304C46.3329 27.131 46.3378 27.1317 46.3428 27.1324C46.3438 27.1324 46.3449 27.1324 46.3456 27.1328C47.9271 27.2629 49.5086 27.3931 51.0901 27.5233C51.2901 27.5396 51.4898 27.5562 51.6898 27.5725C52.1199 27.6079 52.5499 27.6433 52.9799 27.6787C53.18 27.6951 53.3796 27.7117 53.5797 27.728C54.3709 27.7933 55.1622 27.8582 55.9531 27.9234L57.9753 28.0897C57.9837 28.0904 57.9922 28.0907 58.0007 28.0907C58.0105 28.0907 58.0204 28.09 58.0299 28.0893C58.0299 28.0893 58.0299 28.0893 58.0303 28.0893C58.0313 28.0893 58.0321 28.0893 58.0331 28.089C58.0342 28.089 58.0349 28.089 58.0359 28.0887C58.0437 28.0876 58.0515 28.0866 58.0589 28.0852C58.061 28.0848 58.0631 28.0841 58.0652 28.0838C58.0652 28.0838 58.0659 28.0838 58.0663 28.0838L59.1602 27.8391C59.1631 27.8384 59.1655 27.8377 59.168 27.837C59.1743 27.8353 59.1807 27.8339 59.187 27.8318C59.1902 27.8308 59.193 27.8297 59.1962 27.8283C59.1969 27.8283 59.1973 27.828 59.198 27.8276C59.2008 27.8266 59.2033 27.8256 59.2061 27.8245C59.2089 27.8235 59.2117 27.8224 59.2146 27.8214C59.2188 27.8197 59.223 27.8176 59.2273 27.8155C59.228 27.8155 59.2287 27.8148 59.2294 27.8145C59.2333 27.8127 59.2368 27.811 59.2403 27.8089C59.2449 27.8065 59.2495 27.8037 59.2537 27.8009C59.2572 27.7988 59.2608 27.7964 59.2643 27.794C59.2682 27.7912 59.2721 27.7884 59.2759 27.7857C59.2767 27.7853 59.2774 27.7846 59.2781 27.7843C59.2812 27.7818 59.2844 27.7794 59.2876 27.777C59.2908 27.7745 59.2936 27.7718 59.2964 27.769C59.2975 27.7679 59.2985 27.7669 59.2996 27.7662C59.3006 27.7652 59.3013 27.7645 59.3024 27.7634C59.3045 27.7614 59.3066 27.7596 59.3084 27.7575C59.3116 27.7544 59.3144 27.7513 59.3172 27.7482C59.3179 27.7475 59.3183 27.7468 59.319 27.7464C59.3222 27.743 59.325 27.7398 59.3278 27.736C59.3289 27.7346 59.3299 27.7332 59.331 27.7319C59.3327 27.7294 59.3345 27.7273 59.3363 27.7249C59.3394 27.7207 59.3423 27.7166 59.3451 27.7124C59.3472 27.7089 59.3493 27.7055 59.3518 27.7017C59.3546 27.6971 59.3574 27.6923 59.3599 27.6874C59.3617 27.684 59.3634 27.6801 59.3652 27.6767C59.3677 27.6718 59.3698 27.6666 59.3719 27.6617C59.3733 27.6579 59.3747 27.6541 59.3761 27.6499C59.3779 27.6451 59.3797 27.6402 59.3811 27.635C59.3825 27.6305 59.3835 27.6256 59.3846 27.6208C59.3857 27.6163 59.3867 27.6118 59.3878 27.6072C59.3888 27.6017 59.3895 27.5958 59.3906 27.5899C59.391 27.5861 59.3917 27.5823 59.392 27.5788C59.392 27.5757 59.392 27.5725 59.3924 27.5694C59.3924 27.5659 59.3927 27.5625 59.3927 27.559C59.3927 27.5562 59.3931 27.5538 59.3931 27.551V18.6178C59.3931 18.6178 59.3931 18.6164 59.3931 18.6157C59.3931 18.6101 59.3924 18.6046 59.3917 18.599C59.3913 18.5917 59.3909 18.5848 59.3899 18.5775C59.3899 18.5771 59.3899 18.5764 59.3899 18.5761C59.3895 18.573 59.3888 18.5695 59.3885 18.5664C59.3885 18.566 59.3885 18.5653 59.3885 18.565C59.3867 18.5546 59.3842 18.5445 59.3814 18.5344C59.3814 18.5334 59.3811 18.5324 59.3807 18.5313C59.3807 18.5306 59.3804 18.5296 59.38 18.5289C59.3761 18.5164 59.3712 18.5046 59.3659 18.4931C59.3648 18.4907 59.3638 18.4886 59.3627 18.4866C59.3574 18.4754 59.3514 18.465 59.3447 18.455C59.3447 18.4546 59.344 18.4539 59.344 18.4536C59.344 18.4536 59.344 18.4536 59.3437 18.4532C59.3377 18.4442 59.3306 18.4359 59.3236 18.4275C59.3222 18.4258 59.3207 18.4237 59.3193 18.422C59.3186 18.421 59.3176 18.4203 59.3169 18.4192C59.3169 18.4192 59.3165 18.4189 59.3162 18.4185C59.3077 18.4092 59.2985 18.4001 59.289 18.3921C59.289 18.3921 59.2886 18.3918 59.2883 18.3915C59.2883 18.3915 59.2879 18.3914 59.2876 18.3911C59.277 18.3824 59.2661 18.3744 59.2544 18.3672C59.2424 18.3599 59.2301 18.3529 59.217 18.3474C59.2079 18.3432 59.1983 18.3397 59.1885 18.3363C59.1885 18.3363 59.1881 18.3363 59.1878 18.3363C59.1789 18.3335 59.1698 18.3311 59.1606 18.329C59.1602 18.329 59.1599 18.329 59.1595 18.329C59.1588 18.329 59.1581 18.3286 59.1574 18.3283C59.1497 18.3265 59.1415 18.3255 59.1334 18.3245C59.1324 18.3245 59.1317 18.3245 59.1306 18.3241C59.1292 18.3241 59.1274 18.3234 59.126 18.3234C59.1154 18.3224 59.1048 18.3217 59.0939 18.3217C59.0939 18.3217 59.0932 18.3217 59.0929 18.3217H57.3156H46.3703C46.329 18.3217 46.2895 18.33 46.2535 18.3449C46.2415 18.3498 46.2302 18.356 46.219 18.3623C46.2161 18.364 46.2133 18.3654 46.2108 18.3672C46.1999 18.3737 46.1893 18.381 46.1794 18.389C46.172 18.3949 46.165 18.4015 46.1583 18.4081C46.1516 18.4147 46.1449 18.4216 46.1389 18.4289C46.1329 18.4362 46.1269 18.4439 46.1216 18.4515C46.1145 18.4619 46.1082 18.473 46.1025 18.4845C46.1011 18.4872 46.0997 18.49 46.0983 18.4931C46.0874 18.5164 46.0796 18.541 46.075 18.5667C46.0743 18.5699 46.074 18.5733 46.0736 18.5764C46.0718 18.5896 46.0704 18.6028 46.0704 18.6164V26.8391C46.0704 26.8391 46.0704 26.8402 46.0704 26.8409C46.0704 26.845 46.0708 26.8492 46.0711 26.853L46.0725 26.8548ZM58.7955 27.3178L58.3012 27.4285V18.9131H58.7955V27.3181V27.3178ZM57.317 18.9128H57.7015V27.4771L56.0043 27.3376C54.4768 27.2119 52.9492 27.0859 51.4217 26.9603C51.4217 26.9603 51.4217 26.9603 51.421 26.9603C49.8377 26.8301 48.2548 26.6996 46.6716 26.5695V18.9128H57.317Z" fill="#6194F6"/>
<path d="M57.3939 19.1637H46.927L46.9266 26.3369L57.3939 27.1734V19.1637Z" fill="#6194F6"/>
<path d="M54.1691 54.9846C54.1603 54.9631 54.1494 54.943 54.1367 54.9246C54.1321 54.9027 54.1254 54.8808 54.1155 54.8597C54.0873 54.7989 54.0559 54.7396 54.0224 54.6813C54.0047 54.6504 53.986 54.6198 53.967 54.59C53.7814 54.2988 53.5288 54.0423 53.2286 53.8396C53.0466 53.7167 52.8473 53.6129 52.6349 53.5331C52.3079 53.4099 51.9657 53.3492 51.6305 53.3492C51.282 53.3492 50.9409 53.4158 50.6322 53.5491C50.0268 53.8104 49.5283 54.3352 49.2645 54.9888C49.1675 55.2286 49.1061 55.4775 49.0796 55.7256C49.0659 55.8544 49.0613 55.9832 49.0666 56.1106C49.0701 56.1952 49.0775 56.2792 49.0891 56.3622C49.1033 56.4618 49.1241 56.5593 49.1502 56.6555C49.1784 56.7593 49.213 56.861 49.2553 56.9592C49.5132 57.5579 50.0399 58.0553 50.7006 58.3232C51.0464 58.4634 51.4111 58.5339 51.7678 58.5339C52.0927 58.5339 52.4116 58.4756 52.7033 58.3583C53.3154 58.1125 53.8273 57.6006 54.1085 56.954C54.3896 56.3074 54.4118 55.5896 54.1702 54.9843L54.1691 54.9846ZM52.4754 57.812C52.2493 57.9029 52.0077 57.9456 51.7646 57.9456C50.9525 57.9456 50.1252 57.469 49.8063 56.7291C49.3922 55.7673 49.9005 54.5091 50.8724 54.0895C51.1127 53.9857 51.372 53.9371 51.633 53.9371C52.4282 53.9371 53.2385 54.388 53.5691 55.104C53.5765 55.1203 53.5856 55.1356 53.5955 55.1502C53.599 55.1672 53.604 55.1842 53.6107 55.2008C53.9991 56.1727 53.4579 57.4177 52.4751 57.8123L52.4754 57.812Z" fill="#F0C104"/>
<path d="M52.9206 55.3945C52.6324 54.7705 51.7978 54.4564 51.1596 54.7319C50.5218 55.0075 50.1916 55.8246 50.4636 56.4556C50.7352 57.0869 51.5614 57.4218 52.2063 57.1629C52.8512 56.9036 53.2029 56.0956 52.9478 55.4577L52.9206 55.3945Z" fill="#F0C104"/>
<path d="M26.5079 33.2217C26.485 33.1283 26.4603 33.0364 26.4352 32.9465C26.3975 32.8115 26.3572 32.6806 26.316 32.5546C26.2828 32.4529 26.2482 32.3516 26.2126 32.2509C26.177 32.1503 26.1403 32.0503 26.1022 31.951C26.0263 31.7521 25.9456 31.556 25.8605 31.3624C25.8224 31.2759 25.7833 31.1902 25.7434 31.1048C25.7385 31.0944 25.7342 31.084 25.7293 31.0739C25.7254 31.066 25.7215 31.0583 25.7177 31.0503C25.6785 30.9674 25.6386 30.8848 25.5977 30.8029C25.5907 30.789 25.5836 30.7751 25.5765 30.7612C25.5388 30.6862 25.5 30.6113 25.4608 30.537C25.4559 30.5276 25.4513 30.5183 25.4464 30.5092C25.4443 30.5051 25.4418 30.5009 25.4397 30.4967C25.3966 30.4159 25.3525 30.3357 25.3077 30.2562C25.2979 30.2385 25.2876 30.2208 25.2777 30.2035C25.2315 30.1219 25.1846 30.041 25.1366 29.9608C25.0287 29.7807 24.9165 29.6033 24.7997 29.4288C24.683 29.2542 24.562 29.0827 24.4364 28.914C24.248 28.661 24.0497 28.4146 23.8419 28.1754C23.7756 28.0991 23.7079 28.0231 23.6398 27.9481C23.6137 27.9193 23.5865 27.8912 23.5601 27.8627C23.5177 27.8169 23.4754 27.7711 23.4324 27.726C23.3964 27.6881 23.3593 27.6513 23.323 27.6139C23.2888 27.5788 23.2546 27.5434 23.22 27.5087C23.177 27.4656 23.1332 27.4237 23.0895 27.381C23.0605 27.3528 23.0316 27.324 23.0023 27.2963C22.9533 27.2498 22.9036 27.2036 22.8538 27.1578C22.8291 27.1349 22.8044 27.1116 22.7794 27.0887C22.7251 27.0394 22.67 26.9905 22.6146 26.9419C22.5935 26.9235 22.5727 26.9044 22.5515 26.886C22.4922 26.8343 22.4319 26.7836 22.3716 26.733C22.3539 26.718 22.3363 26.7031 22.3187 26.6882C22.2544 26.6347 22.1895 26.5823 22.1243 26.5299C22.1098 26.5181 22.0953 26.5067 22.0809 26.4949C22.0121 26.44 21.9426 26.3862 21.8724 26.3328C21.8611 26.3241 21.8498 26.3151 21.8382 26.3064C21.7648 26.2509 21.6911 26.1957 21.6163 26.1415C21.6078 26.1353 21.5993 26.129 21.5905 26.1228C21.5133 26.0665 21.4349 26.011 21.3563 25.9562C21.3503 25.952 21.3439 25.9475 21.3379 25.9433C21.2568 25.8871 21.1746 25.8312 21.092 25.7764C21.0882 25.7736 21.0843 25.7712 21.0804 25.7684C20.9957 25.7122 20.91 25.657 20.8239 25.6021C20.8218 25.6008 20.8197 25.5994 20.8176 25.598C20.7297 25.5424 20.6412 25.4876 20.5516 25.4335C20.5509 25.4331 20.5502 25.4324 20.5491 25.4321C20.3678 25.3227 20.1833 25.2162 19.9956 25.1131C19.9953 25.1089 19.9946 25.1048 19.9938 25.1006C19.9314 24.5928 19.7903 24.0896 19.5783 23.6085C19.5769 23.605 19.5751 23.6012 19.5737 23.5977C19.5617 23.5707 19.5493 23.5439 19.537 23.5169C19.5342 23.5106 19.5314 23.5044 19.5282 23.4978C19.5165 23.4728 19.5045 23.4481 19.4926 23.4232C19.4887 23.4148 19.4844 23.4065 19.4806 23.3985C19.4693 23.3753 19.4576 23.352 19.4456 23.3291C19.4407 23.3194 19.4358 23.3097 19.4308 23.2999C19.4195 23.2781 19.4082 23.2562 19.3966 23.2343C19.391 23.2236 19.385 23.2128 19.3793 23.2021C19.368 23.1812 19.3567 23.1604 19.3451 23.1399C19.3387 23.1285 19.332 23.1167 19.3257 23.1052C19.3144 23.0854 19.3031 23.0657 19.2918 23.0459C19.2848 23.0334 19.2774 23.0212 19.2703 23.0087C19.259 22.99 19.2477 22.9709 19.2364 22.9522C19.2287 22.939 19.2206 22.9261 19.2124 22.9133C19.2012 22.8952 19.1902 22.8772 19.1786 22.8591C19.1701 22.8456 19.1613 22.8321 19.1525 22.8185C19.1412 22.8012 19.1302 22.7838 19.119 22.7668C19.1098 22.7529 19.1003 22.7387 19.0911 22.7248C19.0798 22.7082 19.0689 22.6915 19.0576 22.6752C19.0477 22.6606 19.0375 22.6464 19.0272 22.6318C19.0163 22.6158 19.005 22.6002 18.9941 22.5846C18.9831 22.5697 18.9726 22.5544 18.9616 22.5395C18.9507 22.5245 18.9397 22.5093 18.9288 22.4944C18.9172 22.4787 18.9055 22.4635 18.8939 22.4482C18.883 22.434 18.8724 22.4197 18.8614 22.4055C18.8491 22.3892 18.836 22.3732 18.8237 22.3573C18.8131 22.3441 18.8029 22.3305 18.7923 22.3173C18.7785 22.3003 18.7644 22.2833 18.7507 22.2663C18.7408 22.2545 18.7313 22.2424 18.7214 22.2306C18.7052 22.2111 18.6886 22.192 18.6723 22.1726C18.6642 22.1632 18.6565 22.1539 18.6484 22.1445C18.6237 22.116 18.5986 22.0876 18.5736 22.0595C17.7467 21.1414 16.6573 20.5049 15.5065 20.2671C15.243 20.2126 15.0109 20.1873 14.8066 20.1845C14.7382 20.1835 14.6729 20.1852 14.6105 20.189C14.548 20.1928 14.4888 20.1991 14.4323 20.2071C14.3759 20.2154 14.3222 20.2255 14.2711 20.2376C14.2372 20.2456 14.2044 20.2543 14.1727 20.264C14.125 20.2782 14.0802 20.2942 14.0379 20.3115C13.9674 20.3403 13.9035 20.373 13.8456 20.4087C13.834 20.4157 13.8227 20.4229 13.8118 20.4302C13.7896 20.4448 13.7687 20.4597 13.7483 20.475C13.738 20.4826 13.7282 20.4903 13.7186 20.4983C13.6897 20.5219 13.6629 20.5458 13.6379 20.5705C13.5878 20.6194 13.5454 20.6701 13.5094 20.7207C13.4967 20.7384 13.4848 20.7568 13.4731 20.7752C13.4696 20.7811 13.4661 20.787 13.4625 20.7929C13.4548 20.8058 13.447 20.8186 13.44 20.8318C13.4361 20.8391 13.4322 20.846 13.4287 20.8533C13.4223 20.8655 13.416 20.8776 13.41 20.8901C13.4064 20.8978 13.4029 20.9057 13.3994 20.9134C13.3937 20.9255 13.3884 20.938 13.3832 20.9505C13.38 20.9585 13.3768 20.9665 13.3736 20.9745C13.3687 20.9873 13.3638 21.0005 13.3595 21.0137C13.3567 21.0213 13.3542 21.0293 13.3514 21.0369C13.3468 21.0512 13.3426 21.0658 13.3384 21.0803C13.3362 21.0873 13.3345 21.0939 13.3324 21.1008C13.3274 21.1189 13.3232 21.1369 13.3193 21.1553C13.3186 21.1591 13.3175 21.1626 13.3168 21.1664C13.3119 21.1893 13.3077 21.2122 13.3041 21.2358C13.3041 21.2362 13.3041 21.2369 13.3041 21.2372C13.3006 21.2594 13.2978 21.2823 13.2953 21.3049C13.2946 21.3104 13.2943 21.316 13.2939 21.3219C13.2921 21.3399 13.2907 21.358 13.2897 21.376C13.2893 21.383 13.289 21.3903 13.2886 21.3972C13.2879 21.4142 13.2872 21.4316 13.2872 21.4489C13.2872 21.4566 13.2872 21.4639 13.2872 21.4715C13.2872 21.4888 13.2872 21.5065 13.2879 21.5242C13.2879 21.5315 13.2883 21.5388 13.2886 21.5461C13.2893 21.5649 13.2907 21.5836 13.2921 21.6023C13.2925 21.6089 13.2932 21.6152 13.2936 21.6218C13.2953 21.6433 13.2978 21.6648 13.3003 21.6863C13.3006 21.6905 13.301 21.6943 13.3017 21.6985C13.3084 21.7519 13.3172 21.8061 13.3285 21.8613C13.3144 21.8689 13.3003 21.8769 13.2865 21.8852C13.2833 21.8873 13.2798 21.8894 13.2766 21.8915C13.2643 21.8991 13.2523 21.9074 13.2403 21.9158C13.2389 21.9168 13.2375 21.9175 13.2364 21.9185C13.2233 21.9279 13.2106 21.938 13.1979 21.948C13.1951 21.9505 13.1923 21.9526 13.1898 21.955C13.1793 21.9637 13.169 21.9727 13.1591 21.9817C13.157 21.9838 13.1546 21.9859 13.1524 21.988C13.1408 21.9991 13.1292 22.0102 13.1182 22.022C13.1161 22.0241 13.1143 22.0261 13.1122 22.0282C13.1031 22.0383 13.0939 22.0483 13.0851 22.0588C13.0826 22.0615 13.0801 22.0643 13.0777 22.0674C13.0674 22.0799 13.0572 22.0924 13.0477 22.1053C13.047 22.1063 13.0459 22.1077 13.0452 22.1087C13.0364 22.1205 13.0279 22.1327 13.0198 22.1448C13.0177 22.1483 13.0152 22.1514 13.0131 22.1549C13.005 22.1674 12.9969 22.1802 12.9891 22.1931C12.9888 22.1938 12.988 22.1948 12.9877 22.1955C12.9796 22.2094 12.9718 22.2233 12.9644 22.2372C12.9626 22.2406 12.9609 22.2441 12.9588 22.2479C12.9528 22.2597 12.9471 22.2715 12.9415 22.2837C12.9401 22.2864 12.939 22.2892 12.9376 22.292C12.9312 22.3062 12.9253 22.3208 12.9196 22.335C12.9182 22.3385 12.9171 22.3416 12.9157 22.3451C12.9111 22.3569 12.9069 22.3687 12.903 22.3809C12.902 22.3847 12.9006 22.3881 12.8995 22.392C12.8949 22.4065 12.8903 22.4211 12.8864 22.436C12.8857 22.4385 12.8854 22.4409 12.8847 22.4437C12.8815 22.4562 12.8787 22.469 12.8759 22.4815C12.8752 22.4857 12.8741 22.4895 12.8734 22.4937C12.8706 22.5082 12.8677 22.5232 12.866 22.5377C12.866 22.5377 12.866 22.5377 12.866 22.5381C12.8603 22.5794 12.8568 22.6203 12.8558 22.661C12.855 22.6811 12.855 22.7016 12.8558 22.7213C12.8593 22.9018 12.902 23.0729 12.9521 23.2281C12.9577 23.2454 12.9634 23.2624 12.969 23.2791C12.9859 23.3294 13.0036 23.378 13.0201 23.4245L18.0059 37.2802L18.3855 38.3353L18.4723 38.5769L18.502 38.6588C18.6226 38.9937 18.7524 39.2707 18.8875 39.4994C19.3599 40.2998 19.8975 40.5081 20.3286 40.5081C20.3667 40.5081 20.4041 40.5063 20.4405 40.5035C20.4563 40.5022 20.4719 40.5004 20.4877 40.4987C20.765 40.4657 21.006 40.3501 21.2205 40.2425C21.2243 40.2405 21.2282 40.2387 21.2321 40.2366C21.2384 40.2335 21.2444 40.2304 21.2508 40.2273L22.7564 39.4717L23.5093 39.094C23.764 38.9663 24.0374 38.8292 24.3125 38.6751C24.3517 38.6532 24.3912 38.6307 24.4304 38.6081C24.4875 38.5751 24.5447 38.5415 24.6018 38.5068C24.7158 38.4377 24.829 38.3652 24.9405 38.2888C25.3582 38.0028 25.7487 37.6627 26.0479 37.2413C26.2391 36.972 26.3837 36.686 26.4895 36.3906C26.5248 36.292 26.5559 36.1924 26.5827 36.0921C26.6095 35.9918 26.6324 35.8904 26.6515 35.7887C26.8141 34.9238 26.7072 34.0172 26.5111 33.2234L26.5079 33.2217ZM14.7675 20.7732C14.9484 20.7732 15.1541 20.7964 15.3816 20.8433C16.4072 21.055 17.3808 21.6256 18.1231 22.4496C18.7362 23.1302 19.1556 23.9441 19.3342 24.7858C18.769 24.7921 18.2564 25.119 17.8317 25.3901C17.4147 25.6563 16.9335 25.9093 16.5257 25.7694C16.5021 25.7615 16.4791 25.7517 16.4562 25.741C16.4964 25.7309 16.5317 25.7035 16.55 25.6636C16.8446 25.0159 16.5853 24.2704 16.2449 23.7886C15.9704 23.4006 15.6127 23.0823 15.2666 22.7748C15.1499 22.671 15.0296 22.5638 14.9149 22.4565C14.5794 22.1417 14.1261 21.662 13.9861 21.0789C13.9906 21.072 13.9949 21.0651 13.9995 21.0585C14.1342 20.8696 14.3995 20.7732 14.7682 20.7732H14.7675ZM13.8968 21.6332C14.118 22.0598 14.4535 22.4076 14.7195 22.6575C14.837 22.7675 14.9587 22.8761 15.0768 22.981C15.4113 23.2781 15.7566 23.5856 16.0128 23.9476C16.3094 24.3669 16.5384 25.0083 16.2922 25.5508C16.2798 25.5775 16.2773 25.6063 16.2823 25.633C16.0932 25.4828 15.9362 25.2499 15.7725 24.9889L14.3117 22.662C14.0767 22.2878 13.936 21.9314 13.8968 21.6336V21.6332ZM20.9756 39.6997C20.7816 39.7969 20.5812 39.8975 20.3883 39.9135C20.0337 39.9427 19.5165 39.7139 19.0653 38.4596L14.4147 25.5362L19.3193 36.9341C19.6767 37.7643 20.0595 38.5408 20.8098 38.9198C21.0765 39.0545 21.4424 39.1641 21.9274 39.1641C21.9669 39.1641 22.0071 39.1631 22.0484 39.1617L20.9763 39.6997H20.9756ZM25.5533 36.9015C25.0005 37.6797 24.0621 38.1507 23.2338 38.5665L22.8524 38.7577C21.8674 39.0041 21.2547 38.8327 20.9382 38.6727C20.2722 38.3363 19.9152 37.6071 19.579 36.8258L13.4597 22.6058C13.4692 22.5513 13.4929 22.4985 13.5236 22.4565C13.5987 22.6242 13.6911 22.7963 13.8012 22.9719L15.262 25.2988C15.5414 25.7441 15.8332 26.1575 16.3281 26.3272C16.4749 26.3775 16.6224 26.3994 16.7684 26.3994C17.2746 26.3994 17.7646 26.1363 18.1605 25.8836C18.5782 25.6171 19.0092 25.3422 19.4255 25.3793C19.4283 25.388 19.4312 25.3967 19.4347 25.405C19.4347 25.405 19.4347 25.4054 19.4347 25.4057C19.4379 25.4137 19.4418 25.4217 19.4456 25.4293C19.4467 25.4317 19.4481 25.4338 19.4495 25.4362C19.4527 25.4418 19.4555 25.447 19.459 25.4522C19.4612 25.4553 19.4633 25.4585 19.4654 25.4616C19.4682 25.4657 19.471 25.4696 19.4742 25.4737C19.477 25.4772 19.4799 25.4807 19.4827 25.4841C19.4855 25.4873 19.4883 25.4907 19.4915 25.4939C19.4947 25.4973 19.4982 25.5008 19.5017 25.5043C19.5045 25.507 19.5077 25.5098 19.5109 25.5126C19.5144 25.5157 19.518 25.5192 19.5218 25.5223C19.5264 25.5258 19.531 25.5293 19.5356 25.5327C19.5402 25.5362 19.5448 25.5393 19.5497 25.5425C19.5553 25.5459 19.5606 25.5494 19.5666 25.5525C19.5677 25.5529 19.5684 25.5536 19.5695 25.5543C20.226 25.9065 20.8409 26.2984 21.4117 26.7267C22.1451 27.2779 22.8055 27.8898 23.3858 28.5579C23.8053 29.0407 24.1827 29.5541 24.5179 30.0938C24.5747 30.1854 24.6304 30.2781 24.6851 30.3714C24.7645 30.5075 24.8421 30.6446 24.9162 30.7838C25.0103 30.9608 25.1003 31.1406 25.186 31.3228C25.2717 31.505 25.3529 31.6897 25.4298 31.8771C25.5452 32.1579 25.6503 32.4442 25.7455 32.7358C26.1435 33.9527 26.4331 35.6634 25.5536 36.9018L25.5533 36.9015Z" fill="#FE9B9B"/>
<path d="M72.1827 65.2843L67.8005 58.882C67.7447 58.8008 67.6516 58.7519 67.5521 58.7519L66.6388 58.7508C66.6945 58.832 66.7499 58.9133 66.8056 58.9945L66.8409 59.0462L67.0431 59.3416L68.1935 61.0221H68.1945L68.2831 61.152C68.2831 61.152 68.2834 61.1526 68.2838 61.153C68.3113 61.1943 68.3392 61.2349 68.3674 61.2755L68.4012 61.3251C68.4069 61.3335 68.4122 61.3422 68.4171 61.3512C68.4185 61.3536 68.4192 61.356 68.4206 61.3581C68.4238 61.3644 68.427 61.3706 68.4298 61.3769C68.4316 61.3807 68.4326 61.3849 68.4341 61.3887C68.4358 61.3935 68.4379 61.3987 68.4393 61.4036C68.4411 61.4088 68.4422 61.414 68.4436 61.4196C68.4446 61.4237 68.4457 61.4275 68.4468 61.4317C68.4482 61.4386 68.4492 61.4456 68.4499 61.4525C68.4499 61.455 68.4506 61.4574 68.451 61.4598C68.452 61.4699 68.4524 61.4803 68.4524 61.4904V64.9206C68.4524 65.0108 68.4111 65.0914 68.3466 65.1455C68.2944 65.1892 68.2266 65.2156 68.1525 65.2156H19.409C19.3987 65.2156 19.3885 65.2153 19.3783 65.2142C19.2876 65.2052 19.2089 65.1563 19.1602 65.0858C19.1514 65.073 19.144 65.0594 19.1373 65.0452C19.1359 65.0421 19.1341 65.039 19.1327 65.0358C19.1176 65.0004 19.1091 64.9619 19.1091 64.9209V63.1133L17.4736 65.1545C17.4027 65.243 17.3893 65.3642 17.439 65.4655C17.4891 65.5672 17.5936 65.6318 17.7082 65.6321L71.9333 65.7428H71.934C72.0447 65.7428 72.1463 65.6828 72.1985 65.5867C72.2507 65.4905 72.2448 65.3735 72.1827 65.283V65.2843Z" fill="#231815"/>
<path d="M17.4242 42.9491C17.4299 42.9928 17.4359 43.0366 17.4422 43.0796C17.4461 43.1056 17.4507 43.1313 17.4546 43.157C17.4606 43.1948 17.4666 43.2327 17.4733 43.2705C17.4782 43.2986 17.4838 43.3264 17.4891 43.3545C17.4958 43.3892 17.5022 43.4243 17.5089 43.4586C17.5149 43.4881 17.5212 43.5173 17.5276 43.5464C17.5346 43.5794 17.5417 43.612 17.5491 43.6447C17.5562 43.6749 17.5632 43.7047 17.5706 43.7346C17.578 43.7658 17.5854 43.797 17.5936 43.8279C17.6013 43.8588 17.6098 43.8894 17.6179 43.9202C17.626 43.9497 17.6338 43.9793 17.6419 44.0088C17.6507 44.0403 17.6602 44.0716 17.6694 44.1028C17.6779 44.1309 17.686 44.1587 17.6948 44.1865C17.7047 44.2184 17.7149 44.2503 17.7255 44.2823C17.734 44.3086 17.7428 44.3354 17.7516 44.3614C17.7625 44.394 17.7742 44.4263 17.7855 44.4586C17.7943 44.4836 17.8031 44.5086 17.8123 44.5332C17.8246 44.5662 17.837 44.5991 17.8497 44.6321C17.8588 44.6554 17.8677 44.6786 17.8772 44.7019C17.8906 44.7355 17.9044 44.7689 17.9181 44.8022C17.9273 44.8237 17.9365 44.8456 17.9456 44.8671C17.9604 44.9015 17.9753 44.9355 17.9908 44.9695C17.9996 44.9893 18.0088 45.0091 18.0179 45.0288C18.0342 45.0639 18.0504 45.0989 18.0673 45.1337C18.0758 45.1514 18.0846 45.1691 18.0934 45.1868C18.1114 45.2229 18.1294 45.2586 18.1478 45.2944C18.1559 45.3096 18.164 45.3249 18.1721 45.3402C18.1919 45.3773 18.2116 45.4144 18.2321 45.4512C18.2391 45.4641 18.2465 45.4766 18.2536 45.4894C18.2755 45.5283 18.2973 45.5668 18.3199 45.6047C18.3256 45.6144 18.3316 45.6237 18.3372 45.6331C18.3616 45.6737 18.3862 45.7143 18.4116 45.7542C18.4152 45.7598 18.4187 45.765 18.4222 45.7706C18.847 46.437 19.3846 46.9899 20.0111 47.3883L19.1126 49.3257C19.1126 49.3257 19.1126 49.3257 19.1126 49.3261C19.1087 49.3344 19.1056 49.3428 19.1024 49.3511C19.1013 49.3542 19.1003 49.3573 19.0992 49.3608C19.0974 49.366 19.096 49.3712 19.0946 49.3768C19.0936 49.3809 19.0925 49.3851 19.0918 49.3893C19.0911 49.3934 19.0904 49.3976 19.0897 49.4018C19.089 49.4066 19.0883 49.4115 19.0876 49.4163C19.0876 49.4188 19.0872 49.4212 19.0869 49.4236C19.0844 49.4528 19.0865 49.4819 19.0925 49.5101C19.0904 49.5208 19.089 49.5316 19.0883 49.5423C19.0883 49.5444 19.0883 49.5465 19.0879 49.5486C19.0872 49.5576 19.0872 49.5666 19.0876 49.5756C19.0876 49.5781 19.0876 49.5805 19.0876 49.5826C19.0879 49.592 19.089 49.6013 19.0904 49.6107C19.0904 49.6124 19.0907 49.6138 19.0911 49.6156C19.0929 49.6267 19.0953 49.6378 19.0989 49.6485C19.0989 49.6485 19.0989 49.6492 19.0989 49.6496C19.102 49.6596 19.1056 49.6694 19.1098 49.6791C19.1109 49.6819 19.1123 49.685 19.1137 49.6878C19.1169 49.695 19.1204 49.702 19.1246 49.7089C19.1264 49.7121 19.1281 49.7155 19.1303 49.7186C19.1345 49.7252 19.1391 49.7318 19.1437 49.7384C19.1458 49.7412 19.1475 49.744 19.1497 49.7468C19.1567 49.7558 19.1641 49.7645 19.1726 49.7728C20.1875 50.7915 21.4893 51.6217 22.9431 52.1913C23.0694 52.2409 23.1971 52.2885 23.3258 52.3339C23.39 52.3568 23.4546 52.3791 23.5195 52.4006C23.9086 52.5311 24.3066 52.6432 24.7115 52.7355C25.0033 52.8021 25.2972 52.8584 25.5917 52.9038C25.6506 52.9129 25.7096 52.9215 25.7688 52.9299C25.887 52.9465 26.0052 52.9615 26.1234 52.9746C26.2415 52.9878 26.3601 52.9996 26.4783 53.0094C26.8331 53.0392 27.188 53.0541 27.5412 53.0541C27.6093 53.0541 27.6773 53.0534 27.7451 53.0524C27.7652 53.0524 27.7856 53.0517 27.8058 53.051C27.8558 53.05 27.9059 53.0486 27.956 53.0468C27.9765 53.0461 27.9966 53.0455 28.0171 53.0448C28.0837 53.0423 28.1504 53.0392 28.2171 53.0357C28.2182 53.0357 28.2189 53.0357 28.2199 53.0357C28.2873 53.0319 28.3543 53.0278 28.4214 53.0229C28.4418 53.0215 28.4619 53.0198 28.4824 53.0184C28.5314 53.0146 28.5805 53.0107 28.6295 53.0062C28.6499 53.0045 28.6704 53.0028 28.6912 53.0007C28.7554 52.9948 28.8196 52.9882 28.8838 52.9812C28.8863 52.9812 28.8891 52.9806 28.8916 52.9806C28.9576 52.9733 29.0235 52.9653 29.0892 52.9566C29.1096 52.9538 29.1301 52.951 29.1505 52.9486C29.1982 52.9424 29.2458 52.9358 29.2934 52.9288C29.3142 52.9257 29.335 52.9229 29.3559 52.9198C29.4176 52.9104 29.479 52.9007 29.54 52.8907C29.5442 52.89 29.5488 52.8893 29.5531 52.8886C29.6176 52.8778 29.6815 52.866 29.7457 52.8542C29.7661 52.8504 29.7866 52.8462 29.8071 52.8424C29.8533 52.8334 29.8995 52.8244 29.9457 52.8146C29.9665 52.8105 29.987 52.8063 30.0078 52.8018C30.0671 52.7893 30.126 52.7765 30.1849 52.7629C30.1898 52.7619 30.1951 52.7608 30.2001 52.7595C30.1852 52.781 30.1704 52.8022 30.1552 52.8237C30.1316 52.858 30.1073 52.8917 30.0836 52.9264C30.0822 52.9281 30.0815 52.9302 30.0801 52.932C30.0769 52.9368 30.0741 52.9417 30.0713 52.9465C30.0692 52.95 30.0671 52.9538 30.0653 52.9576C30.0639 52.9608 30.0625 52.9635 30.0611 52.9667C30.0604 52.9684 30.0593 52.9705 30.0582 52.9722C30.0572 52.9747 30.0561 52.9771 30.0551 52.9795C30.0544 52.9812 30.0537 52.9826 30.0529 52.9844C30.0522 52.9865 30.0515 52.9882 30.0508 52.9903C30.0498 52.993 30.0487 52.9958 30.0477 52.9986C30.0469 53.0003 30.0466 53.0021 30.0462 53.0038C30.0452 53.0066 30.0445 53.0094 30.0438 53.0121C30.0427 53.0156 30.042 53.0194 30.041 53.0232C30.041 53.0243 30.0406 53.0253 30.0402 53.026C30.0392 53.0309 30.0381 53.0357 30.0374 53.0406C30.0374 53.0406 30.0374 53.043 30.0371 53.0441C30.0367 53.0472 30.036 53.0507 30.0357 53.0538C30.035 53.059 30.0342 53.0645 30.0339 53.0698C30.0339 53.0739 30.0335 53.0781 30.0332 53.0822C30.0332 53.0878 30.0332 53.0937 30.0332 53.0993C30.0332 53.1013 30.0332 53.1038 30.0332 53.1059C30.0332 53.1079 30.0335 53.1097 30.0339 53.1117C30.0342 53.1173 30.035 53.1225 30.0357 53.1277C30.0364 53.1322 30.0367 53.1367 30.0378 53.1413C30.0381 53.1433 30.0385 53.1454 30.0392 53.1475C30.0399 53.1503 30.0402 53.1527 30.041 53.1555C30.0417 53.159 30.0427 53.1624 30.0438 53.1662C30.0438 53.1676 30.0445 53.1687 30.0448 53.1701C30.0455 53.1725 30.0462 53.1746 30.0469 53.1767C30.0477 53.1787 30.0484 53.1808 30.0491 53.1829C30.0501 53.1864 30.0515 53.1898 30.0526 53.1933C30.0529 53.1944 30.0533 53.1957 30.054 53.1968C30.0558 53.2013 30.0579 53.2058 30.06 53.2103C30.0618 53.2141 30.0635 53.2183 30.0656 53.2221C30.0685 53.2273 30.0713 53.2325 30.0745 53.2377C30.0755 53.2395 30.0766 53.2416 30.0776 53.2433C30.0783 53.2443 30.0787 53.245 30.0794 53.2461C30.0805 53.2478 30.0815 53.2492 30.0826 53.2506C30.0854 53.2547 30.0882 53.2593 30.0914 53.2634C30.0928 53.2652 30.0939 53.2669 30.0953 53.2686C30.0999 53.2749 30.1052 53.2804 30.1101 53.2863C30.1112 53.2877 30.1122 53.2888 30.1136 53.2901C30.1154 53.2922 30.1175 53.294 30.1193 53.2957C30.1228 53.2992 30.1267 53.303 30.1306 53.3065C30.132 53.3075 30.133 53.3089 30.1344 53.3099C30.1397 53.3144 30.1454 53.319 30.151 53.3235C30.1514 53.3235 30.1517 53.3242 30.1521 53.3245C30.1521 53.3245 30.1538 53.3259 30.1545 53.3266C30.1556 53.3273 30.1563 53.328 30.1574 53.3287C30.1602 53.3308 30.163 53.3328 30.1658 53.3349C30.168 53.3363 30.1704 53.3374 30.1725 53.3387C30.1814 53.3443 30.1902 53.3492 30.1993 53.3537C30.2043 53.3561 30.2092 53.3582 30.2145 53.3606C30.2198 53.3627 30.2251 53.3648 30.2304 53.3665C30.2332 53.3676 30.236 53.3689 30.2392 53.3696C30.2403 53.37 30.2417 53.3703 30.2431 53.3707C30.247 53.3717 30.2505 53.3731 30.2544 53.3741C30.2611 53.3759 30.2678 53.3773 30.2745 53.3787C30.278 53.3794 30.2812 53.3804 30.2847 53.3807C30.289 53.3814 30.2935 53.3818 30.2981 53.3825C30.3002 53.3825 30.3024 53.3825 30.3045 53.3828C30.3119 53.3835 30.3196 53.3842 30.3271 53.3846C30.3292 53.3846 30.3313 53.3849 30.3334 53.3849C30.3359 53.3849 30.3383 53.3846 30.3408 53.3846C30.3436 53.3846 30.3465 53.3846 30.3493 53.3846C30.4555 53.379 30.5613 53.3738 30.6675 53.3693C30.7024 53.3675 30.737 53.3665 30.7719 53.3648C30.8435 53.3617 30.9148 53.3589 30.9864 53.3561C31.0277 53.3547 31.0689 53.3533 31.1102 53.3516C31.1755 53.3492 31.2407 53.3471 31.3064 53.345C31.3498 53.3436 31.3931 53.3426 31.4362 53.3412C31.5 53.3394 31.5635 53.3377 31.6274 53.3363C31.6711 53.3353 31.7152 53.3342 31.759 53.3335C31.8228 53.3321 31.8867 53.3311 31.9505 53.3301C31.9936 53.3294 32.0366 53.3287 32.0793 53.328C32.1456 53.3269 32.2116 53.3266 32.2779 53.3259C32.3185 53.3256 32.3591 53.3252 32.3993 53.3249C32.4716 53.3245 32.5443 53.3242 32.6166 53.3242C32.6508 53.3242 32.6847 53.3242 32.7189 53.3242C32.8184 53.3242 32.9178 53.3245 33.0173 53.3256C33.024 53.3256 33.0311 53.3256 33.0378 53.3256C33.1457 53.3262 33.2537 53.3276 33.362 53.3294C33.3874 53.3297 33.4131 53.3304 33.4385 53.3308C33.5197 53.3321 33.6012 53.3335 33.6823 53.3353C33.7179 53.336 33.7536 53.337 33.7892 53.338C33.8608 53.3398 33.9324 53.3415 34.0037 53.3436C34.0425 53.3446 34.081 53.346 34.1198 53.3471C34.1886 53.3492 34.2577 53.3516 34.3265 53.354C34.366 53.3554 34.4055 53.3568 34.445 53.3585C34.5142 53.3613 34.5833 53.3641 34.6521 53.3672C34.6902 53.3689 34.7287 53.3707 34.7668 53.3724C34.8384 53.3759 34.9103 53.3794 34.9819 53.3828C35.0172 53.3846 35.0525 53.3863 35.0878 53.3884C35.1668 53.3925 35.2458 53.3971 35.3248 53.4016C35.3524 53.4033 35.3799 53.4047 35.4074 53.4064C35.5122 53.4127 35.6169 53.4193 35.7214 53.4262C35.7231 53.4262 35.7249 53.4262 35.727 53.4266C35.8381 53.4342 35.9496 53.4418 36.0607 53.4502C36.066 53.4505 36.0713 53.4508 36.0766 53.4515C36.1786 53.4592 36.2802 53.4672 36.3818 53.4755C36.4065 53.4776 36.4315 53.4797 36.4562 53.4817C36.5388 53.4887 36.621 53.4956 36.7035 53.5029C36.7342 53.5057 36.7652 53.5085 36.7959 53.5112C36.8728 53.5182 36.9497 53.5255 37.0266 53.5328C37.0591 53.5359 37.0919 53.539 37.1244 53.5421C37.2002 53.5494 37.2761 53.5571 37.3519 53.565C37.384 53.5685 37.4165 53.5716 37.4486 53.5751C37.5269 53.5834 37.6049 53.5918 37.6832 53.6004C37.7121 53.6036 37.741 53.6067 37.7699 53.6102C37.856 53.6199 37.9417 53.6296 38.0275 53.6397C38.0483 53.6421 38.0691 53.6445 38.0899 53.647C38.4169 53.6858 38.744 53.7282 39.0699 53.7743C39.084 53.7764 39.0982 53.7785 39.1119 53.7802C39.2047 53.7934 39.2975 53.8066 39.3899 53.8205C39.4135 53.824 39.4375 53.8278 39.4612 53.8313C39.5444 53.8438 39.6277 53.8562 39.7109 53.8691C39.7384 53.8733 39.7656 53.8778 39.7931 53.8819C39.8736 53.8944 39.954 53.9073 40.0348 53.9205C40.0626 53.925 40.0902 53.9295 40.118 53.934C40.1999 53.9475 40.2814 53.9611 40.3632 53.9749C40.3886 53.9791 40.4137 53.9836 40.4391 53.9878C40.5266 54.0027 40.614 54.018 40.7015 54.0336C40.7206 54.0371 40.7393 54.0402 40.7583 54.0437C40.8638 54.0624 40.9693 54.0819 41.0748 54.1013C41.0748 54.1013 41.0748 54.1013 41.0751 54.1013C40.9382 54.2616 40.8014 54.422 40.6648 54.5823C40.6038 54.6542 40.5424 54.7257 40.4814 54.7975C40.3897 54.9051 40.2976 55.0131 40.2059 55.1207C40.1914 55.1377 40.1769 55.1547 40.1625 55.1717C39.3056 55.1703 38.3591 55.1693 37.359 55.1679C37.2009 55.1679 37.0415 55.1675 36.8806 55.1672L39.9201 57.5805C39.9237 57.5874 39.9275 57.594 39.9314 57.6003C39.9314 57.6003 39.9314 57.6006 39.9318 57.6009C39.9388 57.6124 39.9469 57.6232 39.9554 57.6336C39.9596 57.6388 39.9642 57.6436 39.9692 57.6488C39.9737 57.6537 39.9783 57.6582 39.9833 57.6627C39.9872 57.6665 39.9907 57.6707 39.9946 57.6742C40.051 57.7214 40.1198 57.7443 40.1886 57.7443C40.2253 57.7443 40.2613 57.7373 40.2958 57.7245C41.7468 57.7436 43.1981 57.7627 44.6491 57.7818L45.808 58.7231L46.1717 59.0184L46.5354 59.3138L46.8561 59.5741L46.8571 59.5752C46.8596 59.5769 46.8621 59.5786 46.8642 59.5804C46.8681 59.5835 46.8723 59.5866 46.8762 59.5894C46.8769 59.5897 46.8776 59.5904 46.8779 59.5908C46.8808 59.5925 46.8836 59.5943 46.8861 59.596C46.8861 59.596 46.8864 59.596 46.8868 59.5963C46.891 59.5988 46.8949 59.6015 46.8991 59.604C46.8998 59.6043 46.9005 59.6047 46.9009 59.605C46.9048 59.6071 46.9086 59.6088 46.9125 59.6109C46.9143 59.6116 46.9157 59.6126 46.9175 59.6133C46.9203 59.6147 46.9228 59.6161 46.9256 59.6172C46.9298 59.6189 46.934 59.6206 46.9379 59.622C46.9415 59.6234 46.945 59.6248 46.9489 59.6262C46.9503 59.6265 46.9513 59.6272 46.9527 59.6276C46.9563 59.6286 46.9601 59.6297 46.964 59.6307C46.9683 59.6317 46.9725 59.6331 46.9767 59.6342C46.9781 59.6342 46.9792 59.6349 46.9806 59.6352C46.981 59.6352 46.9813 59.6352 46.9817 59.6352C46.9845 59.6359 46.9877 59.6362 46.9905 59.6369C46.9958 59.638 47.0007 59.6387 47.006 59.6394C47.0081 59.6394 47.0099 59.6401 47.012 59.6404C47.0127 59.6404 47.0134 59.6404 47.0141 59.6404C47.0152 59.6404 47.0166 59.6404 47.018 59.6404C47.0251 59.6411 47.0321 59.6415 47.0392 59.6415C47.0413 59.6415 47.0431 59.6415 47.0452 59.6415C47.0452 59.6415 47.0459 59.6415 47.0462 59.6415C47.0466 59.6415 47.0469 59.6415 47.0473 59.6415C47.0476 59.6415 47.048 59.6415 47.0483 59.6415C49.0729 59.6539 51.379 59.6664 53.6093 59.6786C55.7831 59.6904 57.9495 59.7022 59.8827 59.714H59.8845C59.888 59.714 59.8915 59.7136 59.8954 59.7133C59.9007 59.7133 59.9057 59.7133 59.911 59.7126C59.9152 59.7123 59.9194 59.7116 59.9237 59.7112C59.9254 59.7112 59.9268 59.7109 59.9286 59.7105C59.9318 59.7102 59.9349 59.7095 59.9378 59.7091C59.9427 59.7084 59.9473 59.7074 59.9519 59.7064C59.9558 59.7053 59.9596 59.7043 59.9639 59.7032C59.9653 59.7029 59.9667 59.7025 59.9678 59.7022C59.9678 59.7022 59.9681 59.7022 59.9685 59.7022C59.9716 59.7012 59.9748 59.7005 59.9776 59.6994C59.9815 59.6984 59.985 59.6966 59.9886 59.6956C59.9914 59.6946 59.9942 59.6935 59.997 59.6925C60.0058 59.689 60.0143 59.6852 60.0228 59.6807C60.0235 59.6807 60.0238 59.68 60.0245 59.68C60.0295 59.6772 60.0344 59.6744 60.0394 59.6716C60.0422 59.6699 60.045 59.6685 60.0478 59.6668C60.0485 59.6661 60.0496 59.6658 60.0503 59.6651C60.0538 59.6626 60.0574 59.6599 60.0609 59.6574C60.063 59.6557 60.0655 59.6543 60.0676 59.6529C60.0683 59.6526 60.0686 59.6519 60.0694 59.6512C60.0708 59.6501 60.0722 59.6491 60.0736 59.6481C60.0775 59.6449 60.0813 59.6415 60.0852 59.638C60.0877 59.6359 60.0902 59.6338 60.0923 59.6317C60.0933 59.631 60.094 59.63 60.0951 59.6293C60.0986 59.6258 60.1015 59.6224 60.105 59.6189C60.1078 59.6161 60.1106 59.613 60.1131 59.6102C60.1156 59.6071 60.118 59.604 60.1205 59.6012C60.1205 59.6012 60.1209 59.6005 60.1212 59.6005C60.1216 59.5998 60.1223 59.5991 60.1226 59.5984C60.1254 59.5949 60.1283 59.5911 60.1311 59.5877C60.1311 59.5877 60.1311 59.5877 60.1311 59.5873C60.1329 59.5849 60.1343 59.5821 60.136 59.5797C60.1371 59.5783 60.1378 59.5769 60.1388 59.5755C60.1413 59.5717 60.1441 59.5675 60.1463 59.5637C60.1463 59.5637 60.1463 59.5634 60.1463 59.563C60.147 59.5616 60.1477 59.5602 60.1484 59.5585C60.1498 59.5554 60.1515 59.5526 60.153 59.5495C60.1547 59.5457 60.1568 59.5418 60.1586 59.538C60.1586 59.538 60.1586 59.538 60.1586 59.5377C60.1586 59.537 60.1593 59.5359 60.1597 59.5352C60.1614 59.5311 60.1632 59.5266 60.1646 59.5224C60.166 59.5189 60.1674 59.5151 60.1688 59.5116C60.1688 59.5113 60.1692 59.5106 60.1692 59.5103C60.1706 59.5061 60.1717 59.5019 60.1727 59.4978C60.1727 59.4967 60.1734 59.4957 60.1734 59.495C60.1745 59.4915 60.1755 59.4884 60.1762 59.4849C60.1762 59.4839 60.1766 59.4828 60.1769 59.4821C60.1773 59.4804 60.1777 59.4787 60.178 59.4769C60.1787 59.4728 60.1794 59.4686 60.1801 59.4644C60.1805 59.462 60.1808 59.4599 60.1812 59.4575C60.1812 59.4558 60.1815 59.4544 60.1819 59.4526C60.1819 59.4523 60.1819 59.4516 60.1819 59.4513C60.1822 59.4464 60.1826 59.4415 60.1829 59.4367C60.1829 59.4339 60.1833 59.4315 60.1837 59.4287C60.1837 59.4266 60.1837 59.4249 60.1837 59.4228C60.1837 59.4221 60.1837 59.4214 60.1837 59.4207C60.1837 59.4179 60.1837 59.4148 60.1837 59.412C60.1837 59.4082 60.1837 59.4041 60.1833 59.4002C60.1833 59.3982 60.1829 59.3961 60.1826 59.394C60.1826 59.3912 60.1819 59.3888 60.1815 59.3863C60.1808 59.3811 60.1805 59.3759 60.1794 59.3707C60.1794 59.369 60.1787 59.3673 60.1784 59.3655C60.1777 59.3627 60.1769 59.36 60.1766 59.3572C60.1755 59.352 60.1741 59.3464 60.1727 59.3412C60.1727 59.3405 60.1724 59.3395 60.172 59.3388L60.1699 59.3319L60.0828 59.0368L59.9956 58.7418L58.9503 55.2015L58.7761 54.6112L58.5912 53.9847C58.5905 53.9819 58.5895 53.9795 58.5884 53.977C58.5877 53.9749 58.587 53.9732 58.5863 53.9711C58.5849 53.9673 58.5838 53.9635 58.5824 53.96C58.5817 53.9579 58.5806 53.9555 58.5796 53.9534C58.5789 53.952 58.5782 53.9503 58.5775 53.9489C58.5764 53.9465 58.5753 53.9444 58.5743 53.9423C58.5729 53.9395 58.5718 53.9368 58.5704 53.934C58.5683 53.9298 58.5662 53.926 58.5637 53.9222L58.5633 53.9215C58.5609 53.9173 58.5588 53.9132 58.5559 53.9094C58.5531 53.9052 58.5503 53.901 58.5471 53.8969C58.5446 53.893 58.5418 53.8896 58.539 53.8861C58.5355 53.8816 58.5319 53.8774 58.5281 53.8733C58.5252 53.8701 58.5228 53.867 58.52 53.8642C58.5157 53.8597 58.5111 53.8559 58.5069 53.8517C58.5048 53.85 58.503 53.8479 58.5009 53.8462C58.4088 53.7667 58.3164 53.6879 58.2236 53.6095C58.1936 53.5841 58.1633 53.5588 58.133 53.5335C58.0702 53.4807 58.007 53.4276 57.9439 53.3755C57.9082 53.346 57.8723 53.3165 57.8366 53.2874C57.7784 53.2395 57.7202 53.1919 57.6616 53.1444C57.6243 53.1138 57.5865 53.0836 57.5491 53.0534C57.4913 53.0069 57.4338 52.9608 57.3755 52.915C57.3382 52.8851 57.3004 52.8556 57.263 52.8261C57.2037 52.7796 57.1445 52.7331 57.0849 52.6869C57.0489 52.6588 57.0129 52.631 56.9766 52.6033C56.9127 52.554 56.8488 52.5054 56.7846 52.4568C56.7529 52.4328 56.7211 52.4086 56.6894 52.3846C56.6121 52.3263 56.5345 52.2687 56.4569 52.2114C56.4382 52.1975 56.4195 52.1836 56.4008 52.1698C56.3013 52.0965 56.2019 52.024 56.1017 51.9521C56.1006 51.9514 56.0995 51.9507 56.0985 51.9501C56.0018 51.8803 55.9048 51.8116 55.8074 51.7428C55.7835 51.7258 55.7591 51.7092 55.7351 51.6922C55.6607 51.6401 55.5859 51.588 55.5111 51.5363C55.4811 51.5155 55.4508 51.495 55.4205 51.4746C55.3506 51.427 55.2808 51.3794 55.2109 51.3322C55.1792 51.3107 55.1474 51.2896 55.1153 51.2684C55.0458 51.2219 54.9763 51.1757 54.9065 51.1299C54.8751 51.1094 54.844 51.0889 54.8126 51.0685C54.7403 51.0213 54.6676 50.9744 54.595 50.9279C54.5667 50.9098 54.5385 50.8914 54.5099 50.8734C54.4295 50.822 54.3487 50.7714 54.2676 50.7207C54.2471 50.7078 54.227 50.695 54.2065 50.6825C53.9984 50.553 53.7889 50.426 53.5786 50.3014V47.9947C53.6421 48.0221 53.7052 48.0495 53.7687 48.0769C53.7779 48.0808 53.7871 48.0849 53.7963 48.0887C53.8587 48.1158 53.9212 48.1429 53.9836 48.17C53.9903 48.1731 53.9973 48.1759 54.0041 48.179C54.0665 48.206 54.1286 48.2331 54.1907 48.2602C54.1988 48.2637 54.2069 48.2671 54.215 48.2706C54.6884 48.4768 55.1502 48.6788 55.5951 48.8742C55.5958 48.8745 55.5968 48.8749 55.5975 48.8752C55.6561 48.9009 55.7143 48.9266 55.7722 48.9519C55.7838 48.9571 55.7951 48.962 55.8067 48.9672C55.8558 48.9887 55.9041 49.0099 55.9528 49.0314C55.975 49.0411 55.9972 49.0509 56.0195 49.0606C56.0625 49.0797 56.1055 49.0984 56.1482 49.1171C56.1743 49.1286 56.2004 49.1401 56.2265 49.1515C56.2622 49.1671 56.2975 49.1827 56.3327 49.1984C56.3719 49.2157 56.4111 49.2327 56.4499 49.2497C56.4756 49.2612 56.5014 49.2723 56.5271 49.2838C56.5896 49.3112 56.6513 49.3382 56.7127 49.3653C58.7461 50.2598 60.2154 50.9057 60.7072 51.0539C60.9157 51.1167 61.0998 51.1424 61.2617 51.1424C61.738 51.1424 62.0213 50.9189 62.1638 50.7568C62.4005 50.4874 62.5257 50.0987 62.5257 49.6333C62.5257 49.2223 62.4266 48.7892 62.2463 48.4136C61.8844 47.6597 60.7382 46.6379 58.8399 45.3766C58.7951 45.3468 58.75 45.3169 58.7045 45.2871C58.6865 45.2753 58.6678 45.2631 58.6498 45.2513C58.6219 45.2329 58.594 45.2149 58.5658 45.1961C58.5468 45.1836 58.5277 45.1711 58.5083 45.159C58.4804 45.1409 58.4526 45.1225 58.4244 45.1045C58.4035 45.091 58.3824 45.0774 58.3616 45.0642C58.3347 45.0472 58.3083 45.0299 58.2815 45.0129C58.2582 44.9979 58.2349 44.983 58.2116 44.9684C58.1862 44.9521 58.1608 44.9362 58.1354 44.9199C58.1118 44.9046 58.0874 44.8897 58.0635 44.8744C58.0381 44.8584 58.0127 44.8425 57.9873 44.8261C57.9622 44.8105 57.9368 44.7946 57.9114 44.7786C57.8867 44.763 57.862 44.7477 57.837 44.7321C57.8109 44.7158 57.7841 44.6991 57.7576 44.6828C57.7333 44.6675 57.7089 44.6526 57.6842 44.6373C57.6571 44.6207 57.6295 44.6037 57.602 44.5866C57.5777 44.5717 57.5537 44.5568 57.5294 44.5419C57.5011 44.5245 57.4729 44.5072 57.4443 44.4898C57.4207 44.4752 57.3967 44.4607 57.3727 44.4461C57.3431 44.428 57.3131 44.41 57.2835 44.3919C57.2605 44.3781 57.2376 44.3642 57.2147 44.3503C57.1836 44.3315 57.1526 44.3128 57.1215 44.2941C57.0993 44.2805 57.0767 44.267 57.0545 44.2538C57.0228 44.2347 56.9907 44.2156 56.9589 44.1965C56.9367 44.183 56.9141 44.1698 56.8915 44.1563C56.8594 44.1372 56.8273 44.1181 56.7952 44.099C56.7726 44.0855 56.7497 44.0719 56.7268 44.0584C56.6936 44.0386 56.6601 44.0192 56.627 43.9994C56.6054 43.9865 56.5839 43.974 56.5624 43.9612C56.5282 43.9411 56.4936 43.9209 56.459 43.9005C56.4375 43.888 56.416 43.8751 56.3945 43.8626C56.3592 43.8422 56.3236 43.8213 56.2883 43.8008C56.2678 43.789 56.247 43.7769 56.2265 43.7651C56.1902 43.7439 56.1539 43.7231 56.1175 43.7019C56.0971 43.6901 56.0763 43.6783 56.0558 43.6662C56.0184 43.6447 55.9807 43.6231 55.9429 43.6013C55.9235 43.5902 55.9045 43.5791 55.8851 43.5683C55.8463 43.5461 55.8074 43.5239 55.7683 43.5017C55.7496 43.4909 55.7309 43.4805 55.7122 43.4697C55.6723 43.4472 55.6325 43.4246 55.5923 43.4017C55.5743 43.3913 55.5559 43.3812 55.5376 43.3708C55.4967 43.3476 55.4557 43.3247 55.4145 43.3014C55.3972 43.2917 55.3799 43.282 55.3622 43.2722C55.3203 43.2486 55.2779 43.225 55.2356 43.2014C55.219 43.1921 55.2021 43.1827 55.1855 43.1733C55.1425 43.1494 55.0998 43.1254 55.0564 43.1015C55.0402 43.0925 55.0236 43.0834 55.0074 43.0744C54.9633 43.0501 54.9192 43.0255 54.8747 43.0012C54.8599 42.9932 54.8454 42.9849 54.8306 42.9769C54.7847 42.9515 54.7385 42.9262 54.6923 42.9009C54.6786 42.8936 54.6652 42.8859 54.6514 42.8786C54.6041 42.853 54.5569 42.8269 54.5092 42.8012C54.4969 42.7943 54.4842 42.7877 54.4718 42.7808C54.4231 42.7544 54.3745 42.7277 54.3254 42.7013C54.3145 42.6954 54.3032 42.6891 54.2919 42.6832C54.2415 42.6558 54.1907 42.6287 54.1402 42.6013C54.1311 42.5965 54.1219 42.5916 54.1127 42.5864C54.0601 42.5583 54.0072 42.5298 53.9543 42.5017C53.9473 42.4979 53.9406 42.4944 53.9335 42.4906C53.8781 42.4611 53.8224 42.4316 53.767 42.4021C53.7638 42.4004 53.761 42.399 53.7578 42.3972C53.6989 42.366 53.6396 42.3348 53.5804 42.3035C53.5804 42.3035 53.5804 42.3035 53.58 42.3035V27.7315C53.38 27.7152 53.1803 27.6985 52.9803 27.6822V41.9908C52.6723 41.8318 52.3636 41.6753 52.0578 41.5226C52.0077 41.4674 51.9378 41.432 51.8616 41.4251C51.8041 41.3966 51.747 41.3685 51.6905 41.3407V27.576C51.4905 27.5597 51.2908 27.543 51.0908 27.5267V41.0502C51.0629 41.037 51.0354 41.0238 51.0079 41.0106C50.9889 41.0016 50.9702 40.9926 50.9515 40.9839C50.9247 40.9711 50.8975 40.9586 50.871 40.9457C50.8506 40.936 50.8301 40.9266 50.8097 40.9169C50.768 40.8975 50.7271 40.878 50.6862 40.8593C50.6657 40.8499 50.6453 40.8402 50.6248 40.8308C50.6015 40.8201 50.5782 40.8093 50.555 40.7986C50.5313 40.7878 50.508 40.777 50.4847 40.7663C50.4558 40.7531 50.4272 40.7399 50.399 40.7271C50.3712 40.7142 50.3433 40.7017 50.3161 40.6892C50.2981 40.6809 50.2801 40.6729 50.2621 40.6649C50.236 40.6531 50.2099 40.6413 50.1842 40.6299C50.1697 40.6233 50.1549 40.6167 50.1408 40.6104C50.1034 40.5938 50.0667 40.5775 50.0307 40.5619C50.0177 40.5563 50.005 40.5507 49.9923 40.5448C49.9648 40.5327 49.9372 40.5209 49.9104 40.5091C49.8991 40.5042 49.8875 40.499 49.8762 40.4942C49.8402 40.4786 49.8046 40.4633 49.77 40.4487C49.7626 40.4456 49.7556 40.4428 49.7485 40.4397C49.7196 40.4275 49.691 40.4154 49.6631 40.4039C49.6536 40.4001 49.6441 40.3959 49.6346 40.3921C49.601 40.3782 49.5679 40.3647 49.5358 40.3515C49.4239 40.306 49.3121 40.2616 49.2006 40.2179C46.9711 39.3425 44.8167 38.7942 42.7603 38.5762C42.452 38.5436 42.1454 38.5182 41.8417 38.5005C41.6392 38.4887 41.4374 38.48 41.2367 38.4748C40.6349 38.4592 40.0425 38.4734 39.4598 38.5179C39.3931 38.5231 39.3268 38.5293 39.2601 38.5349C37.4052 38.7095 35.3929 39.3582 33.2671 40.044C30.5179 40.9308 27.6749 41.8475 25.2926 41.6062C25.2897 41.6062 25.2869 41.6062 25.2845 41.6059C25.2781 41.6055 25.2714 41.6048 25.2651 41.6048C25.2612 41.6048 25.2569 41.6048 25.2531 41.6048C25.2474 41.6048 25.2414 41.6048 25.2358 41.6055C25.2315 41.6059 25.227 41.6066 25.2224 41.6073C25.2171 41.608 25.2118 41.6087 25.2068 41.6097C25.2023 41.6104 25.1973 41.6118 25.1927 41.6128C25.1878 41.6139 25.1832 41.6149 25.1783 41.6163C25.1733 41.6177 25.1684 41.6194 25.1638 41.6212C25.1596 41.6225 25.155 41.6239 25.1508 41.6257C25.1455 41.6278 25.1405 41.6302 25.1356 41.6323C25.1317 41.634 25.1278 41.6357 25.1243 41.6375C25.119 41.6402 25.1134 41.6434 25.1081 41.6465C25.1056 41.6479 25.1028 41.6493 25.1003 41.651C23.7301 42.5142 22.9635 43.1754 22.2435 44.0067C22.2354 43.9997 22.2269 43.9931 22.2178 43.9872C21.8872 43.7627 21.6036 43.4687 21.3866 43.1334C21.3849 43.1306 21.3834 43.1279 21.3817 43.1254C21.3595 43.0907 21.3379 43.056 21.3171 43.0206C21.3139 43.015 21.3108 43.0091 21.3076 43.0036C21.2885 42.971 21.2702 42.938 21.2526 42.9047C21.248 42.896 21.2437 42.887 21.2392 42.8779C21.2236 42.8474 21.2078 42.8172 21.1933 42.7863C21.1873 42.7738 21.182 42.761 21.1764 42.7485C21.1637 42.7211 21.151 42.6936 21.1393 42.6655C21.1301 42.6433 21.1217 42.6211 21.1132 42.5989C21.1058 42.5801 21.098 42.5618 21.0913 42.543C21.0797 42.5114 21.0695 42.4798 21.0589 42.4479C21.0557 42.4378 21.0518 42.4281 21.0487 42.4181C21.0356 42.3761 21.0233 42.3341 21.012 42.2914C21.0014 42.2508 20.9915 42.2095 20.9827 42.1675C20.9795 42.1525 20.9774 42.1376 20.9746 42.1227C20.9693 42.0956 20.964 42.0685 20.9598 42.0411C20.9566 42.0217 20.9545 42.0023 20.9516 41.9825C20.9485 41.9592 20.9449 41.936 20.9425 41.9124C20.94 41.8901 20.9382 41.8676 20.9365 41.8454C20.9347 41.8242 20.9326 41.8034 20.9312 41.7822C20.9298 41.7576 20.9287 41.7329 20.9277 41.7083C20.9269 41.6892 20.9259 41.6701 20.9255 41.6507C20.9248 41.6239 20.9255 41.5969 20.9255 41.5701C20.9255 41.5528 20.9255 41.5358 20.9259 41.5184C20.9266 41.4896 20.928 41.4608 20.9294 41.4317C20.9301 41.4164 20.9308 41.4011 20.9319 41.3855C20.934 41.3546 20.9365 41.324 20.9393 41.2932C20.9407 41.2796 20.9418 41.2661 20.9432 41.2529C20.9467 41.2203 20.9506 41.188 20.9552 41.1554C20.9566 41.1439 20.9583 41.1321 20.9598 41.1207C20.9647 41.0866 20.9703 41.0523 20.9763 41.0183C20.9781 41.0086 20.9799 40.9988 20.9816 40.9895C20.9883 40.9537 20.9954 40.9183 21.0032 40.8829C21.0049 40.8749 21.0067 40.8673 21.0084 40.8593C21.0169 40.8225 21.0257 40.7857 21.0356 40.7493C21.0374 40.743 21.0388 40.7371 21.0405 40.7309C21.0508 40.6931 21.0617 40.6552 21.0734 40.6177C21.0748 40.6132 21.0762 40.6091 21.0776 40.6045C21.0899 40.5657 21.1026 40.5271 21.1164 40.489C21.1175 40.4862 21.1185 40.4834 21.1196 40.4803C21.1337 40.4407 21.1488 40.4018 21.1644 40.363C21.1651 40.3616 21.1654 40.3602 21.1661 40.3585C21.1824 40.3185 21.1996 40.2793 21.2173 40.2405C21.0024 40.348 20.7619 40.464 20.4846 40.4966C20.2972 41.1373 20.2733 41.8391 20.4317 42.4392C20.6451 43.2486 21.1668 43.9852 21.8643 44.4634C21.5507 44.856 21.2268 45.2933 20.8476 45.8056C20.8014 45.8684 20.7537 45.9326 20.7054 45.9975C20.6634 46.025 20.6281 46.0631 20.6042 46.11C19.7772 45.5148 19.1871 44.6012 18.8967 43.4621C18.6085 42.3323 18.605 41.0016 18.8847 39.4973C18.7496 39.2683 18.6198 38.9913 18.4991 38.6567L18.4695 38.5748C18.006 40.498 17.9537 42.1904 18.3146 43.6058C18.647 44.9087 19.3377 45.9552 20.3121 46.6317C20.3248 46.6404 20.3378 46.648 20.3509 46.6546L20.2623 46.8458C19.0145 46.0153 18.1725 44.4648 17.9901 42.6343C17.8447 41.1769 18.0814 39.7375 18.3827 38.3332L18.0031 37.2781C18.0028 37.2802 18.0021 37.2822 18.0017 37.2843C17.9908 37.3326 17.9798 37.3805 17.9689 37.4287C17.9654 37.4447 17.9619 37.4606 17.9583 37.4763C17.9499 37.5144 17.941 37.5523 17.9326 37.5905C17.928 37.6116 17.9231 37.6328 17.9185 37.654C17.9111 37.6873 17.9036 37.721 17.8959 37.7543C17.8909 37.7772 17.8857 37.8001 17.8807 37.823C17.8737 37.8553 17.8666 37.8872 17.8592 37.9195C17.8539 37.9428 17.849 37.966 17.844 37.9893C17.837 38.0208 17.8303 38.0528 17.8232 38.0844C17.8179 38.109 17.8126 38.1333 17.8073 38.1579C17.8006 38.1885 17.7943 38.219 17.7876 38.2496C17.7823 38.2749 17.7767 38.3006 17.7714 38.3263C17.765 38.3561 17.7587 38.3856 17.7527 38.4155C17.7474 38.4412 17.7421 38.4668 17.7368 38.4925C17.7304 38.5224 17.7244 38.5522 17.7184 38.5821C17.7132 38.6078 17.7082 38.6331 17.7029 38.6588C17.6969 38.6886 17.6909 38.7185 17.6849 38.7487C17.6796 38.7747 17.6747 38.8004 17.6698 38.8264C17.6638 38.8563 17.6581 38.8861 17.6525 38.916C17.6475 38.942 17.6426 38.968 17.6377 38.9941C17.632 39.0239 17.6264 39.0538 17.6207 39.0833C17.6158 39.1097 17.6112 39.1364 17.6063 39.1631C17.601 39.1923 17.5957 39.2218 17.5904 39.2509C17.5854 39.2776 17.5809 39.3047 17.5763 39.3318C17.5713 39.3609 17.566 39.3901 17.5611 39.4192C17.5565 39.446 17.5523 39.473 17.5477 39.4998C17.5428 39.5293 17.5378 39.5584 17.5332 39.5879C17.529 39.615 17.5248 39.6421 17.5205 39.6692C17.5159 39.6983 17.5114 39.7275 17.5071 39.7566C17.5029 39.784 17.499 39.8115 17.4951 39.8392C17.4909 39.8684 17.4867 39.8972 17.4824 39.9263C17.4786 39.9541 17.475 39.9819 17.4711 40.0093C17.4673 40.0381 17.463 40.0669 17.4595 40.0957C17.456 40.1238 17.4524 40.1519 17.4489 40.1797C17.4454 40.2085 17.4415 40.237 17.4383 40.2658C17.4348 40.2939 17.432 40.3224 17.4288 40.3505C17.4256 40.3789 17.4221 40.4074 17.4193 40.4362C17.4161 40.465 17.4133 40.4938 17.4105 40.5226C17.4076 40.5507 17.4045 40.5789 17.402 40.607C17.3992 40.6361 17.3967 40.6649 17.3942 40.6941C17.3918 40.7222 17.3893 40.7503 17.3868 40.7784C17.3844 40.8076 17.3826 40.8367 17.3801 40.8659C17.378 40.894 17.3759 40.9221 17.3738 40.9502C17.3717 40.9794 17.3703 41.0086 17.3685 41.0381C17.3667 41.0662 17.365 41.0943 17.3635 41.1227C17.3621 41.1519 17.3607 41.1811 17.3593 41.2106C17.3579 41.239 17.3565 41.2671 17.3554 41.2956C17.3544 41.3254 17.3537 41.3556 17.3526 41.3858C17.3519 41.4133 17.3508 41.441 17.3501 41.4684C17.3494 41.4993 17.3491 41.5302 17.3487 41.5615C17.3484 41.5882 17.3477 41.6153 17.3473 41.642C17.3473 41.6732 17.3473 41.7045 17.3473 41.7357C17.3473 41.7624 17.3473 41.7891 17.3473 41.8159C17.3473 41.8482 17.3484 41.8804 17.3491 41.9127C17.3494 41.9384 17.3498 41.9644 17.3505 41.9901C17.3512 42.0245 17.353 42.0585 17.354 42.0928C17.3547 42.1168 17.3554 42.1407 17.3565 42.1647C17.3583 42.2018 17.3604 42.2393 17.3625 42.2768C17.3635 42.298 17.3646 42.3188 17.3657 42.34C17.3685 42.3861 17.372 42.4326 17.3755 42.4791C17.3766 42.4913 17.3773 42.5034 17.378 42.5156C17.3826 42.5743 17.3879 42.6329 17.3939 42.6919C17.4006 42.7575 17.4076 42.8224 17.4158 42.8873C17.4182 42.9081 17.4214 42.929 17.4242 42.9498V42.9491ZM47.7264 45.5571C48.7321 45.9507 49.8346 46.4005 51.0912 46.9298V48.97C47.3997 47.1971 43.4257 46.1492 39.3109 45.8861H39.3102C39.3081 45.8861 39.3059 45.8861 39.3038 45.8858C39.301 45.8858 39.2985 45.8858 39.2957 45.8858C39.2894 45.8858 39.2834 45.8854 39.277 45.8858C39.2721 45.8858 39.2671 45.8861 39.2622 45.8868C39.2576 45.8868 39.2527 45.8875 39.2481 45.8879C39.2417 45.8886 39.2354 45.8896 39.229 45.891C39.2259 45.8917 39.2227 45.892 39.2199 45.8927C39.2125 45.8945 39.2047 45.8965 39.1973 45.8986C39.1959 45.899 39.1941 45.8993 39.1927 45.8997C39.1497 45.9132 39.1059 45.9261 39.0629 45.9392C39.0417 45.9417 39.0202 45.9465 38.999 45.9538C38.9676 45.9646 38.9369 45.9764 38.9055 45.9875C36.1024 46.8174 32.5612 47.0308 29.2917 46.59C30.6763 46.2648 32.0673 45.773 33.417 45.295C36.0928 44.3479 38.8593 43.3687 41.6576 43.654C42.7452 43.7651 44.787 44.4051 47.7271 45.5571H47.7264ZM52.0373 50.1133C52.0391 50.1345 52.0433 50.1556 52.05 50.1768L53.1048 53.4547C51.4369 52.5293 49.6201 51.7352 47.6823 51.0858C43.2313 49.5944 38.3764 48.9752 34.1822 49.3455C34.2415 49.2973 34.3007 49.2487 34.3611 49.2011C35.841 48.0287 37.4338 47.1363 39.0967 46.5466C39.1719 46.5244 39.246 46.5015 39.3201 46.4783C43.7919 46.7709 48.0943 48.0089 52.0377 50.1129L52.0373 50.1133ZM20.6483 47.4369C21.1079 47.574 22.1324 47.8468 23.407 47.9874C23.8599 48.0374 24.3697 48.0721 24.9098 48.0721C26.2345 48.0721 27.743 47.8621 29.0535 47.153C30.2382 47.3206 31.4722 47.4071 32.7055 47.4071C32.9909 47.4071 33.2763 47.4025 33.561 47.3932C34.5202 47.3619 35.4607 47.2769 36.3631 47.1429C35.5443 47.6021 34.7495 48.1356 33.9846 48.7416C33.7201 48.9512 33.4615 49.1682 33.2092 49.391C31.2012 49.845 28.9794 49.9241 26.7778 49.6187C24.5658 49.3119 22.4217 48.6243 20.577 47.6309C20.5721 47.6282 20.5668 47.6261 20.5618 47.6236L20.6483 47.4369ZM24.8481 52.1611C22.8521 51.7054 21.0335 50.7502 19.7081 49.4646L20.3128 48.1609C22.2149 49.1814 24.4209 49.8873 26.6942 50.2028C27.6008 50.3285 28.511 50.3913 29.4098 50.3913C30.4276 50.3913 31.4305 50.3108 32.3964 50.1508C31.8122 50.7301 31.2665 51.3468 30.762 51.9969C28.941 52.5578 26.8451 52.6168 24.8481 52.1607V52.1611ZM40.0189 53.3172C37.009 52.8362 33.9536 52.6522 30.9271 52.7688C31.009 52.6571 31.0919 52.5457 31.1762 52.436C31.1801 52.4315 31.1836 52.4266 31.1868 52.4217C31.8503 51.5582 32.5894 50.7561 33.3955 50.0227C37.6895 49.4903 42.8129 50.0782 47.489 51.645C48.9438 52.1323 50.3281 52.7029 51.6306 53.3498C51.9657 53.3498 52.3079 53.4106 52.6349 53.5338C52.8473 53.6136 53.0466 53.7174 53.2286 53.8403C53.5289 54.0433 53.7814 54.2995 53.967 54.5907C53.9861 54.6209 54.0048 54.6511 54.0224 54.682C54.1152 54.7396 54.208 54.7975 54.2997 54.8562C56.1052 56.0116 57.6571 57.3153 58.9274 58.7415C59.0145 58.8393 59.1003 58.9379 59.1849 59.0368C59.2096 59.0656 59.2343 59.0945 59.2587 59.1236C57.4902 59.1132 55.5552 59.1024 53.6139 59.092C51.5184 59.0806 49.3562 59.0688 47.4233 59.057L47.4315 59.0219L47.4995 58.7269L47.8347 57.2757C48.0608 57.1692 48.2869 57.063 48.5131 56.9568L49.1322 56.6656C49.1382 56.6628 49.1438 56.6593 49.1495 56.6562C49.1234 56.56 49.1026 56.4625 49.0885 56.3629C49.0768 56.2799 49.069 56.1959 49.0659 56.1113C49.0606 55.9839 49.0652 55.8551 49.0789 55.7263C47.9828 55.3112 46.8677 54.9378 45.7378 54.6066C45.7335 54.6053 45.7293 54.6042 45.7251 54.6028C43.8568 54.0562 41.9482 53.6258 40.0182 53.3172H40.0189ZM42.3603 54.3602C41.8061 55.0297 41.2519 55.6993 40.6976 56.3684L40.5572 56.5382L40.6313 55.541C40.7661 55.3834 40.9005 55.2255 41.0349 55.0676C41.0356 55.0669 41.036 55.0662 41.0367 55.0655C41.2737 54.7878 41.5104 54.5102 41.7475 54.2321C41.9521 54.2734 42.1564 54.3158 42.3603 54.3599V54.3602ZM41.1626 56.7412C41.7641 56.0148 42.3656 55.2883 42.9671 54.5612C42.9819 54.5431 42.9942 54.5237 43.0041 54.5036C44.9416 54.9503 46.8473 55.5216 48.6997 56.2147L48.2552 56.4236C47.9853 56.5507 47.7154 56.6774 47.4456 56.8044C47.4445 56.8047 47.4438 56.8054 47.4427 56.8058C47.4382 56.8079 47.4339 56.8103 47.4297 56.8127C47.4251 56.8151 47.4209 56.8176 47.4163 56.82C47.4131 56.8221 47.4103 56.8242 47.4071 56.8259C47.4018 56.8294 47.3969 56.8328 47.3919 56.8363C47.3905 56.8374 47.3891 56.8387 47.3874 56.8401C47.3814 56.845 47.3754 56.8499 47.3697 56.8551C47.369 56.8558 47.3683 56.8564 47.368 56.8568C47.3616 56.8627 47.3556 56.8689 47.35 56.8752C47.3478 56.8776 47.3461 56.88 47.344 56.8825C47.3401 56.8873 47.3359 56.8919 47.3323 56.8971C47.3288 56.9019 47.3256 56.9071 47.3221 56.9123C47.3203 56.9151 47.3182 56.9179 47.3165 56.9207C47.3133 56.9259 47.3108 56.9314 47.308 56.9366C47.3062 56.9397 47.3045 56.9429 47.303 56.946C47.3009 56.9505 47.2992 56.9554 47.2974 56.9599C47.2956 56.9644 47.2935 56.9686 47.2921 56.9731C47.2907 56.9769 47.2896 56.9811 47.2886 56.9849C47.2868 56.9904 47.2851 56.996 47.2836 57.0015C47.2836 57.0022 47.2833 57.0033 47.2829 57.004L47.2318 57.2257C45.0982 57.1976 42.9642 57.1692 40.8306 57.1414L41.163 56.7398L41.1626 56.7412ZM58.0423 54.2335L58.2656 54.9898L58.2674 54.9957L59.2001 58.1542C57.928 56.7648 56.3952 55.4928 54.6274 54.3613C54.3812 54.2037 54.1311 54.0496 53.8774 53.8982L52.7933 50.5294C54.6327 51.5752 56.3888 52.8126 58.0426 54.2335H58.0423ZM51.6916 49.266V47.1835C52.1118 47.3619 52.5436 47.5466 52.9813 47.7351V49.9547C52.5555 49.7148 52.1255 49.4854 51.6916 49.2657V49.266ZM61.7115 50.3705C61.5418 50.5634 61.2635 50.6034 60.8843 50.4892C60.4281 50.3521 58.8974 49.6787 56.9593 48.8263C55.8868 48.3546 54.6715 47.8201 53.4019 47.272C53.4012 47.2717 53.4001 47.2714 53.3994 47.271C53.3987 47.271 53.398 47.2703 53.3976 47.2703C52.7513 46.9913 52.1163 46.7202 51.5103 46.4644C51.5092 46.464 51.5085 46.4637 51.5075 46.4633C50.229 45.9236 49.1086 45.4651 48.0873 45.0635C48.0329 44.832 48.0301 44.578 48.0799 44.3281C49.5312 44.9146 50.9663 45.5616 52.4458 46.2294L56.2174 47.9308C56.5303 48.0721 56.9226 48.2585 57.3381 48.4563C59.6658 49.5635 61.1005 50.1775 61.7891 50.1775C61.8036 50.1775 61.8167 50.1765 61.8304 50.1761C61.7987 50.2507 61.7592 50.3167 61.7115 50.3708V50.3705ZM61.7055 48.6652C61.8964 49.0627 61.9641 49.525 61.9084 49.8908C61.7775 49.9241 61.4106 49.9123 60.3936 49.5201C59.4901 49.1713 58.3651 48.6364 57.4609 48.2064C57.0443 48.0082 56.6506 47.8208 56.3349 47.6785L52.5633 45.9771C51.0696 45.303 49.6219 44.6502 48.155 44.0584C48.1825 43.9813 48.2146 43.9067 48.252 43.8352C48.6066 43.1549 49.2761 42.7589 49.7757 42.5465C50.405 42.2789 51.1159 42.1456 51.7554 42.0318C52.2134 42.2598 52.6776 42.4969 53.1366 42.7377C53.1383 42.7388 53.1401 42.7395 53.1419 42.7405C56.8361 44.6769 61.0254 47.2498 61.7055 48.6656V48.6652ZM25.3391 42.2022C25.5893 42.224 25.8425 42.2351 26.0997 42.2351C28.3984 42.2351 30.9649 41.4074 33.4555 40.6042C35.6226 39.9052 37.6694 39.245 39.5074 39.1055C42.5194 38.8768 45.8172 39.4793 49.3086 40.8961C49.709 41.0585 50.2491 41.3018 50.8725 41.6C50.4272 41.6961 49.9711 41.82 49.5375 42.0043C48.948 42.2553 48.1536 42.7297 47.7183 43.5655C47.6728 43.6526 47.6329 43.7436 47.5983 43.8366C46.5774 43.4375 45.5437 43.0702 44.4759 42.7488C39.5444 41.2647 35.715 42.5225 32.0116 43.7387C28.8069 44.7911 25.7769 45.7858 22.2756 44.9049C23.1085 43.8508 23.8201 43.1678 25.3391 42.2022ZM22.0894 45.1437C25.7201 46.0972 28.8203 45.0795 32.1008 44.0022C35.7623 42.7999 39.5483 41.5566 44.3933 43.0144C45.4605 43.3354 46.4941 43.7033 47.5161 44.1035C47.4579 44.3385 47.4353 44.5797 47.4487 44.8147C44.6907 43.7512 42.8136 43.1789 41.72 43.0671C38.7859 42.7676 35.9535 43.7703 33.2145 44.7397C31.7114 45.2718 30.1567 45.8219 28.639 46.1287C28.6337 46.1298 28.6284 46.1308 28.6228 46.1319C28.5395 46.1485 28.4563 46.1648 28.3734 46.1808C28.3564 46.1839 28.3395 46.1871 28.3226 46.1902C28.2513 46.2037 28.1804 46.2169 28.1095 46.2294C28.0869 46.2336 28.0647 46.237 28.0421 46.2409C27.9772 46.2523 27.9123 46.2634 27.8477 46.2742C27.8213 46.2787 27.7952 46.2825 27.7687 46.2867C27.7084 46.2964 27.6477 46.3061 27.5877 46.3155C27.5585 46.32 27.5292 46.3242 27.4999 46.3283C27.4431 46.3367 27.3863 46.3453 27.3295 46.3533C27.2978 46.3578 27.266 46.362 27.2343 46.3662C27.1803 46.3734 27.1263 46.3807 27.0727 46.3877C27.0392 46.3918 27.0057 46.396 26.9718 46.4002C26.9206 46.4064 26.8691 46.4127 26.818 46.4186C26.7823 46.4227 26.7467 46.4265 26.7111 46.4304C26.6624 46.4356 26.6137 46.4411 26.5654 46.446C26.528 46.4498 26.4906 46.4533 26.4529 46.4567C26.4066 46.4613 26.3604 46.4658 26.3142 46.4699C26.2751 46.4734 26.2362 46.4765 26.1974 46.4797C26.1533 46.4835 26.1089 46.4869 26.0648 46.4904C26.0242 46.4935 25.984 46.4963 25.9438 46.4991C25.9015 46.5019 25.8595 46.505 25.8175 46.5074C25.7759 46.5098 25.7342 46.5123 25.693 46.5147C25.6524 46.5168 25.6122 46.5192 25.5716 46.5213C25.5289 46.5234 25.4862 46.5251 25.4439 46.5269C25.4051 46.5286 25.3663 46.53 25.3275 46.5314C25.2838 46.5328 25.2404 46.5341 25.197 46.5352C25.1596 46.5362 25.1222 46.5373 25.0851 46.538C25.0407 46.539 24.9966 46.5393 24.9525 46.54C24.9165 46.5404 24.8805 46.5411 24.8445 46.5411C24.7997 46.5411 24.7549 46.5411 24.7101 46.5411C24.6752 46.5411 24.6403 46.5411 24.6054 46.5407C24.5598 46.5404 24.5147 46.5397 24.4695 46.539C24.4357 46.5383 24.4018 46.538 24.3679 46.5373C24.3221 46.5362 24.2766 46.5348 24.2307 46.5335C24.1979 46.5324 24.1651 46.5314 24.1323 46.53C24.0861 46.5282 24.0402 46.5262 23.9943 46.5241C23.9622 46.5227 23.9305 46.521 23.8984 46.5196C23.8522 46.5171 23.806 46.5144 23.7601 46.5116C23.7287 46.5095 23.6973 46.5078 23.6659 46.5057C23.6197 46.5026 23.5735 46.4991 23.5276 46.4956C23.4969 46.4932 23.4659 46.4908 23.4352 46.4883C23.389 46.4845 23.3431 46.4803 23.2973 46.4762C23.2669 46.4734 23.2366 46.4706 23.2066 46.4675C23.1604 46.463 23.1145 46.4581 23.0687 46.4533C23.0387 46.4501 23.009 46.4467 22.9794 46.4432C22.9335 46.438 22.8877 46.4324 22.8422 46.4269C22.8125 46.4231 22.7833 46.4193 22.7536 46.4154C22.7081 46.4095 22.6626 46.4033 22.6175 46.397C22.5882 46.3929 22.5593 46.3887 22.53 46.3842C22.4848 46.3776 22.4397 46.3707 22.3945 46.3637C22.3656 46.3592 22.3366 46.3544 22.3077 46.3495C22.2629 46.3422 22.2181 46.3346 22.1737 46.3269C22.1447 46.3221 22.1162 46.3165 22.0876 46.3113C22.0431 46.3033 21.9987 46.295 21.9546 46.2867C21.926 46.2811 21.8974 46.2756 21.8689 46.2697C21.8248 46.261 21.781 46.252 21.7373 46.2429C21.7087 46.237 21.6805 46.2308 21.6519 46.2245C21.6085 46.2152 21.5651 46.2058 21.5217 46.1957C21.4935 46.1891 21.4653 46.1825 21.4371 46.176C21.4028 46.168 21.3683 46.1596 21.3344 46.1513C21.6124 45.7758 21.8579 45.4436 22.0897 45.1427L22.0894 45.1437Z" fill="#231815"/>
</svg>
