<svg width="91" height="91" viewBox="0 0 91 91" fill="none" xmlns="http://www.w3.org/2000/svg">
<path d="M58.7117 40.9655C56.9322 41.5152 54.5596 41.8176 52.0308 41.8176C51.4335 41.8176 50.8314 41.8001 50.2413 41.7656L49.8845 41.745V55.9209L50.2024 55.9396C50.8056 55.9749 51.4208 55.9923 52.0308 55.9923C53.6151 55.9923 55.1426 55.8753 56.5119 55.6546V53.2118C56.5119 53.1206 56.5218 53.0301 56.5408 52.9412C56.565 52.8285 56.6043 52.7173 56.6587 52.6086C56.7809 52.3629 56.9798 52.1272 57.254 51.9033V47.8167C57.254 46.6206 58.9578 45.7554 61.2823 45.2541V39.2046C61.2712 39.8138 60.3119 40.4714 58.7117 40.9655Z" fill="#6194F6"/>
<path d="M44.9509 40.8345C43.5964 40.3611 42.786 39.7507 42.7792 39.2006V53.9469C43.1253 54.2453 43.602 54.5219 44.2032 54.7712C44.3274 54.8228 44.4568 54.8732 44.5918 54.9224C44.6366 54.9386 44.6819 54.9549 44.7283 54.9712C44.7644 54.9839 44.8021 54.9902 44.8394 54.9902C44.9085 54.9902 44.9767 54.9692 45.0347 54.9279C45.124 54.8648 45.1768 54.762 45.1768 54.6529V41.1528C45.1768 41.0095 45.0863 40.8818 44.9509 40.8345Z" fill="#6194F6"/>
<path d="M47.6207 61.8609C47.5497 61.3287 46.9234 60.9648 45.7586 60.7794C44.7477 60.6187 43.4309 60.61 42.0506 60.7552C40.6706 60.9005 39.3844 61.1827 38.4287 61.5502C38.4089 61.5577 38.3894 61.5656 38.37 61.5732C38.2426 61.6232 38.1227 61.6744 38.0112 61.7264C37.8885 61.7835 37.7754 61.8415 37.6715 61.9006C37.0841 62.2348 36.8023 62.6011 36.8317 62.9936C36.8301 63.3611 36.8849 63.7389 36.992 64.1144C37.0226 64.2219 37.0579 64.3295 37.0972 64.4362C37.1357 64.5414 37.1785 64.6458 37.225 64.7494C37.3492 65.0268 37.5016 65.2982 37.6806 65.5582C38.0211 66.0531 38.4442 66.4849 38.9165 66.8278C39.0121 66.8973 39.1097 66.9631 39.2089 67.025C39.3506 67.1132 39.4959 67.1933 39.6439 67.2652C39.7189 67.3017 39.7943 67.3366 39.8709 67.3683C40.5627 67.6573 41.3298 67.7986 42.1026 67.7986C43.2952 67.7986 44.5013 67.4628 45.4637 66.8159C45.6359 66.7 45.7998 66.5738 45.9558 66.4397C46.0558 66.3531 46.1523 66.263 46.2451 66.1694C46.3249 66.0888 46.4019 66.0063 46.4757 65.9209C46.4178 65.9162 46.3598 65.911 46.3015 65.9063C46.2273 65.9003 46.161 65.8701 46.1086 65.8249C46.09 65.8086 46.0729 65.7904 46.0582 65.7705C46.0114 65.707 45.986 65.6273 45.9931 65.5423C45.9987 65.4733 46.0249 65.4106 46.0653 65.3602C45.9693 65.4796 45.8669 65.5935 45.7586 65.7023C45.6597 65.8015 45.5558 65.8963 45.4474 65.9864C45.3323 66.0821 45.2125 66.1726 45.0871 66.2567C45.0815 66.2603 45.0759 66.2638 45.0704 66.2674C44.2203 66.8334 43.1586 67.1274 42.1085 67.1274C41.4239 67.1274 40.7441 67.0024 40.1313 66.7464C40.0975 66.7326 40.0642 66.7171 40.0309 66.7024C39.9059 66.646 39.784 66.5829 39.6654 66.5135C39.5594 66.4516 39.4558 66.3853 39.3554 66.3142C38.6875 65.8424 38.1473 65.1764 37.827 64.4489C37.7806 64.3438 37.7385 64.2374 37.7016 64.1299C37.6683 64.0322 37.6385 63.9338 37.6135 63.8346C37.7207 63.8794 37.8389 63.9211 37.9679 63.9592C38.0977 63.9973 38.2382 64.0322 38.3898 64.0632C38.4886 64.0834 38.5918 64.1021 38.6998 64.1191C39.2324 64.2037 39.8499 64.2461 40.517 64.2461C41.1159 64.2461 41.7545 64.212 42.4074 64.1433C43.7873 63.9985 45.0736 63.7159 46.0292 63.3488C46.413 63.2012 46.7281 63.046 46.9742 62.8841C46.9409 63.2932 46.8651 63.7342 46.7563 64.0525C46.8325 64.0525 46.9087 64.0521 46.9841 64.0521C47.0262 64.0521 47.0679 64.0521 47.1095 64.0521C47.2262 64.0521 47.3425 64.0521 47.4584 64.0529C47.6445 63.3631 47.7279 62.3987 47.6215 61.8609H47.6207ZM45.7863 62.719C44.8843 63.0658 43.6591 63.3333 42.3363 63.4722C41.0576 63.6068 39.8439 63.604 38.9022 63.4671C38.8696 63.4623 38.8367 63.4579 38.8049 63.4528C38.7109 63.4377 38.624 63.4222 38.5426 63.4056C38.4085 63.3786 38.291 63.3496 38.1878 63.3202C37.652 63.167 37.5099 62.9952 37.5048 62.9456C37.4992 62.8924 37.6199 62.6662 38.2199 62.3741C38.3124 62.3292 38.4164 62.2824 38.5331 62.2348C38.5775 62.2165 38.6232 62.1983 38.6712 62.1796C38.7323 62.1562 38.795 62.1332 38.8589 62.1106C39.7396 61.7974 40.8877 61.5561 42.1212 61.4263C42.7526 61.3601 43.3682 61.3267 43.9429 61.3267C44.5727 61.3267 45.1537 61.3664 45.6526 61.4458C46.7055 61.6133 46.946 61.8879 46.9528 61.9526C46.9595 62.0169 46.7813 62.336 45.7863 62.7186V62.719Z" fill="#B580D8"/>
<path d="M46.3583 65.2339C46.3583 65.2339 46.3575 65.2339 46.3571 65.2339C46.346 65.2332 46.3348 65.2328 46.3237 65.2328C46.3352 65.2328 46.3467 65.2328 46.3583 65.2339Z" fill="#B580D8"/>
<path d="M75.6217 51.9037V52.5205C75.6217 52.5205 75.6217 52.5209 75.6217 52.5213C75.6217 52.6328 75.6063 52.7412 75.5777 52.8467C75.646 52.9614 75.6892 53.0841 75.6892 53.2122C75.6892 53.8246 74.7284 54.4866 73.1187 54.9839C72.513 55.1708 71.8383 55.3292 71.1125 55.457C70.5671 55.553 69.9925 55.6316 69.3964 55.6915C68.5812 55.7737 67.7255 55.8217 66.8476 55.8332C66.7202 55.8348 66.5921 55.836 66.4635 55.836C66.4547 55.836 66.4464 55.836 66.4377 55.836C66.3071 55.836 66.1773 55.8348 66.0475 55.8332C65.6519 55.8284 65.2605 55.8161 64.8752 55.7963C64.2751 55.7657 63.6901 55.7177 63.1265 55.653C62.7249 55.607 62.3344 55.5526 61.957 55.4895C61.8435 55.4705 61.7307 55.451 61.6196 55.4308C61.5057 55.4097 61.3934 55.3883 61.2823 55.3657C60.7382 55.2561 60.227 55.1284 59.7571 54.9835C59.6745 54.9581 59.5944 54.9319 59.5154 54.9057C59.3388 54.847 59.1709 54.7862 59.0121 54.7235C58.8431 54.6569 58.6839 54.5882 58.5363 54.518C57.7394 54.1397 57.2627 53.7167 57.1957 53.3103C57.1901 53.2773 57.1869 53.2444 57.1869 53.2114C57.1869 53.1305 57.2048 53.0515 57.2349 52.9749C57.2524 52.9309 57.2734 52.888 57.2984 52.8459C57.2798 52.7777 57.2671 52.7086 57.2603 52.638C57.2568 52.5991 57.254 52.5598 57.254 52.5201V51.9026C56.9798 52.1264 56.7809 52.3621 56.6587 52.6078C56.6043 52.7169 56.5646 52.8277 56.5408 52.9404C56.5218 53.0297 56.5118 53.1198 56.5118 53.2111V59.0614C56.5118 59.1253 56.517 59.1888 56.5261 59.2519C56.5495 59.411 56.6027 59.5662 56.6845 59.717C56.7448 59.8281 56.8206 59.9373 56.9119 60.0436C57.006 60.1532 57.1163 60.2599 57.2425 60.3639C57.7549 60.7854 58.5315 61.1608 59.5579 61.4779C60.6306 61.8093 61.9077 62.0538 63.2992 62.2003C64.2969 62.3054 65.3538 62.3602 66.4373 62.3602C69.0316 62.3602 71.4748 62.0471 73.3171 61.4779C75.3102 60.8624 76.3635 60.027 76.3635 59.0618V53.2114C76.3635 52.7431 76.1135 52.3038 75.6213 51.903L75.6217 51.9037ZM57.5838 54.7636C57.7132 54.8478 57.8545 54.9299 58.0069 55.0101C58.1541 55.0875 58.3121 55.1625 58.4807 55.2355C58.8022 55.3748 59.161 55.5062 59.5579 55.6288C60.0353 55.7761 60.5532 55.9062 61.1033 56.0185C61.1624 56.0305 61.2219 56.0424 61.2819 56.0543C61.3105 56.0598 61.339 56.0654 61.368 56.0705C61.4513 56.0864 61.5347 56.1019 61.6192 56.1166C61.7224 56.1348 61.8272 56.1523 61.9324 56.1698C61.9403 56.1709 61.9486 56.1725 61.9566 56.1737C61.9701 56.1761 61.9839 56.1781 61.9974 56.1805C62.3657 56.2392 62.7455 56.2904 63.1345 56.3337C64.1461 56.4464 65.2212 56.5071 66.325 56.5111C66.3623 56.5111 66.3996 56.5115 66.4369 56.5115C66.5123 56.5115 66.5873 56.5115 66.6623 56.5107C66.775 56.5099 66.8877 56.5083 67 56.5063C68.4677 56.4805 69.8754 56.3539 71.1398 56.1372C71.5248 56.0713 71.8963 55.9971 72.2519 55.9146C72.5507 55.8455 72.8385 55.7705 73.1139 55.6903C73.1822 55.6705 73.25 55.6502 73.3171 55.6296C74.3815 55.301 75.1776 54.9093 75.6888 54.4687V59.0638C75.6888 59.6761 74.728 60.3381 73.1183 60.8354C71.3387 61.3851 68.9658 61.6875 66.4373 61.6875C63.9088 61.6875 61.5363 61.3847 59.7567 60.8354C59.2126 60.6675 58.7431 60.4806 58.3593 60.283C58.1712 60.1861 58.0037 60.0869 57.858 59.9857C57.7108 59.8833 57.5862 59.7793 57.4862 59.6749C57.3135 59.4952 57.2127 59.3138 57.1909 59.136C57.1881 59.1118 57.1861 59.088 57.1861 59.0638V54.4687C57.3036 54.57 57.4362 54.6684 57.5834 54.7644L57.5838 54.7636Z" fill="#F0C104"/>
<path d="M44.3584 30.5241C44.358 30.3967 44.1671 30.3185 44.1675 30.4463C44.1707 31.3179 44.1738 32.1898 44.1766 33.0613C44.1774 33.3058 44.1782 33.5499 44.1794 33.7944C44.1794 33.9225 44.3707 34.0007 44.3703 33.8721C44.3671 33.0006 44.3639 32.1291 44.3612 31.2571C44.3604 31.0127 44.3596 30.7686 44.3584 30.5241Z" fill="#FF6021"/>
<path d="M45.1168 30.8103C45.1164 30.6829 44.9232 30.6122 44.924 30.74C44.9267 31.6127 44.9299 32.4851 44.9327 33.3578C44.9335 33.6027 44.9343 33.8471 44.9351 34.092C44.9351 34.2202 45.1283 34.2905 45.1283 34.1619C45.1256 33.2895 45.1224 32.4168 45.1196 31.5445C45.1188 31.2996 45.118 31.0551 45.1172 30.8103H45.1168Z" fill="#FF6021"/>
<path d="M45.8832 31.0651C45.8828 30.9377 45.6875 30.875 45.6883 31.0027C45.6911 31.8763 45.6939 32.7498 45.6966 33.6229C45.6974 33.8682 45.6982 34.1131 45.699 34.3583C45.699 34.4865 45.8943 34.5488 45.8939 34.4206C45.8911 33.5471 45.8883 32.674 45.8855 31.8005C45.8847 31.5552 45.884 31.3103 45.8832 31.0651Z" fill="#FF6021"/>
<path d="M46.6567 31.2897C46.6563 31.1623 46.4594 31.1075 46.4598 31.2349C46.4622 32.1092 46.465 32.9836 46.4674 33.8579C46.4682 34.1035 46.469 34.3492 46.4694 34.5945C46.4694 34.7227 46.6666 34.7774 46.6662 34.6488C46.6638 33.7745 46.6611 32.9002 46.6587 32.0259C46.6579 31.7802 46.6571 31.5346 46.6567 31.2893V31.2897Z" fill="#FF6021"/>
<path d="M47.4366 31.4834C47.4362 31.356 47.2381 31.3088 47.2385 31.4365C47.2409 32.3117 47.2433 33.1872 47.2457 34.0623C47.2465 34.3083 47.2469 34.5544 47.2477 34.8004C47.2477 34.9286 47.4461 34.9755 47.4461 34.8473C47.4437 33.9722 47.4413 33.0967 47.4389 32.2216C47.4382 31.9755 47.4378 31.7294 47.437 31.4834H47.4366Z" fill="#FF6021"/>
<path d="M48.2215 31.6461C48.2215 31.5187 48.0215 31.4794 48.0219 31.6072C48.0239 32.4835 48.0263 33.3598 48.0283 34.2357C48.0291 34.4821 48.0295 34.7286 48.0302 34.9751C48.0302 35.1032 48.2299 35.1421 48.2299 35.0139C48.2279 34.1376 48.2255 33.2617 48.2235 32.3854C48.2227 32.139 48.2223 31.8925 48.2215 31.6461Z" fill="#FF6021"/>
<path d="M49.011 31.7782C49.011 31.6508 48.8102 31.6195 48.8105 31.7469C48.8125 32.624 48.8145 33.5011 48.8165 34.3786C48.8169 34.6254 48.8177 34.8723 48.8181 35.1191C48.8181 35.2473 49.0189 35.2787 49.0185 35.1501C49.0165 34.273 49.0145 33.3959 49.0126 32.5188C49.0122 32.272 49.0114 32.0251 49.011 31.7782Z" fill="#FF6021"/>
<path d="M49.8039 31.8794C49.8039 31.752 49.6023 31.7282 49.6027 31.856C49.6042 32.7343 49.6062 33.6122 49.6078 34.4905C49.6082 34.7377 49.609 34.985 49.6094 35.2326C49.6094 35.3608 49.811 35.3842 49.8106 35.256C49.8086 34.3778 49.8071 33.4999 49.8055 32.6216C49.8051 32.3743 49.8047 32.1271 49.8039 31.8794Z" fill="#FF6021"/>
<path d="M50.5992 31.9501C50.5992 31.8227 50.3972 31.8068 50.3972 31.9346C50.3988 32.8137 50.4004 33.6928 50.402 34.5718C50.402 34.8195 50.4028 35.0675 50.4032 35.3152C50.4032 35.443 50.6052 35.4588 50.6052 35.3307C50.6036 34.4516 50.602 33.5725 50.6004 32.6934C50.6 32.4458 50.5996 32.1977 50.5992 31.9501Z" fill="#FF6021"/>
<path d="M51.3966 31.9902C51.3966 31.8628 51.1942 31.8548 51.1942 31.9822C51.1953 32.8625 51.1969 33.7424 51.1981 34.6226C51.1985 34.8711 51.1989 35.1191 51.1993 35.3676C51.1993 35.4954 51.4017 35.5037 51.4017 35.3755C51.4005 34.4952 51.3989 33.6154 51.3977 32.7351C51.3974 32.4871 51.397 32.2386 51.3966 31.9906V31.9902Z" fill="#FF6021"/>
<path d="M52.1947 31.9993C52.1947 31.8719 51.9922 31.8715 51.9922 31.9993C51.9934 32.8804 51.9946 33.7618 51.9958 34.6429C51.9958 34.8917 51.9966 35.1402 51.9966 35.389C51.9966 35.5168 52.199 35.5172 52.199 35.389C52.1978 34.5079 52.1966 33.6265 52.1954 32.7454C52.1954 32.4966 52.1947 32.2481 52.1947 31.9993Z" fill="#FF6021"/>
<path d="M52.9924 31.9775C52.9924 31.8501 52.79 31.8576 52.79 31.9854C52.7908 32.8677 52.792 33.7499 52.7928 34.6322C52.7928 34.8814 52.7932 35.1306 52.7936 35.3795C52.7936 35.5073 52.996 35.4997 52.996 35.3715C52.9952 34.4893 52.994 33.607 52.9932 32.7248C52.9932 32.4755 52.9928 32.2263 52.9924 31.9775Z" fill="#FF6021"/>
<path d="M53.7893 31.9255C53.7893 31.7981 53.5873 31.8136 53.5873 31.9409C53.5881 32.8244 53.5885 33.7074 53.5893 34.5909C53.5893 34.8405 53.5893 35.0901 53.5897 35.3398C53.5897 35.4676 53.7917 35.4525 53.7917 35.3243C53.7909 34.4409 53.7905 33.5578 53.7897 32.6744C53.7897 32.4247 53.7897 32.1751 53.7893 31.9255Z" fill="#FF6021"/>
<path d="M54.5843 31.8421C54.5843 31.7147 54.3831 31.7378 54.3831 31.8655C54.3835 32.7498 54.3839 33.6344 54.3846 34.5187C54.3846 34.7687 54.3846 35.0187 54.3846 35.2691C54.3846 35.3969 54.5863 35.3739 54.5859 35.2457C54.5855 34.3615 54.5847 33.4769 54.5843 32.5926C54.5843 32.3426 54.5843 32.0926 54.5843 31.8421Z" fill="#FF6021"/>
<path d="M55.3764 31.7282C55.3764 31.6008 55.176 31.6318 55.176 31.7596C55.176 32.645 55.1764 33.5304 55.1768 34.4159C55.1768 34.6663 55.1768 34.9171 55.1768 35.1675C55.1768 35.2953 55.3772 35.2644 55.3772 35.1362C55.3772 34.2508 55.3768 33.3653 55.3764 32.4799C55.3764 32.2295 55.3764 31.9787 55.3764 31.7282Z" fill="#FF6021"/>
<path d="M56.165 31.5838C56.165 31.4564 55.9653 31.4953 55.9653 31.6226C55.9653 32.5093 55.9653 33.3959 55.9653 34.2825C55.9653 34.5337 55.9653 34.7845 55.9653 35.0358C55.9653 35.1636 56.165 35.1251 56.165 34.9969C56.165 34.1103 56.165 33.2236 56.165 32.337C56.165 32.0858 56.165 31.835 56.165 31.5838Z" fill="#FF6021"/>
<path d="M56.7504 31.4552C56.7504 32.343 56.7504 33.2304 56.75 34.1182C56.75 34.3698 56.75 34.6215 56.75 34.8731C56.75 35.0009 56.9484 34.9544 56.948 34.8262C56.948 33.9384 56.948 33.051 56.9484 32.1632C56.9484 31.9116 56.9484 31.66 56.9484 31.4084C56.9484 31.281 56.7504 31.3274 56.7504 31.4552Z" fill="#FF6021"/>
<path d="M57.5302 31.2571C57.5298 32.1461 57.5294 33.0347 57.5291 33.9237C57.5291 34.1758 57.5291 34.4278 57.5291 34.6798C57.5291 34.808 57.7259 34.7536 57.7259 34.6254C57.7259 33.7364 57.7267 32.8478 57.7271 31.9588C57.7271 31.7068 57.7271 31.4548 57.7271 31.2028C57.7271 31.0754 57.5306 31.1298 57.5302 31.2571Z" fill="#FF6021"/>
<path d="M58.3034 31.0277C58.303 31.9175 58.3022 32.8077 58.3018 33.6975C58.3018 33.9499 58.3018 34.2027 58.3014 34.4552C58.3014 34.5833 58.4963 34.521 58.4963 34.3928C58.4967 33.5031 58.4975 32.6129 58.4978 31.7231C58.4978 31.4707 58.4978 31.2178 58.4982 30.9654C58.4982 30.838 58.3034 30.9003 58.3034 31.0277Z" fill="#FF6021"/>
<path d="M59.0697 30.7682C59.0689 31.6592 59.0681 32.5506 59.0673 33.4415C59.0673 33.6948 59.0669 33.9476 59.0665 34.2008C59.0665 34.329 59.2594 34.2587 59.2594 34.1305C59.2602 33.2395 59.261 32.3482 59.2618 31.4572C59.2618 31.204 59.2622 30.9512 59.2626 30.698C59.2626 30.5706 59.0697 30.6404 59.0697 30.7682Z" fill="#FF6021"/>
<path d="M59.8282 30.4777C59.8274 31.3698 59.8262 32.2624 59.8254 33.1546C59.8254 33.4082 59.825 33.6618 59.8246 33.9154C59.8246 34.0436 60.0155 33.9658 60.0155 33.8376C60.0167 32.9454 60.0175 32.0529 60.0183 31.1607C60.0183 30.9071 60.0187 30.6535 60.0191 30.3999C60.0191 30.2725 59.8286 30.3503 59.8282 30.4777Z" fill="#FF6021"/>
<path d="M35.3771 60.9945V58.4799C35.3771 58.4716 35.3771 58.4633 35.3771 58.4549C35.3771 58.4522 35.3771 58.4498 35.3771 58.4474V40.4797C35.3771 40.4714 35.3771 40.463 35.3771 40.4547C35.3771 40.4519 35.3771 40.4495 35.3771 40.4472V38.4644C35.3771 37.3539 34.7878 36.3058 33.8384 35.7291L32.3406 34.8191C32.1688 34.9334 31.9735 35.0382 31.7588 35.1334C31.7203 35.1505 31.6814 35.1672 31.6417 35.1838C31.304 35.3239 30.9234 35.4418 30.5158 35.537C30.4396 35.5735 30.3547 35.6097 30.2606 35.6454C29.6193 35.8879 28.76 36.0216 27.8401 36.0216C26.9201 36.0216 26.0609 35.8879 25.4199 35.6454C25.3259 35.6097 25.241 35.5735 25.1648 35.537C24.7572 35.4418 24.3766 35.3239 24.0388 35.1838C23.9991 35.1672 23.9602 35.1505 23.9217 35.1334C23.707 35.0382 23.5114 34.9334 23.3399 34.8191L21.8421 35.7291C20.8932 36.3062 20.3038 37.3543 20.3038 38.4644V62.9527C20.3038 62.9527 20.3038 62.9539 20.3038 62.9547C20.3038 63.7199 21.115 64.3751 22.6502 64.8494C23.759 65.1919 25.1552 65.4114 26.6665 65.4864C27.0515 65.5054 27.4436 65.5153 27.8405 65.5153C29.0426 65.5153 30.2019 65.4256 31.2401 65.2574C31.891 65.1518 32.4946 65.0149 33.0308 64.8494C34.5659 64.3755 35.3775 63.7203 35.3775 62.9547C35.3775 62.9515 35.3775 62.9488 35.3771 62.946V60.9945ZM32.4403 59.8166C32.085 59.9111 31.7037 59.9936 31.3016 60.0631C30.2582 60.2441 29.0736 60.3405 27.8405 60.3405C27.1531 60.3405 26.5086 60.3115 25.9109 60.2603C25.4846 60.2234 25.0822 60.1754 24.7056 60.1175C22.343 59.7555 20.9785 59.0241 20.9785 58.4546V41.5707C21.371 41.8648 21.9314 42.1267 22.6502 42.3486C24.0412 42.778 25.8847 43.0149 27.8405 43.0149C29.7963 43.0149 31.612 42.782 32.9994 42.3585C33.7333 42.1347 34.304 41.8692 34.7024 41.5699V58.4724C34.6858 58.7978 34.1786 59.2931 32.8022 59.713C32.6851 59.7488 32.5641 59.7833 32.4403 59.8158V59.8166ZM27.8405 64.8407C23.5907 64.8407 20.9805 63.7429 20.9785 62.9555V62.9547V59.5714C21.371 59.8654 21.9314 60.1274 22.6502 60.3492C22.816 60.4004 22.9883 60.4488 23.1665 60.4945C23.3891 60.5516 23.6209 60.604 23.8606 60.652C24.1388 60.708 24.4282 60.7576 24.7262 60.8013C25.6894 60.9414 26.7475 61.0156 27.8401 61.0156C29.5566 61.0156 31.1889 60.8326 32.5034 60.4973C32.674 60.4536 32.8395 60.4076 32.9987 60.3592C33.1082 60.3258 33.2134 60.2913 33.3158 60.256C33.5404 60.1786 33.7472 60.0968 33.9357 60.0111C34.2373 59.8742 34.4933 59.7269 34.7016 59.5706V62.9547C34.7016 62.9547 34.7016 62.9575 34.7016 62.9591C34.6921 63.7465 32.0835 64.8407 27.8397 64.8407H27.8405ZM20.9785 38.4644C20.9785 37.5881 21.4437 36.761 22.1926 36.3054L23.9456 35.2402C24.0646 35.6537 24.4928 36.0157 25.1814 36.276C25.897 36.5467 26.8415 36.6959 27.8405 36.6959C28.8394 36.6959 29.784 36.5467 30.4995 36.276C31.1877 36.0157 31.6159 35.6537 31.7354 35.2402L33.488 36.3054C34.2369 36.7606 34.702 37.5877 34.702 38.4644V40.4726C34.6854 40.798 34.1782 41.2933 32.8018 41.7132C31.4766 42.1176 29.7145 42.3403 27.8401 42.3403C23.5888 42.3403 20.9781 41.2417 20.9781 40.4543V38.464L20.9785 38.4644Z" fill="#FF6021"/>
<path d="M75.1705 71.4343C75.2864 71.0851 75.288 70.7386 75.1737 70.3993C74.8248 69.363 73.4632 68.7197 72.6821 68.4284C68.4498 66.8512 64.3775 65.7467 60.2333 65.0522C56.2916 64.3918 52.2201 64.0727 47.4572 64.0529C47.3413 64.0525 47.225 64.0521 47.1083 64.0521C47.0662 64.0521 47.025 64.0521 46.9829 64.0521C46.9075 64.0521 46.8309 64.0521 46.7551 64.0525C46.5297 64.0529 46.3027 64.0537 46.0772 64.0556C45.8911 64.0572 45.7411 64.2092 45.7427 64.3958C45.7443 64.5811 45.8951 64.7303 46.08 64.7303C46.0808 64.7303 46.082 64.7303 46.0828 64.7303C46.3824 64.7279 46.6848 64.7267 46.9817 64.7267C46.9821 64.7267 46.9829 64.7267 46.9833 64.7267C46.9833 64.7267 46.9837 64.7267 46.9841 64.7267C51.9137 64.7267 56.0884 65.0419 60.1222 65.7177C64.2235 66.4051 68.255 67.4985 72.4468 69.0606C74.0616 69.6631 74.4446 70.3481 74.5343 70.6144C74.5998 70.8088 74.5986 71.0081 74.5308 71.2172C74.4982 71.3176 74.4498 71.4208 74.3859 71.5264C74.3791 71.5375 74.3728 71.5486 74.3656 71.5597C74.2994 71.6645 74.1966 71.7395 74.0708 71.7887C73.864 71.8697 73.5929 71.8808 73.312 71.8419C73.256 71.834 73.1992 71.8245 73.1429 71.8125C72.9794 71.7788 72.8159 71.7292 72.6631 71.6677C72.2769 71.5121 71.8971 71.3609 71.522 71.2133C70.9224 70.9771 70.337 70.7509 69.7635 70.5342C69.1531 70.3036 68.5566 70.0838 67.9712 69.8738C65.2518 68.8983 62.7726 68.1347 60.283 67.4993C55.8876 66.3773 51.4624 65.6574 46.3574 65.234C46.357 65.234 46.3566 65.234 46.3562 65.234C46.3451 65.2332 46.334 65.2328 46.3229 65.2328C46.3166 65.2328 46.3102 65.2336 46.3039 65.234C46.2995 65.234 46.2951 65.2344 46.2908 65.2348C46.2828 65.2355 46.2749 65.2371 46.2669 65.2383C46.2642 65.2387 46.2614 65.2391 46.259 65.2395C46.2511 65.2411 46.2431 65.2435 46.2352 65.2455C46.2324 65.2463 46.2296 65.2467 46.2273 65.2478C46.2201 65.2502 46.213 65.253 46.2058 65.2558C46.2027 65.257 46.1995 65.2582 46.1963 65.2594C46.19 65.2621 46.184 65.2653 46.1776 65.2681C46.1741 65.2701 46.1701 65.2717 46.1665 65.2736C46.161 65.2768 46.1558 65.28 46.1503 65.2836C46.1463 65.2859 46.1423 65.2883 46.1384 65.2911C46.1328 65.2947 46.1276 65.299 46.1225 65.303C46.1189 65.3058 46.1153 65.3082 46.1122 65.311C46.1054 65.3169 46.0987 65.3229 46.0923 65.3292C46.0911 65.3304 46.0895 65.3316 46.0883 65.3328C46.0804 65.3407 46.0729 65.3494 46.0657 65.3582C46.0657 65.3586 46.0649 65.359 46.0645 65.3594C46.0245 65.4098 45.9983 65.4725 45.9923 65.5415C45.9852 65.6265 46.0106 65.7062 46.0574 65.7697C46.0721 65.7896 46.0891 65.8078 46.1078 65.8241C46.1602 65.8694 46.2265 65.8995 46.3007 65.9055C46.359 65.9102 46.4166 65.9154 46.4749 65.9202C46.4011 66.0055 46.3237 66.088 46.2443 66.1686C46.1515 66.2623 46.055 66.3527 45.955 66.4389C45.7994 66.5734 45.6355 66.6992 45.4629 66.8151C44.5005 67.4616 43.2944 67.7974 42.1017 67.7978C41.329 67.7978 40.5619 67.6569 39.8701 67.3676C39.7939 67.3358 39.7181 67.3005 39.6431 67.2644C39.4951 67.1925 39.3498 67.1124 39.2081 67.0243C39.1089 66.9623 39.0109 66.8965 38.9156 66.827C38.8775 66.9246 38.8629 67.0179 38.8629 67.1028C38.8629 67.46 39.1161 67.9637 40.323 68.3363C41.1425 68.5895 42.2256 68.7288 43.3729 68.7288C44.5203 68.7288 45.6034 68.5895 46.4229 68.3363C46.9464 68.1748 47.2901 67.9883 47.5119 67.8001L73.0409 72.4781L73.0488 72.4793C73.0651 72.4817 73.0841 72.4853 73.106 72.4888C73.129 72.4928 73.1524 72.4976 73.1754 72.5011C73.179 72.5019 73.1822 72.5023 73.1857 72.5031C73.6961 72.5932 74.1942 72.6631 74.6149 72.6631C75.2074 72.6631 75.6452 72.5237 75.744 72.1046C75.771 71.9896 75.7468 71.8693 75.6761 71.7665C75.6134 71.676 75.5106 71.5716 75.1705 71.4327V71.4343ZM60.1167 68.1534C61.3291 68.4629 62.5392 68.803 63.7766 69.1837C62.9246 69.0487 62.0296 68.9098 61.0914 68.7669C55.3129 67.8859 49.5439 67.1009 47.8461 66.8719C47.7485 66.5706 47.4326 66.2194 46.6102 65.9325C51.5474 66.3559 55.8475 67.0632 60.1171 68.153L60.1167 68.1534Z" fill="#231815"/>
<path d="M35.3771 60.6465V62.9456C35.3771 62.9484 35.3775 62.9515 35.3775 62.9543C35.3775 63.7195 34.5659 64.3747 33.0308 64.849C32.4946 65.0145 31.891 65.1514 31.2401 65.257C30.2019 65.4256 29.0426 65.5149 27.8405 65.5149C27.4436 65.5149 27.0515 65.505 26.6665 65.486C25.1552 65.411 23.759 65.1911 22.6502 64.849C21.1151 64.3751 20.3038 63.7199 20.3038 62.9543C20.3038 62.9535 20.3038 62.9531 20.3038 62.9523V62.2971C20.2272 62.4685 20.1876 62.6451 20.1876 62.8269C20.1876 64.8724 25.0524 65.9757 29.63 65.9757C32.095 65.9757 34.4171 65.6781 36.1681 65.1371C36.5586 65.0165 36.9107 64.8867 37.2246 64.749C37.1782 64.6454 37.1353 64.541 37.0968 64.4358C37.0575 64.3291 37.0226 64.2215 36.9916 64.114C36.8845 63.7385 36.8297 63.3607 36.8313 62.9932C36.8019 62.6003 37.0837 62.2344 37.6711 61.9002C37.7747 61.8411 37.8882 61.7831 38.0108 61.726C38.1227 61.674 38.2422 61.6232 38.3696 61.5728C37.7175 61.0378 36.6567 60.6112 35.3767 60.2992V60.6461L35.3771 60.6465Z" fill="#231815"/>
<path d="M76.3639 56.4095V59.0626C76.3639 60.0278 75.3106 60.8632 73.3175 61.4787C71.4752 62.0475 69.0317 62.361 66.4377 62.361C65.3542 62.361 64.2978 62.3062 63.2996 62.201C61.9082 62.0546 60.631 61.8101 59.5583 61.4787C58.5316 61.1616 57.7553 60.7862 57.2429 60.3647C57.1163 60.2607 57.006 60.154 56.9123 60.0444C56.8211 59.9381 56.7449 59.8289 56.6849 59.7178C56.6032 59.567 56.55 59.4118 56.5266 59.2527C56.5174 59.19 56.5123 59.1265 56.5123 59.0622V58.0962C56.3631 58.2676 56.2476 58.4442 56.1678 58.626C54.8966 58.8169 53.4901 58.9177 52.0312 58.9177C49.5027 58.9177 47.1302 58.6149 45.3506 58.0656C45.2684 58.0402 45.1883 58.0144 45.1093 57.9882C44.6001 57.8188 44.1635 57.6326 43.8103 57.4374C43.5385 57.2869 43.3166 57.1314 43.1491 56.9738C42.9086 56.7476 42.78 56.5174 42.78 56.294V35.949C43.2912 36.3895 44.0873 36.7808 45.1518 37.1098C46.994 37.679 49.4372 37.9921 52.0312 37.9921C54.6251 37.9921 57.0687 37.679 58.911 37.1098C59.9754 36.7812 60.7715 36.3895 61.2827 35.949V45.2533C58.9582 45.7546 57.2544 46.6198 57.2544 47.8159V52.5201C57.2544 52.5598 57.2568 52.5991 57.2608 52.638C57.2675 52.7086 57.2802 52.7777 57.2989 52.8459C57.3112 52.8916 57.3259 52.9368 57.3433 52.9813C57.391 53.1019 57.4572 53.2186 57.5402 53.3317C57.8335 53.7294 58.3395 54.077 58.9979 54.3727C59.1459 54.439 59.3019 54.5029 59.4646 54.564C59.6206 54.6227 59.7829 54.6791 59.9512 54.7327C60.3636 54.8644 60.81 54.9815 61.2827 55.0831C61.3938 55.1069 61.5062 55.1303 61.6201 55.1526C61.7312 55.1744 61.8439 55.1954 61.9574 55.2157C62.7051 55.3482 63.5016 55.4462 64.3156 55.5085C64.8082 55.5463 65.307 55.5709 65.8051 55.5824C65.9654 55.5859 66.1254 55.5883 66.2853 55.5891C66.3365 55.5891 66.3873 55.5895 66.4385 55.5895C66.5294 55.5895 66.6199 55.5887 66.7108 55.5879C67.7803 55.5776 68.8594 55.5054 69.8806 55.3736C72.7937 54.9982 75.2273 54.1385 75.5781 52.8455C75.6067 52.74 75.6222 52.6316 75.6222 52.5201C75.6222 52.5201 75.6222 52.5197 75.6222 52.5193V47.8155C75.6222 45.822 70.8906 44.7465 66.4385 44.7465C64.9101 44.7465 63.3488 44.8731 61.9574 45.1204V34.6929C61.9574 34.2246 61.7074 33.7852 61.2152 33.3844V28.1722C61.2152 26.1791 56.4833 25.1036 52.0312 25.1036C47.579 25.1036 42.8475 26.1791 42.8475 28.1722V33.384C42.3554 33.7856 42.1053 34.225 42.1053 34.6929V56.2932C42.1053 57.2024 43.0404 57.9966 44.8152 58.6002C45.3363 58.8764 45.9717 59.1312 46.7162 59.361C48.9435 60.0488 51.8986 60.4274 55.0367 60.4274C55.53 60.4274 56.0186 60.4179 56.5008 60.3996C57.0659 61.058 58.1359 61.6395 59.6762 62.1149C61.9034 62.8027 64.8586 63.1813 67.9966 63.1813C71.1347 63.1813 74.0903 62.8027 76.3175 62.1149C78.7011 61.3791 79.9608 60.3897 79.9608 59.2539C79.9608 58.118 78.717 57.1421 76.3639 56.4079V56.4095ZM45.8749 26.5645C47.5143 26.0585 49.7003 25.7795 52.0304 25.7795C54.3604 25.7795 56.5468 26.0581 58.1863 26.5645C59.6599 27.0193 60.5398 27.621 60.5398 28.1734C60.5398 28.7259 59.6599 29.3279 58.1863 29.7828C56.5468 30.2888 54.3604 30.5678 52.0304 30.5678C49.7003 30.5678 47.514 30.2892 45.8749 29.7828C44.4013 29.3279 43.5214 28.7263 43.5214 28.1734C43.5214 27.6206 44.4013 27.0193 45.8745 26.5645H45.8749ZM43.5218 34.0031V29.3879C44.9835 30.5999 48.5903 31.2425 52.0308 31.2425C55.4713 31.2425 59.0785 30.5999 60.5402 29.3879V34.0027C60.5402 34.5552 59.6603 35.1568 58.1867 35.612C56.5472 36.1185 54.3608 36.3971 52.0308 36.3971C49.7007 36.3971 47.5143 36.1185 45.8749 35.612C44.4021 35.1572 43.5226 34.556 43.5218 34.0039C43.5218 34.0039 43.5218 34.0031 43.5218 34.0027V34.0031ZM58.7118 36.4657C56.9322 37.0154 54.5593 37.3178 52.0308 37.3178C49.5023 37.3178 47.1298 37.015 45.3502 36.4657C43.7405 35.9688 42.7796 35.3065 42.7796 34.6941C42.7796 34.5663 42.8233 34.4433 42.8912 34.329C43.3757 36.1137 47.8275 37.0725 52.0308 37.0725C56.2341 37.0725 60.6862 36.1137 61.1704 34.329C61.2387 34.4436 61.2819 34.5667 61.2819 34.6945C61.2819 35.3069 60.3211 35.9688 58.7114 36.4661L58.7118 36.4657ZM60.2822 46.2078C60.5965 46.111 60.9311 46.0221 61.2823 45.9423C61.3931 45.9173 61.5054 45.8927 61.6197 45.8693C61.7308 45.8466 61.8431 45.8244 61.957 45.8034C63.2945 45.5553 64.832 45.4228 66.4381 45.4228C68.7682 45.4228 70.9542 45.7018 72.5936 46.2078C74.0672 46.663 74.9471 47.2643 74.9471 47.8171C74.9471 48.37 74.0672 48.9712 72.5936 49.4264C70.9542 49.9329 68.7678 50.2115 66.4381 50.2115C64.832 50.2115 63.2945 50.0789 61.957 49.8309C61.8431 49.8098 61.7308 49.7876 61.6197 49.765C61.5054 49.7416 61.3931 49.717 61.2823 49.692C60.9307 49.6122 60.5961 49.5233 60.2822 49.4264C58.8086 48.9712 57.9287 48.37 57.9287 47.8171C57.9287 47.2643 58.8086 46.663 60.2822 46.2078ZM72.594 54.131C70.9545 54.6374 68.7682 54.916 66.4381 54.916C66.3127 54.916 66.1873 54.9152 66.0627 54.9132C65.8543 54.9105 65.6475 54.9057 65.442 54.8986C65.1784 54.8894 64.9177 54.8767 64.6605 54.8605C63.7029 54.7997 62.7912 54.6902 61.957 54.5354C61.8431 54.5144 61.7308 54.4922 61.6197 54.4695C61.5054 54.4461 61.3931 54.4219 61.2823 54.3965C61.126 54.3608 60.9732 54.3235 60.8239 54.2846C60.6684 54.2441 60.5171 54.2016 60.3695 54.1572C60.3401 54.1485 60.3108 54.1397 60.2818 54.1306C60.1544 54.0913 60.0322 54.0508 59.9139 54.0096C59.4003 53.8298 58.9741 53.6321 58.6499 53.4265C58.4522 53.3011 58.2927 53.1729 58.174 53.0444C58.0645 52.9253 57.9906 52.8054 57.9545 52.6872C57.9375 52.6316 57.9287 52.5764 57.9287 52.5221V49.032C58.634 49.6166 59.8381 50.0686 61.2823 50.3801C61.3934 50.404 61.5058 50.4274 61.6197 50.4496C61.7308 50.4714 61.8435 50.4925 61.957 50.5127C63.3485 50.7599 64.9098 50.8866 66.4381 50.8866C69.8786 50.8866 73.4854 50.244 74.9471 49.032V52.5221C74.9471 52.5221 74.9471 52.5221 74.9471 52.5225C74.9471 53.0749 74.0672 53.6766 72.594 54.1314V54.131Z" fill="#231815"/>
<path d="M58.7657 50.3924C58.7653 50.2651 58.5744 50.1865 58.5748 50.3147C58.5768 50.8568 58.5812 51.4001 58.584 51.9426C58.5852 52.1411 58.5859 52.3391 58.5867 52.5376C58.5867 52.6657 58.778 52.7439 58.7776 52.6153C58.7756 52.0732 58.7713 51.5299 58.7685 50.9874C58.7673 50.7889 58.7665 50.5909 58.7657 50.3924Z" fill="#231815"/>
<path d="M59.5261 51.2743C59.5249 51.0755 59.5242 50.877 59.5238 50.6782C59.5234 50.5508 59.3301 50.4801 59.3309 50.6079C59.3329 51.1513 59.3368 51.6954 59.3396 52.2387C59.3404 52.434 59.3412 52.6296 59.342 52.8249C59.342 52.828 59.342 52.8312 59.342 52.8348C59.342 52.963 59.5353 53.0332 59.5353 52.9046C59.5353 52.886 59.5353 52.8673 59.5353 52.8487C59.5333 52.324 59.5293 51.7986 59.5269 51.2739L59.5261 51.2743Z" fill="#231815"/>
<path d="M60.2925 51.5303C60.2917 51.331 60.2909 51.1322 60.2901 50.9334C60.2897 50.806 60.0944 50.7433 60.0952 50.8711C60.0968 51.4152 60.1008 51.9601 60.1036 52.505C60.1043 52.6459 60.1047 52.7872 60.1051 52.9281C60.1051 52.986 60.1055 53.044 60.1059 53.1019C60.1059 53.2301 60.3012 53.2924 60.3008 53.1642C60.3008 53.0952 60.3 53.0265 60.3 52.9574C60.298 52.482 60.2948 52.0061 60.2929 51.5307L60.2925 51.5303Z" fill="#231815"/>
<path d="M61.0724 53.0884C61.0704 52.6443 61.068 52.2002 61.066 51.7557C61.0652 51.5561 61.0644 51.3569 61.064 51.1576C61.0636 51.0302 60.8668 50.9755 60.8672 51.1032C60.8688 51.6486 60.8723 52.1943 60.8747 52.74C60.8751 52.8443 60.8755 52.9487 60.8759 53.0531C60.8759 53.1479 60.8767 53.2432 60.8771 53.338C60.8771 53.3591 60.8827 53.3777 60.8918 53.3944C60.893 53.3964 60.8938 53.3984 60.8946 53.4C60.9355 53.4678 61.0367 53.4908 61.066 53.4313C61.0712 53.421 61.074 53.4083 61.074 53.3924C61.074 53.3293 61.0736 53.2662 61.0732 53.2031C61.0732 53.165 61.0732 53.1269 61.0728 53.0884H61.0724Z" fill="#231815"/>
<path d="M61.851 53.2118C61.8494 52.7916 61.8471 52.3713 61.8455 51.951C61.8447 51.7513 61.8439 51.5513 61.8435 51.3517C61.8435 51.2243 61.6451 51.1771 61.6454 51.3049C61.647 51.8514 61.6502 52.3979 61.6526 52.9443C61.6526 53.0309 61.653 53.1174 61.6534 53.2039C61.6534 53.317 61.6542 53.4305 61.6546 53.5436C61.6546 53.546 61.655 53.5476 61.6554 53.55C61.6554 53.5512 61.6554 53.5524 61.6554 53.5536C61.6657 53.6726 61.8494 53.7139 61.8522 53.5928C61.8522 53.5917 61.8522 53.5909 61.8522 53.5901C61.8522 53.4754 61.8514 53.3611 61.851 53.2464C61.851 53.2349 61.851 53.2233 61.851 53.2114V53.2118Z" fill="#231815"/>
<path d="M62.6301 52.1149C62.6293 51.9149 62.6289 51.7144 62.6281 51.5144C62.6281 51.387 62.4281 51.3477 62.4285 51.4755C62.4297 52.0228 62.4328 52.5705 62.4348 53.1182C62.4348 53.2071 62.4352 53.296 62.4356 53.3845C62.4356 53.496 62.4364 53.6071 62.4368 53.7187C62.4368 53.7238 62.4376 53.7286 62.4384 53.7333C62.4523 53.8401 62.6079 53.875 62.6329 53.7841C62.6352 53.7762 62.6364 53.7675 62.6364 53.7576C62.6364 53.6504 62.6356 53.5432 62.6352 53.4357C62.6336 52.9956 62.6317 52.555 62.6301 52.1149Z" fill="#231815"/>
<path d="M63.4195 52.2482C63.4187 52.0478 63.4183 51.847 63.4179 51.6466C63.4179 51.5192 63.2171 51.4878 63.2175 51.6152C63.2187 52.1637 63.2214 52.7122 63.2234 53.2607C63.2234 53.3738 63.2242 53.4873 63.2242 53.6004C63.2242 53.6877 63.2246 53.775 63.225 53.8623C63.225 53.9905 63.4258 54.0219 63.4254 53.8933C63.4254 53.8159 63.425 53.7389 63.4246 53.6615C63.423 53.1904 63.4211 52.7189 63.4195 52.2478V52.2482Z" fill="#231815"/>
<path d="M64.212 52.3506C64.2112 52.1498 64.2108 51.9486 64.2104 51.7478C64.2104 51.6204 64.0088 51.5966 64.0092 51.7244C64.0104 52.2736 64.0128 52.8233 64.0144 53.373C64.0148 53.5357 64.0152 53.698 64.0156 53.8607C64.0156 53.8992 64.0156 53.9373 64.0156 53.9758C64.0156 54.104 64.2172 54.1274 64.2168 53.9992C64.2168 53.9782 64.2168 53.9568 64.2168 53.9357C64.2156 53.4075 64.2132 52.8793 64.2116 52.3506H64.212Z" fill="#231815"/>
<path d="M65.0061 51.8184C65.0061 51.691 64.8041 51.6751 64.8041 51.8029C64.8049 52.3534 64.8073 52.9038 64.8089 53.4547C64.8093 53.6559 64.8097 53.8575 64.8101 54.0588C64.8101 54.1865 65.0121 54.2024 65.0121 54.0742C65.0109 53.5238 65.0089 52.9733 65.0073 52.4224C65.0069 52.2212 65.0065 52.0196 65.0061 51.8184Z" fill="#231815"/>
<path d="M65.8035 51.8581C65.8035 51.7307 65.6011 51.7228 65.6011 51.8502C65.6019 52.4018 65.6039 52.9535 65.605 53.5051C65.6054 53.7067 65.6058 53.9087 65.6062 54.1104C65.6062 54.2381 65.8086 54.2465 65.8086 54.1183C65.8078 53.5666 65.8059 53.015 65.8047 52.4633C65.8043 52.2617 65.8039 52.0597 65.8035 51.8581Z" fill="#231815"/>
<path d="M66.6016 51.8672C66.6016 51.7398 66.3992 51.7394 66.3992 51.8672C66.4 52.4201 66.4015 52.9725 66.4027 53.5254C66.4027 53.7274 66.4035 53.9298 66.4035 54.1318C66.4035 54.2596 66.6059 54.26 66.6059 54.1318C66.6051 53.5789 66.6036 53.0265 66.6024 52.4736C66.602 52.2716 66.6016 52.0692 66.6016 51.8672Z" fill="#231815"/>
<path d="M67.3993 51.8458C67.3993 51.7184 67.1969 51.7259 67.1969 51.8537C67.1973 52.4074 67.1989 52.9614 67.1997 53.515C67.1997 53.7178 67.2001 53.9202 67.2005 54.123C67.2005 54.2508 67.4029 54.2433 67.4029 54.1151C67.4025 53.5615 67.4009 53.0074 67.4001 52.4538C67.4001 52.251 67.3997 52.0486 67.3993 51.8458Z" fill="#231815"/>
<path d="M68.1963 51.7934C68.1963 51.666 67.9943 51.6815 67.9943 51.8089C67.9947 52.3637 67.9958 52.9186 67.9962 53.4734C67.9962 53.6766 67.9966 53.8794 67.9966 54.0826C67.9966 54.2104 68.1986 54.1953 68.1986 54.0671C68.1983 53.5123 68.1971 52.9575 68.1967 52.4026C68.1967 52.1994 68.1963 51.9966 68.1963 51.7934Z" fill="#231815"/>
<path d="M68.9912 51.7104C68.9912 51.5831 68.79 51.6061 68.79 51.7339C68.79 52.2899 68.7908 52.8459 68.7916 53.4019C68.7916 53.6055 68.7916 53.8087 68.7916 54.0123C68.7916 54.1401 68.9932 54.1171 68.9928 53.9889C68.9928 53.4329 68.992 52.8769 68.9912 52.3208C68.9912 52.1172 68.9912 51.914 68.9912 51.7104Z" fill="#231815"/>
<path d="M69.7833 51.5966C69.7833 51.4692 69.5829 51.5001 69.5829 51.6279C69.5829 52.1851 69.5833 52.7423 69.5837 53.2992C69.5837 53.5032 69.5837 53.7071 69.5837 53.9107C69.5837 54.0385 69.7845 54.0076 69.7841 53.8794C69.7841 53.3222 69.7837 52.765 69.7833 52.2082C69.7833 52.0042 69.7833 51.8002 69.7833 51.5966Z" fill="#231815"/>
<path d="M70.5719 51.4521C70.5719 51.3247 70.3723 51.3636 70.3723 51.491C70.3723 52.0494 70.3723 52.6074 70.3723 53.1658C70.3723 53.3702 70.3723 53.5746 70.3723 53.779C70.3723 53.9068 70.5719 53.8683 70.5719 53.7401C70.5719 53.1817 70.5719 52.6237 70.5719 52.0653C70.5719 51.8609 70.5719 51.6565 70.5719 51.4521Z" fill="#231815"/>
<path d="M71.1573 51.3235C71.1573 51.8831 71.1573 52.4423 71.1569 53.0019C71.1569 53.2067 71.1569 53.4115 71.1569 53.6162C71.1569 53.744 71.3554 53.6976 71.355 53.5694C71.355 53.0098 71.355 52.4506 71.3554 51.891C71.3554 51.6863 71.3554 51.4815 71.3554 51.2767C71.3554 51.1493 71.1573 51.1957 71.1573 51.3235Z" fill="#231815"/>
<path d="M71.9372 51.1251C71.9372 51.6859 71.9364 52.2462 71.936 52.807C71.936 53.0122 71.936 53.2174 71.936 53.4226C71.936 53.5504 72.1328 53.4964 72.1328 53.3682C72.1328 52.8074 72.1336 52.247 72.134 51.6863C72.134 51.4811 72.134 51.2759 72.134 51.0707C72.134 50.9433 71.9376 50.9977 71.9372 51.1255V51.1251Z" fill="#231815"/>
<path d="M72.7107 50.8961C72.7103 51.458 72.7095 52.0196 72.7091 52.5816C72.7091 52.7872 72.7091 52.9927 72.7087 53.1987C72.7087 53.3269 72.9035 53.2646 72.9035 53.1364C72.9035 52.5744 72.9047 52.0129 72.9051 51.4509C72.9051 51.2453 72.9051 51.0397 72.9055 50.8338C72.9055 50.7064 72.7107 50.7687 72.7107 50.8961Z" fill="#231815"/>
<path d="M73.4771 50.6365C73.4767 51.1997 73.4755 51.7628 73.4747 52.3256C73.4747 52.5316 73.4743 52.738 73.4739 52.9439C73.4739 53.0721 73.6668 53.0019 73.6668 52.8737C73.6672 52.3105 73.6683 51.7474 73.6691 51.1846C73.6691 50.9786 73.6695 50.7722 73.6699 50.5663C73.6699 50.4389 73.4771 50.5087 73.4771 50.6365Z" fill="#231815"/>
<path d="M74.2351 50.346C74.2343 50.9104 74.2331 51.4747 74.2323 52.0391C74.2323 52.2459 74.2315 52.4522 74.2315 52.659C74.2315 52.7872 74.4224 52.7094 74.4224 52.5812C74.4232 52.0169 74.4244 51.4525 74.4252 50.8881C74.4252 50.6814 74.426 50.475 74.426 50.2682C74.426 50.1408 74.2355 50.2186 74.2351 50.346Z" fill="#231815"/>
<path d="M23.3403 34.8187C23.5122 34.933 23.7074 35.0378 23.9221 35.133C23.9606 35.1501 23.9995 35.1671 24.0392 35.1834C24.377 35.3235 24.7576 35.4414 25.1651 35.5366C25.9898 35.7291 26.9257 35.8279 27.8409 35.8279C28.7561 35.8279 29.6915 35.7291 30.5166 35.5366C30.9242 35.4414 31.3048 35.3235 31.6425 35.1834C31.6822 35.1671 31.7211 35.1501 31.7596 35.133C31.9743 35.0378 32.17 34.933 32.3414 34.8187C32.8308 34.4929 33.1276 34.0912 33.1276 33.6173V33.232L32.6772 26.5574V26.5566V26.553C32.6772 26.5498 32.6764 26.5466 32.676 26.5435C32.6752 26.5363 32.6744 26.5288 32.6736 26.5216C32.6728 26.5161 32.6716 26.5109 32.6704 26.5054C32.6692 26.5002 32.6685 26.495 32.6669 26.4899C32.6653 26.4835 32.6633 26.4776 32.6613 26.4712C32.6601 26.4673 32.6585 26.4629 32.6573 26.4589C32.655 26.4526 32.6526 26.4466 32.6498 26.4403C32.6482 26.4363 32.6466 26.4323 32.6446 26.4288C32.6419 26.4232 32.6387 26.4177 32.6355 26.4117C32.6331 26.4077 32.6311 26.4034 32.6288 26.3994C32.6256 26.3942 32.6224 26.3895 32.6192 26.3847C32.6165 26.3803 32.6133 26.376 32.6101 26.372C32.6069 26.3676 32.6034 26.3633 32.5998 26.3593C32.5962 26.3549 32.5926 26.351 32.5891 26.347C32.5851 26.343 32.5811 26.3391 32.5772 26.3351C32.5736 26.3315 32.57 26.328 32.5661 26.3244C32.5609 26.32 32.5557 26.3157 32.5506 26.3117C32.5474 26.3093 32.5442 26.3065 32.5411 26.3041C32.5339 26.299 32.5264 26.2938 32.5184 26.2891C32.5168 26.2883 32.5157 26.2871 32.5141 26.2863C32.5133 26.2859 32.5125 26.2855 32.5117 26.2851C32.5113 26.2851 32.5105 26.2843 32.5101 26.2843C31.4072 25.6259 30.6853 24.6956 30.3043 23.4423C30.2848 23.0597 29.9959 22.722 29.4843 22.489C29.0386 22.2858 28.4532 22.1739 27.8365 22.1739C27.2198 22.1739 26.6344 22.2858 26.1887 22.489C25.6771 22.7224 25.3882 23.0593 25.3687 23.4423C24.9873 24.6972 24.2646 25.6283 23.1593 26.2871C23.0347 26.3613 22.976 26.503 23.0006 26.6375L22.5561 33.2213L22.5553 33.6173C22.5553 33.6173 22.5553 33.6177 22.5553 33.6181C22.5553 34.092 22.8522 34.4936 23.3415 34.8195L23.3403 34.8187ZM31.8402 34.3321C31.7818 34.3666 31.7191 34.4012 31.6528 34.4349C31.4092 34.5587 31.1135 34.6754 30.769 34.777C30.7555 34.781 30.7416 34.785 30.7277 34.7893C30.4495 34.8699 30.1404 34.9405 29.8026 34.9977C29.7927 34.9993 29.7828 35.0013 29.7725 35.0028C29.4792 35.0517 29.1644 35.0901 28.8299 35.1159C28.82 35.1167 28.8096 35.1175 28.7993 35.1183C28.4981 35.1409 28.1806 35.1533 27.8484 35.1536C27.8456 35.1536 27.8433 35.1536 27.8405 35.1536C27.8329 35.1536 27.8258 35.1536 27.8182 35.1536C27.4853 35.1533 27.167 35.1406 26.8654 35.1171C26.8566 35.1163 26.8479 35.1159 26.8392 35.1152C26.5022 35.0886 26.1851 35.0493 25.8902 34.9997C25.8839 34.9985 25.8779 34.9977 25.8716 34.9965C25.5287 34.9381 25.2148 34.8655 24.9334 34.7834C24.9302 34.7826 24.927 34.7814 24.9242 34.7806C24.5647 34.675 24.2575 34.5532 24.0075 34.4242C23.9412 34.3901 23.8789 34.3551 23.8205 34.3198C23.4352 34.0869 23.2292 33.838 23.2292 33.6181C23.2292 33.6181 23.2292 33.6181 23.2292 33.6177V33.255L23.5979 27.7916C23.8396 27.9936 24.1519 28.1762 24.5301 28.3334C25.4199 28.7036 26.5959 28.9076 27.8413 28.9076C29.0867 28.9076 30.2626 28.7036 31.1524 28.3334C31.5302 28.1762 31.8426 27.9932 32.0846 27.7916L32.4533 33.2554V33.6181C32.4533 33.8416 32.2398 34.096 31.8406 34.3325L31.8402 34.3321ZM29.6284 23.4601C29.6272 23.4756 29.6268 23.4915 29.628 23.507C29.5831 23.726 28.9481 24.117 27.8357 24.117C26.7233 24.117 26.0879 23.7257 26.0434 23.5066C26.0442 23.4911 26.0442 23.4756 26.043 23.4605C26.0847 23.2331 26.7578 22.8478 27.8357 22.8478C28.9136 22.8478 29.5859 23.2323 29.6284 23.4597V23.4601ZM25.7962 24.2456C25.9101 24.3329 26.0446 24.4126 26.1998 24.4825C26.6439 24.6821 27.2249 24.7921 27.8361 24.7921C28.4473 24.7921 29.0283 24.6821 29.4724 24.4825C29.6276 24.4126 29.7621 24.3333 29.876 24.2456C30.3182 25.3064 31.0178 26.1343 31.9989 26.7609C31.9521 27.0884 31.5461 27.4388 30.8936 27.7103C30.084 28.0472 29.0001 28.233 27.8417 28.233C26.6832 28.233 25.5993 28.0472 24.7897 27.7103C24.1325 27.4368 23.7261 27.0836 23.6836 26.7542C24.6595 26.1283 25.356 25.3024 25.7966 24.2452L25.7962 24.2456Z" fill="#231815"/>
<path d="M24.1511 28.9037C24.1055 29.6057 24.063 30.309 24.0209 31.0119C23.9781 31.727 23.936 32.4418 23.8928 33.1558C23.8689 33.5471 23.8447 33.9384 23.8197 34.3289C23.8166 34.3809 23.865 34.4512 23.9134 34.4754C23.967 34.502 24.0043 34.4742 24.0075 34.4222C24.0527 33.7209 24.0956 33.0181 24.1376 32.3144C24.1805 31.5988 24.2234 30.8825 24.2674 30.1661C24.2916 29.7736 24.3162 29.3811 24.342 28.9886C24.3456 28.9366 24.2956 28.8695 24.2464 28.8477C24.192 28.8235 24.1547 28.8517 24.1511 28.9041V28.9037Z" fill="#231815"/>
<path d="M25.0223 29.2422C24.9866 29.9562 24.9528 30.671 24.9195 31.3857C24.8858 32.1124 24.8524 32.8395 24.8179 33.5654C24.7992 33.9618 24.7802 34.3583 24.7603 34.754C24.754 34.8798 24.9489 34.9497 24.9552 34.8239C24.9909 34.1099 25.0247 33.3951 25.058 32.6799C25.0917 31.9525 25.1255 31.2246 25.1604 30.4971C25.1794 30.0999 25.1989 29.7026 25.2187 29.3053C25.2251 29.1803 25.0282 29.1176 25.0223 29.2418V29.2422Z" fill="#231815"/>
<path d="M25.9176 29.4847C25.8922 30.2078 25.8688 30.9309 25.845 31.6544C25.8211 32.3898 25.7977 33.1256 25.7731 33.861C25.76 34.2627 25.7461 34.6639 25.7322 35.0651C25.7279 35.1925 25.9279 35.239 25.9323 35.1116C25.9577 34.3885 25.9815 33.665 26.0049 32.9411C26.0287 32.2049 26.0525 31.4687 26.0767 30.7329C26.0902 30.3308 26.1037 29.9288 26.1176 29.5268C26.122 29.4006 25.9212 29.3589 25.9168 29.4847H25.9176Z" fill="#231815"/>
<path d="M26.8288 29.6312C26.8149 30.3582 26.8014 31.0853 26.7887 31.8128C26.7756 32.5553 26.7621 33.2983 26.7487 34.0408C26.7411 34.4476 26.7336 34.8544 26.726 35.2616C26.7237 35.3898 26.9269 35.4132 26.9292 35.285C26.9431 34.5576 26.9566 33.8305 26.9693 33.103C26.9824 32.3601 26.9959 31.6171 27.0094 30.8742C27.0169 30.467 27.0245 30.0598 27.0324 29.653C27.0348 29.526 26.8316 29.5053 26.8292 29.6319L26.8288 29.6312Z" fill="#231815"/>
<path d="M27.7484 29.6815C27.746 30.4134 27.7437 31.1452 27.7413 31.877C27.7389 32.6244 27.7365 33.3717 27.7341 34.1194C27.7329 34.5274 27.7314 34.935 27.7302 35.343C27.7298 35.4715 27.9338 35.4715 27.9342 35.343C27.9365 34.6111 27.9389 33.8793 27.9413 33.147C27.9437 32.3997 27.9461 31.652 27.9484 30.9047C27.9496 30.4967 27.9512 30.0891 27.9524 29.6811C27.9524 29.5541 27.7488 29.5545 27.7484 29.6815Z" fill="#231815"/>
<path d="M28.6687 29.6363C28.6778 30.3705 28.6866 31.1048 28.6949 31.839C28.7036 32.5887 28.712 33.3384 28.7207 34.0881C28.7255 34.4956 28.7302 34.9028 28.7354 35.3104C28.737 35.4386 28.9402 35.4156 28.9386 35.287C28.9295 34.5532 28.9211 33.819 28.9124 33.0852C28.9037 32.3359 28.8953 31.5862 28.8866 30.8369C28.8818 30.4297 28.8771 30.0221 28.8719 29.6149C28.8703 29.4883 28.6671 29.5093 28.6687 29.6367V29.6363Z" fill="#231815"/>
<path d="M29.5824 29.495C29.603 30.2292 29.6221 30.9635 29.6411 31.6977C29.6602 32.4442 29.6792 33.1907 29.6991 33.9372C29.7098 34.346 29.7209 34.7544 29.7324 35.1632C29.736 35.2906 29.936 35.2445 29.9324 35.1168C29.9122 34.3837 29.8931 33.6499 29.8741 32.9161C29.855 32.17 29.836 31.4238 29.8161 30.6777C29.8054 30.2693 29.7943 29.8606 29.7832 29.4522C29.7796 29.3264 29.5792 29.3684 29.5824 29.495Z" fill="#231815"/>
<path d="M30.4808 29.2577C30.5122 29.9891 30.5416 30.721 30.5705 31.4532C30.5999 32.1973 30.6289 32.9415 30.659 33.6852C30.6753 34.0908 30.692 34.496 30.7094 34.9012C30.715 35.0275 30.9099 34.958 30.9043 34.8314C30.8734 34.1015 30.8444 33.3709 30.8154 32.6399C30.786 31.8965 30.7571 31.1532 30.7273 30.4098C30.711 30.0042 30.6944 29.599 30.6769 29.1938C30.6717 29.0692 30.4753 29.1323 30.4804 29.2581L30.4808 29.2577Z" fill="#231815"/>
<path d="M31.3572 28.9243C31.3984 29.6478 31.4369 30.3721 31.475 31.0964C31.5139 31.8358 31.552 32.5752 31.5913 33.3134C31.6128 33.7174 31.635 34.121 31.6576 34.5246C31.6647 34.6488 31.8529 34.5568 31.8453 34.4318C31.8052 33.711 31.7671 32.9883 31.7294 32.2656C31.6909 31.5274 31.6532 30.7888 31.6139 30.0507C31.5925 29.6466 31.5703 29.2426 31.5477 28.8394C31.5409 28.7164 31.3504 28.8009 31.3572 28.9247V28.9243Z" fill="#231815"/>
</svg>
