<svg width="32" height="33" viewBox="0 0 32 33" fill="none" xmlns="http://www.w3.org/2000/svg">
<g id="Box_open_light">
<path id="Rectangle 1" d="M8 15.4902C8 14.6727 8 14.2639 8.15224 13.8964C8.30448 13.5289 8.59351 13.2398 9.17157 12.6618L10.8284 11.0049C11.4065 10.4268 11.6955 10.1378 12.0631 9.98558C12.4306 9.83334 12.8394 9.83334 13.6569 9.83334H18.3431C19.1606 9.83334 19.5694 9.83334 19.9369 9.98558C20.3045 10.1378 20.5935 10.4268 21.1716 11.0049L22.8284 12.6618C23.4065 13.2398 23.6955 13.5289 23.8478 13.8964C24 14.2639 24 14.6727 24 15.4902V23.1667C24 25.0523 24 25.9951 23.4142 26.5809C22.8284 27.1667 21.8856 27.1667 20 27.1667H12C10.1144 27.1667 9.17157 27.1667 8.58579 26.5809C8 25.9951 8 25.0523 8 23.1667V15.4902Z" stroke="black"/>
<path id="Vector 3" d="M12 9.83333L8.13868 7.25911C8.0547 7.20313 7.9453 7.20313 7.86133 7.25911L4.25373 9.66417C4.12247 9.75168 4.10408 9.93741 4.21563 10.049L7.72386 13.5572C7.90067 13.734 8 13.9738 8 14.2239V14.2239C8 14.7446 8.42211 15.1667 8.94281 15.1667H23.0572C23.5779 15.1667 24 14.7446 24 14.2239V14.2239C24 13.9738 24.0993 13.734 24.2761 13.5572L27.7844 10.049C27.8959 9.93741 27.8775 9.75168 27.7463 9.66417L24.1387 7.25911C24.0547 7.20313 23.9453 7.20313 23.8613 7.25911L20 9.83333" stroke="black" stroke-linecap="round"/>
</g>
</svg>
