<svg width="1920" height="1080" viewBox="0 0 1920 1080" fill="none" xmlns="http://www.w3.org/2000/svg">
<path fill-rule="evenodd" clip-rule="evenodd" d="M1044.43 -315.99L1030.07 -326.875C1012.55 -340.15 999.69 -349.891 988.699 -356.353C977.8 -362.761 969.11 -365.714 960 -365.714C950.891 -365.714 942.201 -362.761 931.301 -356.353C920.31 -349.891 907.447 -340.15 889.932 -326.875L875.57 -315.99L875.409 -315.868C863.254 -306.655 853.915 -299.577 845.791 -294.518C837.562 -289.394 830.343 -286.185 822.357 -284.852C814.371 -283.519 806.5 -284.21 797.053 -286.385C787.727 -288.532 776.596 -292.194 762.108 -296.961L762.108 -296.961L761.916 -297.024L744.798 -302.656C723.922 -309.525 708.592 -314.562 696.099 -317.105C683.709 -319.626 674.531 -319.598 665.915 -316.64C657.299 -313.682 650.039 -308.067 641.811 -298.467C633.514 -288.787 624.51 -275.397 612.255 -257.154L602.206 -242.195L602.092 -242.027C593.588 -229.367 587.053 -219.64 581.012 -212.218C574.893 -204.699 569.106 -199.32 561.986 -195.467C554.865 -191.613 547.197 -189.711 537.556 -188.701C528.037 -187.703 516.32 -187.552 501.069 -187.357L500.868 -187.354L482.848 -187.123C460.873 -186.841 444.739 -186.627 432.096 -184.976C419.559 -183.338 410.888 -180.331 403.699 -174.735C396.51 -169.14 391.467 -161.473 386.801 -149.721C382.097 -137.871 377.929 -122.283 372.261 -101.05L367.613 -83.6382L367.562 -83.4438C363.628 -68.7077 360.606 -57.3857 357.302 -48.4034C353.955 -39.3051 350.229 -32.3385 344.746 -26.3818C339.262 -20.4251 332.627 -16.1364 323.836 -12.05C315.157 -8.01562 304.123 -4.06863 289.762 1.06848L289.573 1.13614L272.605 7.2059C251.912 14.6079 236.722 20.0487 225.3 25.7156C213.974 31.3354 206.749 36.9952 201.767 44.6215C196.784 52.2477 194.504 61.1376 193.907 73.7673C193.305 86.5027 194.424 102.6 195.958 124.523L197.216 142.5L197.23 142.7C198.294 157.915 199.112 169.605 198.903 179.174C198.692 188.866 197.43 196.665 194.178 204.079C190.926 211.494 186.043 217.704 179.055 224.424C172.157 231.057 163.004 238.371 151.092 247.891L151.088 247.895L151.086 247.896L150.93 248.021L136.852 259.271C119.684 272.991 107.083 283.069 98.1206 292.138C89.2329 301.13 84.2372 308.83 82.0009 317.66C79.7647 326.491 80.4939 335.64 84.0303 347.779C87.5963 360.02 93.8818 374.881 102.451 395.119L109.477 411.713L109.556 411.899L109.556 411.9L109.557 411.901C115.503 425.945 120.072 436.735 122.982 445.852C125.929 455.087 127.268 462.874 126.599 470.942C125.93 479.011 123.329 486.471 118.901 495.095C114.531 503.608 108.249 513.499 100.073 526.371L100.071 526.374L100.07 526.376L99.962 526.545L90.2999 541.757C78.5169 560.308 69.871 573.932 64.3389 585.419C58.8527 596.811 56.6276 605.715 57.3798 614.793C58.1321 623.872 61.7924 632.288 69.0787 642.621C76.4261 653.041 87.1965 665.056 101.872 681.414L113.906 694.829L114.042 694.98C124.226 706.332 132.051 715.054 137.764 722.733C143.55 730.511 147.344 737.44 149.332 745.289C151.319 753.138 151.281 761.038 149.894 770.633C148.524 780.105 145.794 791.501 142.239 806.333L142.193 806.528L137.993 824.053C132.872 845.425 129.118 861.118 127.616 873.779C126.126 886.335 126.912 895.479 130.572 903.821C134.231 912.163 140.426 918.935 150.672 926.343C161.005 933.812 175.093 941.679 194.285 952.386L210.023 961.166L210.202 961.266C223.52 968.695 233.752 974.404 241.648 979.812C249.646 985.289 255.485 990.611 259.913 997.39C264.342 1004.17 266.87 1011.65 268.674 1021.18C270.454 1030.58 271.572 1042.25 273.026 1057.43L273.045 1057.63L274.764 1075.57C276.86 1097.44 278.405 1113.51 281.095 1125.97C283.762 1138.33 287.475 1146.72 293.645 1153.42C299.815 1160.13 307.873 1164.52 319.969 1168.2C332.167 1171.91 348.046 1174.77 369.675 1178.67L387.411 1181.86L387.612 1181.9L387.614 1181.9L387.618 1181.9C402.624 1184.6 414.154 1186.68 423.377 1189.23C432.72 1191.81 439.971 1194.95 446.36 1199.92C452.749 1204.9 457.571 1211.16 462.37 1219.58C467.107 1227.89 471.951 1238.56 478.256 1252.45L478.258 1252.45L478.258 1252.46L478.34 1252.64L485.79 1269.05C494.876 1289.06 501.553 1303.75 508.143 1314.66C514.679 1325.48 520.916 1332.22 528.928 1336.55C536.94 1340.89 545.988 1342.43 558.623 1341.98C571.365 1341.53 587.315 1339.08 609.036 1335.74L626.848 1333L627.049 1332.97C642.123 1330.66 653.705 1328.88 663.257 1328.29C672.934 1327.7 680.81 1328.32 688.468 1330.95C696.126 1333.58 702.718 1337.93 709.992 1344.34C717.173 1350.67 725.221 1359.19 735.695 1370.28L735.831 1370.42L748.205 1383.52C763.296 1399.5 774.38 1411.22 784.158 1419.4C793.854 1427.52 801.939 1431.86 810.925 1433.36C819.91 1434.86 828.967 1433.38 840.773 1428.85C852.677 1424.29 866.969 1416.8 886.43 1406.58L902.387 1398.21L902.569 1398.12C916.073 1391.03 926.449 1385.59 935.294 1381.93C944.255 1378.23 951.904 1376.26 960 1376.26C968.097 1376.26 975.746 1378.23 984.706 1381.93C993.55 1385.59 1003.92 1391.03 1017.42 1398.11L1017.43 1398.12L1017.61 1398.21L1033.57 1406.58C1053.03 1416.8 1067.32 1424.29 1079.23 1428.85C1091.03 1433.38 1100.09 1434.86 1109.08 1433.36C1118.06 1431.86 1126.15 1427.52 1135.84 1419.4C1145.62 1411.22 1156.7 1399.5 1171.8 1383.52L1184.17 1370.42L1184.3 1370.28C1194.78 1359.19 1202.83 1350.67 1210.01 1344.34C1217.28 1337.93 1223.87 1333.58 1231.53 1330.95C1239.19 1328.32 1247.07 1327.7 1256.74 1328.29C1266.3 1328.88 1277.88 1330.66 1292.95 1332.97L1293.15 1333L1310.96 1335.74C1332.69 1339.08 1348.64 1341.53 1361.38 1341.98C1374.01 1342.43 1383.06 1340.89 1391.07 1336.55C1399.08 1332.22 1405.32 1325.48 1411.86 1314.66C1418.45 1303.75 1425.12 1289.06 1434.21 1269.05L1441.66 1252.64L1441.74 1252.45L1441.75 1252.44C1448.05 1238.56 1452.89 1227.89 1457.63 1219.58C1462.43 1211.16 1467.25 1204.9 1473.64 1199.92C1480.03 1194.95 1487.28 1191.81 1496.62 1189.23C1505.85 1186.68 1517.38 1184.6 1532.38 1181.9L1532.39 1181.9L1532.59 1181.86L1550.33 1178.67C1571.95 1174.77 1587.83 1171.91 1600.03 1168.2C1612.13 1164.52 1620.19 1160.13 1626.36 1153.42C1632.53 1146.72 1636.24 1138.33 1638.91 1125.97C1641.6 1113.51 1643.14 1097.44 1645.24 1075.57L1646.96 1057.63L1646.97 1057.43C1648.43 1042.25 1649.55 1030.58 1651.33 1021.18C1653.13 1011.65 1655.66 1004.17 1660.09 997.39C1664.52 990.611 1670.35 985.289 1678.35 979.812C1686.25 974.404 1696.48 968.695 1709.8 961.265L1709.98 961.166L1725.72 952.386C1744.91 941.679 1759 933.812 1769.33 926.343C1779.57 918.935 1785.77 912.163 1789.43 903.821C1793.09 895.479 1793.87 886.335 1792.38 873.779C1790.88 861.118 1787.13 845.425 1782.01 824.053L1777.81 806.528L1777.76 806.333L1777.76 806.329C1774.21 791.499 1771.48 780.104 1770.11 770.633C1768.72 761.038 1768.68 753.138 1770.67 745.289C1772.66 737.44 1776.45 730.511 1782.24 722.733C1787.95 715.055 1795.77 706.333 1805.96 694.982L1805.96 694.98L1805.96 694.976L1806.09 694.829L1818.13 681.414C1832.8 665.056 1843.57 653.041 1850.92 642.621C1858.21 632.288 1861.87 623.872 1862.62 614.793C1863.37 605.715 1861.15 596.811 1855.66 585.419C1850.13 573.932 1841.48 560.308 1829.7 541.757L1820.04 526.546L1819.93 526.374C1811.75 513.5 1805.47 503.609 1801.1 495.095C1796.67 486.471 1794.07 479.011 1793.4 470.942C1792.73 462.874 1794.07 455.087 1797.02 445.852C1799.93 436.736 1804.5 425.947 1810.44 411.905L1810.45 411.897L1810.52 411.713L1817.55 395.119C1826.12 374.881 1832.4 360.02 1835.97 347.779C1839.51 335.64 1840.24 326.491 1838 317.66C1835.76 308.83 1830.77 301.13 1821.88 292.138C1812.92 283.069 1800.32 272.991 1783.15 259.271L1769.07 248.021L1768.91 247.894C1757 238.373 1747.84 231.057 1740.95 224.424C1733.96 217.704 1729.07 211.494 1725.82 204.079C1722.57 196.665 1721.31 188.866 1721.1 179.174C1720.89 169.606 1721.71 157.918 1722.77 142.705L1722.77 142.697L1722.78 142.5L1724.04 124.523C1725.58 102.6 1726.7 86.5027 1726.09 73.7672C1725.5 61.1376 1723.22 52.2477 1718.23 44.6215C1713.25 36.9952 1706.03 31.3354 1694.7 25.7156C1683.28 20.0487 1668.09 14.6079 1647.4 7.2059L1630.43 1.13611L1630.24 1.06854C1615.88 -4.06857 1604.84 -8.01559 1596.16 -12.05C1587.37 -16.1364 1580.74 -20.4251 1575.25 -26.3818C1569.77 -32.3385 1566.05 -39.3051 1562.7 -48.4034C1559.39 -57.3851 1556.37 -68.7064 1552.44 -83.4412L1552.39 -83.6381L1547.74 -101.05C1542.07 -122.283 1537.9 -137.871 1533.2 -149.721C1528.53 -161.473 1523.49 -169.14 1516.3 -174.735C1509.11 -180.331 1500.44 -183.338 1487.9 -184.976C1475.26 -186.627 1459.13 -186.841 1437.15 -187.123L1419.13 -187.354L1418.93 -187.357C1403.68 -187.552 1391.96 -187.703 1382.44 -188.701C1372.8 -189.711 1365.14 -191.613 1358.01 -195.467C1350.89 -199.32 1345.11 -204.699 1338.99 -212.218C1332.95 -219.639 1326.42 -229.364 1317.91 -242.02L1317.91 -242.024L1317.91 -242.027L1317.79 -242.195L1307.75 -257.154C1295.49 -275.397 1286.49 -288.787 1278.19 -298.467C1269.96 -308.067 1262.7 -313.682 1254.09 -316.64C1245.47 -319.598 1236.29 -319.626 1223.9 -317.105C1211.41 -314.562 1196.08 -309.525 1175.2 -302.656L1158.08 -297.024L1157.89 -296.961L1157.89 -296.961L1157.89 -296.96C1143.4 -292.194 1132.27 -288.532 1122.95 -286.385C1113.5 -284.21 1105.63 -283.519 1097.64 -284.852C1089.66 -286.185 1082.44 -289.394 1074.21 -294.518C1066.08 -299.577 1056.74 -306.656 1044.59 -315.87L1044.43 -315.99ZM960 -369.714C939.832 -369.714 922.393 -356.497 887.516 -330.063L873.154 -319.177C848.572 -300.546 836.282 -291.231 821.698 -288.797C807.115 -286.364 792.465 -291.184 763.166 -300.824L746.048 -306.456C704.477 -320.133 683.692 -326.972 664.617 -320.423C645.541 -313.874 633.339 -295.711 608.935 -259.385L598.885 -244.426C581.685 -218.823 573.085 -206.021 560.082 -198.984C547.079 -191.948 531.658 -191.75 500.816 -191.354L482.797 -191.122C439.038 -190.561 417.158 -190.28 401.242 -177.892C385.327 -165.504 379.683 -144.363 368.396 -102.081L363.749 -84.6698C355.794 -54.869 351.816 -39.9686 341.803 -29.0909C331.789 -18.2133 317.268 -13.0189 288.226 -2.63016L271.258 3.43961C230.052 18.1794 209.449 25.5493 198.418 42.4337C187.387 59.3181 188.914 81.146 191.968 124.802L193.225 142.779C195.378 173.548 196.454 188.933 190.515 202.472C184.576 216.012 172.528 225.64 148.433 244.896L134.355 256.146C100.168 283.467 83.0744 297.127 78.1233 316.678C73.1723 336.23 81.7039 356.379 98.7673 396.678L105.794 413.273C117.82 441.676 123.834 455.878 122.613 470.612C121.392 485.346 113.123 498.365 96.5856 524.401L86.9234 539.613C63.4598 576.554 51.728 595.024 53.3935 615.124C55.059 635.223 69.6709 651.511 98.8948 684.086L110.93 697.5C131.526 720.459 141.825 731.939 145.454 746.271C149.084 760.604 145.49 775.601 138.303 805.596L134.103 823.121C123.906 865.679 118.807 886.958 126.909 905.428C135.01 923.898 154.119 934.558 192.336 955.879L208.074 964.659C235.01 979.686 248.478 987.2 256.565 999.577C264.651 1011.95 266.122 1027.31 269.064 1058.01L270.782 1075.95C274.955 1119.51 277.042 1141.29 290.702 1156.13C304.362 1170.97 325.896 1174.85 368.966 1182.61L386.702 1185.8C417.058 1191.27 432.236 1194 443.903 1203.08C455.571 1212.16 461.947 1226.2 474.698 1254.29L482.148 1270.7C500.24 1310.55 509.287 1330.47 527.024 1340.07C544.762 1349.67 566.389 1346.34 609.644 1339.7L627.457 1336.96L627.46 1336.96L627.462 1336.96C657.944 1332.27 673.186 1329.93 687.169 1334.73C701.153 1339.53 711.743 1350.74 732.923 1373.17L745.297 1386.27C775.348 1418.08 790.373 1433.99 810.266 1437.31C830.16 1440.63 849.536 1430.46 888.288 1410.13L904.246 1401.75C931.559 1387.42 945.215 1380.26 960 1380.26C974.785 1380.26 988.442 1387.42 1015.75 1401.75L1031.71 1410.13C1070.46 1430.46 1089.84 1440.63 1109.73 1437.31C1129.63 1433.99 1144.65 1418.08 1174.7 1386.27L1187.08 1373.17C1208.26 1350.74 1218.85 1339.53 1232.83 1334.73C1246.81 1329.93 1262.06 1332.27 1292.54 1336.96H1292.54L1310.36 1339.7C1353.61 1346.34 1375.24 1349.67 1392.98 1340.07C1410.71 1330.47 1419.76 1310.55 1437.85 1270.7L1445.3 1254.29C1458.05 1226.2 1464.43 1212.16 1476.1 1203.08C1487.76 1194 1502.94 1191.27 1533.3 1185.8L1551.04 1182.61C1594.1 1174.85 1615.64 1170.97 1629.3 1156.13C1642.96 1141.29 1645.05 1119.51 1649.22 1075.95L1650.94 1058.01C1653.88 1027.31 1655.35 1011.95 1663.44 999.577C1671.52 987.2 1684.99 979.687 1711.93 964.659L1727.67 955.878L1727.67 955.878C1765.88 934.558 1784.99 923.897 1793.09 905.428C1801.19 886.958 1796.09 865.679 1785.9 823.121L1781.7 805.596C1774.51 775.601 1770.92 760.604 1774.55 746.271C1778.18 731.938 1788.47 720.459 1809.07 697.5L1821.11 684.086C1850.33 651.511 1864.94 635.223 1866.61 615.124C1868.27 595.024 1856.54 576.554 1833.08 539.613L1823.41 524.401C1806.88 498.365 1798.61 485.347 1797.39 470.612C1796.17 455.878 1802.18 441.676 1814.21 413.273L1821.23 396.678C1838.3 356.379 1846.83 336.23 1841.88 316.678C1836.93 297.127 1819.83 283.467 1785.65 256.146L1771.57 244.896C1747.47 225.64 1735.42 216.012 1729.49 202.472C1723.55 188.933 1724.62 173.548 1726.78 142.779L1728.03 124.802C1731.09 81.146 1732.61 59.3181 1721.58 42.4337C1710.55 25.5493 1689.95 18.1794 1648.74 3.43961L1631.77 -2.63016C1602.73 -13.0189 1588.21 -18.2133 1578.2 -29.0909C1568.18 -39.9686 1564.21 -54.869 1556.25 -84.6698L1551.6 -102.081C1540.32 -144.363 1534.67 -165.504 1518.76 -177.892C1502.84 -190.28 1480.96 -190.561 1437.2 -191.122L1419.18 -191.354C1388.34 -191.75 1372.92 -191.948 1359.92 -198.984C1346.92 -206.021 1338.32 -218.823 1321.12 -244.426L1311.07 -259.385C1286.66 -295.711 1274.46 -313.874 1255.38 -320.423C1236.31 -326.972 1215.52 -320.133 1173.95 -306.456L1156.83 -300.824C1127.54 -291.184 1112.89 -286.364 1098.3 -288.797C1083.72 -291.231 1071.43 -300.546 1046.85 -319.177L1032.48 -330.063C997.607 -356.497 980.169 -369.714 960 -369.714ZM783.598 -185.017L782.459 -185.392C763.026 -191.786 748.757 -196.475 737.103 -198.94C725.542 -201.386 716.948 -201.549 708.847 -199.16C707.273 -198.696 705.721 -198.163 704.194 -197.563C696.333 -194.472 689.652 -189.065 682.031 -180.034C674.349 -170.93 665.968 -158.466 654.56 -141.484L653.891 -140.489C638.513 -117.595 630.021 -104.953 617.356 -97.5528C616.149 -96.8481 614.921 -96.1832 613.671 -95.559C600.549 -89.0034 585.32 -88.8087 557.744 -88.4559H557.743L556.544 -88.4406C536.088 -88.178 521.07 -87.9796 509.247 -86.5276C497.518 -85.0872 489.337 -82.4512 482.45 -77.561C481.112 -76.6112 479.817 -75.6031 478.568 -74.5396C472.137 -69.0638 467.573 -61.7801 463.297 -50.7637C458.988 -39.6594 455.108 -25.1489 449.832 -5.38345L449.523 -4.22479C442.411 22.4215 438.484 37.1367 428.908 48.2481C427.996 49.3062 427.05 50.3341 426.071 51.3302C415.788 61.7914 401.447 66.9204 375.479 76.2081L374.35 76.612C355.088 83.5023 340.947 88.5666 330.237 93.7787C319.611 98.9494 312.729 104.099 307.803 110.96C306.847 112.293 305.949 113.667 305.113 115.079C300.808 122.346 298.857 130.717 298.39 142.525C297.919 154.427 298.961 169.411 300.389 189.818L300.473 191.015C302.398 218.526 303.462 233.719 298.012 247.338C297.493 248.635 296.932 249.914 296.33 251.174C290.001 264.407 278.103 273.915 256.557 291.131L255.62 291.88C239.639 304.651 227.909 314.033 219.471 322.44C211.1 330.781 206.263 337.886 203.832 345.975C203.36 347.546 202.957 349.137 202.625 350.744C200.913 359.015 201.785 367.566 205.177 378.885C208.597 390.296 214.448 404.129 222.425 422.967L222.892 424.072C233.647 449.467 239.586 463.492 238.853 478.142C238.784 479.537 238.668 480.93 238.508 482.317C236.818 496.888 228.652 509.744 213.864 533.023L213.221 534.035C202.253 551.304 194.204 563.986 188.954 574.677C183.744 585.284 181.477 593.575 181.804 602.015C181.867 603.654 182.003 605.29 182.21 606.918C183.276 615.296 186.878 623.101 193.762 632.706C200.701 642.387 210.727 653.571 224.388 668.799L225.189 669.692C243.607 690.219 253.778 701.556 257.842 715.65C258.229 716.992 258.572 718.346 258.87 719.711C262.004 734.041 258.454 748.852 252.027 775.671L251.747 776.837C246.98 796.732 243.485 811.34 241.991 823.157C240.508 834.88 241.055 843.458 244.105 851.335C244.697 852.865 245.356 854.368 246.081 855.84C249.81 863.418 255.751 869.631 265.38 876.48C275.087 883.384 288.201 890.706 306.067 900.673L307.114 901.258C331.199 914.693 344.5 922.112 352.92 934.123C353.722 935.267 354.486 936.437 355.212 937.63C362.828 950.166 364.28 965.327 366.909 992.78L367.023 993.974C368.974 1014.34 370.412 1029.29 372.835 1040.95C375.24 1052.52 378.542 1060.46 383.984 1066.92C385.041 1068.17 386.153 1069.38 387.316 1070.54C393.304 1076.49 400.94 1080.44 412.272 1083.79C423.694 1087.17 438.475 1089.84 458.609 1093.46L459.789 1093.68C486.932 1098.56 501.921 1101.26 513.785 1109.89C514.915 1110.71 516.017 1111.57 517.091 1112.46C528.365 1121.84 534.661 1135.71 546.062 1160.82L546.557 1161.92C555.015 1180.54 561.23 1194.22 567.308 1204.46C573.339 1214.62 579.039 1221.06 586.284 1225.4C587.691 1226.24 589.135 1227.02 590.61 1227.74C598.208 1231.43 606.712 1232.68 618.518 1232.17C630.418 1231.66 645.265 1229.38 665.485 1226.28L666.671 1226.09C693.929 1221.9 708.982 1219.59 723.004 1223.89C724.339 1224.3 725.661 1224.76 726.966 1225.25C740.677 1230.47 751.135 1241.54 770.072 1261.59L770.895 1262.46C784.942 1277.34 795.26 1288.25 804.336 1295.97C813.339 1303.62 820.82 1307.85 829.082 1309.61C830.687 1309.95 832.305 1310.22 833.934 1310.42C842.318 1311.44 850.768 1309.86 861.769 1305.55C872.857 1301.2 886.161 1294.23 904.276 1284.72L905.337 1284.16C929.758 1271.35 943.245 1264.27 957.906 1263.79C959.302 1263.75 960.699 1263.75 962.095 1263.79C976.756 1264.27 990.242 1271.35 1014.66 1284.16L1015.72 1284.72C1033.84 1294.23 1047.14 1301.2 1058.23 1305.55C1069.23 1309.86 1077.68 1311.44 1086.07 1310.42C1087.69 1310.22 1089.31 1309.95 1090.92 1309.61C1099.18 1307.85 1106.66 1303.62 1115.66 1295.97C1124.74 1288.25 1135.06 1277.34 1149.11 1262.46L1149.93 1261.59C1168.87 1241.54 1179.32 1230.47 1193.03 1225.25C1194.34 1224.76 1195.66 1224.3 1197 1223.89C1211.02 1219.59 1226.07 1221.9 1253.33 1226.09L1253.33 1226.09L1253.33 1226.09L1254.52 1226.28C1274.74 1229.38 1289.58 1231.66 1301.48 1232.17C1313.29 1232.68 1321.79 1231.43 1329.39 1227.74C1330.87 1227.02 1332.31 1226.24 1333.72 1225.4C1340.96 1221.06 1346.66 1214.62 1352.69 1204.46C1358.77 1194.22 1364.99 1180.54 1373.44 1161.92L1373.94 1160.82C1385.34 1135.71 1391.63 1121.84 1402.91 1112.46C1403.98 1111.57 1405.09 1110.71 1406.22 1109.89C1418.08 1101.26 1433.07 1098.56 1460.21 1093.68L1461.39 1093.46C1481.53 1089.84 1496.31 1087.17 1507.73 1083.79C1519.06 1080.44 1526.7 1076.49 1532.68 1070.54C1533.85 1069.38 1534.96 1068.17 1536.02 1066.92C1541.46 1060.46 1544.76 1052.52 1547.17 1040.95C1549.59 1029.29 1551.03 1014.34 1552.98 993.974L1553.09 992.781C1555.72 965.327 1557.17 950.166 1564.79 937.63C1565.51 936.437 1566.28 935.267 1567.08 934.123C1575.5 922.112 1588.8 914.693 1612.89 901.258L1613.93 900.673C1631.8 890.706 1644.91 883.384 1654.62 876.48C1664.25 869.631 1670.19 863.418 1673.92 855.84C1674.64 854.368 1675.3 852.865 1675.9 851.335C1678.95 843.458 1679.49 834.88 1678.01 823.157C1676.52 811.34 1673.02 796.732 1668.25 776.837L1667.97 775.671L1667.97 775.669L1667.97 775.667C1661.55 748.85 1658 734.04 1661.13 719.711C1661.43 718.346 1661.77 716.992 1662.16 715.65C1666.22 701.556 1676.39 690.22 1694.81 669.693L1694.81 669.692L1695.61 668.799C1709.27 653.571 1719.3 642.387 1726.24 632.706C1733.12 623.101 1736.72 615.296 1737.79 606.918C1738 605.29 1738.13 603.654 1738.2 602.015C1738.52 593.575 1736.26 585.284 1731.05 574.677C1725.8 563.986 1717.75 551.304 1706.78 534.035L1706.14 533.023C1691.35 509.744 1683.18 496.888 1681.49 482.317C1681.33 480.93 1681.22 479.537 1681.15 478.142C1680.41 463.492 1686.35 449.468 1697.11 424.073L1697.58 422.967C1705.55 404.129 1711.4 390.296 1714.82 378.886C1718.22 367.566 1719.09 359.015 1717.38 350.744C1717.04 349.137 1716.64 347.546 1716.17 345.975C1713.74 337.886 1708.9 330.781 1700.53 322.44C1692.09 314.033 1680.36 304.651 1664.38 291.88L1663.44 291.131L1663.44 291.131L1663.44 291.13C1641.9 273.914 1630 264.407 1623.67 251.174C1623.07 249.914 1622.51 248.635 1621.99 247.338C1616.54 233.719 1617.6 218.526 1619.53 191.014L1619.61 189.818C1621.04 169.411 1622.08 154.427 1621.61 142.525C1621.14 130.717 1619.19 122.346 1614.89 115.079C1614.05 113.667 1613.15 112.293 1612.2 110.96C1607.27 104.099 1600.39 98.9494 1589.76 93.7787C1579.05 88.5666 1564.91 83.5023 1545.65 76.612L1544.52 76.2083C1518.55 66.9204 1504.21 61.7914 1493.93 51.3302C1492.95 50.3341 1492 49.3062 1491.09 48.2481C1481.52 37.1369 1477.59 22.4221 1470.48 -4.22333L1470.17 -5.38342C1464.89 -25.1489 1461.01 -39.6594 1456.7 -50.7637C1452.43 -61.7801 1447.86 -69.0638 1441.43 -74.5396C1440.18 -75.6031 1438.89 -76.6112 1437.55 -77.561C1430.66 -82.4512 1422.48 -85.0872 1410.75 -86.5276C1398.93 -87.9796 1383.91 -88.178 1363.46 -88.4406L1362.26 -88.4559C1334.68 -88.8087 1319.45 -89.0034 1306.33 -95.559C1305.08 -96.1832 1303.85 -96.8481 1302.64 -97.5528C1289.98 -104.953 1281.49 -117.595 1266.11 -140.488L1265.44 -141.484C1254.03 -158.466 1245.65 -170.93 1237.97 -180.034C1230.35 -189.065 1223.67 -194.472 1215.81 -197.563C1214.28 -198.163 1212.73 -198.696 1211.15 -199.16C1203.05 -201.549 1194.46 -201.386 1182.9 -198.94C1171.24 -196.475 1156.97 -191.786 1137.54 -185.392L1136.4 -185.017C1110.21 -176.397 1095.74 -171.636 1081.2 -173.575C1079.81 -173.76 1078.44 -173.99 1077.07 -174.265C1062.68 -177.152 1050.55 -186.352 1028.57 -203.011L1027.61 -203.736C1011.31 -216.093 999.335 -225.161 989.114 -231.277C978.973 -237.344 970.898 -240.289 962.46 -240.66C960.821 -240.732 959.18 -240.732 957.541 -240.66C949.102 -240.289 941.027 -237.344 930.887 -231.277C920.665 -225.161 908.691 -216.093 892.387 -203.736L891.432 -203.011C869.453 -186.352 857.316 -177.152 842.934 -174.265C841.565 -173.99 840.186 -173.76 838.802 -173.575C824.262 -171.636 809.795 -176.397 783.598 -185.017ZM957.365 -244.656C938.671 -243.834 922.438 -231.531 889.971 -206.924C867.074 -189.569 855.625 -180.892 842.147 -178.187C840.863 -177.929 839.571 -177.713 838.273 -177.54C824.646 -175.723 811.001 -180.212 783.709 -189.192C745.012 -201.923 725.663 -208.289 707.715 -202.997C706.029 -202.5 704.366 -201.929 702.73 -201.285C685.316 -194.438 673.957 -177.53 651.24 -143.715C635.218 -119.866 627.207 -107.942 615.338 -101.007C614.207 -100.346 613.055 -99.7225 611.884 -99.1373C599.585 -92.9934 585.221 -92.8091 556.493 -92.4402C515.758 -91.9174 495.391 -91.6559 480.134 -80.8224C478.701 -79.8047 477.313 -78.7246 475.975 -77.5851C461.728 -65.4545 456.474 -45.7747 445.968 -6.4151C438.558 21.3437 434.853 35.2231 425.878 45.6367C425.023 46.6287 424.136 47.5923 423.218 48.5262C413.581 58.3304 400.055 63.1688 373.003 72.8457C334.645 86.5667 315.467 93.4272 304.554 108.628C303.529 110.056 302.567 111.528 301.671 113.04C292.135 129.139 293.556 149.459 296.399 190.097C298.404 218.758 299.406 233.088 294.299 245.852C293.812 247.068 293.286 248.267 292.721 249.448C286.79 261.851 275.568 270.819 253.123 288.755C221.299 314.187 205.387 326.904 200.001 344.824C199.496 346.507 199.064 348.212 198.708 349.933C194.915 368.257 202.857 387.013 218.741 424.527C229.944 450.984 235.545 464.212 234.858 477.943C234.793 479.25 234.685 480.556 234.534 481.857C232.951 495.513 225.249 507.639 209.845 531.891C188.003 566.278 177.082 583.472 177.807 602.17C177.875 603.927 178.02 605.679 178.242 607.423C180.605 625.985 194.207 641.147 221.411 671.471C240.597 692.856 250.19 703.549 253.999 716.758C254.361 718.016 254.683 719.286 254.963 720.565C257.9 733.995 254.552 747.965 247.857 775.905C238.364 815.522 233.618 835.33 240.375 852.779C241.009 854.418 241.716 856.029 242.492 857.606C250.754 874.395 268.542 884.319 304.118 904.166C329.208 918.164 341.753 925.163 349.645 936.419C350.397 937.492 351.113 938.588 351.793 939.707C358.932 951.456 360.302 965.756 363.041 994.356C366.926 1034.91 368.869 1055.18 380.925 1069.49C382.058 1070.84 383.249 1072.13 384.495 1073.37C397.761 1086.57 417.807 1090.18 457.9 1097.4C486.176 1102.49 500.314 1105.04 511.433 1113.12C512.492 1113.89 513.526 1114.7 514.532 1115.53C525.099 1124.33 531.038 1137.41 542.915 1163.57C559.757 1200.66 568.178 1219.21 584.228 1228.83C585.735 1229.73 587.282 1230.57 588.863 1231.34C605.695 1239.51 625.827 1236.42 666.092 1230.23C694.49 1225.86 708.688 1223.68 721.83 1227.72C723.082 1228.1 724.321 1228.53 725.545 1228.99C738.394 1233.88 748.258 1244.32 767.987 1265.21C795.96 1294.83 809.947 1309.63 828.251 1313.52C829.97 1313.89 831.705 1314.18 833.449 1314.39C852.024 1316.65 870.061 1307.19 906.134 1288.26C931.576 1274.91 944.296 1268.24 958.036 1267.79C959.345 1267.75 960.655 1267.75 961.964 1267.79C975.704 1268.24 988.425 1274.91 1013.87 1288.26C1049.94 1307.19 1067.98 1316.65 1086.55 1314.39C1088.3 1314.18 1090.03 1313.89 1091.75 1313.52C1110.05 1309.63 1124.04 1294.83 1152.01 1265.21C1171.74 1244.32 1181.61 1233.88 1194.46 1228.99C1195.68 1228.53 1196.92 1228.1 1198.17 1227.72C1211.31 1223.68 1225.51 1225.86 1253.91 1230.23C1294.17 1236.42 1314.31 1239.51 1331.14 1231.34C1332.72 1230.57 1334.27 1229.73 1335.77 1228.83C1351.82 1219.21 1360.24 1200.66 1377.09 1163.57C1388.96 1137.41 1394.9 1124.33 1405.47 1115.53C1406.47 1114.7 1407.51 1113.89 1408.57 1113.12C1419.69 1105.04 1433.82 1102.49 1462.1 1097.4C1502.19 1090.18 1522.24 1086.57 1535.51 1073.37C1536.75 1072.13 1537.94 1070.84 1539.08 1069.49C1551.13 1055.18 1553.07 1034.91 1556.96 994.356C1559.7 965.756 1561.07 951.456 1568.21 939.707C1568.89 938.588 1569.6 937.492 1570.36 936.419C1578.25 925.163 1590.79 918.164 1615.88 904.166C1651.46 884.319 1669.25 874.395 1677.51 857.606C1678.28 856.029 1678.99 854.419 1679.63 852.779C1686.38 835.33 1681.64 815.522 1672.14 775.905C1665.45 747.965 1662.1 733.995 1665.04 720.565C1665.32 719.286 1665.64 718.016 1666 716.758C1669.81 703.549 1679.4 692.856 1698.59 671.47C1725.79 641.147 1739.4 625.985 1741.76 607.423C1741.98 605.679 1742.13 603.927 1742.19 602.17C1742.92 583.472 1732 566.278 1710.16 531.891C1694.75 507.639 1687.05 495.513 1685.47 481.857C1685.32 480.556 1685.21 479.25 1685.14 477.943C1684.46 464.212 1690.06 450.984 1701.26 424.527C1717.14 387.013 1725.09 368.257 1721.29 349.933C1720.94 348.212 1720.5 346.507 1720 344.824C1714.61 326.904 1698.7 314.187 1666.88 288.755C1644.43 270.819 1633.21 261.851 1627.28 249.449C1626.71 248.267 1626.19 247.068 1625.7 245.852C1620.59 233.088 1621.6 218.758 1623.6 190.097C1626.44 149.459 1627.87 129.14 1618.33 113.04C1617.43 111.528 1616.47 110.056 1615.45 108.628C1604.53 93.4272 1585.36 86.5667 1547 72.8457C1519.95 63.1688 1506.42 58.3303 1496.78 48.5262C1495.86 47.5923 1494.98 46.6287 1494.12 45.6367C1485.15 35.2231 1481.44 21.3438 1474.03 -6.4151C1463.53 -45.7747 1458.27 -65.4545 1444.03 -77.5852C1442.69 -78.7246 1441.3 -79.8047 1439.87 -80.8224C1424.61 -91.6559 1404.24 -91.9174 1363.51 -92.4402C1334.78 -92.8091 1320.41 -92.9934 1308.12 -99.1373C1306.95 -99.7225 1305.79 -100.346 1304.66 -101.006C1292.79 -107.942 1284.78 -119.866 1268.76 -143.715C1246.04 -177.53 1234.68 -194.438 1217.27 -201.285C1215.63 -201.929 1213.97 -202.5 1212.29 -202.997C1194.34 -208.289 1174.99 -201.923 1136.29 -189.192C1109 -180.212 1095.35 -175.723 1081.73 -177.54C1080.43 -177.714 1079.14 -177.929 1077.85 -178.187C1064.38 -180.892 1052.93 -189.569 1030.03 -206.923L1030.03 -206.924C997.563 -231.531 981.329 -243.834 962.635 -244.656C960.879 -244.733 959.121 -244.733 957.365 -244.656ZM813.31 -57.7834L814.034 -57.5451L814.035 -57.5449C830.681 -52.0674 839.86 -49.0471 849.109 -48.7623C857.5 -48.504 865.86 -49.899 873.712 -52.8679C882.367 -56.1403 890.069 -61.9775 904.035 -72.5637L904.643 -73.0242C925.5 -88.8322 935.064 -95.9916 945.428 -98.7848C954.973 -101.357 965.028 -101.357 974.572 -98.7848C984.936 -95.9916 994.501 -88.8322 1015.36 -73.0242L1015.97 -72.5637C1029.93 -61.9775 1037.63 -56.1403 1046.29 -52.8679C1054.14 -49.899 1062.5 -48.504 1070.89 -48.7623C1080.14 -49.0471 1089.32 -52.0674 1105.97 -57.5451L1106.69 -57.7834C1131.55 -65.9626 1142.92 -69.6286 1153.63 -68.9051C1163.49 -68.2388 1173 -64.974 1181.2 -59.4423C1190.09 -53.4351 1196.81 -43.558 1211.41 -21.8342L1211.83 -21.2014C1221.6 -6.65387 1226.99 1.36755 1234.12 7.27295C1240.58 12.6307 1248.03 16.6646 1256.05 19.1448C1264.89 21.8785 1274.56 22.0023 1292.08 22.2267L1292.84 22.2364C1319.01 22.5723 1330.96 22.7971 1340.85 26.9589C1349.96 30.7913 1357.9 36.9672 1363.85 44.8592C1370.31 53.4293 1373.46 64.9537 1380.21 90.2392L1380.41 90.9745L1380.41 90.9781C1384.93 107.909 1387.42 117.245 1392.24 125.143C1396.61 132.309 1402.35 138.545 1409.13 143.495C1416.61 148.951 1425.71 152.205 1442.21 158.107L1442.93 158.364C1467.57 167.179 1478.79 171.27 1486.8 178.419C1494.17 185.002 1499.67 193.42 1502.74 202.817C1506.07 213.021 1505.31 224.944 1503.48 251.051L1503.43 251.814V251.816C1502.2 269.296 1501.53 278.934 1503.52 287.969C1505.33 296.167 1508.74 303.929 1513.54 310.812C1518.84 318.398 1526.39 324.431 1540.08 335.37L1540.08 335.371L1540.68 335.848C1561.12 352.186 1570.41 359.7 1575.66 369.062C1580.5 377.682 1582.97 387.43 1582.82 397.313C1582.65 408.046 1578.06 419.076 1567.86 443.175L1567.56 443.876C1560.72 460.015 1556.96 468.913 1555.91 478.107C1554.96 486.448 1555.66 494.895 1557.97 502.966C1560.52 511.861 1565.7 520.018 1575.09 534.811L1575.5 535.455C1589.53 557.546 1595.88 567.669 1597.81 578.228C1599.58 587.953 1598.75 597.973 1595.4 607.272C1591.76 617.371 1583.84 626.311 1566.36 645.792L1565.85 646.36L1565.85 646.36C1554.15 659.404 1547.69 666.597 1543.72 674.952C1540.11 682.532 1538.03 690.749 1537.59 699.132C1537.11 708.373 1539.37 717.769 1543.45 734.811L1543.63 735.554C1549.73 761.004 1552.44 772.639 1550.84 783.252C1549.36 793.026 1545.32 802.234 1539.13 809.941C1532.41 818.311 1522.01 824.194 1499.15 836.944L1498.49 837.316C1483.18 845.853 1474.74 850.561 1468.27 857.172C1462.4 863.171 1457.76 870.266 1454.63 878.054C1451.17 886.638 1450.25 896.257 1448.58 913.702V913.703L1448.51 914.462C1446.01 940.514 1444.8 952.399 1439.84 961.916C1435.27 970.68 1428.46 978.078 1420.1 983.358C1411.03 989.092 1399.28 991.279 1373.52 995.918L1372.78 996.053C1355.53 999.159 1346.02 1000.87 1337.75 1005.02C1330.24 1008.79 1323.55 1013.99 1318.06 1020.34C1312.01 1027.34 1308.01 1036.14 1300.77 1052.1L1300.45 1052.79C1289.63 1076.62 1284.63 1087.47 1276.84 1094.86C1269.67 1101.66 1260.83 1106.45 1251.21 1108.73C1240.77 1111.21 1228.95 1109.46 1203.08 1105.49L1202.33 1105.37C1185.01 1102.71 1175.46 1101.24 1166.29 1102.48C1157.97 1103.61 1149.95 1106.36 1142.69 1110.58C1134.7 1115.23 1128.06 1122.26 1116.03 1135L1115.5 1135.55C1097.53 1154.58 1089.28 1163.21 1079.51 1167.67C1070.52 1171.78 1060.61 1173.44 1050.77 1172.47C1040.08 1171.42 1029.47 1165.93 1006.3 1153.77L1005.62 1153.42C990.105 1145.28 981.548 1140.79 972.472 1138.98C964.238 1137.35 955.762 1137.35 947.528 1138.98C938.452 1140.79 929.895 1145.28 914.376 1153.42L913.702 1153.77C890.528 1165.93 879.916 1171.42 869.233 1172.47C859.395 1173.44 849.477 1171.78 840.487 1167.67C830.723 1163.21 822.468 1154.58 804.497 1135.55L803.973 1135C791.94 1122.26 785.305 1115.23 777.306 1110.58C770.05 1106.36 762.033 1103.61 753.714 1102.48C744.545 1101.24 734.993 1102.71 717.671 1105.37L716.919 1105.49C691.052 1109.46 679.232 1111.21 668.788 1108.73C659.17 1106.45 650.327 1101.66 643.157 1094.86C635.371 1087.47 630.367 1076.62 619.547 1052.79L619.233 1052.1C611.988 1036.14 607.993 1027.34 601.938 1020.34C596.445 1013.99 589.757 1008.79 582.254 1005.02C573.984 1000.87 564.474 999.159 547.225 996.053L546.476 995.918C520.72 991.279 508.975 989.092 499.9 983.358C491.544 978.078 484.734 970.68 480.162 961.916C475.197 952.399 473.987 940.514 471.491 914.462L471.418 913.703C469.747 896.258 468.826 886.639 465.372 878.054C462.238 870.266 457.602 863.171 451.729 857.172C445.256 850.561 436.818 845.854 421.515 837.317L421.512 837.315L420.846 836.944C397.991 824.194 387.593 818.311 380.872 809.941C374.682 802.234 370.643 793.026 369.165 783.252C367.559 772.639 370.274 761.004 376.372 735.554L376.55 734.812C380.634 717.77 382.886 708.373 382.406 699.132C381.971 690.749 379.89 682.532 376.283 674.952C372.307 666.596 365.854 659.404 354.15 646.359L353.641 645.792C336.165 626.311 328.24 617.371 324.6 607.272C321.249 597.973 320.419 587.953 322.194 578.228C324.122 567.669 330.467 557.546 344.498 535.455L344.907 534.811C354.304 520.018 359.485 511.861 362.032 502.966C364.342 494.895 365.042 486.448 364.091 478.107C363.044 468.913 359.276 460.015 352.442 443.877L352.145 443.175C341.941 419.076 337.348 408.046 337.185 397.313C337.034 387.43 339.503 377.682 344.339 369.062C349.591 359.7 358.879 352.186 379.324 335.848L379.919 335.372C393.61 324.432 401.159 318.399 406.456 310.812C411.262 303.929 414.667 296.167 416.476 287.969C418.47 278.934 417.796 269.294 416.572 251.812L416.519 251.051C414.693 224.944 413.931 213.021 417.261 202.817C420.328 193.42 425.828 185.002 433.201 178.419C441.208 171.27 452.433 167.179 477.075 158.364L477.793 158.107C494.294 152.205 503.393 148.951 510.866 143.495C517.646 138.545 523.387 132.309 527.76 125.143C532.58 117.245 535.072 107.908 539.591 90.9758L539.788 90.2392C546.538 64.9537 549.688 53.4294 556.151 44.8592C562.103 36.9672 570.038 30.7913 579.15 26.9589C589.044 22.7971 600.989 22.5723 627.158 22.2364L627.92 22.2267C645.444 22.0023 655.106 21.8785 663.946 19.1448C671.967 16.6646 679.421 12.6307 685.884 7.27295C693.007 1.36749 698.396 -6.65396 708.168 -21.2016L708.593 -21.8342C723.188 -43.558 729.909 -53.4351 738.805 -59.4422C746.997 -64.974 756.507 -68.2388 766.369 -68.9051C777.079 -69.6286 788.45 -65.9626 813.31 -57.7834ZM902.226 -76.212C922.8 -91.8049 933.086 -99.6013 944.388 -102.647C954.614 -105.403 965.387 -105.403 975.613 -102.647C986.914 -99.6013 997.201 -91.8049 1017.77 -76.212C1032.32 -65.1882 1039.59 -59.6763 1047.7 -56.6094C1055.06 -53.826 1062.9 -52.5182 1070.77 -52.7604C1079.44 -53.0273 1088.1 -55.8791 1105.44 -61.5826L1105.44 -61.583C1129.96 -69.651 1142.22 -73.6849 1153.9 -72.896C1164.47 -72.1821 1174.66 -68.6841 1183.43 -62.7572C1193.13 -56.2071 1200.33 -45.493 1214.73 -24.0648C1224.9 -8.91562 1229.99 -1.34103 1236.67 4.19348C1242.73 9.21637 1249.72 12.9981 1257.24 15.3233C1265.52 17.8854 1274.65 18.0025 1292.89 18.2368C1318.71 18.5681 1331.61 18.7338 1342.4 23.2718C1352.16 27.3779 1360.67 33.995 1367.04 42.4506C1374.09 51.7953 1377.42 64.2655 1384.08 89.2055L1384.08 89.2075C1388.78 106.841 1391.14 115.657 1395.66 123.059C1399.75 129.777 1405.14 135.623 1411.49 140.264C1418.5 145.377 1427.09 148.451 1444.27 154.598C1468.58 163.292 1480.73 167.64 1489.46 175.435C1497.36 182.489 1503.26 191.508 1506.54 201.576C1510.17 212.703 1509.27 225.578 1507.47 251.33C1506.2 269.536 1505.56 278.639 1507.43 287.107C1509.13 294.793 1512.32 302.069 1516.82 308.522C1521.79 315.633 1528.92 321.329 1543.17 332.723C1563.34 348.839 1573.42 356.897 1579.15 367.105C1584.33 376.341 1586.98 386.785 1586.81 397.374C1586.64 409.078 1581.6 420.963 1571.54 444.735C1564.42 461.541 1560.86 469.944 1559.88 478.56C1558.99 486.38 1559.65 494.298 1561.81 501.865C1564.2 510.201 1569.09 517.903 1578.88 533.306L1578.88 533.309C1592.72 555.101 1599.64 565.996 1601.74 577.51C1603.64 587.929 1602.75 598.665 1599.16 608.629C1595.19 619.64 1586.58 629.248 1569.34 648.463L1569.33 648.465C1557.15 662.048 1551.06 668.84 1547.33 676.671C1543.95 683.777 1542 691.48 1541.59 699.34C1541.14 708 1543.27 716.874 1547.52 734.622L1547.52 734.624C1553.53 759.727 1556.54 772.278 1554.79 783.851C1553.21 794.323 1548.88 804.188 1542.25 812.446C1534.92 821.572 1523.65 827.86 1501.1 840.437L1501.1 840.438C1485.17 849.329 1477.2 853.775 1471.13 859.971C1465.62 865.594 1461.28 872.246 1458.34 879.548C1455.1 887.592 1454.23 896.676 1452.49 914.841L1452.49 914.844C1450.03 940.541 1448.8 953.389 1443.39 963.766C1438.49 973.156 1431.19 981.083 1422.24 986.74C1412.34 992.991 1399.64 995.279 1374.23 999.855C1356.27 1003.09 1347.29 1004.71 1339.54 1008.6C1332.51 1012.13 1326.24 1017.01 1321.09 1022.96C1315.41 1029.52 1311.64 1037.83 1304.1 1054.45L1304.09 1054.45C1293.42 1077.95 1288.09 1089.7 1279.6 1097.76C1271.92 1105.05 1262.44 1110.18 1252.14 1112.62C1240.75 1115.32 1227.99 1113.36 1202.47 1109.44L1202.47 1109.44C1184.43 1106.67 1175.42 1105.28 1166.82 1106.44C1159.02 1107.5 1151.51 1110.08 1144.71 1114.04C1137.21 1118.4 1130.94 1125.03 1118.42 1138.29L1118.41 1138.3C1100.69 1157.06 1091.82 1166.45 1081.18 1171.31C1071.54 1175.71 1060.92 1177.49 1050.38 1176.45C1038.73 1175.31 1027.3 1169.31 1004.44 1157.32L1004.44 1157.32C988.278 1148.84 980.198 1144.6 971.693 1142.91C963.973 1141.37 956.027 1141.37 948.308 1142.91C939.802 1144.6 931.722 1148.84 915.561 1157.32C892.701 1169.31 881.272 1175.31 869.624 1176.45C859.083 1177.49 848.457 1175.71 838.824 1171.31C828.178 1166.45 819.315 1157.06 801.589 1138.3L801.588 1138.3C789.057 1125.03 782.791 1118.4 775.295 1114.04C768.492 1110.08 760.977 1107.5 753.177 1106.44C744.585 1105.28 735.567 1106.67 717.532 1109.44L717.528 1109.44C692.011 1113.36 679.254 1115.32 667.865 1112.62C657.56 1110.18 648.085 1105.05 640.403 1097.76C631.914 1089.7 626.577 1077.95 615.905 1054.45C608.36 1037.83 604.588 1029.52 598.913 1022.96C593.764 1017.01 587.493 1012.13 580.46 1008.6C572.71 1004.71 563.729 1003.09 545.769 999.855L545.767 999.855C520.361 995.279 507.658 992.991 497.764 986.74C488.81 981.083 481.514 973.156 476.615 963.766C471.202 953.389 469.971 940.541 467.509 914.844C465.769 896.676 464.898 887.593 461.661 879.548C458.723 872.246 454.377 865.594 448.871 859.971C442.804 853.775 434.835 849.329 418.898 840.438L418.897 840.437C396.353 827.86 385.081 821.572 377.753 812.446C371.121 804.188 366.794 794.323 365.21 783.851C363.459 772.278 366.467 759.726 372.482 734.622C376.735 716.874 378.861 708 378.411 699.34C378.003 691.48 376.053 683.777 372.671 676.671C368.945 668.84 362.851 662.048 350.664 648.463C333.425 629.248 324.806 619.64 320.837 608.629C317.247 598.665 316.357 587.929 318.259 577.51C320.361 565.996 327.281 555.101 341.122 533.31C350.907 517.904 355.799 510.202 358.186 501.865C360.352 494.298 361.008 486.38 360.117 478.56C359.135 469.944 355.577 461.541 348.461 444.735C338.396 420.963 333.363 409.078 333.185 397.374C333.024 386.785 335.669 376.341 340.851 367.105C346.577 356.897 356.66 348.839 376.827 332.723L376.827 332.723C391.084 321.329 398.212 315.633 403.177 308.522C407.682 302.069 410.874 294.793 412.57 287.107C414.439 278.639 413.802 269.536 412.529 251.33C410.728 225.578 409.827 212.703 413.458 201.576C416.744 191.508 422.637 182.489 430.537 175.435C439.268 167.64 451.421 163.293 475.726 154.598L475.727 154.598C492.911 148.451 501.503 145.377 508.508 140.264C514.864 135.623 520.246 129.777 524.346 123.059C528.863 115.657 531.216 106.84 535.923 89.2075C542.581 64.2662 545.91 51.7955 552.958 42.4507C559.335 33.995 567.836 27.3779 577.599 23.2718C588.388 18.7338 601.294 18.5681 627.106 18.2368H627.106C645.355 18.0025 654.48 17.8854 662.765 15.3233C670.284 12.9981 677.272 9.21637 683.331 4.19348C690.007 -1.341 695.096 -8.91547 705.273 -24.0644L705.273 -24.0648C719.669 -45.493 726.866 -56.2071 736.566 -62.7572C745.344 -68.6841 755.533 -72.1821 766.1 -72.896C777.778 -73.6849 790.038 -69.651 814.56 -61.5831C831.896 -55.8792 840.564 -53.0273 849.232 -52.7604C857.099 -52.5182 864.936 -53.826 872.298 -56.6094C880.409 -59.6763 887.682 -65.1882 902.226 -76.212Z" fill="url(#paint0_linear_183_5100)"/>
<rect width="1920" height="540" fill="url(#paint1_linear_183_5100)"/>
<rect width="1920" height="540" transform="matrix(1 0 0 -1 0 1080)" fill="url(#paint2_linear_183_5100)"/>
<defs>
<linearGradient id="paint0_linear_183_5100" x1="-9.16088e-06" y1="-2.7645e-05" x2="1919.98" y2="5.41474" gradientUnits="userSpaceOnUse">
<stop stop-color="#CEE0FA"/>
<stop offset="0.255208" stop-color="white"/>
<stop offset="0.510417" stop-color="white"/>
<stop offset="0.776042" stop-color="white"/>
<stop offset="1" stop-color="#CEE0FA"/>
</linearGradient>
<linearGradient id="paint1_linear_183_5100" x1="960" y1="0" x2="960" y2="540" gradientUnits="userSpaceOnUse">
<stop stop-color="white"/>
<stop offset="1" stop-color="white" stop-opacity="0"/>
</linearGradient>
<linearGradient id="paint2_linear_183_5100" x1="960" y1="0" x2="960" y2="540" gradientUnits="userSpaceOnUse">
<stop stop-color="white"/>
<stop offset="1" stop-color="white" stop-opacity="0"/>
</linearGradient>
</defs>
</svg>
