<svg width="40" height="40" viewBox="0 0 40 40" fill="none" xmlns="http://www.w3.org/2000/svg">
<rect x="0.5" y="6.21387" width="39" height="27.5714" rx="3.5" fill="white" stroke="#F5F5F5"/>
<mask id="mask0_76_835" style="mask-type:luminance" maskUnits="userSpaceOnUse" x="0" y="5" width="40" height="30">
<rect x="0.5" y="6.21387" width="39" height="27.5714" rx="3.5" fill="white" stroke="white"/>
</mask>
<g mask="url(#mask0_76_835)">
<path fill-rule="evenodd" clip-rule="evenodd" d="M0 34.2855H40V24.7617H0V34.2855Z" fill="#199E56"/>
<path fill-rule="evenodd" clip-rule="evenodd" d="M0 15.2377H40V5.71387H0V15.2377Z" fill="#262626"/>
<path fill-rule="evenodd" clip-rule="evenodd" d="M0 5.71387L19.0476 19.9996L0 34.2853V5.71387Z" fill="#E6223A"/>
<path fill-rule="evenodd" clip-rule="evenodd" d="M6.66671 21.4283L5.42705 22.5739L5.54981 20.8904L3.8812 20.6355L5.27396 19.6818L4.43291 18.2183L6.04688 18.7126L6.66671 17.1426L7.28655 18.7126L8.90052 18.2183L8.05947 19.6818L9.45222 20.6355L7.78362 20.8904L7.90638 22.5739L6.66671 21.4283Z" fill="white"/>
</g>
</svg>
