<svg width="40" height="40" viewBox="0 0 40 40" fill="none" xmlns="http://www.w3.org/2000/svg">
<rect y="5.71387" width="40" height="28.5714" rx="4" fill="white"/>
<mask id="mask0_76_1173" style="mask-type:luminance" maskUnits="userSpaceOnUse" x="0" y="5" width="40" height="30">
<rect y="5.71387" width="40" height="28.5714" rx="4" fill="white"/>
</mask>
<g mask="url(#mask0_76_1173)">
<rect y="5.71387" width="40" height="28.5714" fill="#E6BE53"/>
<path fill-rule="evenodd" clip-rule="evenodd" d="M1.90479 30.381C1.90479 31.4856 2.80022 32.381 3.90479 32.381H36.0953C37.1998 32.381 38.0953 31.4856 38.0953 30.381V9.61914C38.0953 8.51457 37.1998 7.61914 36.0953 7.61914H3.90479C2.80022 7.61914 1.90479 8.51457 1.90479 9.61914V30.381Z" fill="#E01826"/>
<path fill-rule="evenodd" clip-rule="evenodd" d="M19.0571 15.2478C19.5778 15.7685 20.422 15.7685 20.9427 15.2478L20.9523 15.2382L22.3422 13.8483C22.6497 13.5409 23.1193 13.4646 23.5082 13.6591L23.5571 13.6835C24.1498 13.9798 24.2779 14.7697 23.8094 15.2382L22.5842 16.4635C22.1784 16.8693 22.0778 17.4892 22.3344 18.0026L22.8028 18.9393C22.8385 19.0106 22.857 19.0893 22.857 19.169C22.857 19.5509 23.2589 19.7992 23.6004 19.6285L24.0617 19.3978C24.4061 19.2256 24.4806 18.7666 24.2083 18.4943C23.988 18.274 23.988 17.9168 24.2083 17.6965L24.6288 17.276C24.7169 17.1879 24.7902 17.0862 24.8459 16.9748L25.6487 15.3691C25.6922 15.2821 25.7261 15.1906 25.7497 15.0962L25.9871 14.1464C26.2594 13.0572 27.6737 12.7716 28.3473 13.6697L29.257 14.8827C29.4301 15.1135 29.5237 15.3942 29.5237 15.6827V18.733C29.5237 18.94 29.4755 19.1441 29.3829 19.3293L28.6681 20.759C28.604 20.8872 28.5197 21.0042 28.4183 21.1055L26.8195 22.7043C26.7182 22.8056 26.6012 22.89 26.473 22.954L24.8517 23.7647C24.7926 23.7943 24.7274 23.8097 24.6612 23.8097C24.2118 23.8097 24.0688 24.4155 24.4708 24.6165L24.6915 24.7269C24.7381 24.7502 24.7806 24.7808 24.8173 24.8176L25.238 25.2382C25.501 25.5012 25.9274 25.5012 26.1904 25.2382C26.4534 24.9752 26.8797 24.9752 27.1427 25.2382L27.22 25.3155C27.4582 25.5537 27.5173 25.9177 27.3666 26.219L27.0351 26.8821C26.8092 27.3339 26.3475 27.6192 25.8425 27.6192H25.0765C24.8696 27.6192 24.6654 27.571 24.4803 27.4784L23.226 26.8513C22.9865 26.7315 22.7923 26.5373 22.6725 26.2978L22.2833 25.5193C22.097 25.1468 21.6005 25.0662 21.306 25.3607C21.1003 25.5664 21.0684 25.8886 21.2298 26.1307L22.1174 27.4622C22.5259 28.0749 22.3603 28.9027 21.7476 29.3112L20.7395 29.9833C20.2916 30.2818 19.7081 30.2818 19.2603 29.9833L18.2521 29.3112C17.6394 28.9027 17.4739 28.0749 17.8823 27.4622L18.77 26.1307C18.9314 25.8886 18.8995 25.5664 18.6938 25.3607C18.3993 25.0662 17.9028 25.1468 17.7165 25.5193L17.3272 26.2978C17.2075 26.5373 17.0133 26.7315 16.7738 26.8513L15.5195 27.4784C15.3344 27.571 15.1302 27.6192 14.9232 27.6192H14.1573C13.6522 27.6192 13.1905 27.3339 12.9647 26.8821L12.6331 26.219C12.4825 25.9177 12.5415 25.5537 12.7798 25.3155L12.857 25.2382C13.12 24.9752 13.5464 24.9752 13.8094 25.2382C14.0724 25.5012 14.4988 25.5012 14.7618 25.2382L15.1824 24.8176C15.2192 24.7808 15.2617 24.7502 15.3083 24.7269L15.529 24.6165C15.931 24.4155 15.788 23.8097 15.3385 23.8097C15.2724 23.8097 15.2072 23.7943 15.148 23.7647L13.5267 22.954C13.3986 22.89 13.2816 22.8056 13.1802 22.7043L11.5815 21.1055C11.4801 21.0042 11.3958 20.8872 11.3317 20.759L10.6168 19.3293C10.5243 19.1441 10.4761 18.94 10.4761 18.733V15.6827C10.4761 15.3942 10.5696 15.1135 10.7427 14.8827L11.6524 13.6697C12.3261 12.7716 13.7403 13.0572 14.0126 14.1464L14.2501 15.0962C14.2737 15.1906 14.3075 15.2821 14.3511 15.3691L15.1539 16.9748C15.2096 17.0862 15.2829 17.1879 15.371 17.276L15.7914 17.6965C16.0118 17.9168 16.0118 18.274 15.7914 18.4943C15.5192 18.7666 15.5937 19.2256 15.9381 19.3978L16.3994 19.6285C16.7409 19.7992 17.1427 19.5509 17.1427 19.169C17.1427 19.0893 17.1613 19.0106 17.197 18.9393L17.6653 18.0026C17.922 17.4892 17.8214 16.8693 17.4156 16.4635L16.1904 15.2382C15.7218 14.7697 15.85 13.9798 16.4427 13.6835L16.4915 13.6591C16.8804 13.4646 17.3501 13.5409 17.6576 13.8483L19.0475 15.2382L19.0571 15.2478Z" fill="#E6BE53"/>
<path fill-rule="evenodd" clip-rule="evenodd" d="M18.6596 12.9455C17.9629 12.2487 18.2429 11.0623 19.1777 10.7507L19.5786 10.6171C19.8523 10.5259 20.1482 10.5259 20.4218 10.6171L20.8227 10.7507C21.7575 11.0623 22.0376 12.2487 21.3408 12.9455C21.0922 13.1941 20.7551 13.3337 20.4036 13.3337H19.5969C19.2453 13.3337 18.9082 13.1941 18.6596 12.9455Z" fill="#E6BE53"/>
<ellipse cx="20" cy="21.1623" rx="1.90476" ry="2.11443" fill="#215F90"/>
</g>
</svg>
