<svg width="40" height="40" viewBox="0 0 40 40" fill="none" xmlns="http://www.w3.org/2000/svg">
<mask id="mask0_76_45" style="mask-type:luminance" maskUnits="userSpaceOnUse" x="0" y="5" width="40" height="30">
<rect y="5.71387" width="40" height="28.5714" rx="4" fill="white"/>
</mask>
<g mask="url(#mask0_76_45)">
<rect y="5.71387" width="40" height="28.5714" fill="#EE343C"/>
<path fill-rule="evenodd" clip-rule="evenodd" d="M17.9158 12.2016C17.4664 11.7522 16.7622 11.6825 16.2334 12.035L16.1974 12.059C15.3456 12.6269 15.425 13.9031 16.3407 14.361L17.4445 14.9129C17.8433 15.1123 18.0952 15.5199 18.0952 15.9658C18.0952 16.616 17.5682 17.143 16.918 17.143H16.5052C16.2982 17.143 16.0941 17.0948 15.909 17.0022L13.2047 15.6501C12.7128 15.4041 12.1186 15.5006 11.7297 15.8895C11.113 16.5062 11.2818 17.5458 12.0618 17.9358L13.0065 18.4082C13.5765 18.6932 13.626 19.4876 13.0957 19.8411C12.4805 20.2512 12.6683 21.2005 13.3934 21.3455L14.1961 21.506C14.9669 21.6602 15.1922 22.6536 14.5634 23.1252L13.8447 23.6642C13.3758 24.0159 13.6245 24.7621 14.2106 24.7621C14.2605 24.7621 14.3102 24.7559 14.3586 24.7438L16.1611 24.2932C16.8446 24.1223 17.3801 24.8823 16.9894 25.4685C16.6479 25.9807 17.0151 26.6668 17.6307 26.6668H18.4642C18.8126 26.6668 19.1219 26.8898 19.2321 27.2203C19.4781 27.9582 20.5219 27.9582 20.7679 27.2203C20.8781 26.8898 21.1874 26.6668 21.5358 26.6668H22.3693C22.9849 26.6668 23.3521 25.9807 23.0107 25.4685C22.6199 24.8823 23.1554 24.1223 23.8389 24.2932L25.6414 24.7438C25.6898 24.7559 25.7395 24.7621 25.7894 24.7621C26.3755 24.7621 26.6242 24.0159 26.1553 23.6642L25.4366 23.1252C24.8078 22.6536 25.0331 21.6602 25.8039 21.506L26.6066 21.3455C27.3317 21.2005 27.5195 20.2512 26.9043 19.8411C26.374 19.4876 26.4235 18.6932 26.9935 18.4082L27.9382 17.9358C28.7183 17.5458 28.887 16.5062 28.2703 15.8895C27.8814 15.5006 27.2872 15.4041 26.7953 15.6501L24.0911 17.0022C23.9059 17.0948 23.7018 17.143 23.4948 17.143H23.082C22.4318 17.143 21.9048 16.616 21.9048 15.9658C21.9048 15.5199 22.1564 15.1124 22.5552 14.913C22.903 14.7391 23.2849 14.5482 23.6593 14.361C24.575 13.9031 24.6544 12.6269 23.8026 12.059L23.7666 12.035C23.2378 11.6825 22.5336 11.7522 22.0842 12.2016L20.9428 13.3431C20.4221 13.8638 19.5779 13.8638 19.0572 13.3431L17.9158 12.2016Z" fill="#262626"/>
</g>
</svg>
