<svg width="40" height="40" viewBox="0 0 40 40" fill="none" xmlns="http://www.w3.org/2000/svg">
<rect y="5.71387" width="40" height="28.5714" rx="4" fill="white"/>
<mask id="mask0_76_543" style="mask-type:luminance" maskUnits="userSpaceOnUse" x="0" y="5" width="40" height="30">
<rect y="5.71387" width="40" height="28.5714" rx="4" fill="white"/>
</mask>
<g mask="url(#mask0_76_543)">
<path fill-rule="evenodd" clip-rule="evenodd" d="M0 15.2377H40V5.71387H0V15.2377Z" fill="#20AA46"/>
<path fill-rule="evenodd" clip-rule="evenodd" d="M0 34.2855H40V24.7617H0V34.2855Z" fill="#E92F3B"/>
<path fill-rule="evenodd" clip-rule="evenodd" d="M0 24.7621H40V15.2383H0V24.7621Z" fill="#FADF50"/>
<ellipse cx="20.0002" cy="19.9997" rx="6.66667" ry="6.66667" fill="#205CCA"/>
<path d="M20.387 21.3145L20 21.0386L19.613 21.3145L18.435 22.1543L18.8697 20.7744L19.0124 20.3211L18.6305 20.0383L17.4677 19.1774L18.9144 19.1644L19.3897 19.1601L19.5406 18.7094L20 17.3376L20.4595 18.7094L20.6104 19.1601L21.0856 19.1644L22.5323 19.1774L21.3696 20.0383L20.9876 20.3211L21.1304 20.7744L21.5651 22.1543L20.387 21.3145Z" stroke="#FFDB3D" stroke-width="1.33333"/>
</g>
</svg>
