<svg width="40" height="40" viewBox="0 0 40 40" fill="none" xmlns="http://www.w3.org/2000/svg">
<rect x="0.5" y="6.21387" width="39" height="27.5714" rx="3.5" fill="white" stroke="#F5F5F5"/>
<mask id="mask0_76_470" style="mask-type:luminance" maskUnits="userSpaceOnUse" x="0" y="5" width="40" height="30">
<rect x="0.5" y="6.21387" width="39" height="27.5714" rx="3.5" fill="white" stroke="white"/>
</mask>
<g mask="url(#mask0_76_470)">
<path fill-rule="evenodd" clip-rule="evenodd" d="M0 17.1424H17.1429V5.71387H0V17.1424Z" fill="#083D7A"/>
<path fill-rule="evenodd" clip-rule="evenodd" d="M22.8569 34.286H39.9998V22.8574H22.8569V34.286Z" fill="#083D7A"/>
<path fill-rule="evenodd" clip-rule="evenodd" d="M0 34.286H17.1429V22.8574H0V34.286Z" fill="#DF1E35"/>
<path fill-rule="evenodd" clip-rule="evenodd" d="M22.8569 17.1424H39.9998V5.71387H22.8569V17.1424Z" fill="#DF1E35"/>
<mask id="path-7-inside-1_76_470" fill="white">
<path fill-rule="evenodd" clip-rule="evenodd" d="M17.9798 17.9797C16.864 19.0955 16.864 20.9045 17.9798 22.0203C19.0956 23.1361 20.9046 23.1361 22.0204 22.0203C23.1362 20.9045 23.1362 19.0955 22.0204 17.9797"/>
</mask>
<path d="M17.037 17.0369C15.4005 18.6734 15.4005 21.3266 17.037 22.9631L18.9226 21.0775C18.3275 20.4824 18.3275 19.5176 18.9226 18.9225L17.037 17.0369ZM17.037 22.9631C18.6735 24.5996 21.3267 24.5996 22.9632 22.9631L21.0776 21.0775C20.4825 21.6726 19.5177 21.6726 18.9226 21.0775L17.037 22.9631ZM22.9632 22.9631C24.5997 21.3266 24.5997 18.6734 22.9632 17.0369L21.0776 18.9225C21.6727 19.5176 21.6727 20.4824 21.0776 21.0775L22.9632 22.9631Z" fill="#0F6D1A" mask="url(#path-7-inside-1_76_470)"/>
<ellipse cx="20.0002" cy="20.0002" rx="0.952381" ry="0.952381" fill="#042F60"/>
</g>
</svg>
