<svg width="40" height="40" viewBox="0 0 40 40" fill="none" xmlns="http://www.w3.org/2000/svg">
<rect y="5.71484" width="40" height="28.5714" rx="4" fill="white"/>
<mask id="mask0_76_1823" style="mask-type:luminance" maskUnits="userSpaceOnUse" x="0" y="5" width="40" height="30">
<rect y="5.71484" width="40" height="28.5714" rx="4" fill="white"/>
</mask>
<g mask="url(#mask0_76_1823)">
<rect y="5.71484" width="40" height="28.5714" fill="#FFBF19"/>
<path fill-rule="evenodd" clip-rule="evenodd" d="M15.2383 7.61914H35.4288C36.9015 7.61914 38.0954 8.81305 38.0954 10.2858V29.7144C38.0954 31.1871 36.9015 32.381 35.4288 32.381H15.2383V7.61914Z" fill="#A52531"/>
<path d="M1.90479 10.2858C1.90479 8.81305 3.09869 7.61914 4.57145 7.61914H7.61907V32.381H4.57145C3.09869 32.381 1.90479 31.1871 1.90479 29.7144V10.2858Z" fill="#03664F"/>
<rect x="7.61914" y="7.61914" width="5.71429" height="24.7619" rx="1.33333" fill="#FF6816"/>
<ellipse cx="18.0954" cy="10.4758" rx="0.952381" ry="0.952381" fill="#FFBF18"/>
<ellipse cx="0.952381" cy="0.952381" rx="0.952381" ry="0.952381" transform="matrix(-1 0 0 1 36.1904 9.52344)" fill="#FFBF18"/>
<ellipse cx="35.238" cy="29.5242" rx="0.952381" ry="0.952381" transform="rotate(180 35.238 29.5242)" fill="#FFBF18"/>
<ellipse cx="0.952381" cy="0.952381" rx="0.952381" ry="0.952381" transform="matrix(1 0 0 -1 17.1431 30.4766)" fill="#FFBF18"/>
<path fill-rule="evenodd" clip-rule="evenodd" d="M22.8572 23.677C22.8572 23.2244 22.4903 22.8576 22.0377 22.8576C21.9497 22.8576 21.8624 22.8435 21.7795 22.8139C21.2284 22.6169 19.0476 21.7849 19.0476 20.9528C19.0476 20.527 19.2381 20.1011 19.4486 19.7604C19.7352 19.2966 19.8585 18.7204 19.6718 18.2083C19.3505 17.327 18.9257 15.97 19.0476 15.2385C19.0877 14.9981 19.1953 14.7745 19.3402 14.5713C19.9005 13.7856 20.9524 14.4211 20.9524 15.3861V18.224C20.9524 18.729 21.2377 19.1907 21.6894 19.4166L22.4453 19.7945C22.6913 19.9175 22.9883 19.8693 23.1828 19.6748C23.4911 19.3665 23.4068 18.8467 23.0167 18.6517L21.9048 18.0957V17.1433C22.3793 17.1433 22.5303 16.5037 22.1059 16.2915L21.9048 16.1909V15.2385H23.2573C23.6109 15.2385 23.95 15.0981 24.2001 14.848L24.3714 14.6767C24.6214 14.4266 24.9606 14.2862 25.3142 14.2862H25.8426C26.3477 14.2862 26.8094 14.5715 27.0352 15.0232L27.3721 15.6969C27.5302 16.0132 27.5562 16.3794 27.4444 16.7149L27.2517 17.2931C26.9639 18.1565 27.6065 19.0481 28.5166 19.0481H31.1189C31.3172 19.0481 31.5074 18.9693 31.6476 18.8291C32.0084 18.4683 31.9097 17.86 31.4533 17.6318L30.7532 17.2818C30.571 17.1907 30.3702 17.1433 30.1665 17.1433H29.9048C29.1684 17.1433 28.5714 16.5463 28.5714 15.81V15.7908C28.5714 15.4372 28.7119 15.0981 28.962 14.848L29.5238 14.2862V15.2385C29.5238 15.7645 29.9502 16.1909 30.4762 16.1909H31.5569C32.062 16.1909 32.5236 16.4763 32.7495 16.928L33.2264 17.8818C33.2971 18.0233 33.3423 18.1761 33.3561 18.3337C33.4024 18.8654 33.4909 20.1649 33.3334 20.9528C33.2136 21.5515 32.9007 22.1102 32.666 22.4657C32.4935 22.7271 32.381 23.0292 32.381 23.3424V25.9396C32.381 26.3414 32.0552 26.6671 31.6534 26.6671C31.1126 26.6671 30.7608 26.0979 31.0027 25.6142L31.328 24.9634C31.3913 24.8369 31.3913 24.6878 31.328 24.5613L31.2831 24.4713C31.0821 24.0693 30.4762 24.2124 30.4762 24.6618C30.4762 24.7279 30.4608 24.7931 30.4312 24.8523L29.7593 26.1962C29.615 26.4848 29.32 26.6671 28.9974 26.6671C28.3641 26.6671 27.9523 26.0007 28.2355 25.4343L28.4502 25.0049C28.5299 24.8454 28.5714 24.6695 28.5714 24.4912V24.1909C28.5714 23.4545 27.9745 22.8576 27.2381 22.8576H26.0953C25.3589 22.8576 24.7619 23.4545 24.7619 24.1909V24.4476C24.7619 24.6546 24.7137 24.8587 24.6212 25.0439L24.045 26.1962C23.9007 26.4848 23.6057 26.6671 23.2831 26.6671C22.6498 26.6671 22.238 26.0007 22.5212 25.4343L22.7359 25.0049C22.8156 24.8454 22.8572 24.6695 22.8572 24.4912V23.677Z" fill="#FFBF18"/>
</g>
</svg>
