<svg width="40" height="40" viewBox="0 0 40 40" fill="none" xmlns="http://www.w3.org/2000/svg">
<rect y="5.71387" width="40" height="28.5714" rx="4" fill="white"/>
<mask id="mask0_76_155" style="mask-type:luminance" maskUnits="userSpaceOnUse" x="0" y="5" width="40" height="30">
<rect y="5.71387" width="40" height="28.5714" rx="4" fill="white"/>
</mask>
<g mask="url(#mask0_76_155)">
<rect y="5.71387" width="40" height="28.5714" fill="url(#paint0_linear_76_155)"/>
<rect x="19.0479" y="5.71387" width="20.9524" height="28.5714" fill="#08379D"/>
<path fill-rule="evenodd" clip-rule="evenodd" d="M0 34.2853H13.3333V5.71387H0V34.2853Z" fill="#08379D"/>
<path fill-rule="evenodd" clip-rule="evenodd" d="M13.3335 34.2853H26.6668V5.71387H13.3335V34.2853Z" fill="#FFCC50"/>
<path fill-rule="evenodd" clip-rule="evenodd" d="M19.476 15.1132C19.7436 14.7198 20.3252 14.7252 20.5854 15.1235L21.416 16.3949C21.6262 16.7167 21.3953 17.1433 21.011 17.1433C20.7247 17.1433 20.5011 17.3904 20.5295 17.6753L20.8925 21.3049C20.9266 21.6457 21.2134 21.9052 21.5559 21.9052H21.6309C21.8064 21.9052 21.9749 21.836 22.0997 21.7125L22.6595 21.1588C22.7861 21.0335 22.8573 20.8629 22.8573 20.6848V19.3226C22.8573 19.1468 22.7875 18.9782 22.6632 18.854C22.3148 18.5056 22.4548 17.9124 22.9222 17.7566L23.6914 17.5002C24.1727 17.3398 24.6497 17.7543 24.5579 18.2532L23.9251 21.694C23.8999 21.8313 23.8321 21.9573 23.7315 22.054L22.0985 23.6239C21.9743 23.7433 21.8087 23.81 21.6364 23.81H21.6192C21.251 23.81 20.9525 24.1084 20.9525 24.4766V25.0481C20.9525 25.4163 20.6541 25.7147 20.2859 25.7147H19.7144C19.3463 25.7147 19.0478 25.4163 19.0478 25.0481V24.4766C19.0478 24.1084 18.7493 23.81 18.3811 23.81H18.3715C18.1947 23.81 18.0252 23.7397 17.9001 23.6147L16.3334 22.0479C16.2403 21.9549 16.1769 21.8363 16.151 21.7073L15.4635 18.2698C15.3632 17.7678 15.8425 17.3447 16.3281 17.5066L17.0781 17.7566C17.5455 17.9124 17.6855 18.5056 17.3371 18.854C17.2128 18.9782 17.143 19.1468 17.143 19.3226V20.6848C17.143 20.8629 17.2142 21.0335 17.3408 21.1588L17.9006 21.7125C18.0254 21.836 18.1939 21.9052 18.3694 21.9052H18.4444C18.7869 21.9052 19.0737 21.6457 19.1078 21.3049L19.4715 17.6679C19.4996 17.387 19.279 17.1433 18.9968 17.1433C18.6138 17.1433 18.3869 16.7147 18.6023 16.3979L19.476 15.1132Z" fill="#262626"/>
</g>
<defs>
<linearGradient id="paint0_linear_76_155" x1="0" y1="5.71387" x2="0" y2="34.2853" gradientUnits="userSpaceOnUse">
<stop stop-color="#1132C7"/>
<stop offset="1" stop-color="#0522A5"/>
</linearGradient>
</defs>
</svg>
