<svg width="40" height="40" viewBox="0 0 40 40" fill="none" xmlns="http://www.w3.org/2000/svg">
<rect y="5.71484" width="40" height="28.5714" rx="4" fill="white"/>
<mask id="mask0_76_1378" style="mask-type:luminance" maskUnits="userSpaceOnUse" x="0" y="5" width="40" height="30">
<rect y="5.71484" width="40" height="28.5714" rx="4" fill="white"/>
</mask>
<g mask="url(#mask0_76_1378)">
<rect y="5.71484" width="40" height="28.5714" fill="#FF2936"/>
<path fill-rule="evenodd" clip-rule="evenodd" d="M0 34.2863H15.2381V5.71484H0V34.2863Z" fill="#128415"/>
<path d="M15.2382 25.1438C18.0786 25.1438 20.3811 22.8413 20.3811 20.0009C20.3811 17.1606 18.0786 14.8581 15.2382 14.8581C12.3979 14.8581 10.0954 17.1606 10.0954 20.0009C10.0954 22.8413 12.3979 25.1438 15.2382 25.1438Z" stroke="#FAF94F" stroke-width="2.66667"/>
<path fill-rule="evenodd" clip-rule="evenodd" d="M13.3335 17.8092C13.3335 17.4411 13.632 17.1426 14.0002 17.1426H16.4764C16.8445 17.1426 17.143 17.4411 17.143 17.8092V20.9521C17.143 22.0041 16.2902 22.8569 15.2383 22.8569C14.1863 22.8569 13.3335 22.0041 13.3335 20.9521V17.8092Z" fill="white"/>
<ellipse cx="15.238" cy="19.5243" rx="0.952381" ry="1.42857" fill="#1D50B5"/>
</g>
</svg>
