<svg width="40" height="40" viewBox="0 0 40 40" fill="none" xmlns="http://www.w3.org/2000/svg">
<rect x="0.5" y="6.21387" width="39" height="27.5714" rx="3.5" fill="white" stroke="#F5F5F5"/>
<mask id="mask0_76_363" style="mask-type:luminance" maskUnits="userSpaceOnUse" x="0" y="5" width="40" height="30">
<rect x="0.5" y="6.21387" width="39" height="27.5714" rx="3.5" fill="white" stroke="white"/>
</mask>
<g mask="url(#mask0_76_363)">
<path fill-rule="evenodd" clip-rule="evenodd" d="M0 13.3329H40V5.71387H0V13.3329Z" fill="#FFCB49"/>
<path fill-rule="evenodd" clip-rule="evenodd" d="M0 26.6669H40V19.0479H0V26.6669Z" fill="#DC1D34"/>
<path fill-rule="evenodd" clip-rule="evenodd" d="M0 34.286H40V26.667H0V34.286Z" fill="#4985D4"/>
<path fill-rule="evenodd" clip-rule="evenodd" d="M0 34.2853L19.0476 19.9996L0 5.71387V34.2853Z" fill="#4BA343"/>
<ellipse cx="7.61907" cy="20.0004" rx="5.71429" ry="5.71429" fill="white"/>
<ellipse cx="10.476" cy="20.0004" rx="5.71429" ry="5.71429" fill="white"/>
<ellipse cx="10.4763" cy="16.1907" rx="0.952381" ry="0.952381" fill="white"/>
<ellipse cx="10.4763" cy="20.0002" rx="0.952381" ry="0.952381" fill="white"/>
<ellipse cx="10.4763" cy="23.8098" rx="0.952381" ry="0.952381" fill="white"/>
</g>
</svg>
