<svg width="40" height="40" viewBox="0 0 40 40" fill="none" xmlns="http://www.w3.org/2000/svg">
<rect x="0.5" y="6.21387" width="39" height="27.5714" rx="3.5" fill="white" stroke="#F5F5F5"/>
<mask id="mask0_76_422" style="mask-type:luminance" maskUnits="userSpaceOnUse" x="0" y="5" width="40" height="30">
<rect x="0.5" y="6.21387" width="39" height="27.5714" rx="3.5" fill="white" stroke="white"/>
</mask>
<g mask="url(#mask0_76_422)">
<path fill-rule="evenodd" clip-rule="evenodd" d="M28.5713 10.4759C29.09 10.2165 29.6165 10.8129 29.2948 11.2954L28.6674 12.2365C28.604 12.3317 28.5223 12.4133 28.4272 12.4767L25.8151 14.2181C25.748 14.2629 25.6854 14.3142 25.6284 14.3712C25.1498 14.8498 25.1498 15.6258 25.6284 16.1044L25.7237 16.1997C26.2444 16.7204 26.2444 17.5647 25.7237 18.0854L25.3925 18.4166C25.0159 18.7932 24.4404 18.8866 23.964 18.6484C23.3526 18.3427 22.6092 18.5905 22.3036 19.2019L22.1516 19.5057C21.9935 19.822 21.7162 20.0625 21.3807 20.1743L19.2528 20.8837C19.1168 20.929 18.9744 20.9521 18.8311 20.9521H17.9562C17.4576 20.9521 17.0019 21.2337 16.779 21.6796C16.4539 22.3298 15.6633 22.5933 15.0132 22.2682L12.5744 21.0488C12.4462 20.9847 12.3292 20.9004 12.2278 20.7991L10.8666 19.4378C10.6165 19.1878 10.4761 18.8486 10.4761 18.495V17.816C10.4761 17.4441 10.7776 17.1426 11.1495 17.1426C11.3281 17.1426 11.4994 17.0716 11.6257 16.9453L12.9427 15.6283C13.1927 15.3783 13.5319 15.2378 13.8855 15.2378H14.277C14.8509 15.2378 15.3604 14.8705 15.5419 14.3261L15.8181 13.4973C16.0308 12.8594 16.6852 12.4796 17.3445 12.6115L20.6583 13.2742C20.8518 13.3129 21.0516 13.3082 21.2431 13.2603L24.6198 12.4161C24.7142 12.3925 24.8057 12.3587 24.8927 12.3152L26.6666 11.4283L28.5713 10.4759Z" fill="#E7832C"/>
<ellipse cx="20.0002" cy="27.6194" rx="0.952381" ry="0.95238" fill="#445128"/>
<path opacity="0.75" d="M22.8569 26.6667C22.8569 26.6667 25.7141 25.7143 26.6665 23.8096" stroke="#445128" stroke-width="2.66667" stroke-linecap="round"/>
<path opacity="0.75" d="M17.1431 26.6667C17.1431 26.6667 14.2859 25.7143 13.3335 23.8096" stroke="#445128" stroke-width="2.66667" stroke-linecap="round"/>
</g>
</svg>
