<svg width="40" height="40" viewBox="0 0 40 40" fill="none" xmlns="http://www.w3.org/2000/svg">
<rect y="5.71387" width="40" height="28.5714" rx="4" fill="white"/>
<mask id="mask0_76_1220" style="mask-type:luminance" maskUnits="userSpaceOnUse" x="0" y="5" width="40" height="30">
<rect y="5.71387" width="40" height="28.5714" rx="4" fill="white"/>
</mask>
<g mask="url(#mask0_76_1220)">
<rect x="-5.71436" y="5.71387" width="57.1429" height="28.5714" fill="#002B7F"/>
<rect x="-5.71436" y="18.8096" width="57.1429" height="2.38095" fill="#FFC61E"/>
<path d="M8.57148 30.7142L7.95524 28.2522L6.19052 30.0763L6.88788 27.6359L4.44754 28.3333L6.27166 26.5686L3.80957 25.9523L6.27166 25.3361L4.44754 23.5714L6.88788 24.2687L6.19052 21.8284L7.95524 23.6525L8.57148 21.1904L9.18771 23.6525L10.9524 21.8284L10.2551 24.2687L12.6954 23.5714L10.8713 25.3361L13.3334 25.9523L10.8713 26.5686L12.6954 28.3333L10.2551 27.6359L10.9524 30.0763L9.18771 28.2522L8.57148 30.7142Z" fill="white"/>
</g>
</svg>
