<svg width="40" height="40" viewBox="0 0 40 40" fill="none" xmlns="http://www.w3.org/2000/svg">
<rect x="0.5" y="6.21387" width="39" height="27.5714" rx="3.5" fill="white" stroke="#F5F5F5"/>
<mask id="mask0_76_310" style="mask-type:luminance" maskUnits="userSpaceOnUse" x="0" y="5" width="40" height="30">
<rect x="0.5" y="6.21387" width="39" height="27.5714" rx="3.5" fill="white" stroke="white"/>
</mask>
<g mask="url(#mask0_76_310)">
<rect x="28.5713" y="5.71387" width="11.4286" height="28.5714" fill="#FF3131"/>
<path fill-rule="evenodd" clip-rule="evenodd" d="M0 34.2853H11.4286V5.71387H0V34.2853Z" fill="#FF3131"/>
<path fill-rule="evenodd" clip-rule="evenodd" d="M23.367 18.5376C22.929 18.9756 22.189 18.5795 22.3104 17.9721L22.8573 15.2378L20.9525 16.1902L20.0002 13.333L19.0478 16.1902L17.143 15.2378L17.6899 17.9721C17.8114 18.5795 17.0713 18.9756 16.6333 18.5376C16.3888 18.2931 15.9924 18.2931 15.748 18.5376L15.2383 19.0473L13.3335 18.0949L14.2859 19.9997L13.8049 20.4807C13.5446 20.741 13.5446 21.1631 13.8049 21.4235L16.1906 23.8092H19.0478L19.524 26.6663H20.4764L20.9525 23.8092H23.8097L26.1954 21.4235C26.4558 21.1631 26.4558 20.741 26.1954 20.4807L25.7145 19.9997L26.6668 18.0949L24.7621 19.0473L24.2524 18.5376C24.0079 18.2931 23.6115 18.2931 23.367 18.5376Z" fill="#FF3131"/>
</g>
</svg>
