<svg width="40" height="40" viewBox="0 0 40 40" fill="none" xmlns="http://www.w3.org/2000/svg">
<rect y="5.71387" width="40" height="28.5714" rx="4" fill="white"/>
<mask id="mask0_76_844" style="mask-type:luminance" maskUnits="userSpaceOnUse" x="0" y="5" width="40" height="30">
<rect y="5.71387" width="40" height="28.5714" rx="4" fill="white"/>
</mask>
<g mask="url(#mask0_76_844)">
<rect y="5.71387" width="40" height="28.5714" fill="#30C6E0"/>
<ellipse cx="19.9999" cy="20.0004" rx="5.71429" ry="5.71429" fill="#FFCD4B"/>
<path fill-rule="evenodd" clip-rule="evenodd" d="M20.0001 26.7334L17.6689 30.2132L17.0785 26.0665L13.4683 28.1902L14.7355 24.198L10.5614 24.5451L13.4352 21.498L9.52393 19.9996L13.4352 18.5012L10.5614 15.4542L14.7355 15.8012L13.4683 11.809L17.0785 13.9327L17.6689 9.7861L20.0001 13.2659L22.3313 9.7861L22.9218 13.9327L26.5319 11.809L25.2648 15.8012L29.4388 15.4542L26.565 18.5012L30.4763 19.9996L26.565 21.498L29.4388 24.5451L25.2648 24.198L26.5319 28.1902L22.9218 26.0665L22.3313 30.2132L20.0001 26.7334Z" fill="#FFCD4B"/>
<ellipse cx="20.0002" cy="19.9997" rx="6.66667" ry="6.66667" fill="#FFCD4B"/>
<rect x="1.90479" y="7.61914" width="1.90476" height="1.90476" rx="0.666667" fill="#FFCD4B"/>
<rect x="1.90479" y="11.4287" width="1.90476" height="1.90476" rx="0.666667" fill="#FFCD4B"/>
<rect x="1.90479" y="15.2383" width="1.90476" height="1.90476" rx="0.666667" fill="#FFCD4B"/>
<rect x="1.90479" y="19.0479" width="1.90476" height="1.90476" rx="0.666667" fill="#FFCD4B"/>
<rect x="1.90479" y="22.8574" width="1.90476" height="1.90476" rx="0.666667" fill="#FFCD4B"/>
<rect x="1.90479" y="26.667" width="1.90476" height="1.90476" rx="0.666667" fill="#FFCD4B"/>
<rect x="1.90479" y="30.4766" width="1.90476" height="1.90476" rx="0.666667" fill="#FFCD4B"/>
<rect x="3.80957" y="28.5713" width="1.90476" height="1.90476" rx="0.666667" fill="#FFCD4B"/>
<rect x="3.80957" y="24.7617" width="1.90476" height="1.90476" rx="0.666667" fill="#FFCD4B"/>
<rect x="3.80957" y="20.9521" width="1.90476" height="1.90476" rx="0.666667" fill="#FFCD4B"/>
<rect x="3.80957" y="17.1426" width="1.90476" height="1.90476" rx="0.666667" fill="#FFCD4B"/>
<rect x="3.80957" y="13.333" width="1.90476" height="1.90476" rx="0.666667" fill="#FFCD4B"/>
<rect x="3.80957" y="9.52344" width="1.90476" height="1.90476" rx="0.666667" fill="#FFCD4B"/>
</g>
</svg>
