<svg width="40" height="40" viewBox="0 0 40 40" fill="none" xmlns="http://www.w3.org/2000/svg">
<rect y="5.71484" width="40" height="28.5714" rx="4" fill="white"/>
<mask id="mask0_76_2009" style="mask-type:luminance" maskUnits="userSpaceOnUse" x="0" y="5" width="40" height="30">
<rect y="5.71484" width="40" height="28.5714" rx="4" fill="white"/>
</mask>
<g mask="url(#mask0_76_2009)">
<path d="M-7.85693 5.71484H49.2859V34.2863H-7.85693V5.71484Z" fill="#00247D"/>
<path d="M-7.85693 20.0006H20.7145V5.71484H49.2859V34.2863H-7.85693V20.0006Z" fill="#0096C8"/>
<path d="M22.8735 29.0918L24.2753 33.4059L20.6055 30.7397H25.1416L21.4718 33.406L22.8735 29.0918Z" fill="#FFCE00"/>
<path d="M31.0698 27.8086L29.668 32.1227L28.2663 27.8086L31.9361 30.4749L27.3999 30.4749L31.0698 27.8086Z" fill="#FFCE00"/>
<path d="M31.0698 22L29.668 26.3141L28.2663 22L31.9361 24.6663L27.3999 24.6663L31.0698 22Z" fill="#FFCE00"/>
<path d="M37.0698 26.3418L35.668 30.6559L34.2663 26.3418L37.9361 29.0081L33.3999 29.0081L37.0698 26.3418Z" fill="#FFCE00"/>
<path d="M37.0698 13.7031L35.668 18.0173L34.2663 13.7031L37.9361 16.3694L33.3999 16.3694L37.0698 13.7031Z" fill="#FFCE00"/>
<path d="M39.5923 21.9023L40.9941 26.2165L37.3242 23.5502H41.8604L38.1905 26.2165L39.5923 21.9023Z" fill="#FFCE00"/>
<path d="M42.1127 11.9785L40.711 16.2927L39.3092 11.9785L42.9791 14.6448L38.4429 14.6448L42.1127 11.9785Z" fill="#FFCE00"/>
</g>
</svg>
