<svg width="40" height="31" viewBox="0 0 40 31" fill="none" xmlns="http://www.w3.org/2000/svg">
<rect y="5.71484" width="40" height="28.5714" rx="4" fill="#009F60"/>
<mask id="mask0_76_2243" style="mask-type:luminance" maskUnits="userSpaceOnUse" x="0" y="5" width="40" height="30">
<rect y="5.71484" width="40" height="28.5714" rx="4" fill="white"/>
</mask>
<g mask="url(#mask0_76_2243)">
<rect x="34.2856" y="20.9531" width="5.71429" height="13.3333" fill="#EA8B42"/>
<path fill-rule="evenodd" clip-rule="evenodd" d="M28.5713 34.2865H34.2856V20.9531H28.5713V34.2865Z" fill="#1A1919"/>
<path fill-rule="evenodd" clip-rule="evenodd" d="M22.8569 34.2865H28.5712V20.9531H22.8569V34.2865Z" fill="#DB3C36"/>
<path fill-rule="evenodd" clip-rule="evenodd" d="M30.0202 10.6919C29.8889 10.6956 29.7924 10.6501 29.7579 10.5737C29.972 10.4481 30.1167 10.4761 30.2962 10.6361C30.3307 10.511 30.2962 10.3717 30.2203 10.2881C30.1444 10.2046 30.0822 10.2046 29.9788 10.1974C29.8752 10.1905 29.7716 10.1628 29.7026 10.1628C29.6014 9.93986 29.348 10.0342 29.1045 10.1257C28.7088 10.2741 28.3532 10.5437 28.1935 10.8129C28.1205 10.936 28.1117 10.9844 28.0669 11.0542C28.1039 11.0495 28.1014 11.0495 28.1244 11.0355C28.0968 11.342 28.06 11.6251 28.1151 11.8063C28.0463 12.071 28.1014 12.2381 28.1842 12.3217C28.2672 12.4052 28.3015 12.4401 28.3155 12.5377C28.3292 12.635 28.3706 12.7255 28.4396 12.7813C28.5087 12.8371 28.5501 12.9206 28.5569 12.9695C28.5638 13.0182 28.7773 13.2281 28.8675 13.2829C28.902 13.3035 28.9089 13.3456 28.9505 13.4011C28.8606 13.9305 29.2196 14.4599 29.1366 14.9822C29.1988 14.9891 29.2816 14.9822 29.3646 14.9613C29.4334 15.4069 29.4748 15.6229 29.0884 15.7552C28.7019 15.8876 28.4906 16.0179 28.5983 16.1661C28.6742 16.2705 28.8315 16.1796 28.9297 16.0894C29.0056 16.0199 29.0952 15.9572 29.1643 15.9363C29.2333 15.9154 29.2473 15.9363 29.2125 16.0267C29.178 16.1174 28.9919 16.3123 28.9848 16.4099C28.9779 16.5075 29.0607 16.577 29.192 16.5003C29.323 16.4237 29.4383 16.2231 29.468 16.1034C29.4885 16.0199 29.5233 15.9641 29.5162 16.1034C29.5093 16.2428 29.4266 16.4935 29.6129 16.5353C29.7993 16.577 29.8547 16.3541 29.7924 16.1521C29.7302 15.9503 29.7097 15.8387 29.7371 15.7692C29.7648 15.6994 29.7924 15.6578 29.8613 15.6785C29.9303 15.6994 30.0684 15.6716 30.0616 15.5603C30.0545 15.4489 29.958 15.3582 29.8475 15.4209C29.7371 15.4836 29.6543 15.4742 29.7026 15.3373C29.7371 15.2398 29.7993 15.1213 29.8062 15.0449C29.8821 15.1562 30.3099 15.1702 30.4826 15.0658C30.524 15.2747 30.6344 15.4627 30.3929 15.6578C30.1512 15.8527 29.958 16.0407 29.9649 16.1801C29.972 16.3195 30.0271 16.4028 30.1512 16.3332C30.2754 16.2637 30.3513 16.1661 30.379 16.0756C30.4067 15.985 30.462 15.985 30.4343 16.0965C30.4067 16.2079 30.3584 16.3681 30.379 16.4657C30.3998 16.563 30.5516 16.5701 30.6136 16.4795C30.6758 16.389 30.6618 16.2705 30.6481 16.1521C30.6344 16.0336 30.6552 15.9085 30.6827 15.8596C30.7103 15.8109 30.7654 15.7411 30.8208 15.8736C30.8761 16.0058 30.9035 16.1103 31.014 16.1452C31.1244 16.1801 31.2072 16.1312 31.1867 15.999C31.1658 15.8667 31.0209 15.7203 30.8761 15.6089C30.7311 15.4976 30.7794 15.4418 30.7862 15.3373C30.7931 15.2329 30.7725 15.0449 30.7654 14.9613C30.8967 15.0589 31.0417 15.0449 31.1105 15.0449C31.1795 15.0449 31.2929 15.0235 31.1795 14.9195C30.9518 14.7106 31.0277 14.585 30.869 14.4319C30.7103 14.2788 30.5653 14.0419 30.5171 13.8401C30.4686 13.638 30.3623 13.2689 30.1512 13.0809C30.0339 12.9764 29.9994 12.6908 30.0271 12.3635C30.0545 12.0361 30.0616 11.6741 29.7648 11.5069C29.468 11.3398 29.4748 11.2004 29.5715 11.0542C29.668 10.908 29.7922 10.7649 29.9511 10.7546C29.9869 10.7524 30.0694 10.7455 30.103 10.7209C30.088 10.7094 30.0638 10.6909 30.0202 10.6919Z" fill="#EA8B42"/>
<path fill-rule="evenodd" clip-rule="evenodd" d="M28.0897 11.4435C28.0824 11.5851 28.0858 11.7097 28.115 11.8056C28.0461 12.0703 28.1012 12.2374 28.184 12.3209C28.267 12.4045 28.3013 12.4394 28.3153 12.537C28.329 12.6343 28.3704 12.7248 28.4394 12.7805C28.5085 12.8363 28.5499 12.9199 28.5568 12.9688C28.5636 13.0175 28.7772 13.2274 28.8673 13.2822C28.9018 13.3028 28.9087 13.3448 28.9503 13.4004C28.9128 13.6204 28.9523 13.8403 29.0061 14.0598C28.5183 14.4683 28.0368 14.2756 28.2394 13.8578C27.8343 14.1827 27.1351 14.1736 27.2916 13.8578C26.6566 14.0807 26.4634 13.8949 26.5461 13.6907C26.0125 13.9042 25.7363 13.7 25.81 13.5513C25.3682 13.672 25.0829 13.5977 25.0368 13.5235C24.991 13.4493 25.1012 13.2822 25.2026 13.1986C25.0001 13.2728 24.8069 13.2728 24.6227 13.2451C24.4388 13.217 24.4848 13.1613 24.5216 13.0777C24.5586 12.9941 24.6068 12.8619 24.754 12.7319C24.4021 12.8014 23.9603 12.8503 23.6497 12.7456C23.5912 12.726 23.491 12.7039 23.553 12.6414C23.6152 12.5788 23.8016 12.4254 24.0293 12.3278C23.5116 12.4045 22.5315 12.4603 22.2555 12.1469C22.5247 12.2025 22.8697 12.0911 23.0906 12.0007C22.221 11.9031 21.034 11.3042 21.02 10.7192C21.2686 11.123 21.6967 11.2624 22.1245 11.3877C21.5446 11.0464 21.3031 10.6354 21.2826 10.3638C21.6137 10.6843 22.1174 11.0464 22.6146 11.1302C22.2624 10.9421 21.8069 10.3918 21.6827 10.0087C21.9381 10.2385 22.5937 10.6076 23.0424 10.7261C22.7319 10.4823 22.2281 9.90423 22.2555 9.58398C22.3728 9.70245 22.6628 9.92512 23.2562 10.2734C23.8498 10.6216 24.1719 10.5961 24.6619 10.7005C24.5723 10.5799 24.4917 10.4196 24.4848 10.3778C24.6298 10.3987 24.7677 10.4545 25.1818 10.7121C25.5959 10.9699 26.5008 11.0488 27.0178 11.2764C27.3972 11.4435 27.9379 11.3391 28.0897 11.4435Z" fill="#EA8B42"/>
<path fill-rule="evenodd" clip-rule="evenodd" d="M31.2136 15.0198C31.2364 15.0016 31.2364 14.9701 31.1796 14.9183C30.9518 14.7094 31.0277 14.5838 30.869 14.4307C30.7103 14.2775 30.5654 14.0406 30.5171 13.8388C30.4686 13.6368 30.3623 13.2676 30.1512 13.0796C30.0339 12.9752 29.9994 12.6896 30.0271 12.3622C30.0506 12.082 30.0592 11.7765 29.875 11.5895C30.2201 11.4919 30.5379 11.4708 30.6481 11.5821C31.221 11.4359 31.7181 11.3916 32.2057 11.3594C32.767 11.3221 33.8252 11.0807 34.58 10.57C34.5339 10.7558 34.2763 11.0343 34.0461 11.1736C34.8099 10.9878 35.7303 10.6442 36.5125 10.0593C36.5032 10.468 36.1721 10.7742 35.9786 10.9416C36.5125 10.6442 37.2944 10.2729 37.5614 9.80859C37.6787 10.2844 36.8806 10.9067 36.4478 11.2503C36.8896 11.0367 37.4602 10.8394 37.6811 10.5236C37.6765 10.9089 37.1749 11.3872 36.6964 11.6657C37.1842 11.4801 37.7272 11.285 38.0399 10.9972C38.0766 11.385 36.5813 12.2764 35.8405 12.52C36.4848 12.3622 37.3221 12.1486 37.6902 11.9257C37.6718 12.0046 37.5217 12.1152 37.4125 12.1958C36.9623 12.5286 36.272 12.7073 35.8498 12.7894C35.9051 13.0216 35.8314 13.1516 35.5738 13.1701C35.3161 13.1887 34.6926 13.089 34.3799 12.9309C34.3339 12.9587 34.2785 12.9683 34.2163 12.9752C34.52 13.205 34.6236 13.3721 34.5614 13.4697C34.4994 13.5672 34.2819 13.5495 34.1164 13.5149C34.2474 13.884 33.809 13.8597 33.4434 13.6506C33.5884 13.8388 33.6092 13.9988 33.4089 14.0406C33.2088 14.0824 33.0499 14.0686 32.8566 13.943C32.8429 14.0824 32.7094 14.1753 32.5324 14.1288C33.1397 14.498 33.1052 14.6327 33.0016 14.7718C32.8983 14.9111 32.5358 14.8834 32.3426 14.758C32.2598 15.0436 31.9297 15.0446 31.6833 14.8173C31.6811 14.9311 31.446 15.1569 31.2136 15.0198Z" fill="#EA8B42"/>
<path fill-rule="evenodd" clip-rule="evenodd" d="M28.3963 16.4202C28.4063 16.3322 28.4146 16.2299 28.4881 16.1648C28.5618 16.0997 28.6078 16.0441 28.6723 16.109C28.7367 16.1741 28.6953 16.2346 28.6078 16.2624C28.5204 16.2901 28.4607 16.369 28.4467 16.4202C28.433 16.4713 28.3869 16.4991 28.3963 16.4202Z" fill="black"/>
<path fill-rule="evenodd" clip-rule="evenodd" d="M28.8976 16.8474C28.8521 16.7014 28.8748 16.5131 28.9253 16.4573C28.976 16.4015 29.0404 16.3644 29.1001 16.4202C29.1599 16.476 29.1829 16.5549 29.0725 16.6013C28.9748 16.6424 28.9667 16.7451 28.9623 16.8196C28.9576 16.8938 28.9253 16.9356 28.8976 16.8474Z" fill="black"/>
<path fill-rule="evenodd" clip-rule="evenodd" d="M29.5416 16.4729C29.5061 16.5326 29.5507 16.7747 29.6705 16.8349C29.7552 16.8776 29.7946 16.8676 29.7439 16.7884C29.6935 16.7095 29.7119 16.6353 29.7395 16.5935C29.767 16.5517 29.7625 16.4775 29.7025 16.4404C29.6428 16.403 29.5691 16.4264 29.5416 16.4729Z" fill="black"/>
<path fill-rule="evenodd" clip-rule="evenodd" d="M30.0617 16.2542C29.9858 16.1967 29.9145 16.2658 29.8869 16.3144C29.8315 16.412 29.8731 16.5514 29.9606 16.6303C30.048 16.7091 30.034 16.6025 30.0064 16.556C29.9789 16.5096 29.9743 16.4167 30.034 16.4073C30.0938 16.3982 30.1354 16.3098 30.0617 16.2542Z" fill="black"/>
<path fill-rule="evenodd" clip-rule="evenodd" d="M30.4944 16.4119C30.4204 16.3901 30.3472 16.4677 30.3562 16.5606C30.3631 16.6299 30.3702 16.7184 30.439 16.7649C30.4853 16.7958 30.5174 16.816 30.4944 16.7324C30.4713 16.6489 30.5083 16.5791 30.5495 16.556C30.5908 16.5329 30.5725 16.4353 30.4944 16.4119Z" fill="black"/>
<path fill-rule="evenodd" clip-rule="evenodd" d="M31.106 16.0176C31.0524 16.0555 31.0553 16.1432 31.106 16.1756C31.1565 16.2081 31.2302 16.2545 31.2165 16.3334C31.2025 16.4123 31.2439 16.4403 31.2809 16.3521C31.3176 16.2639 31.3223 16.1339 31.2809 16.0734C31.2392 16.0129 31.1518 15.9852 31.106 16.0176Z" fill="black"/>
<path d="M30.0199 10.6768C29.8957 10.6802 29.804 10.6384 29.772 10.5675C29.9678 10.4686 30.1057 10.4869 30.2862 10.6478L30.3111 10.6404C30.3462 10.5132 30.3132 10.3676 30.2318 10.278C30.2123 10.2565 30.1932 10.2399 30.1736 10.227C30.1288 10.1977 30.0919 10.1898 30.0036 10.1839C29.9921 10.1831 29.9921 10.1831 29.98 10.1823C29.9426 10.1798 29.9068 10.175 29.8508 10.1659C29.7528 10.1499 29.736 10.1476 29.7027 10.1476C29.6274 9.9598 29.476 9.96998 29.0993 10.1115C28.7018 10.2606 28.3427 10.5319 28.1805 10.8052C28.1592 10.8411 28.1421 10.8727 28.1263 10.9047C28.1169 10.9236 28.0895 10.9821 28.0923 10.9763C28.0858 10.9897 28.0858 10.9897 28.0792 11.0028C28.0713 11.018 28.0633 11.0319 28.0542 11.0461L28.069 11.0696C28.0817 11.068 28.0817 11.068 28.0909 11.0666C28.0998 11.0652 28.1056 11.0636 28.1116 11.0609C28.1166 11.0586 28.1211 11.056 28.1326 11.0488L28.1094 11.0343C28.1072 11.0587 28.1056 11.0755 28.1018 11.1162C28.0621 11.5364 28.0581 11.6711 28.1007 11.8109C28.0377 12.0442 28.0714 12.2296 28.1735 12.3327C28.2712 12.431 28.2887 12.4575 28.3005 12.5401C28.3154 12.6458 28.3607 12.7373 28.4302 12.7934C28.4893 12.8411 28.5345 12.9185 28.5419 12.9719C28.5494 13.0247 28.7616 13.2366 28.8597 13.2962C28.8709 13.3029 28.8791 13.3126 28.8895 13.3302C28.8927 13.3358 28.9059 13.3599 28.9093 13.3659C28.9187 13.3822 28.9277 13.3962 28.9384 13.4105C28.8973 13.624 28.9245 13.8042 29.0279 14.2045C29.129 14.5957 29.1555 14.7669 29.1217 14.98C29.2005 15.0049 29.2854 14.9973 29.3685 14.9764C29.4357 15.5212 29.4107 15.6289 29.0836 15.7408C28.8772 15.8116 28.7339 15.8771 28.6489 15.9427C28.5522 16.0173 28.5283 16.0958 28.5861 16.1753C28.6592 16.2758 28.8038 16.2262 28.9402 16.1009C29.0206 16.0273 29.1066 15.97 29.1689 15.9512C29.2243 15.9344 29.2288 15.9424 29.1984 16.0214C29.1863 16.0532 29.1725 16.0735 29.0891 16.1889C29.0799 16.2016 29.0799 16.2016 29.0708 16.2144C29.0049 16.3069 28.9729 16.3641 28.9697 16.409C28.9611 16.5309 29.0688 16.5903 29.1998 16.5138C29.3218 16.4424 29.4476 16.2504 29.483 16.1073C29.4925 16.0685 29.5056 16.0365 29.5111 16.0328C29.504 16.0376 29.499 16.0325 29.4997 16.036C29.5021 16.0483 29.5027 16.0707 29.5011 16.1028C29.4999 16.1272 29.4981 16.1419 29.4893 16.2063C29.4853 16.2357 29.483 16.2546 29.481 16.2743C29.4649 16.4336 29.495 16.5247 29.6098 16.5504C29.7974 16.5925 29.8792 16.3814 29.8072 16.1477C29.7427 15.9384 29.7271 15.8368 29.7515 15.775C29.7819 15.6984 29.8054 15.6779 29.857 15.6934C29.9565 15.7235 30.0838 15.6686 30.077 15.5595C30.0686 15.4277 29.9542 15.343 29.8402 15.4077C29.7872 15.4378 29.7437 15.449 29.7215 15.4399C29.701 15.4316 29.6967 15.4008 29.7172 15.3426C29.7266 15.316 29.7358 15.2931 29.7574 15.2417C29.7574 15.2415 29.7574 15.2415 29.7575 15.2413C29.8021 15.1349 29.8176 15.0912 29.8216 15.0464L29.7937 15.0537C29.8752 15.1732 30.3122 15.187 30.4906 15.0791L30.4677 15.0689C30.4735 15.0983 30.4798 15.1239 30.492 15.1711C30.5375 15.3459 30.5435 15.4144 30.5021 15.5035C30.4793 15.5528 30.4408 15.5998 30.3835 15.646C30.0885 15.8839 29.9433 16.0499 29.9497 16.181C29.9581 16.3456 30.032 16.4179 30.1589 16.3468C30.2791 16.2794 30.3628 16.1816 30.3938 16.0803C30.4046 16.0449 30.4204 16.0247 30.4247 16.0255C30.4274 16.026 30.4303 16.0501 30.4196 16.093C30.4158 16.1086 30.4006 16.1672 30.3984 16.1762C30.3903 16.2079 30.3842 16.2338 30.3788 16.2587C30.3594 16.3492 30.3533 16.4174 30.3642 16.4691C30.388 16.5805 30.5571 16.5897 30.6264 16.4883C30.681 16.409 30.6846 16.3326 30.6636 16.1516C30.6636 16.1511 30.6636 16.1511 30.6635 16.1505C30.6511 16.0435 30.6677 15.918 30.6962 15.8673C30.7129 15.8378 30.7302 15.8181 30.7457 15.8136C30.7638 15.8084 30.7843 15.8257 30.8068 15.8797C30.8143 15.8976 30.8395 15.9603 30.8451 15.9736C30.8913 16.0843 30.9315 16.1354 31.0096 16.16C31.137 16.2003 31.2233 16.1344 31.2019 15.9968C31.1827 15.8743 31.063 15.7333 30.8856 15.5969C30.8179 15.5449 30.7919 15.5055 30.7889 15.4616C30.7877 15.4437 30.7889 15.4324 30.7953 15.3912C30.7988 15.3689 30.8006 15.3548 30.8017 15.3385C30.8045 15.2956 30.803 15.2373 30.7982 15.1642C30.7962 15.1351 30.7938 15.1045 30.7908 15.07C30.7888 15.0476 30.782 14.9735 30.7808 14.9602L30.7565 14.9738C30.7766 14.9888 30.7977 15.0017 30.8195 15.0126C30.902 15.0537 30.9738 15.0628 31.0852 15.0608C31.0989 15.0605 31.0989 15.0605 31.1107 15.0604C31.1576 15.0604 31.1998 15.0522 31.2232 15.0333C31.2586 15.0048 31.2475 14.961 31.19 14.9084C31.0864 14.8133 31.0524 14.7547 31.0019 14.6204C30.9872 14.5814 30.9782 14.5597 30.9658 14.5357C30.9443 14.4939 30.9174 14.4573 30.8798 14.421C30.7197 14.2665 30.5787 14.0314 30.5322 13.8367C30.4505 13.4967 30.3373 13.2261 30.1616 13.0696C30.0553 12.975 30.0133 12.7097 30.0425 12.3649C30.0822 11.8905 30.0294 11.6384 29.7724 11.4937C29.5138 11.3481 29.4758 11.2272 29.5845 11.0629C29.7052 10.8799 29.8204 10.7787 29.9523 10.7701C30.0247 10.7656 30.0818 10.7557 30.1122 10.7335C30.0834 10.6864 30.0595 10.6759 30.02 10.6768L30.0199 10.6768Z" fill="black"/>
<path d="M30.0205 10.706C30.0517 10.7053 30.0695 10.7132 30.0936 10.7318C30.0704 10.7245 30.0158 10.7339 29.9502 10.738C29.8058 10.7474 29.6843 10.8542 29.5587 11.0445C29.4396 11.2245 29.4839 11.3651 29.7572 11.519C29.9999 11.6557 30.0506 11.8978 30.0118 12.3609C29.9818 12.7148 30.025 12.9878 30.141 13.0911C30.3106 13.2421 30.422 13.5083 30.5022 13.8424C30.5502 14.0431 30.6942 14.2833 30.8584 14.4417C30.8935 14.4756 30.9184 14.5095 30.9384 14.5484C30.9501 14.5711 30.9588 14.5919 30.973 14.6298C31.0251 14.7682 31.0614 14.8307 31.1692 14.9296C31.2147 14.9713 31.2206 14.9944 31.2038 15.0079C31.1875 15.0211 31.1509 15.0282 31.1104 15.0282C31.0982 15.0283 31.0982 15.0283 31.0844 15.0286C30.9776 15.0306 30.9099 15.0219 30.8329 14.9836C30.8127 14.9735 30.7932 14.9616 30.7745 14.9477L30.7501 14.9613C30.7513 14.9748 30.7581 15.0489 30.7601 15.0712C30.7631 15.1055 30.7655 15.1359 30.7674 15.1648C30.7722 15.2366 30.7736 15.2938 30.7709 15.3351C30.7699 15.3502 30.7682 15.3635 30.7649 15.385C30.758 15.4287 30.7567 15.4411 30.7581 15.4622C30.7619 15.5161 30.7927 15.5629 30.8668 15.6198C31.0383 15.7518 31.1538 15.8879 31.1715 16.0001C31.1892 16.1141 31.1253 16.163 31.0186 16.1293C30.9513 16.108 30.9162 16.0634 30.8731 15.9603C30.8676 15.9472 30.8424 15.8845 30.8348 15.8664C30.807 15.7998 30.7741 15.772 30.7371 15.7827C30.7113 15.7901 30.6899 15.8145 30.6693 15.8507C30.6373 15.9079 30.6198 16.0397 30.6329 16.1526C30.6329 16.1532 30.6329 16.1532 30.633 16.1537C30.6531 16.327 30.6497 16.3986 30.6009 16.4695C30.5455 16.5506 30.4115 16.5433 30.3939 16.4612C30.3842 16.415 30.3899 16.3503 30.4085 16.2637C30.4138 16.2392 30.4199 16.2137 30.4278 16.1823C30.4301 16.1735 30.4452 16.1147 30.4491 16.099C30.4638 16.0399 30.4589 15.9993 30.4302 15.9939C30.4043 15.989 30.3793 16.0208 30.3643 16.0699C30.3357 16.1632 30.2574 16.2549 30.1437 16.3185C30.0413 16.3759 29.9875 16.3232 29.9801 16.178C29.9744 16.0616 30.1164 15.8992 30.4025 15.6685C30.4632 15.6194 30.5047 15.5688 30.5297 15.515C30.5751 15.4171 30.5687 15.3436 30.5214 15.1619C30.5093 15.1153 30.5032 15.0901 30.4975 15.0615L30.4746 15.0513C30.3085 15.1518 29.8894 15.1386 29.8187 15.0349L29.7909 15.0422C29.7873 15.0824 29.7721 15.1251 29.7291 15.2279C29.729 15.2281 29.729 15.2281 29.7289 15.2283C29.7072 15.2803 29.6978 15.3035 29.6881 15.3309C29.6628 15.4026 29.6696 15.4505 29.7097 15.4669C29.7431 15.4805 29.7946 15.4673 29.855 15.433C29.9472 15.3807 30.0392 15.4488 30.0463 15.56C30.0514 15.6426 29.9476 15.6873 29.8656 15.6625C29.7945 15.6412 29.7583 15.6726 29.7228 15.7622C29.6948 15.8332 29.7111 15.9389 29.7778 16.1554C29.844 16.3704 29.7728 16.5541 29.6162 16.519C29.5217 16.4978 29.4965 16.4216 29.5112 16.276C29.5131 16.2567 29.5155 16.2381 29.5194 16.209C29.5284 16.1434 29.5302 16.1285 29.5314 16.1029C29.5332 16.0685 29.5325 16.0439 29.5295 16.0286C29.5253 16.0071 29.5119 15.9937 29.4939 16.0058C29.4792 16.0157 29.4647 16.0513 29.4531 16.0985C29.4195 16.234 29.2983 16.419 29.1842 16.4858C29.0737 16.5504 28.9932 16.506 29 16.4097C29.0027 16.373 29.0333 16.3181 29.0955 16.2308C29.1045 16.2182 29.1045 16.2182 29.1136 16.2055C29.2001 16.086 29.2132 16.0666 29.2268 16.031C29.265 15.9315 29.2445 15.8947 29.1598 15.9203C29.0923 15.9407 29.0028 16.0003 28.9193 16.0768C28.795 16.191 28.6679 16.2346 28.6106 16.1558C28.564 16.0917 28.5825 16.0311 28.6673 15.9656C28.749 15.9026 28.8898 15.8382 29.0933 15.7684C29.4395 15.65 29.4678 15.5283 29.3797 14.9577C29.2811 14.9652 29.1998 14.9725 29.1382 14.9657C29.1864 14.7646 29.1595 14.5907 29.0573 14.1953C28.955 13.7993 28.9283 13.6219 28.9655 13.4024C28.9528 13.3774 28.9444 13.3644 28.9357 13.3491C28.9325 13.3435 28.9192 13.3193 28.9157 13.3132C28.903 13.2915 28.8917 13.2782 28.8753 13.2684C28.7847 13.2133 28.5778 13.0068 28.572 12.9661C28.5635 12.9049 28.5142 12.8206 28.4492 12.768C28.3863 12.7172 28.3445 12.6329 28.3306 12.5343C28.3176 12.4435 28.2969 12.4121 28.195 12.3096C28.1013 12.215 28.0696 12.0408 28.1299 11.8089C28.0889 11.6663 28.0929 11.5326 28.132 11.1177C28.1359 11.0769 28.1374 11.06 28.1396 11.0356L28.1165 11.0211C28.1048 11.0283 28.102 11.03 28.0989 11.0314C28.0956 11.0329 28.0922 11.0338 28.0857 11.0349C28.0775 11.0361 28.0775 11.0361 28.0649 11.0377L28.0797 11.0613C28.0894 11.0462 28.0978 11.0315 28.1061 11.0156C28.113 11.0019 28.113 11.0019 28.1197 10.9881C28.1171 10.9936 28.1443 10.9355 28.1535 10.9169C28.169 10.8856 28.1857 10.8547 28.2066 10.8194C28.3649 10.5527 28.7185 10.2856 29.1098 10.1388C29.4708 10.0032 29.6096 9.99386 29.6886 10.1679C29.7333 10.1769 29.7501 10.1792 29.8456 10.1948C29.9025 10.204 29.9392 10.2089 29.9778 10.2115C29.9898 10.2123 29.9898 10.2123 30.0014 10.2131C30.0847 10.2187 30.1176 10.2257 30.1567 10.2513C30.174 10.2627 30.1912 10.2776 30.2089 10.2972C30.2832 10.379 30.3137 10.5136 30.2814 10.6308L30.3063 10.6234C30.1162 10.4539 29.9639 10.4337 29.7501 10.5592C29.7818 10.6626 29.8853 10.7098 30.0206 10.706L30.0205 10.706Z" fill="black"/>
<path d="M28.0748 11.4434C28.0664 11.6042 28.0733 11.7207 28.1006 11.8107C28.0377 12.0439 28.0714 12.2293 28.1735 12.3324C28.2712 12.4307 28.2886 12.4572 28.3005 12.5398C28.3154 12.6456 28.3607 12.737 28.4302 12.7931C28.4893 12.8409 28.5345 12.9183 28.5419 12.9716C28.5494 13.0244 28.7616 13.2363 28.8597 13.2959C28.8709 13.3027 28.8791 13.3123 28.8895 13.3299C28.8927 13.3355 28.9059 13.3596 28.9093 13.3656C28.9186 13.3819 28.9277 13.3959 28.9384 13.4103C28.9024 13.593 28.9233 13.7859 28.9916 14.0641C28.7731 14.2358 28.534 14.3069 28.3688 14.2546C28.2126 14.2053 28.1611 14.0557 28.2535 13.8651L28.2301 13.8464C28.044 13.9957 27.7767 14.0846 27.5553 14.0833C27.3413 14.0822 27.239 13.9997 27.3056 13.8653L27.2869 13.8439C26.7397 14.036 26.4651 13.9328 26.5606 13.6971L26.5408 13.677C26.0921 13.8566 25.7362 13.7358 25.824 13.5588L25.8063 13.5371C25.4336 13.6389 25.1068 13.6074 25.0502 13.516C25.0143 13.458 25.1014 13.3028 25.2127 13.2111L25.1977 13.1848C25.0168 13.2511 24.8346 13.2621 24.6253 13.2305C24.5471 13.2186 24.5121 13.202 24.5052 13.1812C24.5 13.1656 24.5029 13.157 24.5315 13.0943C24.5337 13.0895 24.5337 13.0895 24.5359 13.0845C24.614 12.9081 24.643 12.8574 24.7461 12.7607C24.7551 12.7524 24.7551 12.7524 24.7644 12.744L24.7513 12.7174C24.3032 12.806 23.9212 12.8215 23.6549 12.7317C23.6485 12.7296 23.6218 12.7211 23.6155 12.719C23.5836 12.7084 23.5642 12.6993 23.5546 12.6892C23.5456 12.6799 23.5467 12.6705 23.5642 12.6529C23.6614 12.5549 23.8497 12.4223 24.0357 12.3426L24.0274 12.3133C23.2563 12.4275 22.4923 12.3928 22.2673 12.1374L22.2528 12.1626C22.4833 12.2102 22.779 12.1456 23.0967 12.0156L23.0927 11.9861C22.1371 11.8788 21.0483 11.2504 21.0356 10.7195L21.0073 10.7279C21.2192 11.0721 21.505 11.2228 22.1205 11.4031L22.1326 11.3751C21.6186 11.0725 21.3221 10.6799 21.2981 10.3633L21.2723 10.3755C21.6795 10.7697 22.1703 11.0714 22.6123 11.1459L22.6221 11.1172C22.2745 10.9317 21.8209 10.3851 21.6976 10.0046L21.6728 10.0208C21.9518 10.2718 22.6163 10.63 23.0388 10.7416L23.0521 10.7146C22.6602 10.4069 22.2479 9.85732 22.2711 9.58594L22.245 9.59545C22.3927 9.74464 22.7285 9.98191 23.2488 10.2873C23.5731 10.4775 23.8211 10.5652 24.1467 10.6254C24.1925 10.6338 24.2368 10.6414 24.3064 10.6528C24.5031 10.685 24.5567 10.6944 24.659 10.7162L24.6745 10.692C24.5949 10.5849 24.5077 10.4214 24.5003 10.376L24.483 10.3937C24.6386 10.4161 24.7895 10.4866 25.1741 10.7258C25.3651 10.8447 25.5949 10.9135 26.1532 11.0434C26.166 11.0464 26.166 11.0464 26.1788 11.0493C26.6243 11.153 26.8222 11.2075 27.012 11.2911C27.1154 11.3367 27.2354 11.365 27.3779 11.3814C27.4735 11.3924 27.5423 11.3961 27.7162 11.4023C27.944 11.4103 28.029 11.4208 28.0814 11.4568L28.0748 11.4434Z" fill="black"/>
<path d="M28.0986 11.4319C28.0389 11.3909 27.9531 11.3803 27.7171 11.372C27.5441 11.3659 27.4758 11.3622 27.3813 11.3513C27.2416 11.3352 27.1244 11.3076 27.0241 11.2634C26.8319 11.1788 26.6331 11.124 26.1855 11.0198C26.1727 11.0168 26.1727 11.0168 26.16 11.0139C25.6055 10.8849 25.377 10.8165 25.1901 10.7001C24.8021 10.4588 24.6482 10.3869 24.4872 10.3637L24.4699 10.3814C24.4783 10.4328 24.5675 10.6 24.6498 10.7108L24.6652 10.6866C24.5623 10.6646 24.5084 10.6552 24.3112 10.6229C24.2418 10.6115 24.1977 10.604 24.1521 10.5956C23.8298 10.5361 23.5852 10.4496 23.2641 10.2612C22.7459 9.95704 22.412 9.72111 22.2666 9.57422L22.2404 9.58373C22.216 9.86904 22.6335 10.4255 23.0331 10.7393L23.0464 10.7123C22.6286 10.602 21.9685 10.246 21.6931 9.99831L21.6683 10.0145C21.7941 10.4026 22.2529 10.9554 22.6075 11.1448L22.6173 11.1161C22.1824 11.0428 21.6966 10.7441 21.2933 10.3538L21.2675 10.3661C21.2923 10.6939 21.595 11.0948 22.1169 11.402L22.129 11.374C21.5203 11.1957 21.2398 11.0479 21.0332 10.7122L21.0049 10.7207C21.018 11.2722 22.12 11.9083 23.0891 12.017L23.085 11.9875C22.7725 12.1155 22.4817 12.179 22.2588 12.133L22.2442 12.1582C22.4793 12.425 23.2491 12.46 24.0317 12.3441L24.0235 12.3148C23.8337 12.3961 23.6422 12.531 23.5423 12.6317C23.514 12.6602 23.5108 12.6884 23.5323 12.7109C23.5467 12.7259 23.5692 12.7365 23.6057 12.7486C23.6124 12.7508 23.6389 12.7592 23.645 12.7613C23.9177 12.8532 24.3041 12.8375 24.7571 12.748L24.744 12.7214C24.7344 12.73 24.7344 12.73 24.7251 12.7387C24.6638 12.7961 24.617 12.8568 24.5788 12.9234C24.564 12.9493 24.5509 12.9754 24.5375 13.0048C24.5298 13.0215 24.5076 13.0728 24.5077 13.0725C24.5056 13.0773 24.5056 13.0773 24.5035 13.082C24.4698 13.156 24.467 13.1642 24.476 13.1913C24.4878 13.2269 24.5318 13.2478 24.6206 13.2613C24.8347 13.2936 25.0218 13.2823 25.208 13.2141L25.1931 13.1878C25.071 13.2884 24.9768 13.4563 25.024 13.5327C25.0902 13.6395 25.4297 13.6722 25.8142 13.5672L25.7964 13.5455C25.6899 13.7604 26.0828 13.8938 26.552 13.706L26.5321 13.6859C26.4223 13.9569 26.7297 14.0724 27.2968 13.8733L27.2781 13.852C27.1981 14.0133 27.3221 14.1132 27.555 14.1145C27.7832 14.1157 28.0574 14.0246 28.2491 13.8708L28.2258 13.8521C28.1256 14.0587 28.1843 14.229 28.3594 14.2844C28.5357 14.3401 28.7852 14.266 29.0161 14.0727C28.9538 13.7827 28.9333 13.5935 28.9656 13.404C28.9528 13.379 28.9444 13.366 28.9357 13.3507C28.9325 13.3451 28.9192 13.3209 28.9157 13.3148C28.903 13.2931 28.8917 13.2798 28.8753 13.27C28.7847 13.215 28.5778 13.0084 28.5721 12.9677C28.5635 12.9065 28.5142 12.8222 28.4492 12.7696C28.3863 12.7188 28.3445 12.6345 28.3306 12.5359C28.3176 12.4451 28.2969 12.4137 28.195 12.3112C28.1013 12.2166 28.0697 12.0424 28.1299 11.8105C28.1037 11.7164 28.097 11.603 28.1052 11.4454L28.0986 11.4319Z" fill="black"/>
<path d="M31.2229 15.032C31.2584 15.0036 31.2472 14.9596 31.1896 14.9071C31.086 14.8121 31.052 14.7535 31.0015 14.6191C30.9869 14.5802 30.9778 14.5585 30.9655 14.5345C30.9439 14.4927 30.917 14.4561 30.8794 14.4198C30.7193 14.2653 30.5783 14.0302 30.5318 13.8355C30.4502 13.4955 30.3369 13.2249 30.1612 13.0684C30.0549 12.9738 30.0129 12.7084 30.0421 12.3637C30.0755 11.9658 30.0456 11.7414 29.8856 11.5789L29.8789 11.6045C30.2437 11.5013 30.5385 11.4936 30.637 11.5932C31.1423 11.472 31.5605 11.4176 32.2065 11.375C32.9338 11.3266 33.9326 11.0266 34.5883 10.583L34.5649 10.5665C34.5215 10.7418 34.2735 11.0181 34.038 11.1607L34.0495 11.1888C34.9556 10.9684 35.8202 10.5961 36.5214 10.0718L36.4969 10.0592C36.4895 10.3854 36.3048 10.6391 35.9684 10.9302L35.9858 10.9553C36.0385 10.9259 36.437 10.71 36.559 10.6411C37.092 10.3396 37.4162 10.0916 37.5744 9.81649L37.5463 9.8125C37.5828 9.96083 37.5292 10.133 37.3962 10.3266C37.277 10.5002 37.0998 10.6841 36.8674 10.8867C36.7439 10.9943 36.6649 11.0584 36.4381 11.2385L36.4542 11.2644C36.5029 11.2408 36.5554 11.2164 36.6183 11.1878C36.6638 11.1672 36.8237 11.0955 36.8293 11.093C37.3184 10.8727 37.5545 10.7312 37.6934 10.5326L37.6656 10.5236C37.6614 10.8672 37.2302 11.3374 36.6885 11.6526L36.7016 11.6803C36.7324 11.6685 36.7725 11.6533 36.8442 11.6262C36.9015 11.6044 36.9455 11.5876 36.9884 11.571C37.5211 11.3655 37.8312 11.2101 38.05 11.0087L38.0244 10.9988C38.0563 11.3354 36.7009 12.2211 35.8355 12.5056L35.8439 12.5351C36.8323 12.2931 37.3904 12.1253 37.6978 11.9391L37.675 11.9224C37.6674 11.9553 37.6313 11.9993 37.5706 12.0528C37.5461 12.0743 37.5181 12.097 37.4851 12.1223C37.462 12.1401 37.4438 12.1537 37.4032 12.1837C37.0284 12.4607 36.4621 12.6548 35.8466 12.7745C35.8898 13.0247 35.8124 13.1378 35.5724 13.155C35.2856 13.1758 34.6709 13.0611 34.3865 12.9174C34.3337 12.9409 34.2894 12.9518 34.2144 12.9601L34.2068 12.9877C34.4943 13.2052 34.6064 13.3704 34.5482 13.4616C34.5 13.5375 34.3316 13.5445 34.1193 13.5001L34.1017 13.5203C34.1595 13.6831 34.1061 13.7703 33.9644 13.7845C33.83 13.798 33.6324 13.7413 33.4507 13.6374L33.4311 13.6602C33.5823 13.8565 33.5789 13.9896 33.4055 14.0258C33.194 14.07 33.0431 14.0463 32.8647 13.9304L32.8412 13.9417C32.8278 14.0774 32.6977 14.1566 32.536 14.1142L32.5242 14.1422C33.0417 14.4568 33.1169 14.5912 32.9891 14.7628C32.8963 14.8879 32.5487 14.8738 32.3507 14.7453L32.3277 14.754C32.2514 15.0169 31.9422 15.0357 31.6934 14.8062L31.6678 14.8172C31.665 14.9615 31.4086 15.1174 31.2211 15.0068L31.2229 15.032Z" fill="black"/>
<path d="M31.2042 15.0076L31.206 15.0329C31.4141 15.1557 31.6955 14.9847 31.6988 14.8174L31.6731 14.8284C31.9365 15.0715 32.2737 15.051 32.3574 14.7622L32.3344 14.7708C32.5443 14.9069 32.9095 14.9218 33.014 14.7808C33.1561 14.59 33.0713 14.4382 32.5405 14.1156L32.5287 14.1436C32.7077 14.1905 32.8567 14.0998 32.872 13.9444L32.8485 13.9558C33.0339 14.0764 33.193 14.1013 33.4121 14.0555C33.6144 14.0133 33.6184 13.8524 33.4557 13.641L33.436 13.6638C33.6227 13.7706 33.8263 13.8289 33.9678 13.8147C34.1295 13.7985 34.1954 13.691 34.131 13.5096L34.1134 13.5298C34.3388 13.577 34.5161 13.5696 34.5744 13.4778C34.6454 13.3665 34.5255 13.1897 34.2257 12.9628L34.2181 12.9903C34.2972 12.9815 34.3451 12.9698 34.3879 12.944C34.6626 13.0908 35.2829 13.2064 35.575 13.1853C35.8342 13.1667 35.9243 13.0352 35.8648 12.7857C36.4724 12.6838 37.0423 12.4885 37.4217 12.208C37.4625 12.178 37.4808 12.1643 37.5041 12.1464C37.5376 12.1207 37.5661 12.0976 37.5911 12.0755C37.6565 12.018 37.6957 11.9702 37.7052 11.9291L37.6824 11.9124C37.3789 12.0963 36.8215 12.2638 35.837 12.5049L35.8454 12.5345C36.7254 12.2451 38.0892 11.354 38.0553 10.9956L38.0297 10.9857C37.8147 11.1836 37.507 11.3378 36.9778 11.542C36.935 11.5585 36.8911 11.5753 36.8337 11.5971C36.7621 11.6242 36.722 11.6394 36.6911 11.6512L36.7042 11.6788C37.2544 11.3587 37.6923 10.8813 37.6966 10.5236L37.6687 10.5146C37.5343 10.7068 37.3008 10.8467 36.8171 11.0646C36.8116 11.0671 36.6516 11.1388 36.606 11.1595C36.543 11.1881 36.4903 11.2127 36.4413 11.2363L36.4575 11.2622C36.6847 11.0818 36.7639 11.0175 36.8878 10.9095C37.122 10.7054 37.3008 10.5199 37.4218 10.3437C37.5593 10.1435 37.6154 9.96326 37.5764 9.80477L37.5483 9.80078C37.3937 10.0696 37.0728 10.3152 36.5443 10.614C36.4227 10.6827 36.0243 10.8985 35.9713 10.9281L35.9887 10.9531C36.3314 10.6567 36.5202 10.3972 36.5279 10.0595L36.5035 10.0468C35.806 10.5684 34.9451 10.939 34.0426 11.1586L34.0542 11.1867C34.296 11.0402 34.5493 10.758 34.595 10.5736L34.5716 10.5571C33.9208 10.9975 32.9271 11.2959 32.2048 11.344C31.5572 11.3867 31.1373 11.4413 30.6445 11.5671C30.5496 11.4605 30.2463 11.4684 29.871 11.5746L29.8643 11.6001C30.0157 11.7539 30.0446 11.9715 30.012 12.3608C29.9821 12.7147 30.0253 12.9877 30.1412 13.091C30.3108 13.242 30.4222 13.5082 30.5024 13.8423C30.5504 14.043 30.6944 14.2832 30.8586 14.4416C30.8938 14.4755 30.9186 14.5094 30.9387 14.5483C30.9503 14.5709 30.959 14.5918 30.9732 14.6296C31.0253 14.7681 31.0616 14.8306 31.1694 14.9295C31.215 14.9711 31.2209 14.9943 31.2042 15.0076Z" fill="black"/>
<path d="M24.6426 10.7045C24.743 10.8509 25.0113 11.0675 25.1712 11.11L25.1844 11.083L24.6645 10.6836L24.6426 10.7045Z" fill="black"/>
<path d="M24.6679 10.6875L24.646 10.7084L25.1659 11.1078L25.1791 11.0807C25.0271 11.0404 24.7645 10.8283 24.6679 10.6875Z" fill="black"/>
<path d="M25.155 11.0247C25.1428 11.2611 25.2907 11.5006 25.5663 11.5837C25.8391 11.6659 26.1061 11.6621 26.316 11.5974L26.3182 11.5689L25.177 11.0117L25.155 11.0247Z" fill="black"/>
<path d="M25.1856 11.0273L25.1636 11.0404L26.3048 11.5975L26.307 11.569C26.1028 11.632 25.842 11.6357 25.5751 11.5553C25.3138 11.4765 25.1741 11.2503 25.1856 11.0273Z" fill="black"/>
<path d="M26.3023 11.5684C26.0028 11.6365 25.6758 11.8148 25.594 11.9661C25.5131 12.116 25.5546 12.1897 25.7138 12.2342C26.1429 12.3549 26.6535 12.2414 27.038 11.9627L27.036 11.9366L26.3126 11.5696L26.3023 11.5684Z" fill="black"/>
<path d="M26.299 11.5957L27.0225 11.9626L27.0204 11.9365C26.6431 12.2099 26.1419 12.3213 25.7223 12.2033C25.5806 12.1636 25.5505 12.1103 25.6212 11.9794C25.6977 11.8378 26.0177 11.6634 26.3093 11.597L26.299 11.5957Z" fill="black"/>
<path d="M26.2805 11.5199C26.2687 11.7637 26.7516 11.9407 27.3496 11.8442L27.3514 11.8143L26.3001 11.5059L26.2805 11.5199Z" fill="black"/>
<path d="M26.2915 11.5355L27.3428 11.8439L27.3447 11.814C26.7632 11.9078 26.3006 11.7382 26.3111 11.5215L26.2915 11.5355Z" fill="black"/>
<path d="M26.7281 11.8203C26.496 11.9456 26.3387 12.0044 26.0615 12.0396L26.068 12.0705L26.7398 11.8495L26.7281 11.8203Z" fill="black"/>
<path d="M26.742 11.8476L26.7303 11.8184L26.0586 12.0393L26.0651 12.0702C26.3464 12.0345 26.507 11.9745 26.742 11.8476Z" fill="black"/>
<path d="M27.0054 11.8484C26.9285 12.0978 27.467 12.2251 28.0865 12.0721L28.0857 12.0421L27.0229 11.8379L27.0054 11.8484Z" fill="black"/>
<path d="M27.0176 11.8681L28.0804 12.0754L28.0797 12.0449C27.4802 12.1951 26.9697 12.0727 27.0351 11.8574L27.0176 11.8681Z" fill="black"/>
<path d="M27.2886 12.0859C27.0596 12.2198 26.7756 12.3532 26.5234 12.4328L26.5343 12.4615L27.3026 12.1132L27.2886 12.0859Z" fill="black"/>
<path d="M27.3037 12.1113L27.2897 12.084L26.5215 12.4322L26.5324 12.4609C26.787 12.3806 27.073 12.2462 27.3037 12.1113Z" fill="black"/>
<path d="M26.1561 12.257C26.057 12.4033 26.1045 12.6612 26.328 12.6896C26.7991 12.7492 27.5227 12.4498 27.8499 12.1139L27.8375 12.0879L26.1673 12.2503L26.1561 12.257Z" fill="black"/>
<path d="M26.1702 12.2803L27.8404 12.1178L27.828 12.0918C27.5071 12.4212 26.7927 12.7167 26.3318 12.6585C26.1358 12.6336 26.0934 12.4035 26.1814 12.2736L26.1702 12.2803Z" fill="black"/>
<path d="M26.791 12.6206C26.6452 12.8681 26.7374 13.1106 27.0232 13.145C27.3464 13.184 27.8582 12.9065 28.2789 12.4297L28.2652 12.4043L26.802 12.6132L26.791 12.6206Z" fill="black"/>
<path d="M26.8061 12.6425L28.2693 12.4336L28.2557 12.4082C27.841 12.8782 27.3381 13.1509 27.0266 13.1134C26.7644 13.0819 26.6819 12.8648 26.8171 12.6351L26.8061 12.6425Z" fill="black"/>
<path d="M28.0999 12.1895C28.0515 12.2199 28.0006 12.2531 27.9368 12.2956C27.9058 12.3163 27.7929 12.3921 27.7696 12.4077C27.4795 12.6015 27.2976 12.7067 27.1021 12.7802L27.1152 12.8078L28.1158 12.2157L28.0999 12.1895Z" fill="black"/>
<path d="M28.1166 12.2157L28.1008 12.1895L27.1001 12.7815L27.1132 12.8091C27.3116 12.7346 27.4951 12.6285 27.787 12.4335C27.8104 12.4179 27.9232 12.3421 27.9542 12.3214C28.0177 12.2791 28.0685 12.246 28.1166 12.2157Z" fill="black"/>
<path d="M27.4681 13.0165C27.3423 13.1958 27.3211 13.2964 27.3995 13.3971C27.473 13.4914 27.5852 13.4621 27.8535 13.3174C27.9269 13.2779 28.0132 13.222 28.1122 13.151C28.1467 13.1263 28.1825 13.0999 28.2199 13.0717C28.2686 13.035 28.3184 12.9965 28.375 12.9519C28.4063 12.9273 28.4991 12.8537 28.5045 12.8494L28.4922 12.8223L27.4778 13.0103L27.4681 13.0165Z" fill="black"/>
<path d="M27.4832 13.0394L28.4976 12.8514L28.4854 12.8242C28.48 12.8285 28.3871 12.9021 28.356 12.9266C28.2995 12.9711 28.2499 13.0095 28.2013 13.0461C28.1641 13.0741 28.1285 13.1004 28.0943 13.1249C27.9962 13.1952 27.9109 13.2505 27.8389 13.2892C27.5858 13.4257 27.4824 13.4527 27.4235 13.3771C27.3556 13.29 27.374 13.2027 27.493 13.0332L27.4832 13.0394Z" fill="black"/>
<path d="M28.3482 12.6504C28.1537 12.7813 27.7513 13.0852 27.6558 13.1815L27.6759 13.2045L28.366 12.6754L28.3482 12.6504Z" fill="black"/>
<path d="M28.3652 12.6754L28.3474 12.6504L27.6572 13.1795L27.6774 13.2026C27.7711 13.1081 28.1722 12.8052 28.3652 12.6754Z" fill="black"/>
<path d="M28.2114 13.034C28.1284 13.2525 28.193 13.3964 28.3583 13.4577C28.547 13.5281 28.7375 13.5066 28.9057 13.343L28.9011 13.3179L28.2318 13.0254L28.2114 13.034Z" fill="black"/>
<path d="M28.2199 13.0535L28.8892 13.346L28.8847 13.3209C28.7259 13.4754 28.5478 13.4955 28.3693 13.4289C28.22 13.3735 28.1634 13.2475 28.2403 13.0449L28.2199 13.0535Z" fill="black"/>
<path d="M27.2927 13.8679C27.542 13.772 28.0092 13.478 28.2148 13.3082L28.1972 13.2832L27.2793 13.8404L27.2927 13.8679Z" fill="black"/>
<path d="M27.2817 13.8398L27.2951 13.8673L28.213 13.3102L28.1954 13.2852C27.9921 13.453 27.5276 13.7453 27.2817 13.8398Z" fill="black"/>
<path d="M28.3387 13.4238C28.2108 13.5529 27.9297 13.7358 27.688 13.8383L27.7022 13.8654L28.3577 13.4476L28.3387 13.4238Z" fill="black"/>
<path d="M28.3607 13.4457L28.3416 13.4219L27.686 13.8397L27.7002 13.8668C27.9454 13.7628 28.2299 13.5778 28.3607 13.4457Z" fill="black"/>
<path d="M28.2474 13.8739C28.5115 13.717 28.8249 13.4852 28.9278 13.362L28.9069 13.3398L28.2305 13.8484L28.2474 13.8739Z" fill="black"/>
<path d="M28.2319 13.847L28.2489 13.8725L28.9253 13.364L28.9044 13.3418C28.8043 13.4617 28.4932 13.6918 28.2319 13.847Z" fill="black"/>
<path d="M28.9177 13.5723C28.8545 13.6571 28.6955 13.8451 28.5942 13.9542L28.6171 13.9746L28.9416 13.5914L28.9177 13.5723Z" fill="black"/>
<path d="M28.9422 13.5914L28.9182 13.5723L28.5938 13.9554L28.6166 13.9758C28.7185 13.8661 28.8783 13.6772 28.9422 13.5914Z" fill="black"/>
<path d="M27.6459 13.3809C27.4155 13.5007 27.1335 13.6322 26.9297 13.7145L26.9418 13.7427L27.6594 13.4084L27.6459 13.3809Z" fill="black"/>
<path d="M27.6597 13.4065L27.6463 13.3789L26.9287 13.7132L26.9409 13.7413C27.1456 13.6587 27.4285 13.5268 27.6597 13.4065Z" fill="black"/>
<path d="M26.5397 13.7C26.6894 13.6477 27.131 13.4214 27.3773 13.281L27.3629 13.2539L26.5278 13.6717L26.5397 13.7Z" fill="black"/>
<path d="M26.5298 13.6725L26.5416 13.7008L27.3768 13.283L27.3624 13.2559C27.1176 13.3953 26.6771 13.621 26.5298 13.6725Z" fill="black"/>
<path d="M26.2553 13.5551C26.4348 13.517 26.6063 13.4467 26.791 13.345C26.8689 13.3021 27.098 13.1625 27.1357 13.1428L27.1221 13.1152L26.2456 13.5262L26.2553 13.5551Z" fill="black"/>
<path d="M26.249 13.5248L26.2587 13.5537L27.1352 13.1428L27.1216 13.1152C27.0829 13.1356 26.8534 13.2753 26.7764 13.3177C26.5941 13.4181 26.4252 13.4873 26.249 13.5248Z" fill="black"/>
<path d="M25.8132 13.5624C25.9206 13.5399 26.0486 13.4913 26.194 13.4207C26.2737 13.3821 26.3573 13.3374 26.4445 13.2875C26.572 13.2144 26.6717 13.152 26.8259 13.052L26.8107 13.0254L25.8032 13.5337L25.8132 13.5624Z" fill="black"/>
<path d="M25.8071 13.5315L25.8171 13.5603L26.8246 13.052L26.8095 13.0254C26.6557 13.1251 26.5564 13.1873 26.4295 13.26C26.3429 13.3096 26.2598 13.3539 26.1808 13.3922C26.0375 13.4618 25.9116 13.5096 25.8071 13.5315Z" fill="black"/>
<path d="M26.7271 12.8086C26.2732 13.0811 25.9757 13.2312 25.6475 13.3154L25.6577 13.3442L26.7414 12.8357L26.7271 12.8086Z" fill="black"/>
<path d="M26.7425 12.8357L26.7282 12.8086L25.6445 13.3171L25.6548 13.3459C25.9868 13.2607 26.2862 13.1097 26.7425 12.8357Z" fill="black"/>
<path d="M25.2067 13.2146C25.4759 13.1448 26.0145 12.9085 26.4182 12.6838L26.4046 12.6562L25.1968 13.1857L25.2067 13.2146Z" fill="black"/>
<path d="M25.1992 13.1842L25.2092 13.2132L26.417 12.6838L26.4035 12.6562C26.0019 12.8798 25.4655 13.1152 25.1992 13.1842Z" fill="black"/>
<path d="M26.1354 12.5234C25.8652 12.6438 25.3734 12.8161 24.9985 12.9265L25.0079 12.9558L26.1467 12.552L26.1354 12.5234Z" fill="black"/>
<path d="M26.1476 12.552L26.1363 12.5234L24.9976 12.9272L25.007 12.9565C25.383 12.8457 25.876 12.673 26.1476 12.552Z" fill="black"/>
<path d="M24.7563 12.7481C25.0811 12.7003 25.5376 12.4879 25.8736 12.2652L25.8591 12.2383L24.748 12.7188L24.7563 12.7481Z" fill="black"/>
<path d="M24.752 12.7164L24.7602 12.7457L25.8713 12.2652L25.8568 12.2383C25.5242 12.4587 25.0714 12.6694 24.752 12.7164Z" fill="black"/>
<path d="M23.0259 10.7314C23.1967 10.8726 23.4638 10.956 23.8336 11.02L23.8413 10.9904L23.0407 10.7051L23.0259 10.7314Z" fill="black"/>
<path d="M23.0456 10.707L23.0308 10.7334L23.8313 11.0187L23.8391 10.9891C23.4744 10.926 23.211 10.8437 23.0456 10.707Z" fill="black"/>
<path d="M22.7031 10.1127C23.1107 10.5 23.5987 10.7756 24.106 10.8364L24.1149 10.8075L22.7206 10.0879L22.7031 10.1127Z" fill="black"/>
<path d="M22.7241 10.0898L22.7065 10.1147L24.1007 10.8343L24.1096 10.8054C23.6097 10.7454 23.1273 10.473 22.7241 10.0898Z" fill="black"/>
<path d="M23.8415 10.7637C23.7996 10.8394 23.7928 10.9513 23.8392 11.0325C23.9005 11.1396 24.0413 11.1878 24.2664 11.1578L24.2746 11.1311L23.8651 10.7598L23.8415 10.7637Z" fill="black"/>
<path d="M23.8442 10.7813L24.2537 11.1526L24.2619 11.126C24.048 11.1546 23.9196 11.1106 23.8654 11.0159C23.8247 10.9448 23.8308 10.8442 23.8679 10.7773L23.8442 10.7813Z" fill="black"/>
<path d="M24.0159 11.1347C23.897 11.3893 24.1696 11.5803 24.6876 11.4208L24.6889 11.3919L24.0355 11.127L24.0159 11.1347Z" fill="black"/>
<path d="M24.0236 11.1562L24.677 11.4211L24.6782 11.3922C24.182 11.5449 23.9379 11.3739 24.0432 11.1484L24.0236 11.1562Z" fill="black"/>
<path d="M24.5483 11.2022C24.6421 11.5532 25.0927 11.6737 25.3549 11.4611L25.35 11.4345L24.5678 11.1836L24.5483 11.2022Z" fill="black"/>
<path d="M24.578 11.1934L24.5586 11.212L25.3408 11.4629L25.3358 11.4363C25.0902 11.6355 24.6658 11.522 24.578 11.1934Z" fill="black"/>
<path d="M24.0114 11.2542C23.6267 11.1801 23.384 11.1557 23.2846 11.1995C23.1508 11.2588 23.136 11.3841 23.2746 11.4907C23.6706 11.7946 25.2522 11.895 25.8823 11.7579L25.8828 11.728L24.0123 11.2544L24.0114 11.2542Z" fill="black"/>
<path d="M24.0051 11.2848L25.8756 11.7584L25.8761 11.7285C25.2539 11.8638 23.6805 11.7639 23.2935 11.4668C23.1733 11.3744 23.1847 11.278 23.2972 11.2281C23.3879 11.1881 23.63 11.2126 24.0059 11.285L24.0051 11.2848Z" fill="black"/>
<path d="M23.3967 11.5335C23.199 11.5998 23.2481 11.7992 23.5132 11.9035C23.9001 12.0558 25.0275 12.1592 25.5703 12.1066L25.5726 12.0764L23.4052 11.5332L23.3967 11.5335Z" fill="black"/>
<path d="M23.3979 11.5628L25.5652 12.106L25.5674 12.0758C25.029 12.1281 23.9063 12.025 23.5245 11.8748C23.2819 11.7793 23.2421 11.6176 23.4064 11.5625L23.3979 11.5628Z" fill="black"/>
<path d="M23.3695 11.8013C23.2796 11.892 23.3041 12.0118 23.4118 12.1089C23.7839 12.4457 24.705 12.4378 25.5736 12.1328L25.5706 12.1031L23.3825 11.7969L23.3695 11.8013Z" fill="black"/>
<path d="M23.3786 11.8286L25.5668 12.1348L25.5638 12.1051C24.7048 12.4067 23.7942 12.4145 23.4326 12.0873C23.3366 12.0007 23.3161 11.9004 23.3916 11.8242L23.3786 11.8286Z" fill="black"/>
<path d="M23.0965 12.0173C23.1632 11.9893 23.2711 11.9719 23.334 11.9787L23.3333 11.9473L23.0884 11.9869L23.0965 12.0173Z" fill="black"/>
<path d="M23.085 11.9876L23.0931 12.018L23.338 11.9784L23.3372 11.947C23.2691 11.9396 23.1562 11.9578 23.085 11.9876Z" fill="black"/>
<path d="M22.1167 11.4008C22.415 11.5907 22.7887 11.6915 23.3037 11.7374L23.3092 11.7073L22.1291 11.373L22.1167 11.4008Z" fill="black"/>
<path d="M22.133 11.375L22.1206 11.4028L23.3008 11.737L23.3063 11.7069C22.7957 11.6615 22.4264 11.5618 22.133 11.375Z" fill="black"/>
<path d="M22.6104 11.1457C22.6868 11.1685 22.9138 11.2323 22.8945 11.2267C22.9267 11.236 22.9547 11.2443 22.9815 11.2525C23.0537 11.2748 23.1188 11.2974 23.1888 11.3251L23.1986 11.295L22.619 11.1152L22.6104 11.1457Z" fill="black"/>
<path d="M22.619 11.1152L22.6104 11.1457L23.19 11.3255L23.1999 11.2955C23.1292 11.2675 23.0633 11.2446 22.9904 11.2221C22.9634 11.2138 22.9352 11.2055 22.9028 11.1962C22.9219 11.2017 22.6952 11.1379 22.619 11.1152Z" fill="black"/>
<path d="M34.0412 11.1701C34.0561 11.1648 33.623 11.3215 33.4711 11.3747C33.426 11.3904 33.3826 11.4054 33.3404 11.4198C33.0364 11.5234 32.8076 11.5908 32.6636 11.615L32.6708 11.6447L34.051 11.1992L34.0412 11.1701Z" fill="black"/>
<path d="M34.0512 11.199L34.0414 11.1699L32.6611 11.6155L32.6683 11.6453C32.8145 11.6208 33.0444 11.5531 33.35 11.4489C33.3922 11.4345 33.4358 11.4195 33.4809 11.4037C33.633 11.3505 34.0662 11.1937 34.0512 11.199Z" fill="black"/>
<path d="M30.0195 12.238C30.3344 12.4105 30.7017 12.3808 30.7461 12.0877L30.728 12.0703L30.0239 12.2094L30.0195 12.238Z" fill="black"/>
<path d="M30.0347 12.2142L30.0303 12.2437L30.7344 12.1L30.7163 12.082C30.6763 12.355 30.3338 12.3837 30.0347 12.2142Z" fill="black"/>
<path d="M30.6958 12.1881C30.9748 12.3524 31.471 12.2272 31.4572 11.9512L30.6991 12.1602L30.6958 12.1881Z" fill="black"/>
<path d="M30.7113 12.1618L30.708 12.1897L31.4464 11.9668C31.439 12.198 30.9726 12.3156 30.7113 12.1618Z" fill="black"/>
<path d="M31.4019 12.0781C31.7382 12.2066 32.0566 12.1378 32.1125 11.8298L32.0925 11.8125L31.4024 12.0492L31.4019 12.0781Z" fill="black"/>
<path d="M31.4126 12.0493L31.4121 12.0782L32.1022 11.8415L32.0822 11.8242C32.0308 12.1078 31.7337 12.1719 31.4126 12.0493Z" fill="black"/>
<path d="M32.019 12.0082C32.3602 12.0728 32.7589 11.7855 32.6641 11.5352L32.6355 11.5461C32.72 11.7691 32.3457 12.0388 32.0247 11.978L32.019 12.0082Z" fill="black"/>
<path d="M30.6513 11.5684C30.5229 11.6049 30.451 11.6418 30.3159 11.7287L30.3321 11.7556C30.4649 11.6702 30.5345 11.6345 30.6594 11.599L30.6513 11.5684Z" fill="black"/>
<path d="M32.5063 11.8758C32.863 11.9479 33.2991 12.0992 33.4472 12.2254C33.5383 12.3027 33.5863 12.3715 33.5834 12.424C33.5802 12.4817 33.5137 12.5261 33.3717 12.5513C33.0995 12.5998 32.9773 12.5924 32.6134 12.5235L32.6077 12.5537C32.975 12.6233 33.1005 12.6308 33.377 12.5815C33.5314 12.5541 33.6098 12.5018 33.614 12.4257C33.6175 12.3605 33.5649 12.2851 33.467 12.202C33.3137 12.0714 32.8739 11.9188 32.5124 11.8457L32.5063 11.8758Z" fill="black"/>
<path d="M32.6917 11.916C33.0209 11.7224 33.5691 11.6333 33.9298 11.7157C34.0923 11.7528 34.1765 11.8149 34.1934 11.8912C34.207 11.9525 34.1753 12.0235 34.116 12.0796C34.0034 12.186 33.7462 12.2479 33.4861 12.2217L33.4831 12.2523C33.7512 12.2793 34.0171 12.2153 34.137 12.1019C34.2034 12.0391 34.2396 11.9581 34.2233 11.8846C34.2033 11.7944 34.1094 11.7252 33.9366 11.6857C33.5682 11.6016 33.0121 11.692 32.6763 11.8895L32.6917 11.916Z" fill="black"/>
<path d="M33.0183 12.0202C33.2569 11.9786 33.6956 11.9341 33.9128 11.9341V11.9023C33.6937 11.9023 33.2534 11.947 33.0132 11.9889L33.0183 12.0202Z" fill="black"/>
<path d="M35.9728 10.9316C35.7013 11.1988 34.8406 11.5569 34.082 11.7355L34.089 11.7654C34.8526 11.5857 35.7177 11.2257 35.9942 10.9536L35.9728 10.9316Z" fill="black"/>
<path d="M34.5992 11.6196C34.702 11.6456 34.7343 11.7219 34.7077 11.8322C34.6856 11.9234 34.6218 12.0278 34.5656 12.0735C34.2681 12.3151 33.9785 12.445 33.5591 12.488L33.5622 12.5186C33.9879 12.4749 34.2829 12.3426 34.5849 12.0974C34.6465 12.0473 34.7138 11.937 34.7374 11.8394C34.7677 11.7143 34.7279 11.6204 34.6067 11.5898L34.5992 11.6196Z" fill="black"/>
<path d="M33.6304 12.5091C33.9122 12.6313 34.3762 12.6592 34.5627 12.5359C34.7608 12.405 34.7562 12.1888 34.5763 12.0781L34.5603 12.1043C34.7212 12.2032 34.7252 12.3917 34.5459 12.5102C34.3697 12.6267 33.9159 12.5995 33.6425 12.4809L33.6304 12.5091Z" fill="black"/>
<path d="M34.2261 12.9641C34.0745 12.8338 33.4574 12.6743 32.8318 12.5566L32.8262 12.5868C33.4429 12.7028 34.0609 12.8625 34.2061 12.9875L34.2261 12.9641Z" fill="black"/>
<path d="M34.3843 12.9459C34.5199 12.9024 34.6325 12.6783 34.5469 12.5312L34.5205 12.5467C34.5954 12.6754 34.4932 12.8787 34.375 12.9166L34.3843 12.9459Z" fill="black"/>
<path d="M30.8726 12.2499C31.2055 12.5482 31.858 12.8831 32.2541 12.9433C32.4663 12.9754 32.6519 12.9709 32.7596 12.9292C32.8838 12.8813 32.9002 12.7863 32.7923 12.6669C32.6132 12.4688 32.1842 12.2598 31.7368 12.1055L31.7268 12.1345C32.1693 12.2872 32.5952 12.4946 32.7696 12.6875C32.8637 12.7916 32.8518 12.8607 32.7486 12.9006C32.6469 12.9399 32.4661 12.9443 32.2587 12.9129C31.8689 12.8537 31.2216 12.5215 30.8929 12.227L30.8726 12.2499Z" fill="black"/>
<path d="M34.1199 13.5006C33.7535 13.4152 33.3927 13.2255 32.8235 12.8652L32.8071 12.8912C33.3793 13.2534 33.742 13.4441 34.113 13.5305L34.1199 13.5006Z" fill="black"/>
<path d="M32.8169 12.7395C32.8884 12.7677 32.9737 12.8031 33.0877 12.8519C33.1497 12.8784 33.3745 12.9754 33.4032 12.9877C33.434 13.0009 33.434 13.0009 33.4649 13.0141C33.8181 13.1651 34.0399 13.2512 34.1921 13.2904L34.1997 13.2607C34.0496 13.222 33.8286 13.1362 33.4768 12.9858C33.446 12.9727 33.446 12.9727 33.4152 12.9594C33.3866 12.9471 33.1617 12.8501 33.0997 12.8236C32.9854 12.7748 32.8999 12.7392 32.8281 12.7109L32.8169 12.7395Z" fill="black"/>
<path d="M33.4502 13.6383C33.1603 13.4998 32.6644 13.1744 32.3977 12.9375L32.3774 12.9605C32.6463 13.1994 33.1446 13.5263 33.437 13.666L33.4502 13.6383Z" fill="black"/>
<path d="M32.6401 12.9535C32.7226 13.0212 32.8783 13.1167 33.1033 13.2416C33.1319 13.2575 33.1617 13.2739 33.1928 13.2909C33.3013 13.3501 33.6281 13.5242 33.6572 13.54L33.6717 13.513C33.6425 13.4971 33.3158 13.323 33.2074 13.2639C33.1764 13.247 33.1467 13.2306 33.1181 13.2147C32.8948 13.0908 32.74 12.9958 32.6595 12.9297L32.6401 12.9535Z" fill="black"/>
<path d="M31.248 12.2025C31.6005 12.4025 32.0742 12.6273 32.4031 12.7468L32.4135 12.7179C32.0864 12.599 31.6141 12.375 31.2631 12.1758L31.248 12.2025Z" fill="black"/>
<path d="M31.834 12.1126C32.0553 12.1319 32.2749 12.1663 32.5292 12.2187C32.6314 12.2398 32.7369 12.2633 32.8722 12.2946C32.9187 12.3053 33.157 12.3611 33.2258 12.377L33.2327 12.3471C33.1639 12.3312 32.9256 12.2754 32.8791 12.2646C32.7436 12.2333 32.6378 12.2098 32.5354 12.1886C32.28 12.1359 32.0593 12.1014 31.8366 12.082L31.834 12.1126Z" fill="black"/>
<path d="M30.4756 13.7351C30.5501 13.8859 30.6618 14.0077 30.8084 14.0632C30.9705 14.1245 31.1037 14.0019 31.1119 13.8266C31.1181 13.6949 31.1075 13.6101 31.0816 13.541L31.0529 13.5518C31.0772 13.6166 31.0874 13.6973 31.0814 13.8251C31.074 13.9817 30.9592 14.0874 30.8192 14.0344C30.6809 13.9822 30.5744 13.866 30.503 13.7215L30.4756 13.7351Z" fill="black"/>
<path d="M30.1841 12.2946C30.2323 12.7105 30.5894 13.2963 30.9024 13.483C31.1696 13.6422 31.4431 13.6265 31.5302 13.4994C31.6282 13.3566 31.5339 13.0978 31.2349 12.9341C30.9877 12.7985 30.6655 12.5136 30.5156 12.3047L30.4908 12.3227C30.6433 12.5353 30.969 12.8232 31.2203 12.961C31.5046 13.1167 31.5916 13.3557 31.505 13.482C31.4284 13.5937 31.1728 13.6084 30.918 13.4566C30.6135 13.275 30.2617 12.6977 30.2145 12.291L30.1841 12.2946Z" fill="black"/>
<path d="M30.3369 12.3261C30.3991 12.5139 30.8396 13.0669 31.0474 13.1979L31.0637 13.1719C30.8619 13.0446 30.4259 12.4973 30.366 12.3164L30.3369 12.3261Z" fill="black"/>
<path d="M30.001 12.5538C30.229 12.8536 30.655 13.4896 30.7236 13.6575L30.752 13.6459C30.6819 13.4746 30.2551 12.8371 30.0253 12.5352L30.001 12.5538Z" fill="black"/>
<path d="M30.6162 12.282C30.7584 12.4438 31.2241 12.7994 31.4363 12.8851L31.4477 12.8566C31.2403 12.7728 30.7784 12.4201 30.6392 12.2617L30.6162 12.282Z" fill="black"/>
<path d="M31.4424 13.1213C31.5575 13.1763 31.6464 13.1972 31.7654 13.2064C31.8728 13.2149 31.9274 13.1485 31.8917 13.0334C31.859 12.928 31.7866 12.8134 31.7084 12.7344L31.6867 12.756C31.7616 12.8317 31.8313 12.9421 31.8624 13.0425C31.8916 13.1366 31.8539 13.1826 31.7678 13.1757C31.6522 13.1669 31.5669 13.1468 31.4555 13.0936L31.4424 13.1213Z" fill="black"/>
<path d="M31.4937 13.5097C31.6554 13.7435 32.2315 14.0865 32.5248 14.1428L32.5306 14.1126C32.2447 14.0578 31.6757 13.719 31.5188 13.4922L31.4937 13.5097Z" fill="black"/>
<path d="M32.8659 13.9324C32.6473 13.8242 32.0838 13.3626 31.8812 13.1465L31.8589 13.1675C32.0638 13.3861 32.6299 13.8499 32.8524 13.96L32.8659 13.9324Z" fill="black"/>
<path d="M32.3501 14.7464C32.133 14.6232 31.3722 13.9157 31.0949 13.5801L31.0713 13.5997C31.3508 13.938 32.1141 14.6478 32.335 14.7731L32.3501 14.7464Z" fill="black"/>
<path d="M31.6929 14.8051C31.6213 14.7491 31.5284 14.6542 31.4192 14.5282C31.3896 14.494 31.3591 14.4579 31.3277 14.4199C31.2203 14.2899 31.1335 14.1779 31.0127 14.0176L30.9883 14.0361C31.1093 14.1968 31.1963 14.3091 31.3042 14.4395C31.3357 14.4777 31.3664 14.514 31.3961 14.5483C31.5065 14.6758 31.6005 14.7719 31.6741 14.8294L31.6929 14.8051Z" fill="black"/>
<path d="M31.4385 13.134C31.6178 13.2979 32.0151 13.5924 32.3787 13.8456L32.3962 13.8204C32.0338 13.5679 31.637 13.2739 31.4591 13.1113L31.4385 13.134Z" fill="black"/>
<path d="M30.9106 14.062C30.998 14.2459 31.0462 14.3812 31.0403 14.4296C31.0316 14.5004 31.0132 14.522 30.9485 14.507L30.9416 14.5369C31.0283 14.5571 31.06 14.5199 31.0707 14.4334C31.0777 14.3765 31.0287 14.2392 30.9383 14.0488L30.9106 14.062Z" fill="black"/>
<path d="M36.4409 11.2344C36.3305 11.291 36.2349 11.3432 36.0578 11.4421C36.0374 11.4535 36.0374 11.4535 36.0171 11.4648C35.3961 11.8117 35.0752 11.955 34.5859 12.0596L34.5923 12.0896C35.0853 11.9843 35.4085 11.8399 36.032 11.4917C36.0523 11.4803 36.0523 11.4803 36.0726 11.469C36.2494 11.3702 36.3448 11.3182 36.4549 11.2617L36.4409 11.2344Z" fill="black"/>
<path d="M34.7323 11.7838C35.4092 11.5333 35.784 11.3738 36.2353 11.1128C36.4669 10.9788 36.6821 10.8341 36.8806 10.6764L36.8616 10.6523C36.6643 10.8091 36.4504 10.9529 36.22 11.0862C35.7707 11.3461 35.3971 11.5051 34.7217 11.755L34.7323 11.7838Z" fill="black"/>
<path d="M34.6939 12.3037C35.6324 12.0696 36.4456 11.7189 36.9912 11.2698L36.9718 11.2461C36.4303 11.6918 35.621 12.0408 34.6865 12.2738L34.6939 12.3037Z" fill="black"/>
<path d="M36.6906 11.6523C36.645 11.6707 36.5987 11.6921 36.5494 11.7171C36.4817 11.7515 36.1031 11.9707 35.9699 12.0375C35.5976 12.2242 35.1892 12.3524 34.6328 12.4315L34.6371 12.4619C35.1968 12.3824 35.6083 12.2532 35.9836 12.065C36.1179 11.9977 36.4965 11.7784 36.5632 11.7445C36.6118 11.7198 36.6573 11.6989 36.702 11.6808L36.6906 11.6523Z" fill="black"/>
<path d="M35.8319 12.502C35.5586 12.6328 35.011 12.6657 34.5629 12.623L34.5601 12.6546C35.0132 12.6978 35.5651 12.6646 35.8448 12.5308L35.8319 12.502Z" fill="black"/>
<path d="M35.8418 12.7742C35.5139 12.8464 34.8281 12.8316 34.5374 12.7598L34.5303 12.7906C34.8254 12.8635 35.5157 12.8784 35.8482 12.8052L35.8418 12.7742Z" fill="black"/>
<path d="M28.1295 11.0496C28.1757 11.0251 28.1987 11.0182 28.2505 11.0083C28.2634 11.0058 28.2713 11.0041 28.2797 11.0016C28.3124 10.9921 28.3407 10.9738 28.3782 10.9355C28.6293 10.6786 29.0376 10.3912 29.2634 10.3017C29.5676 10.1808 29.5087 10.2031 29.5765 10.1888C29.6186 10.18 29.6597 10.1763 29.706 10.1774L29.7068 10.1467C29.6581 10.1455 29.6146 10.1494 29.5702 10.1588C29.5289 10.1675 29.4866 10.1808 29.4306 10.202C29.3968 10.2148 29.2506 10.2737 29.2521 10.2731C29.0221 10.3644 28.6103 10.6542 28.3564 10.9139C28.3223 10.9487 28.2984 10.9642 28.2712 10.9721C28.2639 10.9742 28.2568 10.9758 28.2448 10.9781C28.1902 10.9885 28.1646 10.9962 28.1152 11.0225L28.1295 11.0496Z" fill="black"/>
<path d="M29.242 10.3154C29.2505 10.3115 29.2563 10.3135 29.2665 10.3238C29.2719 10.3293 29.2935 10.3559 29.2946 10.3573C29.3402 10.4103 29.3901 10.4276 29.4712 10.3973C29.5222 10.378 29.5478 10.3409 29.5579 10.2874C29.5608 10.2722 29.5617 10.2624 29.5639 10.2343C29.5665 10.1992 29.5694 10.1903 29.5753 10.1898L29.5726 10.1582C29.5434 10.1609 29.5373 10.1796 29.5333 10.2318C29.5313 10.2587 29.5304 10.2678 29.5278 10.2814C29.5197 10.3248 29.5005 10.3525 29.4607 10.3675C29.3924 10.3931 29.3552 10.3802 29.3175 10.3362C29.3172 10.3359 29.2946 10.308 29.288 10.3013C29.2697 10.2827 29.2513 10.2764 29.2295 10.2865L29.242 10.3154Z" fill="black"/>
<path d="M29.7511 10.5586C29.6654 10.6031 29.6029 10.6683 29.5513 10.759L29.5776 10.7751C29.6264 10.6894 29.6847 10.6286 29.7648 10.587L29.7511 10.5586Z" fill="black"/>
<path d="M28.3627 11.1895C28.3313 11.2976 28.3194 11.4481 28.3278 11.5638L28.3584 11.5615C28.3502 11.4493 28.3618 11.3024 28.3921 11.198L28.3627 11.1895Z" fill="black"/>
<path d="M28.349 11.7539C28.3239 11.8611 28.3424 12.1106 28.3767 12.2485L28.4064 12.2411C28.3732 12.1074 28.355 11.8625 28.3788 11.7609L28.349 11.7539Z" fill="black"/>
<path d="M28.4253 12.5146C28.4322 12.5346 28.443 12.556 28.4572 12.5786C28.4744 12.606 28.4963 12.6348 28.5226 12.6654C28.544 12.6904 28.5614 12.709 28.5944 12.7434L28.6161 12.7211C28.5835 12.687 28.5664 12.6687 28.5455 12.6443C28.5201 12.6148 28.4991 12.5872 28.4828 12.5613C28.4698 12.5406 28.4601 12.5214 28.4541 12.5039L28.4253 12.5146Z" fill="black"/>
<path d="M28.5761 11.9375C28.562 12.1157 28.6599 12.454 28.7593 12.5686C28.7811 12.7583 28.9126 13.0299 29.0982 13.217L29.1199 13.1953C28.9391 13.013 28.8106 12.7477 28.786 12.5566C28.6886 12.4403 28.5931 12.1103 28.6066 11.9399L28.5761 11.9375Z" fill="black"/>
<path d="M28.5282 11.4414C28.5154 11.5132 28.5192 11.6261 28.535 11.7387L28.5653 11.7344C28.5499 11.6248 28.5462 11.5147 28.5584 11.4468L28.5282 11.4414Z" fill="black"/>
<path d="M28.7983 10.7422C28.7372 10.8961 28.7032 11.2219 28.7214 11.349C28.7248 11.3734 28.7244 11.3795 28.7136 11.4818C28.6941 11.6683 28.7018 11.8098 28.7635 11.9925L28.7924 11.9826C28.7324 11.8048 28.7249 11.6675 28.7441 11.485C28.7553 11.3781 28.7557 11.3729 28.7517 11.3447C28.7343 11.2227 28.7677 10.9024 28.8267 10.7535L28.7983 10.7422Z" fill="black"/>
<path d="M29.0116 10.8965C28.9441 11.1752 28.9465 11.7019 29.0118 11.9213L29.0411 11.9125C28.9775 11.6986 28.9751 11.1773 29.0413 10.9037L29.0116 10.8965Z" fill="black"/>
<path d="M28.9286 12.0039C28.8917 12.1675 28.8956 12.357 28.943 12.4995L28.972 12.4898C28.9265 12.3529 28.9227 12.1691 28.9584 12.0107L28.9286 12.0039Z" fill="black"/>
<path d="M29.1971 11.0039C29.1896 11.2425 29.3007 11.548 29.4842 11.753L29.5069 11.7324C29.3287 11.5334 29.2204 11.2355 29.2277 11.0049L29.1971 11.0039Z" fill="black"/>
<path d="M29.149 11.7695C29.1278 12.0342 29.143 12.2774 29.1912 12.4163C29.2036 12.4522 29.2123 12.4957 29.2246 12.5755C29.2303 12.6136 29.2337 12.6353 29.2365 12.6533C29.2413 12.6839 29.2457 12.7097 29.2505 12.7344C29.2736 12.8549 29.3039 12.9436 29.352 13.0122L29.3771 12.9945C29.332 12.9302 29.3029 12.8452 29.2805 12.7286C29.2759 12.7042 29.2715 12.6788 29.2667 12.6485C29.2639 12.6306 29.2606 12.609 29.2548 12.5708C29.2423 12.4892 29.2333 12.4444 29.2201 12.4062C29.1736 12.2721 29.1587 12.0328 29.1795 11.772L29.149 11.7695Z" fill="black"/>
<path d="M29.3843 12.1583C29.3899 12.1795 29.3899 12.1795 29.3958 12.2018C29.4113 12.2619 29.4204 12.307 29.4246 12.3513C29.4304 12.4135 29.4249 12.4662 29.4058 12.5102L29.4339 12.5225C29.4553 12.4731 29.4613 12.4154 29.455 12.3484C29.4507 12.3021 29.4413 12.2557 29.4254 12.1941C29.4195 12.1715 29.4195 12.1715 29.4139 12.1504L29.3843 12.1583Z" fill="black"/>
<path d="M29.564 11.9562C29.6149 12.1235 29.6466 12.3282 29.6393 12.4172L29.6698 12.4197C29.6774 12.3263 29.6452 12.118 29.5932 11.9473L29.564 11.9562Z" fill="black"/>
<path d="M29.646 12.8798C29.659 13.0227 29.7162 13.1998 29.7792 13.3107L29.8058 13.2954C29.7449 13.1883 29.6891 13.0154 29.6765 12.877L29.646 12.8798Z" fill="black"/>
<path d="M29.4189 13.3007C29.4767 13.475 29.576 13.6548 29.6657 13.7258L29.6847 13.7016C29.6007 13.6353 29.504 13.46 29.448 13.291L29.4189 13.3007Z" fill="black"/>
<path d="M30.0698 13.3751C30.1667 13.5131 30.2068 13.6033 30.2681 13.7889L30.2972 13.7793C30.235 13.591 30.1938 13.4983 30.0949 13.3574L30.0698 13.3751Z" fill="black"/>
<path d="M28.9487 13.4153C28.9678 13.4174 28.9797 13.4181 29.0125 13.4198C29.0888 13.4236 29.1156 13.4313 29.1499 13.4677C29.1726 13.4917 29.195 13.528 29.2193 13.5807C29.3113 13.7807 29.5762 14.0954 29.7033 14.1524C29.9213 14.2503 30.061 14.3603 30.0878 14.517L30.1168 14.5207C30.1243 14.504 30.1243 14.504 30.1318 14.487C30.2186 14.2916 30.2382 14.1723 30.1719 14.0275L30.146 14.0435C30.164 14.0659 30.1829 14.0891 30.2039 14.1145C30.5356 14.5139 30.5178 14.4908 30.5365 14.5802C30.562 14.7024 30.6602 14.8699 30.7587 14.9775L30.7812 14.9567C30.6861 14.8528 30.5907 14.69 30.5665 14.5739C30.5461 14.4765 30.5681 14.5051 30.2275 14.0948C30.2065 14.0696 30.1877 14.0465 30.1699 14.0243L30.144 14.0403C30.2057 14.1749 30.1873 14.2865 30.1039 14.4745C30.0963 14.4914 30.0963 14.4914 30.0889 14.5081L30.1179 14.5118C30.0888 14.3412 29.9428 14.2263 29.7158 14.1243C29.5965 14.0708 29.3362 13.7617 29.2471 13.5679C29.2216 13.5123 29.1974 13.4734 29.1721 13.4466C29.1309 13.4029 29.0975 13.3932 29.0141 13.3891C28.9818 13.3875 28.9703 13.3867 28.952 13.3848L28.9487 13.4153Z" fill="black"/>
<path d="M29.3653 14.9735C29.429 14.9599 29.5459 14.8792 29.608 14.811C29.6462 14.8445 29.6667 14.8563 29.6986 14.8793C29.7786 14.937 29.8295 15.0062 29.8439 15.0956L29.8741 15.0907C29.8582 14.9922 29.8025 14.9164 29.7165 14.8543C29.6831 14.8302 29.6618 14.818 29.6039 14.7871C29.5272 14.8542 29.4153 14.9314 29.3589 14.9434L29.3653 14.9735Z" fill="black"/>
<path d="M29.9015 15.1058C29.9635 14.8759 29.8826 14.445 29.6975 14.1191L29.6709 14.1344C29.8523 14.4537 29.9317 14.8764 29.872 15.0977L29.9015 15.1058Z" fill="black"/>
<path d="M29.1636 13.8808C29.2172 14.0429 29.2598 14.2375 29.2642 14.3501L29.2948 14.349C29.2903 14.233 29.2471 14.0357 29.1926 13.8711L29.1636 13.8808Z" fill="black"/>
<path d="M29.5088 14.194C29.5656 14.3526 29.6226 14.5907 29.6274 14.6816L29.658 14.68C29.653 14.5856 29.5953 14.3448 29.5376 14.1836L29.5088 14.194Z" fill="black"/>
<path d="M30.1621 14.6251C30.2065 14.7325 30.2346 14.9021 30.2257 15.0032L30.2561 15.0059C30.2656 14.8998 30.2367 14.7252 30.1904 14.6133L30.1621 14.6251Z" fill="black"/>
<path d="M30.4952 15.063C30.4806 14.9948 30.4697 14.8882 30.4588 14.7283C30.4557 14.6828 30.4459 14.5262 30.444 14.4975C30.4394 14.4288 30.4355 14.3838 30.4312 14.3535L30.4009 14.3578C30.405 14.3871 30.4089 14.4316 30.4135 14.4996C30.4154 14.5282 30.4251 14.6848 30.4282 14.7304C30.4392 14.8918 30.4502 14.9993 30.4652 15.0694L30.4952 15.063Z" fill="black"/>
</g>
</svg>
