<svg width="40" height="40" viewBox="0 0 40 40" fill="none" xmlns="http://www.w3.org/2000/svg">
<rect y="5.71484" width="40" height="28.5714" rx="4" fill="white"/>
<mask id="mask0_76_1475" style="mask-type:luminance" maskUnits="userSpaceOnUse" x="0" y="5" width="40" height="30">
<rect y="5.71484" width="40" height="28.5714" rx="4" fill="white"/>
</mask>
<g mask="url(#mask0_76_1475)">
<rect y="5.71484" width="40" height="28.5714" fill="#128C4B"/>
<path fill-rule="evenodd" clip-rule="evenodd" d="M9.52393 22.8578H24.762V22.1302C24.762 21.1518 25.7917 20.5155 26.6668 20.953V22.8578H29.2065C29.9078 22.8578 30.4763 23.4263 30.4763 24.1276C30.4763 25.5303 29.3393 26.6673 27.9366 26.6673H26.0954C25.359 26.6673 24.762 26.0704 24.762 25.334V24.7625H11.981C11.6274 24.7625 11.2882 24.6221 11.0382 24.372L9.52393 22.8578Z" fill="white"/>
<path fill-rule="evenodd" clip-rule="evenodd" d="M9.52393 17.4197C9.52393 17.2428 9.59416 17.0733 9.71919 16.9482L10.0049 16.6625C10.2653 16.4022 10.2653 15.9801 10.0049 15.7197L9.71919 15.434C9.59416 15.309 9.52393 15.1394 9.52393 14.9626V14.0007C9.52393 13.6325 9.8224 13.334 10.1906 13.334H11.0649C11.2658 13.334 11.4287 13.4969 11.4287 13.6978C11.4287 14.0816 11.9462 14.2038 12.1178 13.8604L12.2598 13.5765C12.3341 13.4279 12.486 13.334 12.6522 13.334H14.762C15.025 13.334 15.2382 13.5472 15.2382 13.8102C15.2382 14.0732 15.025 14.2864 14.762 14.2864H13.8096C13.5466 14.2864 13.3335 14.4996 13.3335 14.7626C13.3335 15.0255 13.5466 15.2387 13.8096 15.2387H14.5715C14.9397 15.2387 15.2382 15.5372 15.2382 15.9054V18.3816C15.2382 18.7498 14.9397 19.0483 14.5715 19.0483H14.0001C13.6319 19.0483 13.3335 18.7498 13.3335 18.3816V17.6197C13.3335 17.3567 13.5466 17.1435 13.8096 17.1435C14.0726 17.1435 14.2858 16.9303 14.2858 16.6673C14.2858 16.4043 14.0726 16.1911 13.8096 16.1911H13.0477C12.6795 16.1911 12.3811 16.4896 12.3811 16.8578V18.5721C12.3811 18.8351 12.1679 19.0483 11.9049 19.0483C11.6419 19.0483 11.4287 18.8351 11.4287 18.5721V17.6197C11.4287 17.3567 11.2155 17.1435 10.9525 17.1435C10.6895 17.1435 10.4763 17.3567 10.4763 17.6197V18.5721C10.4763 18.8351 10.2631 19.0483 10.0001 19.0483C9.73712 19.0483 9.52393 18.8351 9.52393 18.5721V17.4197Z" fill="white"/>
<path fill-rule="evenodd" clip-rule="evenodd" d="M24.7617 17.4197C24.7617 17.2428 24.832 17.0733 24.957 16.9482L25.2427 16.6625C25.503 16.4022 25.503 15.9801 25.2427 15.7197L24.957 15.434C24.832 15.309 24.7617 15.1394 24.7617 14.9626V14.0007C24.7617 13.6325 25.0602 13.334 25.4284 13.334H26.3027C26.5036 13.334 26.6665 13.4969 26.6665 13.6978C26.6665 14.0816 27.184 14.2038 27.3556 13.8604L27.4976 13.5765C27.5719 13.4279 27.7238 13.334 27.89 13.334H29.9998C30.2628 13.334 30.476 13.5472 30.476 13.8102C30.476 14.0732 30.2628 14.2864 29.9998 14.2864H29.0474C28.7844 14.2864 28.5712 14.4996 28.5712 14.7626C28.5712 15.0255 28.7844 15.2387 29.0474 15.2387H29.8093C30.1775 15.2387 30.476 15.5372 30.476 15.9054V18.3816C30.476 18.7498 30.1775 19.0483 29.8093 19.0483H29.2379C28.8697 19.0483 28.5712 18.7498 28.5712 18.3816V17.6197C28.5712 17.3567 28.7844 17.1435 29.0474 17.1435C29.3104 17.1435 29.5236 16.9303 29.5236 16.6673C29.5236 16.4043 29.3104 16.1911 29.0474 16.1911H28.2855C27.9173 16.1911 27.6189 16.4896 27.6189 16.8578V18.5721C27.6189 18.8351 27.4057 19.0483 27.1427 19.0483C26.8797 19.0483 26.6665 18.8351 26.6665 18.5721V17.6197C26.6665 17.3567 26.4533 17.1435 26.1903 17.1435C25.9273 17.1435 25.7141 17.3567 25.7141 17.6197V18.5721C25.7141 18.8351 25.5009 19.0483 25.2379 19.0483C24.9749 19.0483 24.7617 18.8351 24.7617 18.5721V17.4197Z" fill="white"/>
<path fill-rule="evenodd" clip-rule="evenodd" d="M22.8574 14.7581C22.8574 15.0236 22.7085 15.3876 22.5135 15.5826L22.2488 15.8473C22.0589 16.0372 22.0538 16.3399 22.2488 16.535L22.5135 16.7997C22.7034 16.9896 22.8574 17.3474 22.8574 17.6242V18.5676C22.8574 18.8331 22.6535 19.0483 22.3767 19.0483H21.4332C21.1678 19.0483 20.9526 18.8444 20.9526 18.5676V17.6242C20.9526 17.3587 20.8647 17.3193 20.7317 17.5853L20.2211 18.6065C20.0991 18.8505 19.776 19.0483 19.5284 19.0483H17.6149C17.3543 19.0483 17.1431 18.8274 17.1431 18.5721C17.1431 18.3091 17.3469 18.0959 17.6237 18.0959H18.5672C18.8326 18.0959 19.0478 17.875 19.0478 17.6197C19.0478 17.3567 18.844 17.1435 18.5672 17.1435H17.6237C17.3583 17.1435 17.1431 16.9387 17.1431 16.6764V13.8011C17.1431 13.5431 17.3469 13.334 17.6237 13.334H18.5672C18.8326 13.334 19.0478 13.5378 19.0478 13.8146V14.7581C19.0478 15.0236 18.8269 15.2387 18.5716 15.2387C18.3086 15.2387 18.0954 15.4596 18.0954 15.7149C18.0954 15.9779 18.2993 16.1911 18.5761 16.1911H19.5196C19.785 16.1911 20.0002 15.9669 20.0002 15.7193V13.8058C20.0002 13.5452 20.2211 13.334 20.4764 13.334C20.7394 13.334 20.9526 13.5378 20.9526 13.8146V14.7581C20.9526 15.0236 21.1735 15.2387 21.4288 15.2387C21.6918 15.2387 21.905 15.0349 21.905 14.7581V13.8146C21.905 13.5492 22.1259 13.334 22.3812 13.334C22.6442 13.334 22.8574 13.5378 22.8574 13.8146V14.7581Z" fill="white"/>
</g>
</svg>
