<svg width="40" height="40" viewBox="0 0 40 40" fill="none" xmlns="http://www.w3.org/2000/svg">
<rect y="5.71484" width="40" height="28.5714" rx="4" fill="white"/>
<mask id="mask0_76_1403" style="mask-type:luminance" maskUnits="userSpaceOnUse" x="0" y="5" width="40" height="30">
<rect y="5.71484" width="40" height="28.5714" rx="4" fill="white"/>
</mask>
<g mask="url(#mask0_76_1403)">
<g filter="url(#filter0_d_76_1403)">
<path fill-rule="evenodd" clip-rule="evenodd" d="M0 34.2851H40V26.666H0V34.2851Z" fill="#2D754D"/>
</g>
<path fill-rule="evenodd" clip-rule="evenodd" d="M0 19.0482H40V5.71484H0V19.0482Z" fill="#25B1EB"/>
<path fill-rule="evenodd" clip-rule="evenodd" d="M0 26.6659H40V19.0469H0V26.6659Z" fill="#FECB2F"/>
<path fill-rule="evenodd" clip-rule="evenodd" d="M30.476 14.2866L29.0182 15.9013L29.1292 13.7287L26.9565 13.8396L28.5713 12.3818L26.9565 10.9239L29.1292 11.0349L29.0182 8.86225L30.476 10.477L31.9339 8.86225L31.8229 11.0349L33.9956 10.9239L32.3808 12.3818L33.9956 13.8396L31.8229 13.7287L31.9339 15.9013L30.476 14.2866Z" fill="#FECB2F"/>
</g>
<defs>
<filter id="filter0_d_76_1403" x="0" y="26.666" width="40" height="7.61914" filterUnits="userSpaceOnUse" color-interpolation-filters="sRGB">
<feFlood flood-opacity="0" result="BackgroundImageFix"/>
<feColorMatrix in="SourceAlpha" type="matrix" values="0 0 0 0 0 0 0 0 0 0 0 0 0 0 0 0 0 0 127 0" result="hardAlpha"/>
<feOffset/>
<feColorMatrix type="matrix" values="0 0 0 0 0 0 0 0 0 0 0 0 0 0 0 0 0 0 0.06 0"/>
<feBlend mode="normal" in2="BackgroundImageFix" result="effect1_dropShadow_76_1403"/>
<feBlend mode="normal" in="SourceGraphic" in2="effect1_dropShadow_76_1403" result="shape"/>
</filter>
</defs>
</svg>
