<svg width="40" height="40" viewBox="0 0 40 40" fill="none" xmlns="http://www.w3.org/2000/svg">
<rect x="0.5" y="6.21387" width="39" height="27.5714" rx="3.5" fill="white" stroke="#F5F5F5"/>
<mask id="mask0_76_940" style="mask-type:luminance" maskUnits="userSpaceOnUse" x="0" y="5" width="40" height="30">
<rect x="0.5" y="6.21387" width="39" height="27.5714" rx="3.5" fill="white" stroke="white"/>
</mask>
<g mask="url(#mask0_76_940)">
<path fill-rule="evenodd" clip-rule="evenodd" d="M0 13.3329H40V5.71387H0V13.3329Z" fill="#F03340"/>
<path fill-rule="evenodd" clip-rule="evenodd" d="M0 34.286H40V26.667H0V34.286Z" fill="#F03340"/>
<path fill-rule="evenodd" clip-rule="evenodd" d="M18.4897 23.4152C18.7978 23.1071 18.7978 22.6076 18.4897 22.2994L18.3801 22.1898C18.2033 22.0131 17.9468 21.942 17.7043 22.0027L17.1625 22.1381C16.5287 22.2966 16.1353 21.4701 16.658 21.0781L17.1475 20.7109C17.4511 20.4832 17.2901 20.0002 16.9106 20.0002C16.494 20.0002 16.3614 19.4385 16.734 19.2522L17.5515 18.8434C17.9242 18.6571 17.7916 18.0954 17.3749 18.0954C16.9955 18.0954 16.8345 17.6124 17.138 17.3847L19.238 15.8097C19.6895 15.4711 20.3103 15.4711 20.7618 15.8097L22.8618 17.3847C23.1654 17.6124 23.0044 18.0954 22.6249 18.0954C22.2083 18.0954 22.0757 18.6571 22.4483 18.8434L23.2658 19.2522C23.6385 19.4385 23.5059 20.0002 23.0892 20.0002C22.7098 20.0002 22.5488 20.4832 22.8523 20.7109L23.3419 21.0781C23.8646 21.4701 23.4712 22.2966 22.8374 22.1381L22.2956 22.0027C22.0531 21.942 21.7965 22.0131 21.6198 22.1898L21.5102 22.2994C21.2021 22.6076 21.2021 23.1071 21.5102 23.4152C22.0072 23.9122 21.6552 24.7621 20.9523 24.7621H19.0476C18.3446 24.7621 17.9926 23.9122 18.4897 23.4152Z" fill="#1FC065"/>
</g>
</svg>
