<svg width="40" height="40" viewBox="0 0 40 40" fill="none" xmlns="http://www.w3.org/2000/svg">
<rect y="5.71484" width="40" height="28.5714" rx="4" fill="white"/>
<mask id="mask0_76_2063" style="mask-type:luminance" maskUnits="userSpaceOnUse" x="0" y="5" width="40" height="30">
<rect y="5.71484" width="40" height="28.5714" rx="4" fill="white"/>
</mask>
<g mask="url(#mask0_76_2063)">
<rect y="5.71484" width="40" height="28.5714" fill="#0A17A7"/>
<path fill-rule="evenodd" clip-rule="evenodd" d="M0 24.761H15.2381V36.1895H24.7619V24.761H40V15.2372H24.7619V3.80859H15.2381V15.2372H0V24.761Z" fill="white"/>
<rect x="-1.83203" y="2.97656" width="55.2381" height="3.80952" transform="rotate(34 -1.83203 2.97656)" fill="white"/>
<rect x="-3.9624" y="33.8652" width="55.2381" height="3.80952" transform="rotate(-34 -3.9624 33.8652)" fill="white"/>
<path d="M26.6685 14.7606L44.7618 2.85742" stroke="#DB1F35" stroke-width="1.33333" stroke-linecap="round"/>
<path d="M28.5898 25.2822L44.8096 36.2148" stroke="#DB1F35" stroke-width="1.33333" stroke-linecap="round"/>
<path d="M11.4367 14.7302L-5.48193 3.32812" stroke="#DB1F35" stroke-width="1.33333" stroke-linecap="round"/>
<path d="M13.2717 25.1494L-5.48193 37.5859" stroke="#DB1F35" stroke-width="1.33333" stroke-linecap="round"/>
<path fill-rule="evenodd" clip-rule="evenodd" d="M0 22.8577H17.1429V34.2863H22.8571V22.8577H40V17.1434H22.8571V5.71484H17.1429V17.1434H0V22.8577Z" fill="#E6273E"/>
</g>
</svg>
