<svg width="40" height="40" viewBox="0 0 40 40" fill="none" xmlns="http://www.w3.org/2000/svg">
<rect y="5.71387" width="40" height="28.5714" rx="4" fill="white"/>
<mask id="mask0_76_481" style="mask-type:luminance" maskUnits="userSpaceOnUse" x="0" y="5" width="40" height="30">
<rect y="5.71387" width="40" height="28.5714" rx="4" fill="white"/>
</mask>
<g mask="url(#mask0_76_481)">
<path fill-rule="evenodd" clip-rule="evenodd" d="M0 26.6669H40V19.0479H0V26.6669Z" fill="#0748AE"/>
<path fill-rule="evenodd" clip-rule="evenodd" d="M0 34.286H40V26.667H0V34.286Z" fill="#DE2035"/>
<path fill-rule="evenodd" clip-rule="evenodd" d="M0 19.0472H40V5.71387H0V19.0472Z" fill="#FFD935"/>
<ellipse cx="20" cy="20.1904" rx="3.80952" ry="3.80952" fill="#FFD935"/>
<path fill-rule="evenodd" clip-rule="evenodd" d="M17.1431 15.4287H22.8574L20.9526 21.143H19.0478L17.1431 15.4287Z" fill="#FFD935"/>
<path fill-rule="evenodd" clip-rule="evenodd" d="M20.0002 16.1904L20.9526 20.9523H19.0479L20.0002 16.1904Z" fill="#5FC0DC"/>
<path opacity="0.66" d="M24.7621 14.2854L21.9049 13.333L20.0002 15.2378L18.0954 13.333L15.2383 14.2854" stroke="#3F2821" stroke-width="1.33333" stroke-linecap="round" stroke-linejoin="round"/>
</g>
</svg>
