<svg width="40" height="40" viewBox="0 0 40 40" fill="none" xmlns="http://www.w3.org/2000/svg">
<rect y="5.71387" width="40" height="28.5714" rx="4" fill="white"/>
<mask id="mask0_76_1247" style="mask-type:luminance" maskUnits="userSpaceOnUse" x="0" y="5" width="40" height="30">
<rect y="5.71387" width="40" height="28.5714" rx="4" fill="white"/>
</mask>
<g mask="url(#mask0_76_1247)">
<rect y="5.71387" width="40" height="28.5714" fill="#0A17A7"/>
<path d="M0 5.0472H-1.80217L-0.433861 6.22004L6 11.7348V12.9898L-0.387492 17.5523L-0.666667 17.7517V18.0948V19.0472V20.25L0.353333 19.6125L7.81025 14.952H9.31017L15.7208 19.531C15.8873 19.6499 16.0868 19.7139 16.2914 19.7139C17.2028 19.7139 17.6222 18.58 16.9303 17.9869L11.1429 13.0263V11.7712L17.2512 7.40815C17.6016 7.15787 17.8095 6.75377 17.8095 6.32317V5.71387V4.51104L16.7895 5.14853L9.33261 9.80911H7.83269L1.33987 5.17138L1.16602 5.0472H0.952381H0Z" fill="#FF2E3B" stroke="white" stroke-width="1.33333"/>
<path fill-rule="evenodd" clip-rule="evenodd" d="M0 10.4758V14.2853H6.66667V18.6662C6.66667 19.4026 7.26362 19.9996 8 19.9996H9.14286C9.87924 19.9996 10.4762 19.4026 10.4762 18.6662V14.2853H16.7619C17.4983 14.2853 18.0952 13.6883 18.0952 12.952V11.8091C18.0952 11.0727 17.4983 10.4758 16.7619 10.4758H10.4762V5.71387H6.66667V10.4758H0Z" fill="white"/>
<path fill-rule="evenodd" clip-rule="evenodd" d="M0 11.4282H7.61905V10.4758V5.71387H9.52381V10.4758V11.4282H17.1429V13.3329H9.52381V14.2853V19.0472H7.61905V14.2853V13.3329H0V11.4282Z" fill="#FF2E3B"/>
<path fill-rule="evenodd" clip-rule="evenodd" d="M28.5713 30.4763L27.2244 30.8708L27.6189 29.5239L27.2244 28.177L28.5713 28.5715L29.9181 28.177L29.5236 29.5239L29.9181 30.8708L28.5713 30.4763Z" fill="#CA1931"/>
<path fill-rule="evenodd" clip-rule="evenodd" d="M28.5713 12.3806L27.2244 12.7751L27.6189 11.4282L27.2244 10.0813L28.5713 10.4758L29.9181 10.0813L29.5236 11.4282L29.9181 12.7751L28.5713 12.3806Z" fill="#CA1931"/>
<path fill-rule="evenodd" clip-rule="evenodd" d="M34.2856 18.0954L32.9388 18.4899L33.3332 17.143L32.9388 15.7962L34.2856 16.1907L35.6325 15.7962L35.238 17.143L35.6325 18.4899L34.2856 18.0954Z" fill="#CA1931"/>
<path fill-rule="evenodd" clip-rule="evenodd" d="M22.8569 19.9997L21.51 20.3942L21.9045 19.0473L21.51 17.7005L22.8569 18.095L24.2038 17.7005L23.8093 19.0473L24.2038 20.3942L22.8569 19.9997Z" fill="#CA1931"/>
</g>
</svg>
