<svg width="40" height="40" viewBox="0 0 40 40" fill="none" xmlns="http://www.w3.org/2000/svg">
<rect y="5.71484" width="40" height="28.5714" rx="4" fill="white"/>
<mask id="mask0_76_2137" style="mask-type:luminance" maskUnits="userSpaceOnUse" x="0" y="5" width="40" height="30">
<rect y="5.71484" width="40" height="28.5714" rx="4" fill="white"/>
</mask>
<g mask="url(#mask0_76_2137)">
<g filter="url(#filter0_d_76_2137)">
<path fill-rule="evenodd" clip-rule="evenodd" d="M0 34.286H40V22.8574H0V34.286Z" fill="#009543"/>
</g>
<g filter="url(#filter1_d_76_2137)">
<path fill-rule="evenodd" clip-rule="evenodd" d="M0 17.1434H40V5.71484H0V17.1434Z" fill="#D21034"/>
</g>
<path fill-rule="evenodd" clip-rule="evenodd" d="M0 22.8569H40V17.1426H0V22.8569Z" fill="#262626"/>
<path fill-rule="evenodd" clip-rule="evenodd" d="M0 5.71484L19.0476 20.0006L0 34.2863V5.71484Z" fill="#262626"/>
<path d="M-0.571452 29.7734V10.2268L12.9608 20.0001L-0.571452 29.7734Z" stroke="#FDCE12" stroke-width="2.66667"/>
<path fill-rule="evenodd" clip-rule="evenodd" d="M13.3335 20.9516H40.0002V19.0469H13.3335V20.9516Z" fill="#FDCE12"/>
</g>
<defs>
<filter id="filter0_d_76_2137" x="0" y="22.8574" width="40" height="11.4277" filterUnits="userSpaceOnUse" color-interpolation-filters="sRGB">
<feFlood flood-opacity="0" result="BackgroundImageFix"/>
<feColorMatrix in="SourceAlpha" type="matrix" values="0 0 0 0 0 0 0 0 0 0 0 0 0 0 0 0 0 0 127 0" result="hardAlpha"/>
<feOffset/>
<feColorMatrix type="matrix" values="0 0 0 0 0 0 0 0 0 0 0 0 0 0 0 0 0 0 0.06 0"/>
<feBlend mode="normal" in2="BackgroundImageFix" result="effect1_dropShadow_76_2137"/>
<feBlend mode="normal" in="SourceGraphic" in2="effect1_dropShadow_76_2137" result="shape"/>
</filter>
<filter id="filter1_d_76_2137" x="0" y="5.71484" width="40" height="11.4277" filterUnits="userSpaceOnUse" color-interpolation-filters="sRGB">
<feFlood flood-opacity="0" result="BackgroundImageFix"/>
<feColorMatrix in="SourceAlpha" type="matrix" values="0 0 0 0 0 0 0 0 0 0 0 0 0 0 0 0 0 0 127 0" result="hardAlpha"/>
<feOffset/>
<feColorMatrix type="matrix" values="0 0 0 0 0 0 0 0 0 0 0 0 0 0 0 0 0 0 0.06 0"/>
<feBlend mode="normal" in2="BackgroundImageFix" result="effect1_dropShadow_76_2137"/>
<feBlend mode="normal" in="SourceGraphic" in2="effect1_dropShadow_76_2137" result="shape"/>
</filter>
</defs>
</svg>
