<svg width="40" height="40" viewBox="0 0 40 40" fill="none" xmlns="http://www.w3.org/2000/svg">
<rect y="5.71484" width="40" height="28.5714" rx="4" fill="#06A86E"/>
<mask id="mask0_76_1596" style="mask-type:luminance" maskUnits="userSpaceOnUse" x="0" y="5" width="40" height="30">
<rect y="5.71484" width="40" height="28.5714" rx="4" fill="white"/>
</mask>
<g mask="url(#mask0_76_1596)">
<rect x="-4.28564" y="5.71484" width="48.5714" height="28.5714" fill="#003893"/>
<rect x="-4.28564" y="20" width="48.5714" height="7.14286" fill="white"/>
<rect x="-4.28564" y="22.3809" width="48.5714" height="2.38095" fill="#CF2027"/>
<path d="M14.0342 15.0003L13.5316 16.456L14.305 16.6925" fill="#F7D116"/>
<path d="M14.2344 14.999L14.853 16.4547L13.9011 16.6912" fill="#F7D116"/>
<path d="M15.4474 16.0263L13.9077 15.9982L13.9218 16.8068" fill="#F7D116"/>
<path d="M15.5094 16.2167L14.3161 17.2548L13.7971 16.4226" fill="#F7D116"/>
<path d="M14.9075 17.688L14.4585 16.2149L13.6938 16.4781" fill="#F7D116"/>
<path d="M14.7456 17.8068L13.3896 16.9927L14.0206 16.2419" fill="#F7D116"/>
<path d="M13.1603 17.6879L14.4225 16.8056L13.9358 16.1597" fill="#F7D116"/>
<path d="M12.9983 17.5703L13.3536 16.0291L14.2626 16.3972" fill="#F7D116"/>
<path d="M12.6205 16.0271L13.8496 16.9549L14.3135 16.2925" fill="#F7D116"/>
<path d="M12.6826 15.8369L14.2582 15.6985L14.189 16.6768" fill="#F7D116"/>
<path d="M14.0342 29.2855L13.5316 30.7412L14.305 30.9777" fill="#F7D116"/>
<path d="M14.2339 29.2861L14.8525 30.7418L13.9007 30.9783" fill="#F7D116"/>
<path d="M15.4474 30.3134L13.9077 30.2853L13.9218 31.0939" fill="#F7D116"/>
<path d="M15.5094 30.5038L14.3161 31.5419L13.7971 30.7098" fill="#F7D116"/>
<path d="M14.908 31.9731L14.4589 30.5001L13.6943 30.7633" fill="#F7D116"/>
<path d="M14.7456 32.0919L13.3896 31.2778L14.0206 30.527" fill="#F7D116"/>
<path d="M13.1603 31.975L14.4225 31.0927L13.9358 30.4469" fill="#F7D116"/>
<path d="M12.9983 31.8574L13.3536 30.3162L14.2626 30.6843" fill="#F7D116"/>
<path d="M12.62 30.3123L13.8492 31.2401L14.3131 30.5776" fill="#F7D116"/>
<path d="M12.6821 30.1221L14.2577 29.9837L14.1885 30.962" fill="#F7D116"/>
<path d="M22.113 21.0224L20.5732 20.9943L20.5873 21.8029" fill="#F7D116"/>
<path d="M22.175 21.2128L20.9816 22.2509L20.4626 21.4187" fill="#F7D116"/>
<path d="M21.5735 22.6841L21.1245 21.211L20.3598 21.4742" fill="#F7D116"/>
<path d="M21.4112 22.8029L20.0551 21.9888L20.6862 21.238" fill="#F7D116"/>
<path d="M19.8258 22.686L21.088 21.8036L20.6014 21.1578" fill="#F7D116"/>
<path d="M19.6639 22.5664L20.0191 21.0252L20.9281 21.3933" fill="#F7D116"/>
<path d="M19.286 21.0232L20.5152 21.951L20.9791 21.2886" fill="#F7D116"/>
<path d="M19.3481 20.833L20.9237 20.6946L20.8545 21.6729" fill="#F7D116"/>
<path d="M20.6992 19.9964L20.1967 21.4521L20.97 21.6886" fill="#F7D116"/>
<path d="M20.8995 19.997L21.518 21.4527L20.5662 21.6892" fill="#F7D116"/>
<path d="M8.52655 25.4384L6.9868 25.4103L7.00086 26.2189" fill="#F7D116"/>
<path d="M8.58853 25.6288L7.39521 26.6669L6.87617 25.8348" fill="#F7D116"/>
<path d="M7.98663 27.0981L7.53756 25.6251L6.77291 25.8883" fill="#F7D116"/>
<path d="M7.82425 27.2169L6.46822 26.4028L7.09924 25.652" fill="#F7D116"/>
<path d="M6.23937 27.1L7.50158 26.2177L7.01494 25.5719" fill="#F7D116"/>
<path d="M6.07743 26.9805L6.43268 25.4392L7.34171 25.8074" fill="#F7D116"/>
<path d="M5.69911 25.4373L6.92826 26.365L7.39216 25.7026" fill="#F7D116"/>
<path d="M5.7612 25.2471L7.33678 25.1087L7.26757 26.0869" fill="#F7D116"/>
<path d="M7.1128 24.4105L6.61025 25.8662L7.38359 26.1027" fill="#F7D116"/>
<path d="M7.31304 24.4111L7.93156 25.8668L6.97976 26.1033" fill="#F7D116"/>
<path d="M18.8816 30.5669L18.4326 29.0938L17.6679 29.3571" fill="#F7D116"/>
<path d="M18.7193 30.6857L17.3632 29.8716L17.9943 29.1208" fill="#F7D116"/>
<path d="M17.1339 30.5668L18.3961 29.6845L17.9095 29.0386" fill="#F7D116"/>
<path d="M16.972 30.4473L17.3272 28.906L18.2362 29.2742" fill="#F7D116"/>
<path d="M16.5941 28.906L17.8233 29.8338L18.2872 29.1714" fill="#F7D116"/>
<path d="M16.6557 28.7158L18.2313 28.5774L18.1621 29.5557" fill="#F7D116"/>
<path d="M18.0078 27.8793L17.5053 29.3349L18.2786 29.5714" fill="#F7D116"/>
<path d="M18.2081 27.8798L18.8266 29.3355L17.8748 29.572" fill="#F7D116"/>
<path d="M19.4216 28.9052L17.8818 28.8771L17.8959 29.6857" fill="#F7D116"/>
<path d="M19.4835 29.0956L18.2902 30.1337L17.7712 29.3016" fill="#F7D116"/>
<path d="M10.4842 19.0103L10.0351 17.5372L9.27047 17.8004" fill="#F7D116"/>
<path d="M10.3223 19.129L8.96627 18.3149L9.59729 17.5641" fill="#F7D116"/>
<path d="M8.73742 19.0102L9.99962 18.1279L9.51299 17.482" fill="#F7D116"/>
<path d="M8.57499 18.8906L8.93024 17.3494L9.83927 17.7175" fill="#F7D116"/>
<path d="M8.19715 17.3474L9.42631 18.2752L9.8902 17.6128" fill="#F7D116"/>
<path d="M8.25924 17.1572L9.83483 17.0188L9.76562 17.9971" fill="#F7D116"/>
<path d="M9.61084 16.3207L9.1083 17.7764L9.88164 18.0128" fill="#F7D116"/>
<path d="M9.81109 16.3212L10.4296 17.7769L9.47781 18.0134" fill="#F7D116"/>
<path d="M11.0241 17.3486L9.48436 17.3205L9.49842 18.129" fill="#F7D116"/>
<path d="M11.0861 17.539L9.89277 18.577L9.37373 17.7449" fill="#F7D116"/>
<path d="M8.80529 30.4438L10.0675 29.5615L9.58086 28.9156" fill="#F7D116"/>
<path d="M8.64286 30.3242L8.99811 28.783L9.90714 29.1511" fill="#F7D116"/>
<path d="M8.26502 28.781L9.49418 29.7088L9.95807 29.0464" fill="#F7D116"/>
<path d="M8.32711 28.5908L9.9027 28.4524L9.83349 29.4307" fill="#F7D116"/>
<path d="M9.67871 27.7543L9.17617 29.2099L9.94951 29.4464" fill="#F7D116"/>
<path d="M9.87896 27.7548L10.4975 29.2105L9.54568 29.447" fill="#F7D116"/>
<path d="M11.092 28.7822L9.55223 28.7541L9.56629 29.5626" fill="#F7D116"/>
<path d="M11.154 28.9726L9.96064 30.0106L9.4416 29.1785" fill="#F7D116"/>
<path d="M10.5521 30.4419L10.103 28.9688L9.33834 29.2321" fill="#F7D116"/>
<path d="M10.3902 30.5607L9.03414 29.7465L9.66516 28.9957" fill="#F7D116"/>
<path d="M17.2023 18.8871L18.4645 18.0048L17.9778 17.359" fill="#F7D116"/>
<path d="M17.0398 18.7676L17.3951 17.2263L18.3041 17.5945" fill="#F7D116"/>
<path d="M16.662 17.2244L17.8912 18.1522L18.355 17.4897" fill="#F7D116"/>
<path d="M16.7241 17.0342L18.2997 16.8958L18.2305 17.8741" fill="#F7D116"/>
<path d="M18.0757 16.1976L17.5731 17.6533L18.3465 17.8898" fill="#F7D116"/>
<path d="M18.2759 16.1982L18.8945 17.6539L17.9427 17.8904" fill="#F7D116"/>
<path d="M19.489 17.2236L17.9492 17.1955L17.9633 18.004" fill="#F7D116"/>
<path d="M19.5509 17.414L18.3576 18.452L17.8386 17.6199" fill="#F7D116"/>
<path d="M18.9495 18.8853L18.5004 17.4122L17.7358 17.6754" fill="#F7D116"/>
<path d="M18.7871 19.004L17.4311 18.1899L18.0621 17.4391" fill="#F7D116"/>
<path d="M5.80946 20.822L7.03862 21.7498L7.50251 21.0874" fill="#F7D116"/>
<path d="M5.87106 20.6318L7.44664 20.4934L7.37744 21.4717" fill="#F7D116"/>
<path d="M7.22315 19.7953L6.7206 21.251L7.49394 21.4875" fill="#F7D116"/>
<path d="M7.4234 19.7958L8.04192 21.2515L7.09011 21.488" fill="#F7D116"/>
<path d="M8.63641 20.8232L7.09667 20.7951L7.11072 21.6036" fill="#F7D116"/>
<path d="M8.69839 21.0136L7.50507 22.0517L6.98603 21.2195" fill="#F7D116"/>
<path d="M8.09698 22.4829L7.64791 21.0098L6.88326 21.2731" fill="#F7D116"/>
<path d="M7.93461 22.6017L6.57858 21.7875L7.20959 21.0368" fill="#F7D116"/>
<path d="M6.34923 22.4848L7.61144 21.6025L7.1248 20.9566" fill="#F7D116"/>
<path d="M6.18729 22.3652L6.54254 20.824L7.45157 21.1921" fill="#F7D116"/>
<path d="M19.3959 25.2361L20.625 26.1639L21.0889 25.5015" fill="#F7D116"/>
<path d="M19.4575 25.0459L21.0331 24.9075L20.9639 25.8858" fill="#F7D116"/>
<path d="M20.8096 24.2093L20.307 25.665L21.0804 25.9015" fill="#F7D116"/>
<path d="M21.0098 24.2099L21.6283 25.6656L20.6765 25.9021" fill="#F7D116"/>
<path d="M22.2233 25.2353L20.6836 25.2072L20.6976 26.0158" fill="#F7D116"/>
<path d="M22.2853 25.4257L21.092 26.4638L20.5729 25.6316" fill="#F7D116"/>
<path d="M21.6834 26.897L21.2343 25.4239L20.4697 25.6871" fill="#F7D116"/>
<path d="M21.521 27.0158L20.165 26.2016L20.796 25.4508" fill="#F7D116"/>
<path d="M19.9357 26.8989L21.1979 26.0166L20.7112 25.3707" fill="#F7D116"/>
<path d="M19.7737 26.7793L20.129 25.2381L21.038 25.6062" fill="#F7D116"/>
</g>
</svg>
