<svg width="40" height="40" viewBox="0 0 40 40" fill="none" xmlns="http://www.w3.org/2000/svg">
<rect y="5.71387" width="40" height="28.5714" rx="4" fill="white"/>
<mask id="mask0_76_1073" style="mask-type:luminance" maskUnits="userSpaceOnUse" x="0" y="5" width="40" height="30">
<rect y="5.71387" width="40" height="28.5714" rx="4" fill="white"/>
</mask>
<g mask="url(#mask0_76_1073)">
<rect x="-1.42871" y="5.71387" width="54.2857" height="28.5714" fill="#003893"/>
<path d="M-1.42871 33.8288V33.1431L52.857 9.04785V17.3717L-1.42871 33.8288Z" fill="white"/>
<path d="M-1.42871 33.3709V32.9138L52.857 6.1709V11.7709L-1.42871 33.3709Z" fill="#DD7500"/>
<path d="M9.00357 7.28906L9.53595 16.1462H8.47119L9.00357 7.28906Z" fill="white"/>
<path d="M10.6448 10.0207L9.63125 16.3146L8.37573 15.9782L10.6448 10.0207Z" fill="white"/>
<path d="M12.1742 10.654L9.56614 16.4711L8.44047 15.8212L12.1742 10.654Z" fill="white"/>
<path d="M13.4879 11.6627L9.46315 16.6064L8.54405 15.6873L13.4879 11.6627Z" fill="white"/>
<path d="M14.4954 12.9749L9.32823 16.7086L8.67832 15.5829L14.4954 12.9749Z" fill="white"/>
<path d="M15.1291 14.5047L9.17173 16.7738L8.83531 15.5183L15.1291 14.5047Z" fill="white"/>
<path d="M17.8604 16.1466L9.00321 16.679V15.6143L17.8604 16.1466Z" fill="white"/>
<path d="M15.1292 17.7879L8.83532 16.7743L9.17174 15.5188L15.1292 17.7879Z" fill="white"/>
<path d="M14.4954 19.3167L8.67832 16.7088L9.32823 15.5831L14.4954 19.3167Z" fill="white"/>
<path d="M13.4877 20.6304L8.54389 16.6057L9.463 15.6866L13.4877 20.6304Z" fill="white"/>
<path d="M12.1745 21.6384L8.44078 16.4713L9.56645 15.8214L12.1745 21.6384Z" fill="white"/>
<path d="M10.6447 22.2717L8.37558 16.3144L9.6311 15.9779L10.6447 22.2717Z" fill="white"/>
<path d="M9.00326 25.0029L8.47088 16.1458H9.53564L9.00326 25.0029Z" fill="white"/>
<path d="M7.36199 22.2722L8.37558 15.9784L9.6311 16.3148L7.36199 22.2722Z" fill="white"/>
<path d="M5.83267 21.6379L8.4407 15.8209L9.56637 16.4708L5.83267 21.6379Z" fill="white"/>
<path d="M4.51896 20.6303L8.54368 15.6865L9.46278 16.6056L4.51896 20.6303Z" fill="white"/>
<path d="M3.51147 19.317L8.67861 15.5834L9.32851 16.7091L3.51147 19.317Z" fill="white"/>
<path d="M2.87769 17.7873L8.83511 15.5182L9.17152 16.7737L2.87769 17.7873Z" fill="white"/>
<path d="M0.146484 16.1463L9.00363 15.6139V16.6787L0.146484 16.1463Z" fill="white"/>
<path d="M2.87768 14.5051L9.17151 15.5186L8.8351 16.7742L2.87768 14.5051Z" fill="white"/>
<path d="M3.51148 12.9752L9.32851 15.5833L8.67861 16.7089L3.51148 12.9752Z" fill="white"/>
<path d="M4.51912 11.6625L9.46294 15.6872L8.54384 16.6063L4.51912 11.6625Z" fill="white"/>
<path d="M5.83237 10.6545L9.56606 15.8217L8.44039 16.4716L5.83237 10.6545Z" fill="white"/>
<path d="M7.36213 10.0212L9.63125 15.9787L8.37573 16.3151L7.36213 10.0212Z" fill="white"/>
</g>
</svg>
