<svg width="40" height="40" viewBox="0 0 40 40" fill="none" xmlns="http://www.w3.org/2000/svg">
<rect y="5.71387" width="40" height="28.5714" rx="4" fill="white"/>
<mask id="mask0_76_882" style="mask-type:luminance" maskUnits="userSpaceOnUse" x="0" y="5" width="40" height="30">
<rect y="5.71387" width="40" height="28.5714" rx="4" fill="white"/>
</mask>
<g mask="url(#mask0_76_882)">
<rect x="-8.57129" y="5.71387" width="57.1429" height="28.5714" fill="#CE1126"/>
<path d="M25.4976 19.209C25.6465 19.2309 25.7175 19.2415 25.7973 19.2539C26.6499 19.3867 27.1254 19.554 27.4479 19.9306L27.673 20.1935L27.3387 20.1038C27.0519 20.0267 26.7551 20.1357 26.1832 20.4717L26.1081 20.5159C25.4556 20.9011 25.1333 21.0392 24.803 20.9701C24.7907 20.9828 24.7757 20.9944 24.7579 21.0046C24.7021 21.0363 24.6123 21.0589 24.4819 21.078C24.2538 21.1114 23.8935 21.1336 23.4109 21.1458C22.5666 21.1672 21.3654 21.1574 19.9319 21.1226C18.7843 21.0948 17.5364 21.0517 16.4888 21.0065C16.0554 20.9878 15.6937 20.9702 15.4698 20.9571C15.36 20.9507 15.2867 20.9455 15.2524 20.9417C15.2392 20.9403 15.2392 20.9403 15.2229 20.9371C15.2154 20.9407 15.2133 20.9417 15.1874 20.9127C15.0192 20.8719 14.8328 20.8402 14.5021 20.7915C14.3532 20.7697 14.2822 20.7591 14.2023 20.7467C13.3497 20.6139 12.8742 20.4466 12.5518 20.07L12.3267 19.807L12.6609 19.8968C12.9477 19.9738 13.2446 19.8648 13.8164 19.5289L13.8915 19.4846C14.3318 19.2247 14.6218 19.0773 14.8653 19.0302C14.8295 19.0099 14.7918 18.989 14.752 18.9671C14.6713 18.9228 14.3871 18.77 14.3597 18.7551C13.5385 18.3095 13.1436 17.9938 12.9759 17.5158L12.8656 17.2016L13.1384 17.3925C13.3885 17.5675 13.7015 17.5626 14.406 17.4316L14.4436 17.4246C14.9402 17.332 15.2613 17.2927 15.5042 17.3302C15.4256 17.2405 15.3179 17.1202 15.1585 16.9424C14.5005 16.2086 14.2351 15.7821 14.2489 15.2622L14.2575 14.9374L14.4438 15.2036C14.6199 15.4552 14.9117 15.5543 15.6363 15.6733L15.6631 15.6777C16.1587 15.759 16.4739 15.8321 16.6896 15.952C16.6495 15.8449 16.5967 15.7091 16.5231 15.5212C16.4473 15.3278 16.3997 15.2022 16.3541 15.0721C16.1347 14.4453 16.0743 13.9882 16.2148 13.585L16.3293 13.2565L16.4195 13.5925C16.4997 13.8916 16.7365 14.0809 17.3867 14.4465L17.4046 14.4566C17.8389 14.7009 18.109 14.8776 18.2715 15.0658C18.2695 14.9587 18.2653 14.8302 18.259 14.6655C18.2536 14.5224 18.2511 14.4512 18.2489 14.3673C18.2275 13.5372 18.3147 13.044 18.6404 12.6743L18.8559 12.4297L18.8275 12.7545C18.8006 13.0622 18.9582 13.3195 19.4462 13.886C19.4899 13.9367 19.4899 13.9367 19.5335 13.9876C19.8091 14.31 19.9832 14.5535 20.0653 14.7775C20.0897 14.7108 20.1157 14.6373 20.1442 14.5549C20.1512 14.5347 20.2404 14.2754 20.2673 14.1984C20.5654 13.3472 20.8099 12.9041 21.2233 12.6535L21.525 12.4707L21.376 12.7904C21.2472 13.0667 21.3081 13.3584 21.5744 14.0471L21.5767 14.0531C21.7606 14.5287 21.8582 14.8428 21.8612 15.0947C21.8848 15.066 21.9093 15.0359 21.9351 15.0038C21.9899 14.9357 22.183 14.6919 22.1885 14.6849C22.7825 13.939 23.1599 13.6038 23.665 13.5148L23.9996 13.4558L23.7594 13.696C23.5407 13.9148 23.4933 14.2177 23.4998 14.9549L23.4999 14.9738C23.5044 15.4815 23.4863 15.8053 23.4043 16.0403C23.5049 15.98 23.6361 15.8992 23.8255 15.782C24.2893 15.495 24.5615 15.3484 24.8616 15.2457C25.1472 15.1479 25.4108 15.116 25.6619 15.1595L25.9988 15.2178L25.6889 15.3622C25.4077 15.4932 25.2598 15.7616 25.0117 16.4615L25.0038 16.4837C24.8365 16.9556 24.709 17.2517 24.5523 17.4436C24.6622 17.4229 24.7976 17.3954 24.9787 17.3578C25.1419 17.3239 25.2409 17.304 25.3465 17.2845C26.0796 17.1491 26.5669 17.1583 26.975 17.3868L27.2785 17.5567L26.932 17.587C26.6248 17.6139 26.4016 17.8114 25.9325 18.3869L25.9285 18.3919C25.6046 18.7893 25.3804 19.029 25.1614 19.157C25.2557 19.1727 25.365 19.1895 25.4976 19.209Z" fill="#BD9C08"/>
<path d="M25.7645 19.4657C25.6856 19.4534 25.6154 19.443 25.4665 19.4211C25.0741 19.3633 24.8793 19.3288 24.6761 19.2743L23.8909 19.0637H24.7038C25.0336 19.0637 25.2678 18.8637 25.7626 18.2566L25.7666 18.2516C26.1223 17.8152 26.3503 17.5768 26.5884 17.461C26.2821 17.3809 25.9021 17.3999 25.3856 17.4954C25.282 17.5145 25.1842 17.5341 25.0225 17.5677C24.5336 17.6691 24.3711 17.6988 24.1455 17.7185L23.3465 17.7884L24.0992 17.5113C24.3943 17.4026 24.5451 17.137 24.802 16.4122L24.8099 16.39C24.9988 15.8573 25.1357 15.5521 25.3235 15.3602C25.1993 15.3716 25.069 15.4013 24.9312 15.4485C24.6509 15.5444 24.389 15.6855 23.9385 15.9643C23.4196 16.2854 23.3294 16.3387 23.1158 16.4384L22.3953 16.7745L23.0011 16.2597C23.2428 16.0543 23.2927 15.7545 23.2859 14.9757L23.2857 14.9569C23.2807 14.3932 23.3053 14.0601 23.4173 13.8156C23.0988 13.9633 22.7907 14.273 22.3563 14.8185C22.3512 14.8248 22.1577 15.0694 22.1022 15.1383C22.0057 15.2582 21.9259 15.3534 21.849 15.4392C21.8008 15.493 21.7544 15.5422 21.7091 15.5876L21.032 16.2645L21.5427 15.4546C21.7194 15.1745 21.6637 14.8718 21.377 14.1305L21.3747 14.1244C21.1746 13.6069 21.0805 13.2925 21.0958 13.0312C20.8655 13.2755 20.6831 13.66 20.4698 14.2693C20.443 14.3456 20.3541 14.6044 20.3469 14.6252C20.2461 14.9159 20.1759 15.1001 20.0971 15.2692L19.734 16.0482L19.8948 15.2039C19.9512 14.9073 19.7986 14.6274 19.3708 14.1269C19.3276 14.0765 19.3276 14.0765 19.284 14.0259C18.9067 13.588 18.7098 13.3176 18.64 13.057C18.4917 13.3561 18.4479 13.7617 18.4633 14.3619C18.4655 14.4446 18.4679 14.5152 18.4734 14.6574C18.4908 15.1147 18.4927 15.3005 18.4734 15.5211L18.4018 16.3402L18.2611 15.5301C18.2067 15.2165 17.9698 15.0203 17.2998 14.6435L17.2818 14.6334C16.7904 14.357 16.5142 14.1715 16.3574 13.9562C16.3381 14.2405 16.4077 14.5762 16.5566 15.0013C16.6011 15.1284 16.6479 15.2519 16.7228 15.4431C16.926 15.9618 16.9734 16.0904 17.0331 16.3137L17.2613 17.1683L16.8356 16.3929C16.6844 16.1174 16.3975 16.0154 15.6286 15.8892L15.6018 15.8848C15.0404 15.7926 14.7151 15.7104 14.4935 15.5547C14.5765 15.8982 14.8327 16.258 15.3183 16.7994C15.7716 17.305 15.8137 17.3537 15.9516 17.5503L16.4494 18.2607L15.7937 17.6928C15.5576 17.4883 15.256 17.4913 14.483 17.6353L14.4454 17.6423C13.904 17.743 13.5718 17.7752 13.3115 17.7068C13.5076 17.9926 13.8622 18.2413 14.4621 18.5669C14.4887 18.5813 14.7736 18.7345 14.8553 18.7793C15.0681 18.8962 15.2229 18.9887 15.3576 19.0831L16.0357 19.5576L15.2591 19.2714C14.9623 19.162 14.6799 19.2683 14.0006 19.6692L13.9251 19.7137C13.4914 19.9685 13.1985 20.1051 12.9375 20.1315C13.2167 20.3257 13.6187 20.439 14.2355 20.535C14.3145 20.5473 14.3847 20.5578 14.5335 20.5796C14.9259 20.6374 15.1207 20.6719 15.324 20.7264L15.3575 20.7354C15.3911 20.7377 15.433 20.7403 15.4825 20.7432C15.7052 20.7563 16.0659 20.7738 16.4982 20.7925C17.5445 20.8377 18.7911 20.8807 19.9373 20.9085C21.3676 20.9432 22.5657 20.953 23.4057 20.9317C23.8803 20.9197 24.2336 20.8979 24.4511 20.8661C24.4867 20.8609 24.5183 20.8554 24.5455 20.8498L23.9643 20.4431L24.7409 20.7294C25.0377 20.8388 25.3201 20.7325 25.9994 20.3315L26.0749 20.287C26.5086 20.0322 26.8016 19.8956 27.0625 19.8693C26.7833 19.675 26.3814 19.5618 25.7645 19.4657Z" fill="#FCD116"/>
<path d="M15.7511 19.9999L12.9852 18.8696C12.8786 18.826 12.9064 18.6678 13.0216 18.6633L16.0073 18.5469L13.7947 16.5383C13.7094 16.4608 13.7897 16.3217 13.8994 16.3569L16.745 17.2693L15.3528 14.6252C15.2992 14.5233 15.4222 14.4201 15.5132 14.4906L17.8756 16.3204L17.472 13.3602C17.4564 13.246 17.6073 13.1911 17.6687 13.2886L19.2623 15.8162L19.8953 12.896C19.9197 12.7834 20.0803 12.7834 20.1047 12.896L20.7378 15.8162L22.3313 13.2886C22.3927 13.1911 22.5436 13.246 22.5281 13.3602L22.1244 16.3204L24.4858 14.4906C24.5769 14.4201 24.6999 14.5233 24.6463 14.6252L23.255 17.2693L26.0997 16.3569C26.2094 16.3217 26.2897 16.4608 26.2044 16.5383L23.9927 18.5469L26.9775 18.6633C27.0926 18.6678 27.1205 18.826 27.0139 18.8696L24.2489 19.9999L27.0139 21.1303C27.1227 21.1747 27.0909 21.3366 26.9734 21.3366H13.0257C12.9082 21.3366 12.8764 21.1747 12.9852 21.1302L15.7511 19.9999Z" fill="#BD9C08"/>
<path d="M16.075 19.9011C16.1638 19.9374 16.1638 20.0632 16.075 20.0995L13.5713 21.1227H26.4283L23.9253 20.0995C23.8365 20.0632 23.8365 19.9374 23.9253 19.9011L26.4756 18.8586L23.7226 18.7512C23.6268 18.7474 23.5838 18.6293 23.6548 18.5648L25.6946 16.7123L23.071 17.5538C22.9796 17.5831 22.8988 17.4867 22.9434 17.4018L24.2267 14.963L22.0486 16.6507C21.9728 16.7095 21.8639 16.6466 21.8769 16.5515L22.2491 13.8213L20.7794 16.1527C20.7282 16.2338 20.6043 16.212 20.584 16.1182L20.0002 13.4248L19.4163 16.1182C19.396 16.212 19.2721 16.2338 19.2209 16.1527L17.7512 13.8213L18.1235 16.5515C18.1364 16.6466 18.0275 16.7095 17.9517 16.6507L15.7728 14.963L17.0569 17.4018C17.1016 17.4867 17.0207 17.583 16.9293 17.5538L14.3049 16.7123L16.3455 18.5648C16.4165 18.6293 16.3735 18.7474 16.2777 18.7512L13.5239 18.8586L16.075 19.9011Z" fill="#FCD116"/>
<path d="M20.0001 24.0461C22.2346 24.0461 24.0461 22.2346 24.0461 20.0001C24.0461 17.7656 22.2346 15.9541 20.0001 15.9541C17.7656 15.9541 15.9541 17.7656 15.9541 20.0001C15.9541 22.2346 17.7656 24.0461 20.0001 24.0461Z" fill="#BD9C08"/>
<path d="M20.0002 23.8314C17.884 23.8314 16.1685 22.1159 16.1685 19.9997C16.1685 17.8835 17.884 16.168 20.0002 16.168C22.1164 16.168 23.8319 17.8835 23.8319 19.9997C23.8319 22.1159 22.1164 23.8314 20.0002 23.8314Z" fill="#BD9C08"/>
<path d="M21.2954 10.4632L23.4078 10.4772C23.4211 10.3879 23.2268 10.2101 23.0602 10.1841C22.5259 10.1001 22.1249 10.2732 21.4754 10.2799L21.2954 10.4632H21.2954Z" fill="#FCD116" stroke="#BD9C08" stroke-width="0.2"/>
<path d="M17.0883 9.96558C17.5845 10.5922 18.5464 11.0278 19.4645 11.0335C20.7026 11.0411 22.076 10.0391 23.736 9.73235L18.316 9.62073C17.6141 9.14025 17.0817 9.2012 16.7188 9.49911L15.6826 9.53044C15.536 9.61035 15.8036 9.94406 16.0207 9.95625L17.0883 9.96558Z" fill="#FCD116" stroke="#BD9C08" stroke-width="0.2"/>
<path d="M19.5389 9.60633C19.3418 8.69985 18.6141 8.30918 17.7399 8.19328C16.7294 8.05937 14.4046 7.92213 12.8599 7.47852C13.5284 8.13575 14.9275 8.46385 15.8999 8.61223C16.9294 8.76937 17.9313 8.99833 18.7256 9.59804L19.5389 9.60633Z" fill="#FCD116" stroke="#BD9C08" stroke-width="0.2"/>
<path d="M18.8828 10.2116C19.2057 10.6262 19.7066 10.6028 20.2457 10.241C20.7828 9.88043 21.3666 8.8651 21.6485 8.84843C23.619 8.73396 26.0028 7.90215 27.14 7.25977C25.6981 7.46386 24.2695 7.69529 22.8152 7.701C20.3342 7.71091 20.0409 8.84081 19.0295 9.633" fill="#FCD116"/>
<path d="M18.8828 10.2116C19.2057 10.6262 19.7066 10.6028 20.2457 10.241C20.7828 9.88043 21.3666 8.8651 21.6485 8.84843C23.619 8.73396 26.0028 7.90215 27.14 7.25977C25.6981 7.46386 24.2695 7.69529 22.8152 7.701C20.3342 7.71091 20.0409 8.84081 19.0295 9.633" stroke="#BD9C08" stroke-width="0.2" stroke-linecap="round"/>
<path d="M19.3061 9.78391C19.5688 9.61652 19.7655 9.46148 20.1753 9.11467L20.1955 9.09749C20.4679 8.86692 20.5997 8.75909 20.7636 8.63762C21.436 8.13919 22.0485 8.03149 23.5058 8.01348C23.9073 8.00855 24.4598 7.93327 25.1458 7.80042C25.3659 7.75778 25.5968 7.70978 25.8423 7.65604C26.1487 7.58899 26.3006 7.55391 26.8583 7.42322C26.8967 7.41422 26.9206 7.37578 26.9116 7.33737C26.9026 7.29897 26.8641 7.27513 26.8257 7.28413C26.2688 7.41464 26.1172 7.44964 25.8118 7.51649C25.5673 7.56999 25.3375 7.61776 25.1186 7.66017C24.4404 7.79152 23.895 7.86583 23.504 7.87063C22.0176 7.889 21.3831 8.00057 20.6785 8.52286C20.5114 8.64674 20.3779 8.75594 20.1033 8.98845L20.083 9.00563C19.6781 9.34835 19.4849 9.5006 19.2293 9.66343C19.1961 9.68463 19.1863 9.72878 19.2075 9.76205C19.2287 9.79532 19.2728 9.80511 19.3061 9.78391Z" fill="#BD9C08"/>
<path d="M18.7874 9.55187C18.6431 8.79843 18.0589 8.47814 16.8556 8.29526C16.6276 8.26062 16.4377 8.2344 16.0358 8.18082C15.6983 8.13582 15.5621 8.11731 15.3814 8.09127C14.7128 7.99492 14.2057 7.89804 13.7172 7.76303C13.58 7.72517 13.4693 7.68148 13.235 7.57907L13.2266 7.57536C13.1033 7.52148 13.0473 7.49756 12.9768 7.46973L12.9243 7.60259C12.9926 7.62959 13.0477 7.65306 13.1693 7.70625L13.1778 7.70996C13.4182 7.81507 13.5333 7.86048 13.6792 7.90073C14.1745 8.03761 14.687 8.13553 15.361 8.23267C15.5424 8.2588 15.6789 8.27736 16.0169 8.32242C16.4179 8.37589 16.6072 8.40203 16.8341 8.43649C17.9834 8.61116 18.5179 8.90422 18.6471 9.57874L18.7874 9.55187Z" fill="#BD9C08"/>
<path d="M19.0442 10.8312C19.9177 10.8952 20.5726 10.7082 21.6223 10.1852C21.6576 10.1676 21.6719 10.1247 21.6543 10.0894C21.6367 10.0541 21.5939 10.0397 21.5586 10.0573C20.5298 10.57 19.8974 10.7505 19.0547 10.6887C19.0153 10.6858 18.9811 10.7153 18.9782 10.7547C18.9753 10.794 19.0049 10.8283 19.0442 10.8312Z" fill="#BD9C08"/>
<path d="M15.6789 9.7733H16.9131C16.9526 9.7733 16.9846 9.74132 16.9846 9.70187C16.9846 9.66242 16.9526 9.63044 16.9131 9.63044H15.6789C15.6394 9.63044 15.6074 9.66242 15.6074 9.70187C15.6074 9.74132 15.6394 9.7733 15.6789 9.7733Z" fill="#BD9C08"/>
<ellipse cx="17.3096" cy="9.56542" rx="0.154285" ry="0.154285" fill="#BD9C08"/>
<rect x="-8.57129" y="21.4287" width="57.1429" height="12.8571" fill="#003F87"/>
<path d="M-8.57129 30.204C-6.66653 30.204 -4.76177 31.4288 -2.857 31.4288C-0.95224 31.4288 0.952521 30.204 2.85728 30.204C4.76205 30.204 6.66681 31.4288 8.57157 31.4288C10.4763 31.4288 12.3811 30.204 14.2859 30.204C16.1906 30.204 18.0954 31.4288 20.0001 31.4288C21.9049 31.4288 23.8097 30.204 25.7144 30.204C27.6192 30.204 29.524 31.4288 31.4287 31.4288C33.3335 31.4288 35.2382 30.204 37.143 30.204C39.0478 30.204 40.9525 31.4288 42.8573 31.4288C44.7621 31.4288 46.6668 30.204 48.5716 30.204V28.1631C46.6668 28.1631 44.7621 29.3878 42.8573 29.3878C40.9525 29.3878 39.0478 28.1631 37.143 28.1631C35.2382 28.1631 33.3335 29.3878 31.4287 29.3878C29.524 29.3878 27.6192 28.1631 25.7144 28.1631C23.8097 28.1631 21.9049 29.3878 20.0001 29.3878C18.0954 29.3878 16.1906 28.1631 14.2859 28.1631C12.3811 28.1631 10.4763 29.3878 8.57157 29.3878C6.66681 29.3878 4.76205 28.1631 2.85728 28.1631C0.952521 28.1631 -0.95224 29.3878 -2.857 29.3878C-4.76177 29.3878 -6.66653 28.1631 -8.57129 28.1631V30.204Z" fill="white"/>
<path d="M-8.57129 26.122C-6.66653 26.122 -4.76177 27.3468 -2.857 27.3468C-0.95224 27.3468 0.952521 26.122 2.85728 26.122C4.76205 26.122 6.66681 27.3468 8.57157 27.3468C10.4763 27.3468 12.3811 26.122 14.2859 26.122C16.1906 26.122 18.0954 27.3468 20.0001 27.3468C21.9049 27.3468 23.8097 26.122 25.7144 26.122C27.6192 26.122 29.524 27.3468 31.4287 27.3468C33.3335 27.3468 35.2382 26.122 37.143 26.122C39.0478 26.122 40.9525 27.3468 42.8573 27.3468C44.7621 27.3468 46.6668 26.122 48.5716 26.122V24.0811C46.6668 24.0811 44.7621 25.3058 42.8573 25.3058C40.9525 25.3058 39.0478 24.0811 37.143 24.0811C35.2382 24.0811 33.3335 25.3058 31.4287 25.3058C29.524 25.3058 27.6192 24.0811 25.7144 24.0811C23.8097 24.0811 21.9049 25.3058 20.0001 25.3058C18.0954 25.3058 16.1906 24.0811 14.2859 24.0811C12.3811 24.0811 10.4763 25.3058 8.57157 25.3058C6.66681 25.3058 4.76205 24.0811 2.85728 24.0811C0.952521 24.0811 -0.95224 25.3058 -2.857 25.3058C-4.76177 25.3058 -6.66653 24.0811 -8.57129 24.0811V26.122Z" fill="white"/>
<path d="M-8.57129 22.041C-6.66653 22.041 -4.76177 23.2657 -2.857 23.2657C-0.95224 23.2657 0.952521 22.041 2.85728 22.041C4.76205 22.041 6.66681 23.2657 8.57157 23.2657C10.4763 23.2657 12.3811 22.041 14.2859 22.041C16.1906 22.041 18.0954 23.2657 20.0001 23.2657C21.9049 23.2657 23.8097 22.041 25.7144 22.041C27.6192 22.041 29.524 23.2657 31.4287 23.2657C33.3335 23.2657 35.2382 22.041 37.143 22.041C39.0478 22.041 40.9525 23.2657 42.8573 23.2657C44.7621 23.2657 46.6668 22.041 48.5716 22.041V20C46.6668 20 44.7621 21.2248 42.8573 21.2248C40.9525 21.2248 39.0478 20 37.143 20C35.2382 20 33.3335 21.2248 31.4287 21.2248C29.524 21.2248 27.6192 20 25.7144 20C23.8097 20 21.9049 21.2248 20.0001 21.2248C18.0954 21.2248 16.1906 20 14.2859 20C12.3811 20 10.4763 21.2248 8.57157 21.2248C6.66681 21.2248 4.76205 20 2.85728 20C0.952521 20 -0.95224 21.2248 -2.857 21.2248C-4.76177 21.2248 -6.66653 20 -8.57129 20V22.041Z" fill="white"/>
</g>
</svg>
