<svg width="40" height="40" viewBox="0 0 40 40" fill="none" xmlns="http://www.w3.org/2000/svg">
<rect x="0.5" y="6.21387" width="39" height="27.5714" rx="3.5" fill="white" stroke="#F5F5F5"/>
<mask id="mask0_76_777" style="mask-type:luminance" maskUnits="userSpaceOnUse" x="0" y="5" width="40" height="30">
<rect x="0.5" y="6.21387" width="39" height="27.5714" rx="3.5" fill="white" stroke="white"/>
</mask>
<g mask="url(#mask0_76_777)">
<path fill-rule="evenodd" clip-rule="evenodd" d="M0 15.2377H40V5.71387H0V15.2377Z" fill="#DF1E35"/>
<path fill-rule="evenodd" clip-rule="evenodd" d="M0 34.2855H40V24.7617H0V34.2855Z" fill="#262626"/>
<path fill-rule="evenodd" clip-rule="evenodd" d="M26.6665 18.2213C26.6665 17.7257 27.188 17.4033 27.6313 17.625L28.2027 17.9107C28.4286 18.0236 28.5713 18.2545 28.5713 18.507V22.1902C28.5713 22.5584 28.2728 22.8569 27.9046 22.8569H27.3332C26.965 22.8569 26.6665 22.5584 26.6665 22.1902V18.2213Z" fill="#0F7A40"/>
<path fill-rule="evenodd" clip-rule="evenodd" d="M15.2383 18.2213C15.2383 17.7257 15.7598 17.4033 16.2031 17.625L16.7745 17.9107C17.0004 18.0236 17.143 18.2545 17.143 18.507V22.1902C17.143 22.5584 16.8446 22.8569 16.4764 22.8569H15.9049C15.5368 22.8569 15.2383 22.5584 15.2383 22.1902V18.2213Z" fill="#0F7A40"/>
<path fill-rule="evenodd" clip-rule="evenodd" d="M22.8569 18.507C22.8569 18.2545 22.9996 18.0236 23.2255 17.9107L23.7969 17.625C24.2402 17.4033 24.7617 17.7257 24.7617 18.2213V22.1902C24.7617 22.5584 24.4632 22.8569 24.095 22.8569H23.5236C23.1554 22.8569 22.8569 22.5584 22.8569 22.1902V18.507Z" fill="#0F7A40"/>
<path fill-rule="evenodd" clip-rule="evenodd" d="M19.0479 20.4124C19.0479 20.1599 19.1905 19.9291 19.4164 19.8162L19.9878 19.5304C20.4311 19.3088 20.9526 19.6311 20.9526 20.1267V21.0381H23.8098V22.8576H20.9526H19.7145C19.3463 22.8576 19.0479 22.5591 19.0479 22.1909V20.4124Z" fill="#0F7A40"/>
<path fill-rule="evenodd" clip-rule="evenodd" d="M11.4287 20.4124C11.4287 20.1599 11.5714 19.9291 11.7972 19.8162L12.3687 19.5304C12.8119 19.3088 13.3335 19.6311 13.3335 20.1267V21.0381H16.1906V22.8576H13.3335H12.0954C11.7272 22.8576 11.4287 22.5591 11.4287 22.1909V20.4124Z" fill="#0F7A40"/>
</g>
</svg>
