<svg width="40" height="40" viewBox="0 0 40 40" fill="none" xmlns="http://www.w3.org/2000/svg">
<rect y="5.71484" width="40" height="28.5714" rx="4" fill="white"/>
<mask id="mask0_76_2035" style="mask-type:luminance" maskUnits="userSpaceOnUse" x="0" y="5" width="40" height="30">
<rect y="5.71484" width="40" height="28.5714" rx="4" fill="white"/>
</mask>
<g mask="url(#mask0_76_2035)">
<path fill-rule="evenodd" clip-rule="evenodd" d="M0 9.52437H40V5.71484H0V9.52437Z" fill="#262626"/>
<path fill-rule="evenodd" clip-rule="evenodd" d="M0 24.7626H40V20.9531H0V24.7626Z" fill="#262626"/>
<path fill-rule="evenodd" clip-rule="evenodd" d="M0 20.9526H40V15.2383H0V20.9526Z" fill="#ED1623"/>
<path fill-rule="evenodd" clip-rule="evenodd" d="M0 15.2377H40V9.52344H0V15.2377Z" fill="#FEE044"/>
<path fill-rule="evenodd" clip-rule="evenodd" d="M0 34.2861H40V30.4766H0V34.2861Z" fill="#ED1623"/>
<path fill-rule="evenodd" clip-rule="evenodd" d="M0 30.476H40V24.7617H0V30.476Z" fill="#FEE044"/>
<ellipse cx="20.0002" cy="20.0007" rx="6.66667" ry="6.66667" fill="white"/>
<path fill-rule="evenodd" clip-rule="evenodd" d="M18.5669 16.6622C18.3065 16.4019 18.3065 15.9798 18.5669 15.7194L19.0096 15.2767C19.035 15.2512 19.0582 15.224 19.0801 15.1954C19.116 15.1487 19.1795 15.0693 19.2579 14.9844C19.5527 14.6654 20.5799 14.7315 20.8414 15.0782C20.9675 15.2455 20.8956 15.3523 20.802 15.5397L20.0706 17.0024C20.0243 17.095 20.0002 17.1971 20.0002 17.3006V17.6836C20.0002 17.9361 20.1429 18.1669 20.3687 18.2798L21.8082 18.9996C21.8723 19.0316 21.9308 19.0738 21.9815 19.1245L23.47 20.6129C23.6729 20.8159 23.7232 21.1258 23.5948 21.3825L23.2074 22.1574C23.0352 22.5018 22.5762 22.5763 22.3039 22.304C22.0836 22.0837 21.7264 22.0837 21.5061 22.304L21.1479 22.6622C21.0228 22.7872 20.9526 22.9568 20.9526 23.1336V23.6126C20.9526 23.7389 21.0028 23.86 21.0921 23.9493C21.392 24.2493 21.1796 24.7622 20.7553 24.7622H20.1975C19.7732 24.7622 19.5608 24.2493 19.8607 23.9493C19.95 23.86 20.0002 23.7389 20.0002 23.6126V23.5241C20.0002 23.156 19.7017 22.8575 19.3335 22.8575H19.324C19.1472 22.8575 18.9776 22.9277 18.8526 23.0527L18.5669 23.3385C18.3065 23.5988 17.8844 23.5988 17.624 23.3385L17.6145 23.3289C17.3541 23.0685 17.3541 22.6464 17.6145 22.3861L17.9002 22.1004C18.0252 21.9753 18.1948 21.9051 18.3716 21.9051H18.3907C18.9847 21.9051 19.2821 21.187 18.8621 20.767L17.6145 19.5194C17.3541 19.259 17.3541 18.8369 17.6145 18.5765L18.5764 17.6146C18.8368 17.3542 18.8368 16.9321 18.5764 16.6718L18.5669 16.6622Z" fill="#262626"/>
</g>
</svg>
