<svg width="40" height="40" viewBox="0 0 40 40" fill="none" xmlns="http://www.w3.org/2000/svg">
<rect x="0.5" y="6.21484" width="39" height="27.5714" rx="3.5" fill="white" stroke="#F5F5F5"/>
<mask id="mask0_76_1494" style="mask-type:luminance" maskUnits="userSpaceOnUse" x="0" y="5" width="40" height="30">
<rect x="0.5" y="6.21484" width="39" height="27.5714" rx="3.5" fill="white" stroke="white"/>
</mask>
<g mask="url(#mask0_76_1494)">
<path fill-rule="evenodd" clip-rule="evenodd" d="M0 24.7621H40V15.2383H0V24.7621Z" fill="#17508F"/>
<path fill-rule="evenodd" clip-rule="evenodd" d="M0 15.2387H40V5.71484H0V15.2387Z" fill="#E1444D"/>
<path fill-rule="evenodd" clip-rule="evenodd" d="M8.57129 20.0002C8.57129 19.1533 8.98594 17.3508 9.26804 16.2225C9.41375 15.6396 9.94024 15.2383 10.541 15.2383H14.223C14.8226 15.2383 15.3485 15.6383 15.4947 16.2198C15.7768 17.3417 16.1903 19.1342 16.1903 20.0002C16.1903 21.0322 15.5183 23.6907 15.3033 24.5148C15.2605 24.6788 15.1868 24.8312 15.0775 24.9608C14.6656 25.4488 13.5232 26.6669 12.3808 26.6669C11.2375 26.6669 10.0942 25.4469 9.68321 24.9596C9.57455 24.8308 9.50112 24.6794 9.45827 24.5164C9.24317 23.6982 8.57129 21.0578 8.57129 20.0002Z" fill="white"/>
</g>
<mask id="mask1_76_1494" style="mask-type:luminance" maskUnits="userSpaceOnUse" x="8" y="15" width="9" height="12">
<path fill-rule="evenodd" clip-rule="evenodd" d="M8.57129 20.0002C8.57129 19.1533 8.98594 17.3508 9.26804 16.2225C9.41375 15.6396 9.94024 15.2383 10.541 15.2383H14.223C14.8226 15.2383 15.3485 15.6383 15.4947 16.2198C15.7768 17.3417 16.1903 19.1342 16.1903 20.0002C16.1903 21.0322 15.5183 23.6907 15.3033 24.5148C15.2605 24.6788 15.1868 24.8312 15.0775 24.9608C14.6656 25.4488 13.5232 26.6669 12.3808 26.6669C11.2375 26.6669 10.0942 25.4469 9.68321 24.9596C9.57455 24.8308 9.50112 24.6794 9.45827 24.5164C9.24317 23.6982 8.57129 21.0578 8.57129 20.0002Z" fill="white"/>
</mask>
<g mask="url(#mask1_76_1494)">
<path d="M16.1906 16.1907L8.57152 25.7145" stroke="#E1444D" stroke-width="2.66667" stroke-linecap="square"/>
<path d="M8.57164 16.1907L16.1907 25.7145" stroke="#E1444D" stroke-width="2.66667" stroke-linecap="square"/>
</g>
</svg>
