<svg width="40" height="40" viewBox="0 0 40 40" fill="none" xmlns="http://www.w3.org/2000/svg">
<rect y="5.71484" width="40" height="28.5714" rx="4" fill="white"/>
<mask id="mask0_76_1330" style="mask-type:luminance" maskUnits="userSpaceOnUse" x="0" y="5" width="40" height="30">
<rect y="5.71484" width="40" height="28.5714" rx="4" fill="white"/>
</mask>
<g mask="url(#mask0_76_1330)">
<rect y="5.71484" width="40" height="28.5714" fill="#262626"/>
<path fill-rule="evenodd" clip-rule="evenodd" d="M0 5.71484H40V34.2863L0 5.71484Z" fill="#E8283F"/>
<path fill-rule="evenodd" clip-rule="evenodd" d="M9.5239 29.5232L8.17703 29.9176L8.57152 28.5708L8.17703 27.2239L9.5239 27.6184L10.8708 27.2239L10.4763 28.5708L10.8708 29.9176L9.5239 29.5232Z" fill="white"/>
<path fill-rule="evenodd" clip-rule="evenodd" d="M9.5239 18.0954L8.17703 18.4899L8.57152 17.143L8.17703 15.7962L9.5239 16.1907L10.8708 15.7962L10.4763 17.143L10.8708 18.4899L9.5239 18.0954Z" fill="white"/>
<path fill-rule="evenodd" clip-rule="evenodd" d="M4.7617 22.8571L3.41483 23.2516L3.80931 21.9048L3.41483 20.5579L4.7617 20.9524L6.10857 20.5579L5.71408 21.9048L6.10857 23.2516L4.7617 22.8571Z" fill="white"/>
<path fill-rule="evenodd" clip-rule="evenodd" d="M13.3335 21.904L11.9866 22.2985L12.3811 20.9516L11.9866 19.6048L13.3335 19.9993L14.6803 19.6048L14.2859 20.9516L14.6803 22.2985L13.3335 21.904Z" fill="white"/>
<path fill-rule="evenodd" clip-rule="evenodd" d="M26.9447 18.9504C26.7167 18.8136 26.5318 18.4913 26.5318 18.2335L26.5318 16.4782C26.5318 16.219 26.3454 16.0711 26.0632 16.1652L24.9801 16.5262C24.7213 16.6125 24.3251 16.6203 24.0429 16.5262L22.9598 16.1652C22.701 16.0789 22.6722 15.9004 22.9041 15.7612L25.4455 14.2364C25.6735 14.0996 25.7962 13.8022 25.7022 13.5201L25.3411 12.4369C25.2549 12.1782 25.3714 12.0305 25.6535 12.1246L26.7367 12.4856C26.9955 12.5719 27.3139 12.4608 27.453 12.2289L28.9778 9.6875C29.1146 9.45948 29.2877 9.46107 29.3817 9.7432L29.7428 10.8264C29.8291 11.0851 29.8368 11.4814 29.7428 11.7635L29.3817 12.8467C29.2955 13.1054 29.4369 13.3152 29.6948 13.3152H31.4501C31.7092 13.3152 32.0279 13.4963 32.167 13.7281L33.6919 16.2695C33.8287 16.4976 33.7187 16.7266 33.4714 16.776L31.0406 17.2622C30.782 17.3139 30.5282 17.5768 30.4788 17.824L29.9926 20.2548C29.9409 20.5134 29.718 20.6144 29.4861 20.4753L26.9447 18.9504Z" fill="#FFD84E"/>
</g>
</svg>
