<svg width="40" height="40" viewBox="0 0 40 40" fill="none" xmlns="http://www.w3.org/2000/svg">
<rect x="0.5" y="6.21387" width="39" height="27.5714" rx="3.5" fill="white" stroke="#F5F5F5"/>
<mask id="mask0_76_385" style="mask-type:luminance" maskUnits="userSpaceOnUse" x="0" y="5" width="40" height="30">
<rect x="0.5" y="6.21387" width="39" height="27.5714" rx="3.5" fill="white" stroke="white"/>
</mask>
<g mask="url(#mask0_76_385)">
<path fill-rule="evenodd" clip-rule="evenodd" d="M0 15.2377H40V5.71387H0V15.2377Z" fill="#FF202D"/>
<path opacity="0.5" fill-rule="evenodd" clip-rule="evenodd" d="M15.2383 13.3332L16.1907 12.3809L17.143 13.3332V15.238H15.2383V13.3332Z" fill="#1895DB"/>
<path opacity="0.5" fill-rule="evenodd" clip-rule="evenodd" d="M19.0479 13.3332L20.0002 12.3809L20.9526 13.3332V15.238H19.0479V13.3332Z" fill="#1895DB"/>
<path opacity="0.5" fill-rule="evenodd" clip-rule="evenodd" d="M22.8569 13.3332L23.8093 12.3809L24.7617 13.3332V15.238H22.8569V13.3332Z" fill="#1895DB"/>
<path opacity="0.5" fill-rule="evenodd" clip-rule="evenodd" d="M17.1431 13.3332L18.0954 12.3809L19.0478 13.3332V15.238H17.1431V13.3332Z" fill="#191F94"/>
<path opacity="0.5" fill-rule="evenodd" clip-rule="evenodd" d="M20.9521 13.3332L21.9045 12.3809L22.8569 13.3332V15.238H20.9521V13.3332Z" fill="#191F94"/>
<path fill-rule="evenodd" clip-rule="evenodd" d="M0 34.2855H40V24.7617H0V34.2855Z" fill="#2027AC"/>
<rect x="19.0479" y="15.2383" width="1.90476" height="1.90476" fill="url(#paint0_linear_76_385)"/>
<path fill-rule="evenodd" clip-rule="evenodd" d="M22.8569 15.2383H23.8093L24.7617 17.143H22.8569V15.2383Z" fill="url(#paint1_linear_76_385)"/>
<path fill-rule="evenodd" clip-rule="evenodd" d="M16.1907 15.2383H17.143V17.143H15.2383L16.1907 15.2383Z" fill="url(#paint2_linear_76_385)"/>
<rect x="17.1431" y="17.1426" width="1.90476" height="1.90476" fill="url(#paint3_linear_76_385)"/>
<rect x="20.9521" y="17.1426" width="1.90476" height="1.90476" fill="url(#paint4_linear_76_385)"/>
<rect x="19.0479" y="19.0479" width="1.90476" height="1.90476" fill="url(#paint5_linear_76_385)"/>
<rect x="22.8569" y="19.0479" width="1.90476" height="1.90476" fill="url(#paint6_linear_76_385)"/>
<rect x="20.9521" y="20.9521" width="1.90476" height="1.90476" fill="url(#paint7_linear_76_385)"/>
<rect x="15.2383" y="19.0479" width="1.90476" height="1.90476" fill="url(#paint8_linear_76_385)"/>
<rect x="17.1431" y="20.9521" width="1.90476" height="1.90476" fill="url(#paint9_linear_76_385)"/>
<rect x="15.2383" y="22.8574" width="1.90476" height="1.90476" fill="url(#paint10_linear_76_385)"/>
<rect x="19.0479" y="22.8574" width="1.90476" height="1.90476" fill="url(#paint11_linear_76_385)"/>
<rect x="22.8569" y="22.8574" width="1.90476" height="1.90476" fill="url(#paint12_linear_76_385)"/>
<rect x="20.9521" y="24.7617" width="1.90476" height="1.90476" fill="url(#paint13_linear_76_385)"/>
<rect x="17.1431" y="24.7617" width="1.90476" height="1.90476" fill="url(#paint14_linear_76_385)"/>
</g>
<defs>
<linearGradient id="paint0_linear_76_385" x1="19.0479" y1="15.2383" x2="19.0479" y2="17.143" gradientUnits="userSpaceOnUse">
<stop stop-color="#FF212E"/>
<stop offset="1" stop-color="#FD0D1B"/>
</linearGradient>
<linearGradient id="paint1_linear_76_385" x1="22.8569" y1="15.2383" x2="22.8569" y2="17.143" gradientUnits="userSpaceOnUse">
<stop stop-color="#FF212E"/>
<stop offset="1" stop-color="#FD0D1B"/>
</linearGradient>
<linearGradient id="paint2_linear_76_385" x1="15.2383" y1="15.2383" x2="15.2383" y2="17.143" gradientUnits="userSpaceOnUse">
<stop stop-color="#FF212E"/>
<stop offset="1" stop-color="#FD0D1B"/>
</linearGradient>
<linearGradient id="paint3_linear_76_385" x1="17.1431" y1="17.1426" x2="17.1431" y2="19.0473" gradientUnits="userSpaceOnUse">
<stop stop-color="#FF212E"/>
<stop offset="1" stop-color="#FD0D1B"/>
</linearGradient>
<linearGradient id="paint4_linear_76_385" x1="20.9521" y1="17.1426" x2="20.9521" y2="19.0473" gradientUnits="userSpaceOnUse">
<stop stop-color="#FF212E"/>
<stop offset="1" stop-color="#FD0D1B"/>
</linearGradient>
<linearGradient id="paint5_linear_76_385" x1="19.0479" y1="19.0479" x2="19.0479" y2="20.9526" gradientUnits="userSpaceOnUse">
<stop stop-color="#FF212E"/>
<stop offset="1" stop-color="#FD0D1B"/>
</linearGradient>
<linearGradient id="paint6_linear_76_385" x1="22.8569" y1="19.0479" x2="22.8569" y2="20.9526" gradientUnits="userSpaceOnUse">
<stop stop-color="#FF212E"/>
<stop offset="1" stop-color="#FD0D1B"/>
</linearGradient>
<linearGradient id="paint7_linear_76_385" x1="20.9521" y1="20.9521" x2="20.9521" y2="22.8569" gradientUnits="userSpaceOnUse">
<stop stop-color="#FF212E"/>
<stop offset="1" stop-color="#FD0D1B"/>
</linearGradient>
<linearGradient id="paint8_linear_76_385" x1="15.2383" y1="19.0479" x2="15.2383" y2="20.9526" gradientUnits="userSpaceOnUse">
<stop stop-color="#FF212E"/>
<stop offset="1" stop-color="#FD0D1B"/>
</linearGradient>
<linearGradient id="paint9_linear_76_385" x1="17.1431" y1="20.9521" x2="17.1431" y2="22.8569" gradientUnits="userSpaceOnUse">
<stop stop-color="#FF212E"/>
<stop offset="1" stop-color="#FD0D1B"/>
</linearGradient>
<linearGradient id="paint10_linear_76_385" x1="15.2383" y1="22.8574" x2="15.2383" y2="24.7622" gradientUnits="userSpaceOnUse">
<stop stop-color="#FF212E"/>
<stop offset="1" stop-color="#FD0D1B"/>
</linearGradient>
<linearGradient id="paint11_linear_76_385" x1="19.0479" y1="22.8574" x2="19.0479" y2="24.7622" gradientUnits="userSpaceOnUse">
<stop stop-color="#FF212E"/>
<stop offset="1" stop-color="#FD0D1B"/>
</linearGradient>
<linearGradient id="paint12_linear_76_385" x1="22.8569" y1="22.8574" x2="22.8569" y2="24.7622" gradientUnits="userSpaceOnUse">
<stop stop-color="#FF212E"/>
<stop offset="1" stop-color="#FD0D1B"/>
</linearGradient>
<linearGradient id="paint13_linear_76_385" x1="20.9521" y1="24.7617" x2="20.9521" y2="26.6665" gradientUnits="userSpaceOnUse">
<stop stop-color="#FF212E"/>
<stop offset="1" stop-color="#FD0D1B"/>
</linearGradient>
<linearGradient id="paint14_linear_76_385" x1="17.1431" y1="24.7617" x2="17.1431" y2="26.6665" gradientUnits="userSpaceOnUse">
<stop stop-color="#FF212E"/>
<stop offset="1" stop-color="#FD0D1B"/>
</linearGradient>
</defs>
</svg>
