<svg width="40" height="40" viewBox="0 0 40 40" fill="none" xmlns="http://www.w3.org/2000/svg">
<rect y="5.71387" width="40" height="28.5714" rx="4" fill="white"/>
<mask id="mask0_76_693" style="mask-type:luminance" maskUnits="userSpaceOnUse" x="0" y="5" width="40" height="30">
<rect y="5.71387" width="40" height="28.5714" rx="4" fill="white"/>
</mask>
<g mask="url(#mask0_76_693)">
<path fill-rule="evenodd" clip-rule="evenodd" d="M0 19.0472H40V5.71387H0V19.0472Z" fill="#112EBC"/>
<path fill-rule="evenodd" clip-rule="evenodd" d="M0 34.2859H40V19.0479H0V34.2859Z" fill="#E3264A"/>
<rect x="13.3335" y="15.2383" width="13.3333" height="11.4286" rx="1.33333" fill="url(#paint0_linear_76_693)"/>
</g>
<mask id="mask1_76_693" style="mask-type:luminance" maskUnits="userSpaceOnUse" x="13" y="15" width="14" height="12">
<rect x="13.3335" y="15.2383" width="13.3333" height="11.4286" rx="1.33333" fill="white"/>
</mask>
<g mask="url(#mask1_76_693)">
<path d="M14.0002 26.0003V25.1742L16.3151 24.0168C16.963 23.6928 17.6776 23.5241 18.402 23.5241H21.5983C22.3228 23.5241 23.0373 23.6928 23.6853 24.0168L26.0002 25.1742V26.0003H14.0002Z" fill="#AABCAE" stroke="#366C14" stroke-width="1.33333"/>
<ellipse cx="20.0002" cy="19.9997" rx="2.85714" ry="2.85714" fill="#D4B872"/>
<path d="M15.9049 22.7739C15.9049 22.2149 16.5516 21.9042 16.9881 22.2534L18.7508 23.6635C19.0706 23.9194 19.4493 24.0632 19.8353 24.095H16.5716C16.2034 24.095 15.9049 23.7965 15.9049 23.4283V22.7739ZM23.4288 24.095H20.1651C20.5511 24.0632 20.9298 23.9194 21.2496 23.6635L23.0123 22.2534C23.4488 21.9042 24.0954 22.2149 24.0954 22.7739V23.4283C24.0954 23.7965 23.7969 24.095 23.4288 24.095Z" fill="#C28321" stroke="#0D3488" stroke-width="1.33333"/>
<path fill-rule="evenodd" clip-rule="evenodd" d="M18.2811 18.2806C17.8612 17.8607 18.1586 17.1426 18.7525 17.1426H21.2479C21.8418 17.1426 22.1393 17.8607 21.7193 18.2806L20.4716 19.5283C20.2113 19.7887 19.7892 19.7887 19.5288 19.5283L18.2811 18.2806Z" fill="#216C30"/>
</g>
<defs>
<linearGradient id="paint0_linear_76_693" x1="13.3335" y1="15.2383" x2="13.3335" y2="26.6669" gradientUnits="userSpaceOnUse">
<stop stop-color="white"/>
<stop offset="1" stop-color="#F0F0F0"/>
</linearGradient>
</defs>
</svg>
