<svg width="40" height="40" viewBox="0 0 40 40" fill="none" xmlns="http://www.w3.org/2000/svg">
<rect y="5.71484" width="40" height="28.5714" rx="4" fill="white"/>
<mask id="mask0_76_1875" style="mask-type:luminance" maskUnits="userSpaceOnUse" x="0" y="5" width="40" height="30">
<rect y="5.71484" width="40" height="28.5714" rx="4" fill="white"/>
</mask>
<g mask="url(#mask0_76_1875)">
<rect y="5.71484" width="40" height="28.5714" fill="#FF0000"/>
<path fill-rule="evenodd" clip-rule="evenodd" d="M17.143 22.8563H12.0954C11.7272 22.8563 11.4287 22.5578 11.4287 22.1896V17.8087C11.4287 17.4405 11.7272 17.142 12.0954 17.142H17.143V12.0944C17.143 11.7262 17.4415 11.4277 17.8097 11.4277H22.1906C22.5588 11.4277 22.8573 11.7262 22.8573 12.0944V17.142H27.9049C28.2731 17.142 28.5716 17.4405 28.5716 17.8087V22.1896C28.5716 22.5578 28.2731 22.8563 27.9049 22.8563H22.8573V27.9039C22.8573 28.2721 22.5588 28.5706 22.1906 28.5706H17.8097C17.4415 28.5706 17.143 28.2721 17.143 27.9039V22.8563Z" fill="white"/>
</g>
</svg>
