<svg width="40" height="40" viewBox="0 0 40 40" fill="none" xmlns="http://www.w3.org/2000/svg">
<rect x="0.5" y="6.21484" width="39" height="27.5714" rx="3.5" fill="white" stroke="#F5F5F5"/>
<mask id="mask0_76_1536" style="mask-type:luminance" maskUnits="userSpaceOnUse" x="0" y="5" width="40" height="30">
<rect x="0.5" y="6.21484" width="39" height="27.5714" rx="3.5" fill="white" stroke="white"/>
</mask>
<g mask="url(#mask0_76_1536)">
<path fill-rule="evenodd" clip-rule="evenodd" d="M0 24.7621H40V15.2383H0V24.7621Z" fill="#0C47B7"/>
<path fill-rule="evenodd" clip-rule="evenodd" d="M0 34.2855H40V24.7617H0V34.2855Z" fill="#E53B35"/>
<path d="M10.8148 28.304L11.6825 27.2917L10.8148 28.304C12.812 30.016 15.7592 30.016 17.7565 28.304L20.8412 25.66C21.7687 24.865 22.2821 23.6899 22.2351 22.4692L21.9071 13.9407C21.8245 11.7929 20.0594 10.0944 17.91 10.0944H10.6612C8.51191 10.0944 6.7468 11.7929 6.66419 13.9407L6.33617 22.4692C6.28922 23.6899 6.80259 24.865 7.73005 25.66L10.8148 28.304Z" fill="#F73744" stroke="white" stroke-width="2.66667"/>
</g>
<mask id="mask1_76_1536" style="mask-type:luminance" maskUnits="userSpaceOnUse" x="5" y="8" width="19" height="23">
<path d="M10.8148 28.304L11.6825 27.2917L10.8148 28.304C12.812 30.016 15.7592 30.016 17.7565 28.304L20.8412 25.66C21.7687 24.865 22.2821 23.6899 22.2351 22.4692L21.9071 13.9407C21.8245 11.7929 20.0594 10.0944 17.91 10.0944H10.6612C8.51191 10.0944 6.7468 11.7929 6.66419 13.9407L6.33617 22.4692C6.28922 23.6899 6.80259 24.865 7.73005 25.66L10.8148 28.304Z" fill="white" stroke="white" stroke-width="2.66667"/>
</mask>
<g mask="url(#mask1_76_1536)">
<path fill-rule="evenodd" clip-rule="evenodd" d="M13.3332 21.6197C13.3332 21.2515 13.0347 20.953 12.6666 20.953H11.1427C10.7746 20.953 10.4761 20.6546 10.4761 20.2864V19.7149C10.4761 19.3467 10.7746 19.0483 11.1427 19.0483H12.6665C13.0347 19.0483 13.3332 18.7498 13.3332 18.3816V17.8102C13.3332 17.442 13.0347 17.1435 12.6666 17.1435H12.0951C11.7269 17.1435 11.4285 16.845 11.4285 16.4768V15.9054C11.4285 15.5372 11.7269 15.2387 12.0951 15.2387H12.6666C13.0347 15.2387 13.3332 14.9403 13.3332 14.5721V14.0007C13.3332 13.6325 13.6317 13.334 13.9999 13.334H14.5713C14.9395 13.334 15.238 13.6325 15.238 14.0007V14.5721C15.238 14.9403 15.5365 15.2387 15.9046 15.2387H16.4761C16.8443 15.2387 17.1427 15.5372 17.1427 15.9054V16.4768C17.1427 16.845 16.8443 17.1435 16.4761 17.1435H15.9046C15.5365 17.1435 15.238 17.442 15.238 17.8102V18.3816C15.238 18.7498 15.5365 19.0483 15.9046 19.0483H17.4285C17.7966 19.0483 18.0951 19.3467 18.0951 19.7149V20.2864C18.0951 20.6546 17.7966 20.953 17.4285 20.953H15.9046C15.5365 20.953 15.238 21.2515 15.238 21.6197V24.0959C15.238 24.4641 14.9395 24.7626 14.5713 24.7626H13.9999C13.6317 24.7626 13.3332 24.4641 13.3332 24.0959V21.6197Z" fill="white"/>
<ellipse cx="14.2856" cy="27.6189" rx="5.71429" ry="2.85714" fill="#1251A1"/>
<ellipse cx="14.2856" cy="25.7134" rx="1.90476" ry="1.90476" fill="#1251A1"/>
</g>
</svg>
