<svg width="40" height="40" viewBox="0 0 40 40" fill="none" xmlns="http://www.w3.org/2000/svg">
<rect y="5.71387" width="40" height="28.5714" rx="4" fill="white"/>
<mask id="mask0_76_454" style="mask-type:luminance" maskUnits="userSpaceOnUse" x="0" y="5" width="40" height="30">
<rect y="5.71387" width="40" height="28.5714" rx="4" fill="white"/>
</mask>
<g mask="url(#mask0_76_454)">
<path fill-rule="evenodd" clip-rule="evenodd" d="M0 17.1424H40V5.71387H0V17.1424Z" fill="#108753"/>
<path fill-rule="evenodd" clip-rule="evenodd" d="M0 34.286H40V22.8574H0V34.286Z" fill="#108753"/>
<path fill-rule="evenodd" clip-rule="evenodd" d="M0 22.8569H40V17.1426H0V22.8569Z" fill="white"/>
<path fill-rule="evenodd" clip-rule="evenodd" d="M17.1431 34.2853H22.8574V5.71387H17.1431V34.2853Z" fill="white"/>
<path fill-rule="evenodd" clip-rule="evenodd" d="M19.0479 34.2853H20.9526V5.71387H19.0479V34.2853Z" fill="#262626"/>
<path fill-rule="evenodd" clip-rule="evenodd" d="M0 20.9526H40V19.0479H0V20.9526Z" fill="#262626"/>
<path fill-rule="evenodd" clip-rule="evenodd" d="M17.1431 34.2853H19.0478V5.71387H17.1431V34.2853Z" fill="#FCD449"/>
<path fill-rule="evenodd" clip-rule="evenodd" d="M0 19.0473H40V17.1426H0V19.0473Z" fill="#FCD449"/>
<ellipse cx="20.0002" cy="19.9997" rx="6.66667" ry="6.66667" fill="url(#paint0_linear_76_454)"/>
<ellipse cx="20.0002" cy="20.0002" rx="4.76191" ry="4.7619" stroke="#0E673F" stroke-width="2.66667" stroke-linecap="round" stroke-dasharray="1.33 5.33"/>
<ellipse cx="19.9998" cy="20.0005" rx="0.954905" ry="1.90476" fill="#0E673F"/>
</g>
<defs>
<linearGradient id="paint0_linear_76_454" x1="13.3335" y1="13.333" x2="13.3335" y2="26.6663" gradientUnits="userSpaceOnUse">
<stop stop-color="#E02C42"/>
<stop offset="1" stop-color="#D22036"/>
</linearGradient>
</defs>
</svg>
