<svg width="40" height="40" viewBox="0 0 40 40" fill="none" xmlns="http://www.w3.org/2000/svg">
<rect x="0.5" y="6.21387" width="39" height="27.5714" rx="3.5" fill="white" stroke="#F5F5F5"/>
<mask id="mask0_76_493" style="mask-type:luminance" maskUnits="userSpaceOnUse" x="0" y="5" width="40" height="30">
<rect x="0.5" y="6.21387" width="39" height="27.5714" rx="3.5" fill="white" stroke="white"/>
</mask>
<g mask="url(#mask0_76_493)">
<path fill-rule="evenodd" clip-rule="evenodd" d="M0 15.2377H40V5.71387H0V15.2377Z" fill="#E41D33"/>
<path fill-rule="evenodd" clip-rule="evenodd" d="M0 34.2855H40V24.7617H0V34.2855Z" fill="#262626"/>
<path d="M18.1759 20.2854H19.0478H19.7145V20.9521V21.9045C19.7145 22.0623 19.8424 22.1902 20.0002 22.1902C20.158 22.1902 20.2859 22.0623 20.2859 21.9045V20.9521V20.2854H20.9526H21.7786L21.309 19.3461L21.3089 19.346L21.3089 19.3459L21.3088 19.3457L21.3087 19.3455L21.3078 19.3438L21.3017 19.332C21.296 19.3208 21.2868 19.3033 21.2745 19.2803C21.2499 19.2343 21.2129 19.1671 21.1654 19.0856C21.0696 18.9214 20.9349 18.7064 20.7764 18.495C20.6149 18.2797 20.4451 18.0904 20.2831 17.9608C20.1183 17.8289 20.0267 17.8105 20.0027 17.8093M18.1759 20.2854L20.0002 17.8092C20.0009 17.8092 20.0018 17.8093 20.0027 17.8093M18.1759 20.2854L18.6795 19.3688L18.6796 19.3686L18.6796 19.3685L18.6796 19.3685L18.6797 19.3683L18.681 19.3661L18.688 19.3536C18.6945 19.342 18.7048 19.324 18.7184 19.3006C18.7456 19.2537 18.7862 19.1854 18.8378 19.1028C18.9417 18.9364 19.0864 18.7182 19.2529 18.5032C19.4225 18.2843 19.5984 18.0901 19.7619 17.9567C19.9075 17.8379 19.985 17.8148 20.0001 17.8103C20.0023 17.8097 20.0031 17.8094 20.0027 17.8093M18.1759 20.2854L20.0027 17.8093M17.4991 19.3455L17.9691 20.2854H17.8936L17.7256 20.3974L16.9414 20.9202C16.4984 21.2156 15.9049 20.898 15.9049 20.3655V18.4759C15.9049 18.1077 16.2034 17.8092 16.5716 17.8092H16.731L17.4991 19.3455ZM22.1068 20.2854H22.0313L22.5012 19.3455L23.2694 17.8092L23.4288 17.8092C23.7969 17.8092 24.0954 18.1077 24.0954 18.4759V20.3655C24.0954 20.898 23.502 21.2156 23.059 20.9202L22.2747 20.3974L22.1068 20.2854Z" fill="#F4B32E" fill-opacity="0.25" stroke="#C6A846" stroke-width="1.33333"/>
</g>
</svg>
