<svg width="40" height="40" viewBox="0 0 40 40" fill="none" xmlns="http://www.w3.org/2000/svg">
<rect x="0.214286" y="5.92815" width="39.5714" height="28.1429" rx="1.5" fill="white" stroke="#F5F5F5" stroke-width="0.428571"/>
<mask id="mask0_76_1228" style="mask-type:luminance" maskUnits="userSpaceOnUse" x="0" y="5" width="40" height="30">
<rect x="0.214286" y="5.92815" width="39.5714" height="28.1429" rx="1.5" fill="white" stroke="white" stroke-width="0.428571"/>
</mask>
<g mask="url(#mask0_76_1228)">
<path fill-rule="evenodd" clip-rule="evenodd" d="M0 7.42815C0 6.48138 0.767512 5.71387 1.71429 5.71387L3.63651 5.71387C3.74932 5.71387 3.85961 5.74726 3.95348 5.80984L23.526 18.8582C24.4669 19.4854 24.0228 20.952 22.8921 20.952H11.4286L24.3776 32.2824C25.1718 32.9773 24.6803 34.2853 23.625 34.2853H1.71428C0.76751 34.2853 0 33.5178 0 32.571V7.42815Z" fill="white"/>
</g>
<mask id="mask1_76_1228" style="mask-type:luminance" maskUnits="userSpaceOnUse" x="0" y="5" width="25" height="30">
<path fill-rule="evenodd" clip-rule="evenodd" d="M0 7.42815C0 6.48138 0.767512 5.71387 1.71429 5.71387L3.63651 5.71387C3.74932 5.71387 3.85961 5.74726 3.95348 5.80984L23.526 18.8582C24.4669 19.4854 24.0228 20.952 22.8921 20.952H11.4286L24.3776 32.2824C25.1718 32.9773 24.6803 34.2853 23.625 34.2853H1.71428C0.76751 34.2853 0 33.5178 0 32.571V7.42815Z" fill="white"/>
</mask>
<g mask="url(#mask1_76_1228)">
<path d="M23.625 33.7139H0.571429V6.2853L3.63651 6.2853L23.209 19.3337C23.6795 19.6473 23.4575 20.3805 22.8921 20.3805H11.4286C11.1905 20.3805 10.9774 20.5281 10.8937 20.751C10.8099 20.9738 10.8731 21.2252 11.0523 21.382L24.0013 32.7124C24.3984 33.0598 24.1527 33.7139 23.625 33.7139Z" fill="#EE1B44" stroke="#0543A8" stroke-width="1.14286" stroke-linejoin="round"/>
<path fill-rule="evenodd" clip-rule="evenodd" d="M7.61909 28.5717L6.16125 30.1865L6.27222 28.0138L4.09955 28.1248L5.71433 26.6669L4.09955 25.2091L6.27222 25.3201L6.16125 23.1474L7.61909 24.7622L9.07694 23.1474L8.96596 25.3201L11.1386 25.2091L9.52386 26.6669L11.1386 28.1248L8.96596 28.0138L9.07694 30.1865L7.61909 28.5717Z" fill="white"/>
<ellipse cx="7.61617" cy="15.2382" rx="3.80952" ry="3.80952" fill="white"/>
<ellipse cx="7.61614" cy="13.333" rx="5.71429" ry="3.80952" fill="white"/>
<path fill-rule="evenodd" clip-rule="evenodd" d="M7.61886 17.6187L6.52548 18.8298L6.60871 17.2003L4.97921 17.2835L6.19029 16.1902L4.97921 15.0968L6.60871 15.18L6.52548 13.5505L7.61886 14.7616L8.71224 13.5505L8.62901 15.18L10.2585 15.0968L9.04743 16.1902L10.2585 17.2835L8.62901 17.2003L8.71224 18.8298L7.61886 17.6187Z" fill="white"/>
</g>
</svg>
