<svg width="40" height="40" viewBox="0 0 40 40" fill="none" xmlns="http://www.w3.org/2000/svg">
<rect y="5.71387" width="40" height="28.5714" rx="4" fill="white"/>
<mask id="mask0_76_72" style="mask-type:luminance" maskUnits="userSpaceOnUse" x="0" y="5" width="40" height="30">
<rect y="5.71387" width="40" height="28.5714" rx="4" fill="white"/>
</mask>
<g mask="url(#mask0_76_72)">
<rect y="5.71387" width="40" height="28.5714" fill="url(#paint0_linear_76_72)"/>
<g filter="url(#filter0_d_76_72)">
<path fill-rule="evenodd" clip-rule="evenodd" d="M0 34.2855H40V20.9521H0V34.2855Z" fill="#262626"/>
</g>
<g filter="url(#filter1_d_76_72)">
<path fill-rule="evenodd" clip-rule="evenodd" d="M0 20.952H40V5.71387H0V20.952Z" fill="#DD2137"/>
</g>
<g filter="url(#filter2_d_76_72)">
<path d="M16.6973 24.9029C19.7457 25.7197 22.8791 23.9107 23.6959 20.8623C24.5127 17.8139 22.7036 14.6806 19.6553 13.8637C19.1472 13.7276 18.625 14.0291 18.4888 14.5372C18.3527 15.0452 18.6542 15.5675 19.1623 15.7036C21.1945 16.2481 22.4006 18.337 21.856 20.3693C21.3115 22.4015 19.2226 23.6076 17.1903 23.063C16.6823 22.9269 16.16 23.2284 16.0239 23.7365C15.8878 24.2445 16.1893 24.7668 16.6973 24.9029Z" fill="#F8D84B"/>
</g>
<g filter="url(#filter3_d_76_72)">
<ellipse cx="18.0954" cy="17.1428" rx="0.952381" ry="0.952381" fill="#F8D84B"/>
</g>
<g filter="url(#filter4_d_76_72)">
<path d="M17.5668 20.7928L23.2811 24.6023C23.7187 24.8941 24.31 24.7758 24.6018 24.3381C24.8935 23.9005 24.7753 23.3092 24.3376 23.0174L18.6233 19.2079C18.1857 18.9161 17.5944 19.0344 17.3026 19.472C17.0109 19.9097 17.1291 20.501 17.5668 20.7928Z" fill="#F8D84B"/>
</g>
</g>
<defs>
<filter id="filter0_d_76_72" x="0" y="20.9521" width="40" height="13.333" filterUnits="userSpaceOnUse" color-interpolation-filters="sRGB">
<feFlood flood-opacity="0" result="BackgroundImageFix"/>
<feColorMatrix in="SourceAlpha" type="matrix" values="0 0 0 0 0 0 0 0 0 0 0 0 0 0 0 0 0 0 127 0" result="hardAlpha"/>
<feOffset/>
<feColorMatrix type="matrix" values="0 0 0 0 0 0 0 0 0 0 0 0 0 0 0 0 0 0 0.06 0"/>
<feBlend mode="normal" in2="BackgroundImageFix" result="effect1_dropShadow_76_72"/>
<feBlend mode="normal" in="SourceGraphic" in2="effect1_dropShadow_76_72" result="shape"/>
</filter>
<filter id="filter1_d_76_72" x="0" y="5.71387" width="40" height="15.2383" filterUnits="userSpaceOnUse" color-interpolation-filters="sRGB">
<feFlood flood-opacity="0" result="BackgroundImageFix"/>
<feColorMatrix in="SourceAlpha" type="matrix" values="0 0 0 0 0 0 0 0 0 0 0 0 0 0 0 0 0 0 127 0" result="hardAlpha"/>
<feOffset/>
<feColorMatrix type="matrix" values="0 0 0 0 0 0 0 0 0 0 0 0 0 0 0 0 0 0 0.06 0"/>
<feBlend mode="normal" in2="BackgroundImageFix" result="effect1_dropShadow_76_72"/>
<feBlend mode="normal" in="SourceGraphic" in2="effect1_dropShadow_76_72" result="shape"/>
</filter>
<filter id="filter2_d_76_72" x="15.9912" y="13.8311" width="7.90088" height="13.2676" filterUnits="userSpaceOnUse" color-interpolation-filters="sRGB">
<feFlood flood-opacity="0" result="BackgroundImageFix"/>
<feColorMatrix in="SourceAlpha" type="matrix" values="0 0 0 0 0 0 0 0 0 0 0 0 0 0 0 0 0 0 127 0" result="hardAlpha"/>
<feOffset dy="2"/>
<feColorMatrix type="matrix" values="0 0 0 0 0 0 0 0 0 0 0 0 0 0 0 0 0 0 0.06 0"/>
<feBlend mode="normal" in2="BackgroundImageFix" result="effect1_dropShadow_76_72"/>
<feBlend mode="normal" in="SourceGraphic" in2="effect1_dropShadow_76_72" result="shape"/>
</filter>
<filter id="filter3_d_76_72" x="17.1431" y="16.1904" width="1.90479" height="3.9043" filterUnits="userSpaceOnUse" color-interpolation-filters="sRGB">
<feFlood flood-opacity="0" result="BackgroundImageFix"/>
<feColorMatrix in="SourceAlpha" type="matrix" values="0 0 0 0 0 0 0 0 0 0 0 0 0 0 0 0 0 0 127 0" result="hardAlpha"/>
<feOffset dy="2"/>
<feColorMatrix type="matrix" values="0 0 0 0 0 0 0 0 0 0 0 0 0 0 0 0 0 0 0.06 0"/>
<feBlend mode="normal" in2="BackgroundImageFix" result="effect1_dropShadow_76_72"/>
<feBlend mode="normal" in="SourceGraphic" in2="effect1_dropShadow_76_72" result="shape"/>
</filter>
<filter id="filter4_d_76_72" x="17.1426" y="19.0479" width="7.61914" height="7.71484" filterUnits="userSpaceOnUse" color-interpolation-filters="sRGB">
<feFlood flood-opacity="0" result="BackgroundImageFix"/>
<feColorMatrix in="SourceAlpha" type="matrix" values="0 0 0 0 0 0 0 0 0 0 0 0 0 0 0 0 0 0 127 0" result="hardAlpha"/>
<feOffset dy="2"/>
<feColorMatrix type="matrix" values="0 0 0 0 0 0 0 0 0 0 0 0 0 0 0 0 0 0 0.06 0"/>
<feBlend mode="normal" in2="BackgroundImageFix" result="effect1_dropShadow_76_72"/>
<feBlend mode="normal" in="SourceGraphic" in2="effect1_dropShadow_76_72" result="shape"/>
</filter>
<linearGradient id="paint0_linear_76_72" x1="0" y1="5.71387" x2="0" y2="34.2853" gradientUnits="userSpaceOnUse">
<stop stop-color="#FF323E"/>
<stop offset="1" stop-color="#FD0D1B"/>
</linearGradient>
</defs>
</svg>
