<svg width="40" height="40" viewBox="0 0 40 40" fill="none" xmlns="http://www.w3.org/2000/svg">
<rect y="5.71387" width="40" height="28.5714" rx="4" fill="white"/>
<mask id="mask0_76_239" style="mask-type:luminance" maskUnits="userSpaceOnUse" x="0" y="5" width="40" height="30">
<rect y="5.71387" width="40" height="28.5714" rx="4" fill="white"/>
</mask>
<g mask="url(#mask0_76_239)">
<rect y="5.71387" width="40" height="28.5714" fill="#05AB41"/>
<path fill-rule="evenodd" clip-rule="evenodd" d="M5.5395 21.1192C4.7275 20.5938 4.7275 19.4057 5.5395 18.8803L19.2756 9.99223C19.7164 9.70703 20.2835 9.70703 20.7243 9.99223L34.4604 18.8803C35.2724 19.4057 35.2724 20.5938 34.4604 21.1192L20.7243 30.0072C20.2835 30.2924 19.7164 30.2924 19.2756 30.0072L5.5395 21.1192Z" fill="#FDD216"/>
<ellipse cx="20.0002" cy="19.9997" rx="6.66667" ry="6.66667" fill="#053087"/>
</g>
<mask id="mask1_76_239" style="mask-type:luminance" maskUnits="userSpaceOnUse" x="13" y="13" width="14" height="14">
<ellipse cx="20.0002" cy="19.9997" rx="6.66667" ry="6.66667" fill="white"/>
</mask>
<g mask="url(#mask1_76_239)">
<path d="M12.5426 18.2575C13.5893 17.4099 16.967 18.2129 20.1199 19.0539C23.2729 19.895 26.5613 21.6579 27.3986 22.6918" stroke="white" stroke-width="2.66667" stroke-linecap="square"/>
</g>
</svg>
