<svg width="32" height="32" viewBox="0 0 32 32" fill="none" xmlns="http://www.w3.org/2000/svg">
<g id="Flag_finish_light">
<path id="Rectangle 1" d="M8 17.3333V7.16667C8 6.93097 8 6.81312 8.07322 6.7399C8.14645 6.66667 8.2643 6.66667 8.5 6.66667H14.0486C14.3493 6.66667 14.4997 6.66667 14.6205 6.74135C14.7413 6.81602 14.8086 6.9505 14.9431 7.21946L15.7236 8.78055C15.8581 9.04951 15.9253 9.18399 16.0462 9.25866C16.167 9.33334 16.3173 9.33334 16.618 9.33334H23.5C23.7357 9.33334 23.8536 9.33334 23.9268 9.40656C24 9.47978 24 9.59764 24 9.83334V19.5C24 19.7357 24 19.8536 23.9268 19.9268C23.8536 20 23.7357 20 23.5 20H16.618C16.3173 20 16.167 20 16.0462 19.9253C15.9253 19.8507 15.8581 19.7162 15.7236 19.4472L14.9431 17.8861C14.8086 17.6172 14.7413 17.4827 14.6205 17.408C14.4997 17.3333 14.3493 17.3333 14.0486 17.3333H8ZM8 17.3333V25.3333" stroke="black" stroke-linecap="round"/>
</g>
</svg>
