<svg width="76" height="76" viewBox="0 0 76 76" fill="none" xmlns="http://www.w3.org/2000/svg">
<path d="M22.55 43.2761C22.55 43.2668 22.549 43.2579 22.5477 43.249C22.547 43.244 22.5467 43.2387 22.5457 43.2338C22.5441 43.2245 22.5414 43.2152 22.5388 43.206C22.5374 43.2017 22.5368 43.1974 22.5351 43.1931C22.5308 43.1805 22.5259 43.1686 22.5199 43.157C22.5196 43.1564 22.5193 43.1557 22.5189 43.1547C22.5126 43.1422 22.505 43.1306 22.4971 43.1197C22.4948 43.1164 22.4918 43.1134 22.4895 43.1101C22.4835 43.1025 22.4773 43.0949 22.4706 43.0879C22.467 43.0843 22.463 43.081 22.4594 43.0773C22.4531 43.0714 22.4465 43.0658 22.4399 43.0605C22.4356 43.0572 22.431 43.0538 22.4263 43.0509C22.4194 43.0462 22.4121 43.0416 22.4045 43.0376C22.3999 43.035 22.3949 43.0324 22.3899 43.03C22.3817 43.0261 22.3731 43.0228 22.3641 43.0195C22.3608 43.0181 22.3579 43.0165 22.3546 43.0155C22.3532 43.0152 22.3519 43.0148 22.3506 43.0145C22.3397 43.0112 22.3291 43.0089 22.3182 43.0069C22.3152 43.0062 22.3122 43.0056 22.3092 43.0049C22.296 43.0029 22.2828 43.0019 22.2692 43.0019H9.82589C9.73494 43.0019 9.64928 43.0459 9.5967 43.1203L7.46614 46.124C7.46614 46.124 7.46548 46.1253 7.46482 46.126C7.45821 46.1356 7.45192 46.1458 7.44663 46.1561C7.44564 46.1577 7.44498 46.1594 7.44432 46.161C7.43969 46.17 7.43572 46.1792 7.43241 46.1885C7.43142 46.1908 7.43043 46.1935 7.42976 46.1958C7.42613 46.2067 7.42315 46.2176 7.4205 46.2292C7.41819 46.2404 7.41654 46.252 7.41554 46.2636C7.41554 46.2669 7.41521 46.2702 7.41521 46.2735C7.41521 46.2778 7.41455 46.2824 7.41455 46.2867V47.8699C7.41455 47.9738 7.47111 48.0644 7.55478 48.113C7.59612 48.1371 7.64408 48.151 7.69567 48.151H20.1383C20.1383 48.151 20.1383 48.151 20.1387 48.151C20.1397 48.151 20.141 48.151 20.142 48.151C20.1512 48.151 20.1605 48.1504 20.1698 48.1494C20.1727 48.1491 20.1757 48.1484 20.1787 48.1481C20.1863 48.1471 20.1936 48.1457 20.2008 48.1441C20.2038 48.1434 20.2068 48.1424 20.2098 48.1418C20.2171 48.1398 20.2243 48.1378 20.2313 48.1352C20.2343 48.1342 20.2369 48.1332 20.2399 48.1322C20.2472 48.1292 20.2544 48.1262 20.2614 48.1229C20.2637 48.1219 20.2663 48.1206 20.2687 48.1196C20.2776 48.115 20.2862 48.11 20.2944 48.1044C20.2944 48.1044 20.2951 48.1041 20.2954 48.1037C20.304 48.0981 20.312 48.0918 20.3199 48.0852C20.3222 48.0832 20.3245 48.0809 20.3269 48.0786C20.3321 48.0736 20.3374 48.0687 20.3424 48.0634C20.3447 48.0607 20.3474 48.0581 20.3497 48.0555C20.3546 48.0498 20.3596 48.0439 20.3642 48.0376C20.3656 48.0359 20.3669 48.0346 20.3679 48.033L20.4082 47.9761L20.4165 47.9642L20.6073 47.695L20.6698 47.607L20.8693 47.3259L21.0687 47.0447L21.1464 46.9353C21.0429 46.9313 20.9536 46.8718 20.9083 46.7851C20.8878 46.7461 20.8759 46.7018 20.8759 46.6545V46.0073C20.8759 46.0026 20.8762 45.9983 20.8765 45.994C20.8765 45.9907 20.8765 45.9874 20.8769 45.9841C20.8788 45.9606 20.8835 45.9381 20.8911 45.9163C20.8921 45.914 20.8927 45.9113 20.8937 45.909C20.8974 45.8994 20.9013 45.8905 20.9056 45.8816C20.9063 45.8799 20.9073 45.8783 20.9079 45.8766C20.9136 45.866 20.9195 45.8561 20.9261 45.8465C20.9265 45.8459 20.9268 45.8452 20.9275 45.8445L21.156 45.5221L21.3554 45.241L21.5549 44.9598L21.7983 44.6169C21.8432 44.5534 21.912 44.5124 21.9878 44.5014C22.001 44.4995 22.0142 44.4985 22.0275 44.4985H22.55V43.2827C22.55 43.2801 22.5494 43.2778 22.5494 43.2751L22.55 43.2761ZM9.97141 43.5648H21.7252L20.735 44.9608L20.5355 45.2419L20.3361 45.5231L19.9935 46.0063H8.23972L9.97174 43.5648H9.97141Z" fill="#2ABD81"/>
<path d="M20.5865 27.3929H17.1446C16.6869 27.3929 16.3145 27.7653 16.3145 28.223V30.4835C16.3145 30.7144 16.409 30.9234 16.5615 31.0739C16.6075 31.1192 16.6587 31.1595 16.7143 31.1933C16.84 31.2697 16.9872 31.3136 17.1446 31.3136H20.5865C20.7439 31.3136 20.8911 31.2697 21.0168 31.1933C21.2565 31.0474 21.4169 30.7838 21.4169 30.4835V28.223C21.4169 27.7653 21.0445 27.3929 20.5868 27.3929H20.5865ZM16.6974 28.5044C16.6974 28.1287 17.003 27.8231 17.3787 27.8231H20.352C20.4251 27.8231 20.4843 27.8823 20.4843 27.9554C20.4843 28.0285 20.4251 28.0877 20.352 28.0877H17.3787C17.1489 28.0877 16.962 28.2746 16.962 28.5044V28.8901C16.962 28.9466 16.9263 28.9946 16.8764 29.0134C16.8618 29.019 16.8463 29.0224 16.8297 29.0224C16.7566 29.0224 16.6974 28.9632 16.6974 28.8901V28.5044Z" fill="#B580D8"/>
<path d="M12.3566 25.6988C12.3487 25.7094 12.3407 25.7203 12.3335 25.7313C12.2438 25.8639 12.1916 26.0233 12.1916 26.1949V28.4558C12.1916 28.4988 12.1949 28.5408 12.2012 28.5821C12.262 28.98 12.607 29.2859 13.0217 29.2859H14.9333V25.3648H13.0217C12.7499 25.3648 12.5081 25.4961 12.3566 25.6985V25.6988Z" fill="#B580D8"/>
<path d="M61.2363 50.9249L61.0957 50.6437L61.0567 50.5657C61.0385 50.525 61.0041 50.4513 60.9545 50.3626C60.8642 50.2002 60.724 49.9869 60.5414 49.8285C60.5279 49.8169 60.5143 49.8053 60.5004 49.7944C60.3615 49.684 60.1998 49.6072 60.0192 49.6072H31.4452C31.2825 49.6072 31.1354 49.6691 31.0064 49.762C30.7831 49.9228 30.6138 50.1764 30.5099 50.3626C30.4603 50.4516 30.4259 50.525 30.4078 50.566L30.3687 50.6437L30.2282 50.9249L28.3023 54.7788C28.2805 54.8225 28.2709 54.8701 28.2729 54.9171C28.2749 54.964 28.2891 55.0107 28.3146 55.0524C28.3658 55.135 28.4561 55.1856 28.5537 55.1856H62.9101C63.0077 55.1856 63.098 55.135 63.1492 55.0524C63.1747 55.011 63.1889 54.9644 63.1909 54.9171C63.1929 54.8701 63.1833 54.8222 63.1615 54.7788L61.2356 50.9249H61.2363ZM62.456 54.6234H29.0091L30.4378 51.7643L30.8572 50.9249L30.9141 50.8111C30.9141 50.8111 30.9151 50.8091 30.9154 50.8081C30.9167 50.8051 30.9184 50.8018 30.9197 50.7989C30.9425 50.7476 30.969 50.695 30.9978 50.6434C31.0262 50.5925 31.057 50.5422 31.0891 50.4946C31.1006 50.4771 31.1125 50.4602 31.1248 50.4436C31.1456 50.4149 31.1664 50.3878 31.1876 50.3623C31.2822 50.2475 31.3771 50.1691 31.4456 50.1691H60.0195C60.088 50.1691 60.1829 50.2475 60.2775 50.3623C60.2987 50.3878 60.3195 50.4149 60.3404 50.4436C60.3463 50.4519 60.3523 50.4602 60.3582 50.4688C60.3966 50.5237 60.4336 50.5829 60.4674 50.6434C60.4961 50.695 60.5226 50.7473 60.5451 50.7985C60.5464 50.8018 60.5481 50.8048 60.5494 50.8078C60.55 50.8088 60.5504 50.8098 60.5507 50.8108L60.6076 50.9245L61.0269 51.7639L62.4557 54.6231L62.456 54.6234Z" fill="#6194F6"/>
<path d="M52.5666 55.9853C52.5653 55.982 52.564 55.9791 52.5627 55.9757C52.5465 55.9387 52.516 55.8752 52.4714 55.8057C52.4671 55.7988 52.4624 55.7919 52.4575 55.7846C52.3579 55.6364 52.1965 55.4697 51.9733 55.4697H39.4913C39.268 55.4697 39.1063 55.6364 39.0071 55.7846C39.0025 55.7915 38.9978 55.7988 38.9932 55.8057C38.9485 55.8752 38.9181 55.9387 38.9019 55.9757C38.9006 55.9787 38.8993 55.982 38.8979 55.9853L38.1882 57.7739C38.1753 57.8063 38.1687 57.8404 38.1684 57.8745C38.1677 57.931 38.1842 57.9872 38.217 58.0355C38.2692 58.1126 38.3565 58.1586 38.4495 58.1586H53.0144C53.1077 58.1586 53.1947 58.1126 53.2469 58.0355C53.2797 57.9872 53.2962 57.931 53.2955 57.8745C53.2952 57.8404 53.2886 57.8063 53.2757 57.7739L52.566 55.9853H52.5666ZM52.601 57.5966H38.8639L39.3037 56.4877L39.4185 56.1983C39.4251 56.1838 39.4334 56.1676 39.443 56.151C39.443 56.1507 39.4436 56.15 39.4436 56.1497C39.4476 56.1428 39.4516 56.1358 39.4559 56.1285C39.4592 56.1229 39.4628 56.1176 39.4661 56.1123C39.4675 56.1103 39.4688 56.108 39.4701 56.1061C39.4741 56.1001 39.478 56.0945 39.4817 56.0889C39.4827 56.0872 39.484 56.0855 39.485 56.0839C39.4883 56.0793 39.4916 56.0746 39.4949 56.0703C39.4966 56.068 39.4985 56.0654 39.5002 56.0634C39.5028 56.0601 39.5052 56.0574 39.5075 56.0545C39.5098 56.0515 39.5121 56.0485 39.5144 56.0459C39.5167 56.0432 39.5187 56.0412 39.521 56.0386C39.523 56.0363 39.5253 56.0339 39.5273 56.032H51.9372C51.966 56.0597 52.0084 56.1223 52.0371 56.1795C52.0404 56.1858 52.0434 56.192 52.0464 56.1983L52.601 57.5963V57.5966Z" fill="#6194F6"/>
<path d="M61.7321 27.8311H58.3567L39.1063 47.0815H61.7321V27.8311Z" fill="#6194F6"/>
<path d="M45.5859 26.6127C45.5347 26.6557 45.5023 26.7208 45.5023 26.7936C45.5023 26.7208 45.535 26.6557 45.5859 26.6127Z" fill="#6194F6"/>
<path d="M45.9626 26.7936C45.9626 26.7208 45.9298 26.6557 45.8789 26.6127C45.9302 26.6557 45.9626 26.7208 45.9626 26.7936Z" fill="#6194F6"/>
<path d="M62.0714 25.8626H29.3938C28.5091 25.8626 27.7897 26.5822 27.7897 27.4666V47.4456C27.7897 47.9655 28.0384 48.4282 28.4231 48.7216C28.693 48.9273 29.0293 49.0496 29.3938 49.0496H62.0714C62.4359 49.0496 62.7726 48.9273 63.0421 48.7216C63.4267 48.4282 63.6754 47.9655 63.6754 47.4456V27.4666C63.6754 26.5822 62.9558 25.8626 62.0714 25.8626ZM62.0714 48.4877H29.3938C28.8193 48.4877 28.3523 48.0204 28.3523 47.4459V27.4669C28.3523 26.8925 28.8196 26.4251 29.3941 26.4251H62.0717C62.6462 26.4251 63.1135 26.8925 63.1135 27.4669V47.4459C63.1135 48.0204 62.6462 48.4877 62.0721 48.4877H62.0714Z" fill="#6194F6"/>
<path d="M62.0132 27.2688H29.4517C29.2965 27.2688 29.1705 27.3948 29.1705 27.5499V47.3626C29.1705 47.5177 29.2965 47.6437 29.4517 47.6437H62.0132C62.1683 47.6437 62.2943 47.5177 62.2943 47.3626V27.5499C62.2943 27.3948 62.1683 27.2688 62.0132 27.2688ZM61.7321 47.0815H29.7328V27.8311H61.7321V47.0815Z" fill="#F0C104"/>
<path d="M71.5309 60.6658L66.9302 51.4583C66.8422 51.2602 66.4076 50.3626 65.7581 50.3626H64.0383L63.649 49.5834C63.5898 49.4501 63.3742 49.002 63.0424 48.7215C62.7726 48.9272 62.4362 49.0496 62.0718 49.0496H62.4772C62.6866 49.0496 62.9955 49.4948 63.1377 49.8162C63.1397 49.8202 63.1413 49.8245 63.1433 49.8285L63.4102 50.3623L63.5508 50.6434L63.6913 50.9245L67.544 58.6351H24.3905H23.9222L27.9273 50.6199L28.3229 49.8285C28.3249 49.8245 28.3269 49.8202 28.3285 49.8162C28.4707 49.4948 28.7793 49.0496 28.989 49.0496H29.3944C29.0297 49.0496 28.6933 48.9272 28.4238 48.7215C28.0917 49.0017 27.8761 49.4501 27.8172 49.5834L27.4954 50.2273H25.2937C25.1618 50.2273 25.0477 50.1314 24.9934 50.0365C24.9762 50.0064 24.924 49.9026 24.9716 49.8215L26.8257 46.6687C26.9616 46.4378 26.9547 46.1465 26.8078 45.8892C26.6408 45.5971 26.3385 45.4156 26.0197 45.4156H25.1198V44.7806C25.1198 44.7779 25.1191 44.7756 25.1191 44.773C25.1191 44.7637 25.1181 44.7548 25.1168 44.7458C25.1161 44.7409 25.1158 44.7356 25.1148 44.7306C25.1132 44.7214 25.1105 44.7121 25.1079 44.7028C25.1066 44.6985 25.1059 44.6942 25.1042 44.6899C25.0999 44.6774 25.095 44.6655 25.089 44.6539C25.0887 44.6532 25.0884 44.6526 25.088 44.6516C25.0817 44.639 25.0741 44.6274 25.0662 44.6165C25.0639 44.6132 25.0609 44.6102 25.0586 44.6069C25.0526 44.5993 25.0464 44.5917 25.0397 44.5848C25.0361 44.5811 25.0321 44.5778 25.0285 44.5742C25.0222 44.5682 25.0156 44.5626 25.009 44.5573C25.0047 44.554 25.0001 44.5507 24.9954 44.5477C24.9885 44.5431 24.9812 44.5385 24.9736 44.5345C24.969 44.5319 24.964 44.5292 24.959 44.5269C24.9508 44.5229 24.9422 44.5196 24.9333 44.5163C24.9299 44.515 24.927 44.5133 24.9237 44.5123C24.9223 44.512 24.921 44.5117 24.9197 44.5113C24.9091 44.508 24.8982 44.5057 24.8876 44.5037C24.8846 44.5031 24.8813 44.5021 24.8783 44.5018C24.8651 44.4998 24.8519 44.4988 24.8383 44.4988H22.0288C22.0152 44.4988 22.002 44.5001 21.9891 44.5018C21.9134 44.5127 21.8446 44.5537 21.7996 44.6172L21.5562 44.9601L21.3567 45.2413L21.1573 45.5224L20.9288 45.8448C20.9288 45.8448 20.9281 45.8462 20.9275 45.8468C20.9208 45.8564 20.9146 45.8667 20.9093 45.8769C20.9083 45.8786 20.9076 45.8802 20.907 45.8819C20.9023 45.8908 20.8984 45.9001 20.8951 45.9093C20.8941 45.9117 20.8931 45.9143 20.8924 45.9166C20.8888 45.9275 20.8858 45.9384 20.8831 45.95C20.8808 45.9613 20.8792 45.9728 20.8782 45.9844C20.8782 45.9877 20.8779 45.991 20.8779 45.9943C20.8779 45.9986 20.8772 46.0033 20.8772 46.0076V46.6548C20.8772 46.7021 20.8891 46.7464 20.9096 46.7854C20.9552 46.8721 21.0442 46.9316 21.1477 46.9356L21.07 47.0451L20.8706 47.3262L20.6711 47.6073L20.6086 47.6953L20.4178 47.9645L20.4095 47.9764L20.3692 48.0333C20.3692 48.0333 20.3665 48.0363 20.3656 48.0379C20.3609 48.0442 20.3563 48.0501 20.351 48.0558C20.3487 48.0584 20.3464 48.0611 20.3437 48.0637C20.3388 48.069 20.3335 48.074 20.3282 48.0789C20.3259 48.0812 20.3236 48.0832 20.3212 48.0855C20.3133 48.0921 20.3054 48.0984 20.2968 48.1041C20.2968 48.1041 20.2961 48.1044 20.2958 48.1047C20.2875 48.1103 20.2789 48.1153 20.27 48.1199C20.2677 48.1212 20.2653 48.1222 20.2627 48.1232C20.2558 48.1265 20.2485 48.1298 20.2412 48.1325C20.2386 48.1335 20.2356 48.1345 20.2326 48.1355C20.2257 48.1378 20.2184 48.1401 20.2111 48.1421C20.2081 48.1427 20.2052 48.1437 20.2022 48.1444C20.1949 48.1461 20.1873 48.1474 20.18 48.1484C20.177 48.1487 20.1741 48.1494 20.1711 48.1497C20.1618 48.1507 20.1526 48.1513 20.1433 48.1513C20.1423 48.1513 20.141 48.1513 20.14 48.1513C20.14 48.1513 20.14 48.1513 20.1397 48.1513H7.69567C7.64441 48.1513 7.59645 48.1375 7.55478 48.1133C7.47111 48.0647 7.41455 47.9741 7.41455 47.8702V47.8253L7.23199 48.0826C7.17114 48.1682 7.1632 48.281 7.21148 48.3743C7.25977 48.4675 7.35601 48.5264 7.46118 48.5264H20.8418C20.9328 48.5264 21.0184 48.4824 21.071 48.408L21.1778 48.2572H22.4683C22.5593 48.2572 22.6449 48.2132 22.6975 48.1388L23.1586 47.4886C23.2194 47.4029 23.2274 47.2901 23.1791 47.1969C23.1308 47.1036 23.0345 47.0447 22.9294 47.0447H22.0377L22.1151 46.9359H23.9662C23.9662 46.9359 23.9662 46.9359 23.9665 46.9359C23.9675 46.9359 23.9688 46.9359 23.9698 46.9359C23.9791 46.9359 23.9884 46.9353 23.9976 46.9343C24.0006 46.9343 24.0036 46.9333 24.0065 46.9329C24.0142 46.9319 24.0214 46.9306 24.0287 46.929C24.0317 46.9283 24.0347 46.9273 24.0376 46.9267C24.0449 46.9247 24.0522 46.9227 24.0591 46.92C24.0621 46.9191 24.0648 46.9181 24.0677 46.9171C24.075 46.9141 24.0823 46.9111 24.0892 46.9078C24.0915 46.9068 24.0942 46.9055 24.0965 46.9045C24.1054 46.8999 24.114 46.8949 24.1223 46.8893C24.1223 46.8893 24.123 46.889 24.1233 46.8886C24.1319 46.883 24.1398 46.8767 24.1478 46.8701C24.1501 46.8681 24.1524 46.8658 24.1547 46.8635C24.16 46.8585 24.1653 46.8536 24.1703 46.8483C24.1726 46.8456 24.1752 46.843 24.1775 46.8403C24.1825 46.8347 24.1875 46.8288 24.1921 46.8225C24.1934 46.8208 24.1947 46.8195 24.1957 46.8178L24.8 45.9659C24.8251 45.9732 24.8516 45.9775 24.8793 45.9775H26.0184C26.1503 45.9775 26.2644 46.073 26.3187 46.168C26.3359 46.1981 26.3878 46.3019 26.3402 46.3833L24.4861 49.5361C24.3505 49.767 24.3575 50.0583 24.5043 50.3153C24.6716 50.6077 24.9736 50.7892 25.2924 50.7892H27.213L23.2148 58.7906C23.2148 58.7906 23.2135 58.7935 23.2128 58.7952C23.2088 58.8031 23.2055 58.8114 23.2025 58.8197C23.2016 58.822 23.2009 58.8243 23.1999 58.8269C23.1963 58.8375 23.1933 58.8478 23.191 58.8587C23.1887 58.8696 23.1873 58.8805 23.1863 58.8914C23.1863 58.8944 23.1863 58.8977 23.186 58.9007C23.186 58.906 23.1853 58.9109 23.1853 58.9162V59.7867L22.7461 60.6655C22.7025 60.7528 22.7071 60.856 22.7584 60.939C22.8096 61.0217 22.8999 61.0723 22.9975 61.0723H71.2786C71.3762 61.0723 71.4664 61.0217 71.5177 60.939C71.569 60.856 71.5736 60.7528 71.5299 60.6655L71.5309 60.6658ZM67.717 59.9683H23.7479V59.1977H67.717V59.9683Z" fill="#231815"/>
<path d="M10.366 32.9226H10.5237C10.7185 33.2907 11.1005 33.5265 11.5301 33.5265H15.3583C15.4615 33.6354 15.5938 33.7164 15.7426 33.7564C15.9675 34.3272 16.5241 34.7327 17.174 34.7327H24.1289C24.9769 34.7327 25.6671 34.0428 25.6671 33.1945V20.859C25.6671 20.2838 25.3496 19.7818 24.881 19.5179C24.6736 18.913 24.0998 18.4771 23.4258 18.4771H20.8411V17.9873C20.8411 17.1393 20.1512 16.4494 19.3029 16.4494H12.3483C11.6667 16.4494 11.0873 16.8952 10.8862 17.5107H10.366C9.51796 17.5107 8.82806 18.2006 8.82806 19.0486V31.3841C8.82806 32.2324 9.51796 32.9223 10.366 32.9223V32.9226ZM23.6662 33.297C23.6487 33.3013 23.6308 33.3053 23.613 33.3089C23.6083 33.3099 23.6034 33.3106 23.5987 33.3116C23.5852 33.3139 23.5716 33.3162 23.5581 33.3179C23.5521 33.3185 23.5462 33.3195 23.5402 33.3202C23.527 33.3218 23.5137 33.3228 23.5002 33.3238C23.4946 33.3241 23.4886 33.3248 23.483 33.3251C23.4645 33.3261 23.4463 33.3268 23.4274 33.3268C23.4271 33.3268 23.4264 33.3268 23.4261 33.3268H16.4712C16.3783 33.3268 16.2883 33.3136 16.203 33.2891C16.1613 33.2772 16.1206 33.2626 16.0816 33.2454C16.0237 33.22 15.9688 33.1892 15.9172 33.1538C15.8405 33.1006 15.7714 33.0367 15.7128 32.9643C15.6851 32.9299 15.6593 32.8935 15.6361 32.8555C15.5723 32.7503 15.528 32.6323 15.5075 32.5062C15.5045 32.4884 15.5022 32.4702 15.5002 32.4517C15.4969 32.4186 15.4949 32.3849 15.4949 32.3508V20.0153C15.4949 19.9938 15.4959 19.9726 15.4972 19.9515C15.4972 19.9465 15.4979 19.9415 15.4982 19.9366C15.4999 19.9167 15.5018 19.8972 15.5045 19.878C15.5045 19.877 15.5045 19.8757 15.5048 19.8747C15.5114 19.8294 15.5214 19.7851 15.5339 19.7418C15.5419 19.7352 15.5508 19.7289 15.5591 19.7226C15.5667 19.717 15.5739 19.711 15.5819 19.7057C15.5901 19.6998 15.5991 19.6945 15.6077 19.6892C15.6163 19.6839 15.6245 19.6786 15.6331 19.6736C15.6417 19.6687 15.6507 19.6644 15.6593 19.6598C15.6685 19.6551 15.6781 19.6505 15.6877 19.6459C15.6963 19.6419 15.7052 19.6383 15.7138 19.635C15.7244 19.6307 15.7347 19.627 15.7456 19.6234C15.7542 19.6204 15.7628 19.6178 15.7714 19.6151C15.783 19.6118 15.7949 19.6088 15.8071 19.6058C15.815 19.6039 15.8233 19.6019 15.8312 19.6002C15.8451 19.5976 15.8594 19.5956 15.8736 19.5936C15.8802 19.5926 15.8868 19.5916 15.8934 19.591C15.9146 19.589 15.9358 19.5877 15.9576 19.5877H23.0983C23.1456 19.5877 23.1916 19.5929 23.2359 19.6022C23.4076 19.6386 23.5548 19.7418 23.649 19.8833C23.7188 19.9882 23.7598 20.1138 23.7598 20.2491V32.9584C23.7598 32.9782 23.7585 32.998 23.7568 33.0176C23.7562 33.0235 23.7555 33.0295 23.7548 33.0354C23.7532 33.05 23.7509 33.0645 23.7482 33.0787C23.7466 33.0877 23.7449 33.0963 23.7426 33.1052C23.7396 33.1174 23.7367 33.1297 23.733 33.1419C23.73 33.1522 23.7267 33.1624 23.7231 33.1727C23.7214 33.178 23.7195 33.1829 23.7175 33.1882C23.7032 33.2259 23.686 33.2623 23.6652 33.2967C23.6652 33.2967 23.6649 33.2967 23.6646 33.2967L23.6662 33.297ZM20.5597 19.0396C20.5597 19.0396 20.56 19.0396 20.5603 19.0396C20.5607 19.0396 20.5607 19.0396 20.561 19.0396H23.4261C23.6927 19.0396 23.9348 19.1471 24.111 19.3211C24.1964 19.4054 24.2665 19.5053 24.3164 19.6161C24.3591 19.7107 24.3872 19.8132 24.3974 19.921C24.4004 19.9521 24.4021 19.9835 24.4021 20.0153V32.3508C24.4021 32.3716 24.4011 32.3921 24.3998 32.4127C24.3994 32.4186 24.3988 32.4242 24.3984 32.4302C24.3971 32.4461 24.3955 32.4619 24.3935 32.4775C24.3928 32.4824 24.3922 32.4874 24.3915 32.4924C24.3885 32.5122 24.3852 32.532 24.3809 32.5516C24.3802 32.5552 24.3793 32.5588 24.3783 32.5628C24.3746 32.579 24.3707 32.5949 24.3664 32.6108C24.365 32.6161 24.3634 32.6217 24.3617 32.627C24.3568 32.6438 24.3515 32.6604 24.3459 32.6766C24.3449 32.6789 24.3442 32.6812 24.3435 32.6838C24.3369 32.7024 24.3293 32.7209 24.3214 32.7391C24.3194 32.7434 24.3174 32.7477 24.3154 32.752C24.3088 32.7665 24.3022 32.7808 24.2949 32.7946C24.2929 32.7989 24.2906 32.8029 24.2886 32.8072C24.2794 32.8247 24.2695 32.8423 24.2592 32.8591C24.2592 32.8595 24.2589 32.8598 24.2585 32.8601C24.2486 32.8767 24.2377 32.8925 24.2268 32.9084C24.2241 32.9121 24.2215 32.9157 24.2189 32.9193C24.2089 32.9332 24.1983 32.9471 24.1878 32.9603C24.1861 32.9623 24.1845 32.9646 24.1828 32.9666C24.1702 32.9822 24.157 32.9974 24.1431 33.0123C24.1415 33.0142 24.1395 33.0159 24.1378 33.0179C24.1259 33.0308 24.1134 33.0434 24.1008 33.0553C24.0981 33.0579 24.0952 33.0606 24.0925 33.0632C24.0631 33.0906 24.0323 33.1164 23.9996 33.1399C23.9969 33.1419 23.9943 33.1439 23.9916 33.1455C23.9771 33.1558 23.9625 33.1657 23.9473 33.1753C23.945 33.177 23.9427 33.1783 23.9404 33.1799C23.9229 33.1909 23.905 33.2014 23.8865 33.2114C23.8928 33.1922 23.898 33.1727 23.9027 33.1532C23.903 33.1512 23.9037 33.1492 23.904 33.1472C23.9086 33.128 23.9123 33.1088 23.9156 33.089C23.9156 33.0887 23.9156 33.0883 23.9156 33.088C23.9186 33.0688 23.9209 33.0496 23.9225 33.0298C23.9229 33.0258 23.9232 33.0215 23.9235 33.0176C23.9248 32.998 23.9258 32.9785 23.9258 32.9587V20.2494C23.9258 20.1181 23.8951 19.9941 23.8402 19.8837C23.7859 19.7739 23.7079 19.6783 23.613 19.6025C23.4717 19.4901 23.2931 19.4226 23.099 19.4226H16.6263H15.9582C15.9444 19.4226 15.9305 19.423 15.9169 19.4236C15.9129 19.4236 15.909 19.4243 15.905 19.4246C15.8957 19.4253 15.8861 19.4259 15.8769 19.4266C15.8699 19.4273 15.8633 19.4282 15.8567 19.4289C15.8504 19.4296 15.8441 19.4302 15.8379 19.4312C15.8293 19.4325 15.821 19.4339 15.8127 19.4355C15.8084 19.4362 15.8041 19.4368 15.7998 19.4378C15.7902 19.4398 15.7806 19.4418 15.7714 19.4441C15.7684 19.4448 15.7658 19.4454 15.7628 19.4461C15.7525 19.4487 15.7419 19.4514 15.7317 19.4544C15.7297 19.455 15.7281 19.4554 15.7261 19.456C15.7152 19.4593 15.7042 19.4626 15.6937 19.4663C15.6927 19.4666 15.6917 19.4669 15.6904 19.4673C15.6791 19.4712 15.6682 19.4752 15.6569 19.4795C15.6569 19.4795 15.6563 19.4795 15.656 19.4798C15.6778 19.4468 15.7013 19.4153 15.7267 19.3856C15.7271 19.3849 15.7277 19.3846 15.7281 19.3839C15.74 19.37 15.7522 19.3565 15.7648 19.3432C15.7661 19.3419 15.7674 19.3406 15.7687 19.3389C15.8084 19.2976 15.8517 19.2599 15.8984 19.2262C15.9007 19.2245 15.903 19.2229 15.9053 19.2212C15.9182 19.2119 15.9318 19.203 15.945 19.1941C15.948 19.1921 15.951 19.1905 15.9536 19.1885C15.9688 19.1789 15.984 19.1699 15.9996 19.1613C16.0002 19.161 16.0009 19.1607 16.0016 19.16C16.0184 19.1508 16.0356 19.1418 16.0532 19.1336C16.0551 19.1326 16.0571 19.1319 16.0591 19.1309C16.0737 19.124 16.0886 19.1177 16.1038 19.1114C16.1084 19.1094 16.113 19.1078 16.1173 19.1061C16.1306 19.1008 16.1438 19.0962 16.1573 19.0916C16.162 19.0899 16.1666 19.0883 16.1716 19.0869C16.1878 19.0816 16.2043 19.0767 16.2212 19.0724C16.2225 19.072 16.2241 19.0714 16.2255 19.0711C16.2437 19.0664 16.2622 19.0621 16.2807 19.0585C16.2853 19.0575 16.2903 19.0568 16.2949 19.0558C16.3088 19.0532 16.3227 19.0509 16.3369 19.0492C16.3432 19.0482 16.3492 19.0476 16.3554 19.0469C16.369 19.0453 16.3826 19.0439 16.3965 19.0429C16.4021 19.0426 16.4077 19.042 16.4133 19.0416C16.4325 19.0406 16.4517 19.0396 16.4712 19.0396H20.5593H20.5597ZM11.6042 17.3576C11.6042 17.3576 11.6049 17.3569 11.6052 17.3562C11.6171 17.342 11.6297 17.3284 11.6422 17.3152C11.6436 17.3139 11.6445 17.3126 11.6459 17.3113C11.6859 17.2699 11.7292 17.2319 11.7758 17.1981C11.7778 17.1965 11.7801 17.1952 11.7821 17.1935C11.7954 17.1839 11.8089 17.175 11.8225 17.1661C11.8251 17.1644 11.8278 17.1624 11.8307 17.1608C11.846 17.1512 11.8615 17.1419 11.8774 17.133C11.8777 17.133 11.8784 17.1323 11.8787 17.132C11.8956 17.1227 11.9131 17.1138 11.9306 17.1055C11.9323 17.1049 11.9339 17.1039 11.9359 17.1032C11.9508 17.0963 11.966 17.0897 11.9812 17.0834C11.9855 17.0817 11.9902 17.0797 11.9948 17.0781C12.008 17.0728 12.0216 17.0682 12.0351 17.0635C12.0398 17.0619 12.0444 17.0602 12.049 17.0589C12.0656 17.0536 12.0821 17.0487 12.0986 17.0444C12.1 17.044 12.1013 17.0437 12.1029 17.043C12.1211 17.0384 12.1396 17.0341 12.1585 17.0305C12.1631 17.0295 12.1678 17.0288 12.1724 17.0278C12.1863 17.0252 12.2005 17.0229 12.2144 17.0209C12.2203 17.0199 12.2266 17.0192 12.2326 17.0186C12.2461 17.0169 12.2597 17.0156 12.2736 17.0146C12.2792 17.0143 12.2848 17.0136 12.2905 17.0133C12.3096 17.0123 12.3288 17.0113 12.3483 17.0113H19.3029C19.841 17.0113 20.2789 17.4488 20.2789 17.9869V18.4767H19.803V18.2208C19.803 17.7647 19.4322 17.3939 18.9761 17.3939H11.8354C11.8334 17.3939 11.8314 17.3939 11.8294 17.3939C11.8179 17.3939 11.8063 17.3939 11.7947 17.3949C11.7878 17.3953 11.7808 17.3959 11.7742 17.3962C11.7679 17.3966 11.7613 17.3972 11.7547 17.3976C11.7461 17.3986 11.7375 17.3996 11.7289 17.4005C11.7246 17.4012 11.72 17.4015 11.7157 17.4022C11.7057 17.4035 11.6961 17.4055 11.6862 17.4072C11.6832 17.4078 11.6803 17.4082 11.6776 17.4088C11.6667 17.4108 11.6561 17.4131 11.6455 17.4158C11.6439 17.4161 11.6422 17.4164 11.6406 17.4171C11.6293 17.4197 11.6178 17.423 11.6065 17.426C11.6059 17.426 11.6049 17.4263 11.6042 17.4267C11.5923 17.43 11.5807 17.434 11.5691 17.4379C11.5691 17.4379 11.5691 17.4379 11.5688 17.4379C11.5569 17.4419 11.545 17.4462 11.5334 17.4508C11.5553 17.4177 11.5787 17.3863 11.6042 17.3562V17.3576ZM11.3727 30.3231V17.9876C11.3727 17.8927 11.3866 17.8011 11.412 17.7141C11.4537 17.679 11.5004 17.6499 11.5496 17.6258C11.5543 17.6235 11.5589 17.6211 11.5635 17.6192C11.5738 17.6145 11.5844 17.6102 11.5949 17.6059C11.6025 17.603 11.6105 17.6 11.6184 17.5973C11.6277 17.594 11.6366 17.5907 11.6459 17.5881C11.6624 17.5831 11.6793 17.5788 11.6961 17.5752C11.7028 17.5739 11.7097 17.5725 11.7163 17.5715C11.7295 17.5692 11.7431 17.5669 11.757 17.5653C11.7633 17.5646 11.7696 17.5636 11.7762 17.5633C11.7957 17.5616 11.8152 17.5603 11.8354 17.5603C11.8354 17.5603 11.8357 17.5603 11.836 17.5603H18.9768C19.3416 17.5603 19.6383 17.857 19.6383 18.2217V18.4777H16.4719C15.6239 18.4777 14.9336 19.1676 14.9336 20.016V25.3658V29.2869V31.2998H12.349C12.1883 31.2998 12.0365 31.2604 11.9025 31.1913C11.8397 31.1589 11.7808 31.1198 11.7266 31.0752C11.6386 31.0021 11.5635 30.9135 11.5056 30.8142C11.4216 30.67 11.373 30.5027 11.373 30.3241L11.3727 30.3231ZM9.39063 19.0486C9.39063 18.5105 9.82819 18.0729 10.3663 18.0729H10.8105V30.3231C10.8105 30.8308 11.0575 31.2812 11.4378 31.5617C11.6211 31.947 12.0136 32.2142 12.4681 32.2142H14.9333V32.3508C14.9333 32.3541 14.9333 32.3571 14.9333 32.3604H10.366C9.82786 32.3604 9.3903 31.9225 9.3903 31.3844V19.0489L9.39063 19.0486Z" fill="#231815"/>
<path d="M45.7324 27.0277C45.8594 27.0277 45.9626 26.9229 45.9626 26.7932C45.9626 26.6636 45.8594 26.5587 45.7324 26.5587C45.6054 26.5587 45.5023 26.6636 45.5023 26.7932C45.5023 26.9229 45.6054 27.0277 45.7324 27.0277Z" fill="#231815"/>
</svg>
