<svg width="76" height="76" viewBox="0 0 76 76" fill="none" xmlns="http://www.w3.org/2000/svg">
<path d="M38.5411 19.5305H23.0121C22.857 19.5305 22.731 19.6565 22.731 19.8116V22.0113C22.731 22.0136 22.731 22.0159 22.7313 22.0182C22.7313 22.0228 22.7316 22.0271 22.732 22.0318C22.7323 22.0367 22.7326 22.042 22.7333 22.047C22.7336 22.0509 22.7343 22.0546 22.7349 22.0585C22.7359 22.0642 22.7369 22.0698 22.7382 22.0754C22.7389 22.0784 22.7396 22.0814 22.7405 22.084C22.7422 22.0903 22.7439 22.0962 22.7462 22.1022C22.7468 22.1045 22.7478 22.1065 22.7485 22.1088C22.7508 22.1151 22.7534 22.1217 22.7561 22.128C22.7571 22.13 22.7577 22.1316 22.7587 22.1333C22.7617 22.1396 22.765 22.1459 22.7683 22.1518C22.7693 22.1538 22.7706 22.1555 22.7716 22.1574C22.7749 22.1631 22.7786 22.1687 22.7826 22.1743C22.7842 22.1763 22.7855 22.1786 22.7872 22.1806C22.7908 22.1855 22.7948 22.1905 22.7988 22.1951C22.8007 22.1975 22.8031 22.1998 22.805 22.2021C22.809 22.2064 22.8126 22.2104 22.8169 22.2143C22.8196 22.217 22.8222 22.2193 22.8249 22.2216C22.8289 22.2252 22.8328 22.2289 22.8371 22.2322C22.8401 22.2345 22.8431 22.2365 22.846 22.2388C22.8503 22.2421 22.855 22.2451 22.8596 22.2481C22.8626 22.25 22.8656 22.2517 22.8685 22.2533C22.8735 22.2563 22.8788 22.2593 22.8841 22.2619C22.8867 22.2633 22.8894 22.2646 22.892 22.2659C22.898 22.2686 22.9039 22.2712 22.9102 22.2739C22.9125 22.2748 22.9148 22.2755 22.9172 22.2765C22.9238 22.2788 22.9304 22.2808 22.9373 22.2828C22.9383 22.2828 22.9396 22.2834 22.9406 22.2838L24.1743 22.6062L24.4554 22.6797L24.7365 22.7531L26.6544 23.2545L27.7296 23.5356L28.8048 23.8167L30.3235 24.2139V25.0698V30.3443H30.8857V25.217V24.3611L31.0405 24.4014V25.2574V30.3443H31.6028V25.4045V22.2927H38.5411C38.6962 22.2927 38.8222 22.1667 38.8222 22.0116V19.8119C38.8222 19.6568 38.6962 19.5308 38.5411 19.5308V19.5305ZM23.2932 20.0927H37.4897V21.7301H23.2932V20.0927ZM28.8772 23.2541L25.1989 22.2924H30.3238V23.6325L29.9524 23.5353L28.8772 23.2541ZM31.0408 22.2924V23.82L31.0273 23.8164L30.8861 23.7793V22.2924H31.0408Z" fill="#B580D8"/>
<path d="M24.6634 33.9711C24.5417 33.8378 24.3829 33.7389 24.204 33.6899C24.1226 33.6678 24.037 33.6555 23.9487 33.6555H22.7369C22.6959 33.5729 22.6486 33.4905 22.595 33.4088C22.595 33.4085 22.5943 33.4078 22.5943 33.4075C22.5146 33.2865 22.421 33.1661 22.3132 33.047C22.2858 33.0169 22.2576 32.9865 22.2285 32.9564C22.167 32.8929 22.1015 32.8297 22.0321 32.7669C21.8938 32.6415 21.7401 32.5172 21.5701 32.3941C21.5701 32.3941 21.5697 32.3941 21.5694 32.3938C21.5423 32.374 21.5142 32.3545 21.4861 32.3349C21.4761 32.328 21.4665 32.3211 21.4563 32.3141C21.4305 32.2963 21.404 32.2784 21.3776 32.2609C21.3647 32.2523 21.3518 32.2433 21.3389 32.2347C21.3137 32.2182 21.2879 32.2013 21.2625 32.1848C21.2473 32.1749 21.2324 32.1653 21.2168 32.1554C21.192 32.1395 21.1666 32.1236 21.1411 32.1081C21.1242 32.0975 21.1074 32.0869 21.0902 32.0763C21.0654 32.0611 21.0402 32.0459 21.0148 32.0307C20.9962 32.0194 20.9777 32.0085 20.9589 31.9973C20.9341 31.9827 20.9089 31.9682 20.8838 31.9536C20.8636 31.942 20.8434 31.9305 20.8229 31.9186C20.7981 31.9047 20.7733 31.8905 20.7482 31.8766C20.7264 31.8643 20.7045 31.8524 20.6824 31.8402C20.6576 31.8266 20.6328 31.8131 20.6076 31.7998C20.5842 31.7873 20.5603 31.7747 20.5365 31.7621C20.5121 31.7492 20.4876 31.7363 20.4628 31.7234C20.4373 31.7102 20.4118 31.6973 20.386 31.6841C20.3619 31.6718 20.3374 31.6593 20.313 31.647C20.2855 31.6335 20.2581 31.6196 20.2303 31.606C20.2065 31.5944 20.183 31.5825 20.1588 31.571C20.1291 31.5564 20.099 31.5422 20.0689 31.528C20.0461 31.5171 20.0232 31.5061 20.0001 31.4952C19.9677 31.48 19.9346 31.4648 19.9015 31.4496C19.88 31.4397 19.8585 31.4297 19.8367 31.4198C19.8 31.403 19.7623 31.3864 19.7249 31.3699C19.7061 31.3616 19.6876 31.353 19.6687 31.3447C19.6237 31.3249 19.5781 31.3051 19.5321 31.2855C19.5202 31.2803 19.5083 31.2753 19.4961 31.27C19.4372 31.2449 19.3777 31.2197 19.3171 31.1946C19.2715 31.1757 19.2364 31.1612 19.2133 31.1509C19.1829 31.1377 19.1471 31.1232 19.1075 31.107C18.9904 31.0597 18.8329 30.9955 18.6944 30.9062C18.5647 30.8229 18.4519 30.7177 18.4053 30.5834C18.3808 30.5126 18.3746 30.4323 18.3858 30.344C18.4027 30.2133 18.4582 30.0642 18.5532 29.8975C18.9646 29.1745 19.3023 28.3186 19.5364 27.4087C19.9452 27.4087 20.352 27.2024 20.4995 26.694C20.7128 25.9592 20.8597 25.2223 20.4939 24.8135C20.3586 24.6624 20.1757 24.5794 19.9482 24.5651C19.929 23.9672 19.8218 23.4288 19.6313 22.9621C19.8119 22.7802 19.9753 22.5685 20.1201 22.3274C20.186 22.218 20.1698 22.0781 20.0808 21.9868C20.0054 21.9091 19.8936 21.8829 19.7937 21.915C19.6942 21.8915 19.4438 21.7483 19.2401 21.6322C18.693 21.32 17.8666 20.8481 16.9263 20.7393C15.8584 20.6156 14.8771 20.983 14.0063 21.8317C13.9527 21.8816 13.9015 21.9345 13.8518 21.9891C13.8456 21.9957 13.8393 22.002 13.833 22.0086C13.826 22.0162 13.8194 22.0242 13.8131 22.0321C13.8006 22.0463 13.7877 22.0599 13.7754 22.0744C13.1543 22.8123 12.9705 23.8197 13.0058 24.626C12.7628 24.6313 12.568 24.711 12.4241 24.8641C12.0437 25.2699 12.1909 26.0137 12.4069 26.7572C12.5855 27.3727 13.1285 27.5142 13.5277 27.463C13.6537 27.5817 13.9325 27.9065 14.2183 28.6493C14.4257 29.1881 14.6254 29.8016 14.4293 30.3436C14.4147 30.384 14.3982 30.4237 14.379 30.463C14.1955 30.842 13.7966 31.1632 13.1904 31.4221C13.022 31.4939 12.8375 31.561 12.6374 31.6232C10.6639 32.2357 10.0174 33.1757 9.81067 33.6552H9.007C8.47254 33.6552 8.03796 34.0898 8.03796 34.6243C8.03796 35.1587 8.47254 35.5933 9.007 35.5933H23.9473C24.3363 35.5933 24.6726 35.3628 24.8264 35.031C24.884 34.9074 24.9164 34.7694 24.9164 34.6243C24.9164 34.3726 24.8198 34.1434 24.662 33.9707L24.6634 33.9711ZM12.8054 32.1603C13.8667 31.8309 14.5398 31.3722 14.8602 30.7594C14.8606 30.7584 14.8612 30.7574 14.8616 30.7567C14.8698 30.7408 14.8781 30.7246 14.886 30.7084C15.2426 29.9729 15.0286 29.1871 14.7441 28.4476C14.2805 27.2431 13.7916 26.9464 13.7374 26.9166C13.6736 26.8816 13.5982 26.8726 13.5277 26.8918C13.5264 26.8921 13.3981 26.9236 13.2622 26.8998C13.0968 26.871 12.9999 26.779 12.948 26.6008C12.7313 25.855 12.6933 25.4002 12.8352 25.2491C12.9205 25.1581 13.1348 25.1892 13.2549 25.216C13.3445 25.2359 13.4381 25.2107 13.5059 25.1489C13.5737 25.0867 13.6068 24.9957 13.5945 24.9048C13.5046 24.2245 13.5952 23.2796 14.0959 22.5791C14.6436 22.9343 16.1077 23.7853 17.562 23.7853C17.7839 23.7853 18.0061 23.7654 18.2241 23.7208C18.571 23.65 18.8875 23.5217 19.1719 23.3371C19.3241 23.776 19.3982 24.2873 19.3889 24.8588C19.3863 25.0444 19.374 25.2395 19.3529 25.4389C19.3363 25.5934 19.4481 25.732 19.6026 25.7482C19.7567 25.7644 19.8956 25.6529 19.9118 25.4985C19.925 25.3738 19.9346 25.2504 19.9412 25.1294C19.9961 25.1366 20.0444 25.1545 20.0752 25.1889C20.2134 25.3433 20.1747 25.7974 19.9597 26.5379C19.9118 26.7036 19.8258 26.7936 19.6816 26.8293C19.5463 26.863 19.4097 26.8356 19.3839 26.8296C19.3796 26.8286 19.375 26.828 19.3707 26.8273C19.3661 26.8267 19.3615 26.8257 19.3568 26.825C19.3522 26.8243 19.3476 26.8243 19.3426 26.824C19.338 26.8237 19.3333 26.823 19.3287 26.823C19.3241 26.823 19.3194 26.823 19.3148 26.823C19.3102 26.823 19.3056 26.823 19.3009 26.8234C19.2963 26.8237 19.2913 26.8243 19.2867 26.825C19.2824 26.8257 19.2781 26.826 19.2735 26.8267C19.2685 26.8277 19.2639 26.8286 19.2593 26.83C19.2553 26.831 19.251 26.8316 19.247 26.8329C19.2421 26.8343 19.2374 26.8359 19.2328 26.8376C19.2288 26.8389 19.2252 26.8399 19.2212 26.8415C19.2166 26.8432 19.212 26.8455 19.2073 26.8475C19.2037 26.8492 19.2001 26.8505 19.1964 26.8525C19.1918 26.8548 19.1875 26.8574 19.1832 26.8597C19.1799 26.8617 19.1762 26.8634 19.1729 26.8657C19.1686 26.8683 19.1647 26.8713 19.1604 26.8743C19.1571 26.8766 19.1538 26.8786 19.1508 26.8812C19.1468 26.8842 19.1428 26.8878 19.1392 26.8912C19.1362 26.8938 19.1332 26.8961 19.1303 26.8988C19.1266 26.9024 19.123 26.906 19.1197 26.9097C19.117 26.9127 19.1141 26.9153 19.1114 26.9183C19.1081 26.9222 19.1048 26.9262 19.1018 26.9302C19.0995 26.9332 19.0969 26.9361 19.0946 26.9394C19.0916 26.9437 19.0889 26.948 19.086 26.9523C19.0836 26.9556 19.0817 26.959 19.0793 26.9623C19.0767 26.9669 19.0744 26.9715 19.0721 26.9762C19.0701 26.9798 19.0681 26.9831 19.0664 26.9871C19.0641 26.9917 19.0625 26.9967 19.0605 27.0016C19.0588 27.0056 19.0572 27.0092 19.0559 27.0132C19.0542 27.0182 19.0529 27.0231 19.0516 27.0281C19.0506 27.032 19.0492 27.0357 19.0483 27.0397C18.8257 27.9872 18.4854 28.8795 18.064 29.6197C17.8418 30.0099 17.7697 30.3665 17.8484 30.6813C17.8487 30.6826 17.849 30.6843 17.8494 30.6856C17.8513 30.6942 17.8537 30.7025 17.8563 30.7107C17.8616 30.7299 17.8672 30.7491 17.8738 30.768C18.0538 31.2865 18.6018 31.5088 18.8961 31.6279C18.9305 31.6417 18.9616 31.6543 18.9877 31.6659C19.0132 31.6771 19.0519 31.693 19.1018 31.7138C20.1086 32.1309 20.8097 32.5291 21.2962 32.8906C21.3055 32.8975 21.3147 32.9041 21.3237 32.9111C21.6484 33.1555 21.8747 33.3824 22.0314 33.5868C22.0493 33.6099 22.0661 33.6331 22.0824 33.6559H10.447C10.7033 33.2537 11.3244 32.6204 12.8051 32.1607L12.8054 32.1603ZM23.9487 35.031H9.00832C8.93126 35.031 8.85949 35.0092 8.79798 34.9715C8.68057 34.9001 8.60186 34.7714 8.60186 34.6243C8.60186 34.4771 8.68057 34.3484 8.79798 34.277C8.85949 34.2396 8.93126 34.2178 9.00832 34.2178H23.9487C24.0257 34.2178 24.0975 34.2396 24.159 34.277C24.2764 34.3484 24.3551 34.4771 24.3551 34.6243C24.3551 34.7714 24.2764 34.9001 24.159 34.9715C24.0975 35.0089 24.0257 35.0307 23.9487 35.031Z" fill="#6194F6"/>
<path d="M17.1677 26.7648C16.7474 26.7648 16.418 27.1905 16.418 27.7342C16.418 28.2779 16.7474 28.7035 17.1677 28.7035C17.5881 28.7035 17.9175 28.2779 17.9175 27.7342C17.9175 27.1905 17.5881 26.7648 17.1677 26.7648Z" fill="#FE9B9B"/>
<path d="M45.156 32.3945H41.9823V30.9062V30.4204C41.9823 30.3946 41.9813 30.3694 41.9797 30.344C41.94 29.7076 41.4098 29.2016 40.7636 29.2016H40.4388C39.7926 29.2016 39.2624 29.7073 39.2227 30.344C39.2211 30.3691 39.2201 30.3946 39.2201 30.4204V30.9062V32.3945V35.5936V37.0822V37.4533C39.2201 37.5185 39.2254 37.5823 39.2353 37.6445C39.2353 37.6445 39.2353 37.6451 39.2353 37.6455C39.2432 37.6947 39.2542 37.7434 39.2677 37.7907C39.2694 37.7959 39.2707 37.8016 39.2723 37.8069C39.276 37.8184 39.28 37.83 39.2836 37.8416C39.2856 37.8479 39.2879 37.8542 39.2899 37.8604C39.2938 37.8714 39.2981 37.8826 39.3021 37.8935C39.3048 37.9001 39.3071 37.9067 39.3101 37.9134C39.3143 37.9239 39.319 37.9345 39.3236 37.9451C39.3266 37.9517 39.3296 37.9583 39.3325 37.9649C39.3372 37.9752 39.3421 37.9855 39.3471 37.9954C39.3504 38.002 39.3537 38.0086 39.357 38.0149C39.3623 38.0248 39.3676 38.0347 39.3729 38.0447C39.3765 38.0509 39.3802 38.0572 39.3838 38.0635C39.3894 38.0734 39.395 38.083 39.401 38.0926C39.404 38.0976 39.4073 38.1025 39.4106 38.1075C39.4113 38.1085 39.4119 38.1095 39.4122 38.1101C39.4185 38.1197 39.4248 38.1296 39.4311 38.1392C39.4344 38.1442 39.438 38.1488 39.4413 38.1535C39.4648 38.1869 39.4903 38.2189 39.5168 38.25C39.5217 38.256 39.5267 38.2616 39.532 38.2676C39.5386 38.2752 39.5459 38.2824 39.5528 38.2897C39.5588 38.296 39.5644 38.302 39.5703 38.3082C39.5773 38.3152 39.5842 38.3221 39.5912 38.3287C39.5975 38.335 39.6037 38.341 39.6104 38.3469C39.6173 38.3536 39.6246 38.3598 39.6318 38.3661C39.6388 38.3721 39.6454 38.378 39.6524 38.384C39.654 38.3856 39.656 38.387 39.6576 38.3883C39.6629 38.3929 39.6686 38.3972 39.6739 38.4018C39.6811 38.4078 39.6884 38.4134 39.696 38.419C39.7033 38.4247 39.7106 38.4303 39.7182 38.4356C39.7261 38.4412 39.734 38.4468 39.742 38.4524C39.7493 38.4574 39.7565 38.4627 39.7638 38.4677C39.7724 38.4733 39.781 38.4789 39.7896 38.4842C39.7966 38.4885 39.8035 38.4931 39.8108 38.4974C39.8207 38.5034 39.8309 38.5093 39.8412 38.5149C39.8472 38.5183 39.8531 38.5219 39.8594 38.5252C39.8756 38.5341 39.8921 38.5424 39.9087 38.5507C39.9133 38.553 39.9179 38.5546 39.9222 38.5569C39.9348 38.5629 39.9474 38.5685 39.9599 38.5741C39.9665 38.5771 39.9735 38.5794 39.9801 38.5824C39.991 38.5867 40.0019 38.5913 40.0128 38.5953C40.0201 38.598 40.0274 38.6006 40.0347 38.6033C40.0453 38.6069 40.0558 38.6109 40.0668 38.6142C40.0744 38.6165 40.082 38.6188 40.0899 38.6211C40.1005 38.6244 40.1114 38.6274 40.1223 38.6304C40.1303 38.6324 40.1379 38.6343 40.1458 38.6363C40.1567 38.639 40.1676 38.6416 40.1785 38.6439C40.1865 38.6456 40.1944 38.6472 40.2024 38.6489C40.2136 38.6512 40.2248 38.6532 40.2364 38.6548C40.2444 38.6562 40.252 38.6575 40.2599 38.6585C40.2718 38.6601 40.284 38.6618 40.296 38.6631C40.3032 38.6641 40.3108 38.6651 40.3181 38.6658C40.3317 38.6671 40.3452 38.6681 40.3588 38.6687C40.3611 38.6687 40.3634 38.6691 40.3654 38.6691C40.3694 38.6691 40.373 38.6697 40.377 38.6697C40.3968 38.6707 40.4167 38.6714 40.4368 38.6714H40.7616C40.7818 38.6714 40.8016 38.6707 40.8215 38.6697C40.8255 38.6697 40.8291 38.6691 40.8331 38.6691C40.8354 38.6691 40.8377 38.6691 40.8397 38.6687C40.8532 38.6677 40.8668 38.6671 40.8803 38.6658C40.8876 38.6651 40.8952 38.6641 40.9025 38.6631C40.9147 38.6618 40.9267 38.6601 40.9386 38.6585C40.9465 38.6575 40.9541 38.6558 40.962 38.6548C40.9733 38.6529 40.9849 38.6509 40.9961 38.6489C41.004 38.6472 41.012 38.6456 41.0199 38.6439C41.0308 38.6416 41.0417 38.639 41.0527 38.6363C41.0606 38.6343 41.0685 38.6324 41.0761 38.6304C41.0871 38.6274 41.0976 38.6244 41.1086 38.6211C41.1162 38.6188 41.1241 38.6165 41.1317 38.6142C41.1426 38.6109 41.1532 38.6069 41.1638 38.6033C41.1711 38.6006 41.1783 38.5983 41.1856 38.5953C41.1965 38.5913 41.2074 38.5867 41.2184 38.5824C41.225 38.5798 41.2319 38.5771 41.2385 38.5741C41.2514 38.5689 41.264 38.5629 41.2766 38.5569C41.2812 38.555 41.2858 38.553 41.2901 38.5507C41.3067 38.5427 41.3232 38.5341 41.3394 38.5252C41.3457 38.5219 41.3516 38.5183 41.3576 38.5149C41.3678 38.5093 41.3781 38.5034 41.388 38.4974C41.3953 38.4931 41.4022 38.4885 41.4092 38.4842C41.4178 38.4786 41.4267 38.4733 41.4353 38.4677C41.4426 38.4627 41.4499 38.4577 41.4571 38.4524C41.4651 38.4468 41.473 38.4412 41.481 38.4356C41.4882 38.4303 41.4955 38.4247 41.5028 38.419C41.5101 38.4134 41.5177 38.4075 41.5249 38.4018C41.5306 38.3975 41.5359 38.3929 41.5411 38.3883C41.5428 38.3866 41.5448 38.3853 41.5464 38.384C41.5534 38.378 41.5603 38.3721 41.5673 38.3661C41.5745 38.3598 41.5815 38.3536 41.5884 38.3469C41.5951 38.341 41.6013 38.3347 41.6076 38.3284C41.6146 38.3215 41.6218 38.3149 41.6285 38.3079C41.6344 38.302 41.6404 38.2957 41.646 38.2894C41.6529 38.2821 41.6599 38.2748 41.6668 38.2672C41.6721 38.2616 41.6771 38.2557 41.682 38.2497C41.7088 38.2189 41.734 38.1865 41.7574 38.1531C41.7607 38.1485 41.7644 38.1439 41.7677 38.1389C41.7743 38.1293 41.7803 38.1197 41.7865 38.1098C41.7872 38.1088 41.7879 38.1078 41.7882 38.1072C41.7915 38.1022 41.7945 38.0972 41.7978 38.0923C41.8037 38.0827 41.8094 38.0728 41.815 38.0632C41.8186 38.0569 41.8223 38.0506 41.8259 38.0443C41.8315 38.0344 41.8365 38.0245 41.8418 38.0146C41.8451 38.0079 41.8484 38.0017 41.8517 37.995C41.8567 37.9848 41.8616 37.9749 41.8663 37.9646C41.8692 37.958 41.8722 37.9514 41.8752 37.9448C41.8798 37.9342 41.8844 37.9239 41.8887 37.913C41.8914 37.9064 41.894 37.8998 41.8967 37.8932C41.901 37.8823 41.9053 37.8714 41.9089 37.8601C41.9112 37.8538 41.9132 37.8475 41.9152 37.8413C41.9192 37.8297 41.9231 37.8181 41.9264 37.8065C41.9281 37.8012 41.9294 37.7956 41.9311 37.7903C41.9446 37.743 41.9559 37.6947 41.9635 37.6451C41.9635 37.6451 41.9635 37.6445 41.9635 37.6441C41.9734 37.582 41.9787 37.5181 41.9787 37.453V37.0819V35.5933V34.8492H44.229C44.3841 34.8492 44.5101 34.7231 44.5101 34.568V33.9707H45.1527C45.3078 33.9707 45.4338 33.8447 45.4338 33.6896V32.6753C45.4338 32.5202 45.3081 32.3942 45.1527 32.3942L45.156 32.3945ZM40.7636 38.1098H40.4388C40.4233 38.1098 40.4081 38.1085 40.3929 38.1075C40.0525 38.0837 39.7827 37.7999 39.7827 37.4533V37.3657V35.3148V32.6779V30.6274V30.4204C39.7827 30.3073 39.8114 30.2008 39.862 30.1078C39.9732 29.9031 40.1901 29.7642 40.4392 29.7642H40.7639C41.0126 29.7642 41.2296 29.9034 41.3411 30.1078C41.3917 30.2008 41.4204 30.3073 41.4204 30.4204V30.6221V30.6284V32.6726V32.6759V32.6792V33.6906V33.852V34.569V35.3099V35.3161V37.3607V37.367V37.4536C41.4204 37.7999 41.1506 38.084 40.8102 38.1078C40.795 38.1088 40.7798 38.1101 40.7643 38.1101L40.7636 38.1098ZM43.9512 34.1325V34.2872H41.982V34.1325H43.9512Z" fill="#F0C104"/>
<path d="M56.4752 40.7199H52.3728C52.2177 40.7199 52.0917 40.5939 52.0917 40.4388C52.0917 40.2837 52.2177 40.1577 52.3728 40.1577H56.4752C56.6303 40.1577 56.7563 40.2837 56.7563 40.4388C56.7563 40.5939 56.6303 40.7199 56.4752 40.7199Z" fill="#FF6021"/>
<path d="M23.2931 42.7708H19.1908C19.0357 42.7708 18.9097 42.6448 18.9097 42.4896C18.9097 42.3345 19.0357 42.2085 19.1908 42.2085H23.2931C23.4483 42.2085 23.5743 42.3345 23.5743 42.4896C23.5743 42.6448 23.4483 42.7708 23.2931 42.7708Z" fill="#FF6021"/>
<path d="M56.4752 46.548H52.3728C52.2177 46.548 52.0917 46.422 52.0917 46.2669C52.0917 46.1118 52.2177 45.9858 52.3728 45.9858H56.4752C56.6303 45.9858 56.7563 46.1118 56.7563 46.2669C56.7563 46.422 56.6303 46.548 56.4752 46.548Z" fill="#FF6021"/>
<path d="M56.4752 52.3761H52.3728C52.2177 52.3761 52.0917 52.2501 52.0917 52.095C52.0917 51.9399 52.2177 51.8139 52.3728 51.8139H56.4752C56.6303 51.8139 56.7563 51.9399 56.7563 52.095C56.7563 52.2501 56.6303 52.3761 56.4752 52.3761Z" fill="#FF6021"/>
<path d="M23.2931 38.6697H19.1908C19.0357 38.6697 18.9097 38.5437 18.9097 38.3886C18.9097 38.2335 19.0357 38.1075 19.1908 38.1075H23.2931C23.4483 38.1075 23.5743 38.2335 23.5743 38.3886C23.5743 38.5437 23.4483 38.6697 23.2931 38.6697Z" fill="#FF6021"/>
<path d="M56.4752 38.6697H52.3728C52.2177 38.6697 52.0917 38.5437 52.0917 38.3886C52.0917 38.2335 52.2177 38.1075 52.3728 38.1075H56.4752C56.6303 38.1075 56.7563 38.2335 56.7563 38.3886C56.7563 38.5437 56.6303 38.6697 56.4752 38.6697Z" fill="#FF6021"/>
<path d="M24.1752 23.5551C24.1755 23.5604 24.1761 23.5657 24.1768 23.571C24.1771 23.5746 24.1778 23.5779 24.1785 23.5816C24.1795 23.5875 24.1804 23.5935 24.1818 23.5991C24.1824 23.6017 24.1831 23.6044 24.1837 23.6067C24.1854 23.6133 24.1874 23.6196 24.1894 23.6259C24.19 23.6275 24.1907 23.6295 24.1914 23.6312C24.194 23.6381 24.1966 23.6447 24.1996 23.6513C24.2003 23.6527 24.2009 23.6543 24.2016 23.6556C24.2049 23.6623 24.2082 23.6689 24.2119 23.6755C24.2129 23.6768 24.2135 23.6785 24.2145 23.6798C24.2181 23.6861 24.2221 23.692 24.2264 23.698C24.2277 23.6996 24.2291 23.7013 24.2301 23.7029C24.234 23.7082 24.2383 23.7135 24.2426 23.7188C24.2443 23.7208 24.2463 23.7228 24.2479 23.7248C24.2522 23.7294 24.2565 23.7337 24.2608 23.738C24.2631 23.74 24.2654 23.742 24.2678 23.7443C24.2721 23.7482 24.2767 23.7522 24.2813 23.7558C24.2836 23.7578 24.2863 23.7595 24.2889 23.7615C24.2939 23.7651 24.2985 23.7684 24.3038 23.7717C24.3061 23.7734 24.3088 23.7747 24.3114 23.7764C24.317 23.7797 24.3227 23.783 24.3283 23.7856C24.3306 23.7866 24.3326 23.7876 24.3349 23.7889C24.3412 23.7919 24.3478 23.7949 24.3544 23.7972C24.3564 23.7979 24.358 23.7985 24.36 23.7992C24.367 23.8018 24.3743 23.8038 24.3815 23.8058C24.3825 23.8058 24.3835 23.8065 24.3842 23.8068L30.3231 25.3596V25.0692V24.7785L26.6421 23.816H28.8044L27.7292 23.5349L26.654 23.2538L24.7361 22.7524L24.4549 22.679L24.1738 22.6056V23.5353C24.1738 23.5376 24.1738 23.5399 24.1742 23.5422C24.1742 23.5465 24.1745 23.5508 24.1748 23.5551H24.1752Z" fill="#231815"/>
<path d="M29.9517 23.5353L30.3231 23.6325V23.5353V23.2541V22.2924H25.1985L28.8769 23.2541L29.9517 23.5353Z" fill="#231815"/>
<path d="M22.0321 33.6555H22.083C22.0668 33.6327 22.05 33.6099 22.0321 33.5864V33.6555Z" fill="#231815"/>
<path d="M39.2201 33.6899V32.3945H21.5701C21.7401 32.5175 21.8939 32.6419 22.0321 32.7672C22.1015 32.83 22.167 32.8932 22.2285 32.9567C22.2577 32.9868 22.2861 33.0169 22.3132 33.0473C22.421 33.1664 22.5146 33.2868 22.5943 33.4078C22.5943 33.4082 22.595 33.4088 22.595 33.4092C22.6486 33.4908 22.6962 33.5732 22.7369 33.6559H23.9487C24.037 33.6559 24.1226 33.6681 24.204 33.6903C24.3829 33.7392 24.5417 33.8381 24.6634 33.9714H39.2201V33.6903V33.6899Z" fill="#231815"/>
<path d="M39.4123 38.1087C39.4123 38.1087 39.4117 38.1078 39.4115 38.1075C39.4115 38.1075 39.4121 38.1084 39.4124 38.1087H39.4123Z" fill="#231815"/>
<path d="M41.79 38.1071C41.79 38.1071 41.7893 38.1081 41.7892 38.1084C41.7895 38.1079 41.7898 38.1075 41.7901 38.1071H41.79Z" fill="#231815"/>
<path d="M23.9486 35.5936H39.22V35.0314H24.8277C24.6736 35.3631 24.3375 35.5936 23.9486 35.5936Z" fill="#231815"/>
<path d="M14.3803 30.4634C14.3995 30.424 14.416 30.3843 14.4306 30.344H14.4025C13.7781 30.344 13.2618 30.8162 13.192 31.4225C13.7982 31.1635 14.1968 30.8424 14.3807 30.4634H14.3803Z" fill="#231815"/>
<path d="M18.3861 30.344C18.3745 30.4326 18.3808 30.5126 18.4056 30.5834C18.4522 30.7177 18.565 30.8229 18.6947 30.9062H31.7667H32.0478H33.046H39.2197V30.4204C39.2197 30.3946 39.2207 30.3694 39.2223 30.344H33.046V23.8164H39.9843C40.1394 23.8164 40.2654 23.6904 40.2654 23.5353V21.3356C40.2654 21.1805 40.1394 21.0545 39.9843 21.0545H38.8218V22.0113C38.8218 22.1664 38.6958 22.2924 38.5407 22.2924H31.6023V23.8164H31.7664V25.1565L31.6023 25.1135V25.4042V25.6949L31.7664 25.7379V30.3443H18.3858L18.3861 30.344Z" fill="#231815"/>
<path d="M18.1461 25.0096C18.3329 25.0096 18.4742 24.8476 18.4742 24.6326C18.4742 24.4176 18.3333 24.2556 18.1461 24.2556C17.9589 24.2556 17.818 24.4176 17.818 24.6326C17.818 24.8476 17.9589 25.0096 18.1461 25.0096Z" fill="#231815"/>
<path d="M15.5474 25.2058C15.7343 25.2058 15.8755 25.0437 15.8755 24.8287C15.8755 24.6138 15.7346 24.4517 15.5474 24.4517C15.3603 24.4517 15.2194 24.6138 15.2194 24.8287C15.2194 25.0437 15.3603 25.2058 15.5474 25.2058Z" fill="#231815"/>
<path d="M17.1677 25.8153V25.943C17.0126 25.943 16.8866 26.069 16.8866 26.2241C16.8866 26.3792 17.0126 26.5052 17.1677 26.5052H17.6363C17.7299 26.5052 17.8172 26.4586 17.8695 26.3812C17.9217 26.3038 17.932 26.2052 17.8969 26.1186L17.4283 24.9607C17.3701 24.8168 17.206 24.7474 17.0622 24.8056C16.9183 24.8638 16.8489 25.0278 16.9071 25.1717L17.1677 25.8153Z" fill="#231815"/>
<path d="M67.2252 57.3066L62.4826 36.2925V36.2379C62.4826 36.2339 62.4822 36.2299 62.4819 36.226C62.4816 36.2078 62.4809 36.1896 62.4796 36.1714C62.4812 36.1592 62.4826 36.1466 62.4826 36.1337V31.6441C62.4826 31.6441 62.4826 31.6437 62.4826 31.6434V31.562C62.4826 30.89 61.9359 30.3433 61.2638 30.3433H41.9794C41.981 30.3684 41.982 30.3939 41.982 30.4197V30.9055H61.2638C61.6256 30.9055 61.9203 31.1999 61.9203 31.562V31.7377C61.9203 31.9751 61.793 32.1832 61.6035 32.2982C61.5043 32.3584 61.3882 32.3942 61.2638 32.3942H45.156C45.3111 32.3942 45.4371 32.5202 45.4371 32.6753V33.6896C45.4371 33.8447 45.3111 33.9707 45.156 33.9707H61.8237C61.8578 33.9707 61.8902 33.9645 61.9206 33.9532V35.2235C61.7311 35.1018 61.5059 35.0307 61.2641 35.0307H41.9823V35.593H61.2641C61.3885 35.593 61.5046 35.6284 61.6038 35.6889C61.7933 35.804 61.9206 36.012 61.9206 36.2495V36.4254C61.9206 36.7872 61.6263 37.0816 61.2645 37.0819H61.2393H60.3083H60.3074C60.3057 37.0819 60.304 37.0819 60.3024 37.0819H48.548C48.5463 37.0819 48.5447 37.0819 48.543 37.0819H48.542H41.9837V37.453C41.9837 37.5181 41.9784 37.582 41.9684 37.6441H46.6734C46.9681 37.6441 47.2178 37.8393 47.3005 38.1072C47.3193 38.1683 47.3296 38.2332 47.3296 38.3006V38.4763C47.3296 38.5434 47.3193 38.6082 47.3005 38.6694C47.2178 38.9373 46.9677 39.1324 46.6731 39.1324H28.9956C28.7009 39.1324 28.4509 38.9373 28.3682 38.6694C28.3494 38.6082 28.3391 38.5434 28.3391 38.4763V38.3006C28.3391 38.2332 28.3494 38.1683 28.3682 38.1072C28.4509 37.8393 28.7009 37.6441 28.9953 37.6441H39.2363C39.2264 37.582 39.2211 37.5181 39.2211 37.453V37.0819H27.1214C27.1214 37.0819 27.1207 37.0819 27.1204 37.0819H15.366C15.366 37.0819 15.3653 37.0819 15.365 37.0819H14.4035C14.3357 37.0819 14.2703 37.0717 14.2087 37.0525C14.2048 37.0511 14.2011 37.0495 14.1972 37.0482C14.1806 37.0425 14.1644 37.0369 14.1485 37.0303C14.1409 37.027 14.1337 37.023 14.1261 37.0194C14.1145 37.0138 14.1026 37.0088 14.0913 37.0025C14.0821 36.9976 14.0731 36.9916 14.0639 36.986C14.055 36.9807 14.0457 36.9754 14.0371 36.9698C14.0255 36.9622 14.0149 36.9533 14.0037 36.945C13.9981 36.9407 13.9921 36.9367 13.9865 36.9321C13.9733 36.9212 13.961 36.9096 13.9488 36.8977C13.9458 36.895 13.9428 36.8924 13.9402 36.8898C13.9266 36.8762 13.9137 36.862 13.9015 36.8471C13.9005 36.8458 13.8992 36.8444 13.8979 36.8431C13.8846 36.8272 13.8724 36.8107 13.8608 36.7938C13.8608 36.7935 13.8602 36.7932 13.8602 36.7928C13.7894 36.6883 13.7477 36.5623 13.7477 36.4267V36.2491V36.2485C13.7477 36.1585 13.7662 36.0725 13.7996 35.9945C13.7996 35.9938 13.8003 35.9935 13.8003 35.9928C13.8086 35.9736 13.8175 35.9551 13.8271 35.9373C13.8274 35.9366 13.8281 35.9359 13.8284 35.9349C13.8383 35.9171 13.8486 35.8999 13.8602 35.883C13.8611 35.8814 13.8625 35.88 13.8638 35.8784C13.8747 35.8628 13.886 35.8473 13.8979 35.8327C13.8998 35.8304 13.9018 35.8284 13.9038 35.8261C13.9154 35.8122 13.9273 35.799 13.9402 35.7861C13.9428 35.7835 13.9458 35.7811 13.9485 35.7785C13.9607 35.7666 13.9733 35.7547 13.9868 35.7438C13.9911 35.7405 13.9958 35.7375 13.9997 35.7339C14.012 35.7243 14.0242 35.7147 14.0371 35.7057C14.0421 35.7024 14.0473 35.6998 14.0523 35.6965C14.0652 35.6882 14.0778 35.6799 14.0913 35.6727C14.0953 35.6704 14.0996 35.6687 14.1036 35.6667C14.1185 35.6591 14.133 35.6515 14.1485 35.6449C14.1532 35.6429 14.1581 35.6416 14.1628 35.6396C14.178 35.6336 14.1932 35.6277 14.2087 35.6227C14.212 35.6217 14.2157 35.6211 14.219 35.6201C14.2775 35.6029 14.3394 35.5933 14.4035 35.5933H13.3776C13.2596 35.7772 13.1898 35.9945 13.1855 36.228C13.1855 36.2313 13.1848 36.2346 13.1848 36.2379V36.2478C13.1848 36.2478 13.1848 36.2491 13.1848 36.2498V36.4257C13.1848 36.4257 13.1848 36.4271 13.1848 36.4277V56.6167H11.0685C10.9134 56.6167 10.7874 56.7427 10.7874 56.8978V57.3688C10.7874 57.5239 10.9134 57.6499 11.0685 57.6499H28.0573C28.0573 57.6499 28.0577 57.6499 28.058 57.6499H33.0781C33.0781 57.6499 33.0785 57.6499 33.0788 57.6499H62.2021C62.2021 57.6499 62.2024 57.6499 62.2028 57.6499H66.9524C67.0377 57.6499 67.1187 57.6112 67.172 57.5444C67.2252 57.4776 67.2454 57.3903 67.2265 57.307L67.2252 57.3066ZM15.0253 56.5205C14.8358 56.4054 14.7085 56.1974 14.7085 55.9599V42.4017C14.7085 42.0399 15.0028 41.7452 15.365 41.7452H27.1194C27.4812 41.7452 27.7759 42.0395 27.7759 42.4017V55.9599C27.7759 56.1974 27.6486 56.4054 27.4591 56.5205C27.3598 56.5807 27.2437 56.6164 27.1194 56.6164H15.3646C15.2403 56.6164 15.1242 56.581 15.025 56.5205H15.0253ZM27.1201 37.6441C27.3688 37.6441 27.5854 37.7837 27.6965 37.9881C27.6965 37.9881 27.6965 37.9884 27.6965 37.9888C27.7064 38.0073 27.7157 38.0261 27.724 38.0456C27.726 38.0503 27.7273 38.0549 27.7289 38.0595C27.7349 38.0748 27.7408 38.09 27.7458 38.1058C27.7458 38.1062 27.7458 38.1068 27.7461 38.1072C27.7481 38.1141 27.7494 38.1211 27.7514 38.128C27.7551 38.1416 27.759 38.1548 27.762 38.1687C27.7643 38.1796 27.7653 38.1908 27.767 38.2018C27.7686 38.2123 27.7706 38.2229 27.7719 38.2338C27.7736 38.2517 27.7742 38.2696 27.7746 38.2877C27.7746 38.292 27.7752 38.2963 27.7752 38.301V38.4766C27.7752 38.5437 27.765 38.6085 27.7461 38.6697C27.6634 38.9376 27.4134 39.1331 27.1187 39.1331H15.3643C15.0696 39.1331 14.8196 38.938 14.7369 38.6697C14.7181 38.6085 14.7078 38.5437 14.7078 38.4766V38.301C14.7078 38.2967 14.7085 38.2924 14.7085 38.2877C14.7088 38.2696 14.7095 38.2517 14.7111 38.2338C14.7121 38.2229 14.7144 38.2127 14.7161 38.2018C14.7177 38.1908 14.7191 38.1796 14.721 38.1687C14.7247 38.1508 14.7296 38.1333 14.7346 38.1158C14.7356 38.1128 14.7359 38.1098 14.7369 38.1072C14.7369 38.1068 14.7369 38.1062 14.7372 38.1058C14.7432 38.087 14.7501 38.0685 14.7578 38.0503C14.7584 38.0486 14.7587 38.0473 14.7594 38.0456C14.7677 38.0261 14.7769 38.0073 14.7869 37.9888C14.7869 37.9888 14.7869 37.9888 14.7869 37.9884C14.898 37.784 15.1146 37.6448 15.3633 37.6445H27.1191L27.1201 37.6441ZM47.8905 55.6788V52.2882C47.8905 51.7725 48.3125 51.3505 48.8281 51.3505H60.0203C60.5359 51.3505 60.9579 51.7725 60.9579 52.2882V55.6788C60.9579 56.1944 60.5359 56.6164 60.0203 56.6164H48.8281C48.3125 56.6164 47.8905 56.1944 47.8905 55.6788ZM48.8271 50.7883C48.3118 50.7876 47.8905 50.3663 47.8905 49.8507V46.4601C47.8905 45.9444 48.3122 45.5228 48.8278 45.5224H60.02C60.5356 45.5224 60.9572 45.9444 60.9572 46.4601V49.8507C60.9572 50.366 60.5359 50.7876 60.0206 50.7883C60.0206 50.7883 60.02 50.7883 60.0196 50.7883H48.8274C48.8274 50.7883 48.8268 50.7883 48.8264 50.7883H48.8271ZM47.8905 38.4759V38.3003C47.8905 38.2328 47.9007 38.168 47.9196 38.1068C47.9662 37.9564 48.0654 37.8287 48.1957 37.746C48.2103 37.7368 48.2248 37.7282 48.2401 37.7202C48.242 37.7192 48.244 37.7186 48.246 37.7176C48.2592 37.7106 48.2728 37.704 48.2867 37.6981C48.2907 37.6964 48.2946 37.6951 48.2989 37.6934C48.3108 37.6885 48.3231 37.6835 48.3353 37.6795C48.3409 37.6775 48.3466 37.6762 48.3522 37.6746C48.3634 37.6713 48.3743 37.6676 48.3856 37.6646C48.3922 37.663 48.3988 37.662 48.4054 37.6603C48.416 37.658 48.4266 37.6554 48.4375 37.6537C48.4448 37.6524 48.4524 37.6518 48.46 37.6508C48.4702 37.6494 48.4805 37.6478 48.4911 37.6468C48.499 37.6461 48.5073 37.6461 48.5152 37.6458C48.5258 37.6451 48.5361 37.6445 48.5466 37.6445C48.5466 37.6445 48.547 37.6445 48.5473 37.6445H60.3017C60.3017 37.6445 60.3021 37.6445 60.3024 37.6445C60.315 37.6445 60.3272 37.6458 60.3398 37.6465C60.35 37.6471 60.3603 37.6471 60.3702 37.6481C60.3824 37.6494 60.394 37.6518 60.4059 37.6537C60.4155 37.6554 60.4254 37.6564 60.435 37.6584C60.4472 37.661 60.4595 37.6646 60.4714 37.668C60.48 37.6703 60.4889 37.6723 60.4975 37.6749C60.5107 37.6789 60.5233 37.6842 60.5359 37.6891C60.5432 37.6918 60.5504 37.6941 60.5574 37.6971C60.5713 37.703 60.5845 37.71 60.5977 37.7166C60.6034 37.7196 60.609 37.7219 60.6146 37.7248C60.6298 37.7331 60.6444 37.7424 60.6589 37.752C60.6622 37.7539 60.6655 37.7556 60.6685 37.7579C60.6844 37.7685 60.6993 37.7801 60.7141 37.792C60.7158 37.7933 60.7175 37.7943 60.7188 37.7956C60.8646 37.916 60.9576 38.0982 60.9576 38.3016V38.4773C60.9576 38.8384 60.6645 39.1321 60.3037 39.1337C60.3027 39.1337 60.3021 39.1337 60.3014 39.1337H48.547C48.547 39.1337 48.5453 39.1337 48.5447 39.1337C48.251 39.1328 48.0023 38.938 47.9199 38.6707C47.9011 38.6095 47.8908 38.5447 47.8908 38.4776L47.8905 38.4759ZM48.8228 39.6947H60.0252C60.5385 39.6973 60.9576 40.118 60.9576 40.6319V44.0226C60.9576 44.5382 60.5356 44.9602 60.02 44.9602H48.8278C48.3122 44.9602 47.8901 44.5382 47.8901 44.0226V40.6319C47.8901 40.377 47.9933 40.1451 48.16 39.9754C48.3294 39.8035 48.5638 39.696 48.8225 39.6943L48.8228 39.6947ZM13.7461 37.4513C13.9194 37.5625 14.1221 37.6312 14.34 37.6425C14.2177 37.8323 14.1462 38.0582 14.1462 38.3003V39.6943C14.1462 39.8494 14.2722 39.9754 14.4274 39.9754H47.3332C47.3299 40.0948 47.3282 40.2218 47.3282 40.3508V44.3037C47.3282 44.5941 47.3484 44.9132 47.3795 45.1424C47.3504 45.2886 47.3282 45.7215 47.3282 46.1786V50.1315C47.3282 50.4219 47.3484 50.741 47.3795 50.9702C47.3504 51.1164 47.3282 51.5493 47.3282 52.0064V55.9592C47.3282 56.1788 47.3398 56.4147 47.359 56.6157H33.1218L28.3328 42.2929C28.2779 41.6714 27.7547 41.1826 27.1194 41.1826H15.365C14.6929 41.1826 14.1462 41.7293 14.1462 42.4013V55.9599C14.1462 56.2013 14.2173 56.4266 14.339 56.6164H13.7461V37.4517V37.4513Z" fill="#231815"/>
</svg>
