<svg width="51" height="51" viewBox="0 0 51 51" fill="none" xmlns="http://www.w3.org/2000/svg">
<path d="M37.4602 12.3877C37.4294 12.3463 37.3826 12.3196 37.3313 12.3136L30.2122 11.502C30.1139 11.4908 30.0237 11.558 30.0065 11.6557L29.7887 12.8911L29.7234 13.2611L29.5234 14.3955L29.493 14.5674L29.4582 14.7654L28.6944 19.0971L29.0679 19.137L29.8612 14.6375V14.636L30.345 11.894L32.0314 12.0863L37.0909 12.6631L36.7404 14.6512L36.6235 15.314L36.4231 16.4502L35.822 19.8589L35.996 19.8774L36.1955 19.8988L36.8202 16.3565L36.9622 15.551L37.0274 15.181L37.0779 14.8953L37.2276 14.0466L37.2929 13.6767L37.4946 12.5321C37.5037 12.4812 37.4911 12.4289 37.4602 12.3875V12.3877Z" fill="#F0C104"/>
<path d="M44.4148 14.4246C44.4148 14.4246 44.4141 14.4246 44.4139 14.4246C44.4141 14.4246 44.4144 14.4246 44.4146 14.4246C44.4181 14.4254 44.4218 14.4262 44.4254 14.4275C44.4218 14.4264 44.4183 14.4256 44.4148 14.4248V14.4246Z" fill="#2ABD81"/>
<path d="M44.43 14.429C44.4315 14.4294 44.4327 14.43 44.4342 14.4304C44.4373 14.4315 44.4402 14.4325 44.4433 14.4338C44.4404 14.4325 44.4373 14.4315 44.4342 14.4304C44.4329 14.43 44.4315 14.4296 44.4302 14.429H44.43Z" fill="#2ABD81"/>
<path d="M44.4074 14.423C44.4055 14.4225 44.4034 14.4223 44.4014 14.4221C44.4034 14.4223 44.4053 14.4228 44.4074 14.423C44.4095 14.4234 44.4113 14.4238 44.4132 14.4244C44.4113 14.424 44.4093 14.4234 44.4074 14.423Z" fill="#2ABD81"/>
<path d="M44.3723 14.4195C44.38 14.4195 44.3875 14.4199 44.395 14.421C44.3972 14.4213 44.3992 14.4217 44.4014 14.4219C44.3992 14.4215 44.3969 14.4213 44.3947 14.4208C44.3872 14.4199 44.3797 14.4195 44.3723 14.4193V14.4195Z" fill="#2ABD81"/>
<path d="M38.2399 15.6805C38.237 15.6809 38.2339 15.6811 38.2311 15.6813C38.2276 15.6816 38.224 15.6818 38.2205 15.6818C38.2187 15.6818 38.217 15.6818 38.215 15.6818C38.2099 15.6818 38.2048 15.6816 38.1998 15.6809C38.196 15.6805 38.1923 15.6802 38.1887 15.6798C38.1096 15.6674 38.0443 15.6048 38.0322 15.5213C38.0296 15.5025 38.0298 15.4838 38.0324 15.4659C38.0221 15.531 38.0121 15.5956 38.002 15.6602C37.987 15.7554 37.9725 15.8505 37.9579 15.945C37.9577 15.9468 37.9575 15.9486 37.957 15.9503C37.9427 16.044 37.9284 16.1377 37.9145 16.2308C37.9142 16.233 37.9138 16.2352 37.9136 16.2374C37.8995 16.3307 37.8856 16.4237 37.8719 16.5165C37.8719 16.5179 37.8715 16.5194 37.8712 16.5207C37.6904 17.7469 37.5407 18.9176 37.4177 20.0298C37.4038 20.1546 37.3904 20.2791 37.3771 20.4024C37.3758 20.4156 37.3743 20.4288 37.3729 20.4421C37.3659 20.5093 37.3588 20.5761 37.3518 20.6429C37.3489 20.6709 37.3461 20.6989 37.3432 20.7269C37.3375 20.7825 37.3317 20.8378 37.3262 20.8932C37.3236 20.9188 37.3209 20.9443 37.3185 20.9697C37.3108 21.046 37.3033 21.1223 37.2958 21.1979C37.2938 21.2175 37.292 21.2369 37.29 21.2565C37.2843 21.3156 37.2786 21.3745 37.2731 21.4332C37.2704 21.4607 37.2678 21.4883 37.2651 21.5158C37.2598 21.5718 37.2545 21.6276 37.2495 21.6832C37.2475 21.7055 37.2453 21.7277 37.2433 21.7498C37.2365 21.8241 37.2299 21.8982 37.2232 21.972C37.2213 21.9945 37.2193 22.0166 37.2173 22.039C37.2124 22.0939 37.2076 22.1488 37.203 22.2035C37.2008 22.2295 37.1983 22.2558 37.1961 22.2818C37.191 22.3413 37.186 22.4004 37.1811 22.4595C37.1798 22.4756 37.1785 22.4917 37.1772 22.5078C37.1712 22.5806 37.1653 22.6529 37.1593 22.725C37.1573 22.7486 37.1556 22.7722 37.1536 22.7955C37.1494 22.848 37.1452 22.9005 37.1412 22.9527C37.1392 22.977 37.1375 23.001 37.1355 23.0253C37.1302 23.0936 37.1249 23.1618 37.1198 23.2297C37.1192 23.2381 37.1185 23.2464 37.1178 23.2548C37.1128 23.3223 37.1079 23.3895 37.1031 23.4565C37.1013 23.4801 37.0998 23.5037 37.098 23.5271C37.0943 23.5785 37.0907 23.6299 37.0872 23.6808C37.0857 23.7028 37.0841 23.7249 37.0826 23.7469C37.0777 23.8162 37.0731 23.8854 37.0685 23.954C37.0676 23.9683 37.0667 23.9824 37.0656 23.9967C37.0618 24.0532 37.0583 24.1094 37.0546 24.1656C37.053 24.1888 37.0517 24.2119 37.0502 24.2351C37.0469 24.2865 37.0438 24.3376 37.0407 24.3885C37.0396 24.4075 37.0383 24.4267 37.0372 24.4457C37.0332 24.5129 37.029 24.5799 37.0252 24.6465C37.0241 24.6637 37.0233 24.6809 37.0224 24.6981C37.0193 24.7501 37.0164 24.802 37.0136 24.8538C37.0125 24.8752 37.0111 24.8965 37.01 24.9179C37.0069 24.9722 37.0041 25.0264 37.0012 25.0802C37.0006 25.0937 36.9997 25.1073 36.999 25.1208C36.9955 25.1863 36.9922 25.2515 36.9891 25.3166C36.9882 25.3353 36.9873 25.3538 36.9864 25.3724C36.984 25.4215 36.9816 25.4702 36.9794 25.519C36.9785 25.539 36.9774 25.5591 36.9765 25.5792C36.9739 25.6378 36.971 25.6962 36.9686 25.7542C36.9684 25.7606 36.9679 25.7672 36.9677 25.7739C36.9648 25.8374 36.9622 25.9004 36.9595 25.9633C36.9587 25.9827 36.958 26.0021 36.9571 26.0212C36.9551 26.068 36.9534 26.1145 36.9514 26.1608C36.9507 26.1793 36.9498 26.1981 36.9492 26.2166C36.9468 26.2785 36.9445 26.3403 36.9421 26.4016C36.9419 26.4095 36.9415 26.4175 36.9412 26.4254C36.9393 26.4794 36.9375 26.5332 36.9355 26.5866C36.9348 26.6058 36.9342 26.6249 36.9335 26.6441C36.932 26.6906 36.9304 26.7367 36.9291 26.7828C36.9287 26.7982 36.9282 26.8139 36.9276 26.8291C36.9258 26.8891 36.924 26.9488 36.9223 27.0081C36.9218 27.02 36.9216 27.0319 36.9214 27.0441C36.9201 27.0924 36.9187 27.1402 36.9174 27.1881C36.917 27.2059 36.9165 27.2238 36.9161 27.2416C36.915 27.2888 36.9137 27.3358 36.9126 27.3825C36.9124 27.3946 36.9119 27.4068 36.9117 27.4189C36.9104 27.4767 36.909 27.534 36.9079 27.5909C36.9077 27.6048 36.9075 27.6187 36.9071 27.6326C36.9062 27.6771 36.9053 27.7212 36.9046 27.7653C36.9044 27.782 36.904 27.7986 36.9038 27.8153C36.9029 27.866 36.902 27.9165 36.9013 27.9668C36.9013 27.9723 36.9013 27.9781 36.9011 27.9838C36.9002 28.0396 36.8996 28.0949 36.8989 28.15C36.8989 28.1648 36.8985 28.1794 36.8985 28.1939C36.898 28.2356 36.8976 28.2773 36.8971 28.3185C36.8971 28.3339 36.8969 28.3496 36.8967 28.365C36.8963 28.4186 36.8958 28.4719 36.8954 28.5249C36.8954 28.5282 36.8954 28.5313 36.8954 28.5346C36.8949 28.5846 36.8947 28.6344 36.8945 28.684C36.8945 28.699 36.8945 28.714 36.8945 28.7288C36.8945 28.7692 36.8943 28.8093 36.8941 28.8492C36.8941 28.8622 36.8941 28.8754 36.8941 28.8884C36.8941 28.9398 36.8941 28.9907 36.8941 29.0412C36.8941 29.0498 36.8941 29.0582 36.8941 29.0666C36.8941 29.1091 36.8941 29.1515 36.8941 29.1934C36.8941 29.2079 36.8941 29.2225 36.8941 29.237C36.8941 29.2774 36.8943 29.3175 36.8945 29.3572C36.8945 29.3671 36.8945 29.377 36.8945 29.3867C36.8947 29.4357 36.8952 29.4844 36.8954 29.5327C36.8954 29.5433 36.8954 29.5539 36.8956 29.5644C36.8958 29.6028 36.8963 29.6407 36.8967 29.6787C36.8967 29.6921 36.8969 29.7056 36.8971 29.719C36.8976 29.7609 36.898 29.8026 36.8987 29.8438C36.8987 29.8493 36.8987 29.8548 36.8987 29.8601C36.8993 29.9066 36.9 29.9527 36.9007 29.9984C36.9007 30.0105 36.9011 30.0224 36.9013 30.0345C36.9018 30.0694 36.9024 30.1042 36.9031 30.1386C36.9031 30.1509 36.9035 30.1635 36.9038 30.1759C36.9046 30.2206 36.9055 30.2649 36.9064 30.3088C36.9077 30.3725 36.909 30.4351 36.9106 30.4975C36.9106 30.5048 36.911 30.5123 36.911 30.5196C36.9126 30.5793 36.9139 30.6387 36.9157 30.6975C36.9192 30.8258 36.9229 30.9522 36.9271 31.0757C36.9271 31.0779 36.9271 31.0801 36.9273 31.0823C36.9287 31.1242 36.9302 31.1658 36.9318 31.2073C36.9322 31.2181 36.9326 31.2289 36.9329 31.2397C36.9333 31.2501 36.9337 31.2604 36.934 31.2708C36.9348 31.2959 36.9357 31.3211 36.9368 31.346C36.9373 31.3548 36.9375 31.3636 36.9379 31.3724C36.939 31.4015 36.9401 31.4304 36.9415 31.4595C36.9419 31.4728 36.9426 31.4862 36.943 31.4994C36.9434 31.5078 36.9437 31.5162 36.9441 31.5246C36.9454 31.5587 36.947 31.5927 36.9485 31.6264C36.949 31.6379 36.9494 31.6491 36.9501 31.6606C36.9518 31.701 36.9536 31.7409 36.9556 31.7806C36.9556 31.7814 36.9556 31.7823 36.9556 31.783C36.9576 31.8235 36.9593 31.8637 36.9613 31.9038C36.9617 31.9148 36.9624 31.9256 36.9628 31.9367C36.9644 31.9682 36.9659 31.9995 36.9675 32.0304C36.9679 32.0396 36.9684 32.0489 36.9688 32.0581C36.9708 32.0967 36.9728 32.1351 36.975 32.173C36.9754 32.1814 36.9759 32.1898 36.9763 32.1982C36.9781 32.2292 36.9796 32.2599 36.9814 32.2905C36.982 32.3007 36.9825 32.311 36.9831 32.3212C36.9851 32.3576 36.9873 32.3937 36.9893 32.4294C36.9893 32.4308 36.9893 32.4323 36.9895 32.4336C36.9917 32.4707 36.9939 32.5071 36.9961 32.5434C36.9968 32.5536 36.9975 32.5635 36.9979 32.5734C36.9997 32.6023 37.0014 32.631 37.0032 32.6594C37.0036 32.6678 37.0043 32.6759 37.0047 32.6843C37.0069 32.7194 37.0094 32.7542 37.0116 32.7888C37.012 32.7965 37.0127 32.8043 37.0131 32.812C37.0149 32.8398 37.0169 32.8675 37.0189 32.8949C37.0195 32.9046 37.0202 32.9143 37.0208 32.9238C37.023 32.9562 37.0255 32.9884 37.0277 33.0203C37.0277 33.0221 37.0279 33.0236 37.0281 33.0254C37.0305 33.0591 37.033 33.0924 37.0354 33.1253C37.036 33.1339 37.0367 33.1423 37.0374 33.1507C37.0394 33.1771 37.0413 33.2036 37.0433 33.2296C37.0438 33.2366 37.0444 33.2439 37.0449 33.251C37.0473 33.2829 37.0497 33.3145 37.0524 33.3458C37.0528 33.352 37.0532 33.3581 37.0539 33.3641C37.0559 33.3901 37.0581 33.4159 37.0601 33.4415C37.0607 33.4496 37.0614 33.4576 37.0621 33.4655C37.0645 33.4955 37.0669 33.5255 37.0696 33.5548C37.0696 33.5552 37.0696 33.5557 37.0696 33.5563C37.0722 33.5866 37.0746 33.6163 37.0773 33.6459C37.0779 33.6536 37.0786 33.6613 37.0793 33.669C37.0812 33.6926 37.0835 33.716 37.0854 33.7391C37.0859 33.7453 37.0865 33.7515 37.087 33.7576C37.0896 33.7861 37.0921 33.8145 37.0947 33.8423C37.0951 33.8474 37.0956 33.8525 37.096 33.8575C37.0982 33.8805 37.1002 33.9029 37.1024 33.9254C37.1031 33.9332 37.104 33.9411 37.1046 33.9488C37.107 33.9742 37.1095 33.9993 37.1117 34.024C37.1117 34.0253 37.1119 34.0269 37.1121 34.0282C37.1148 34.0546 37.1172 34.0807 37.1198 34.1065C37.1205 34.1131 37.1212 34.1197 37.1218 34.1263C37.1238 34.1466 37.1258 34.1666 37.1278 34.1867C37.1284 34.1927 37.1291 34.1988 37.1295 34.2048C37.132 34.229 37.1344 34.2531 37.1368 34.2767C37.1375 34.2822 37.1379 34.2877 37.1386 34.293C37.1406 34.3122 37.1425 34.3309 37.1445 34.3497C37.1452 34.3563 37.1458 34.3629 37.1465 34.3693C37.1489 34.3911 37.1511 34.4127 37.1533 34.4339C37.1533 34.4352 37.1536 34.4367 37.1538 34.4383C37.1562 34.4606 37.1586 34.4822 37.1611 34.5038C37.1619 34.5108 37.1626 34.5179 37.1635 34.5249C37.1653 34.5406 37.167 34.556 37.1688 34.5712C37.1694 34.5776 37.1701 34.5838 37.171 34.5902C37.1732 34.6103 37.1756 34.6299 37.1778 34.6495C37.1785 34.6555 37.1791 34.6612 37.1798 34.6669C37.1816 34.6813 37.1831 34.6956 37.1849 34.7097C37.1858 34.7168 37.1864 34.7238 37.1873 34.7307C37.1891 34.7459 37.1908 34.7606 37.1926 34.7754C37.1933 34.7809 37.1939 34.7864 37.1946 34.7919C37.1966 34.8078 37.1983 34.8237 37.2003 34.8391C37.2012 34.8464 37.2021 34.8535 37.203 34.8605C37.2043 34.8718 37.2056 34.8828 37.2071 34.8936C37.208 34.9002 37.2089 34.907 37.2096 34.9137C37.2116 34.9289 37.2133 34.9441 37.2153 34.9589C37.2162 34.9661 37.2171 34.973 37.2179 34.9802C37.2191 34.9893 37.2202 34.9981 37.2213 35.0067C37.2221 35.0142 37.2232 35.0217 37.2241 35.029C37.2252 35.0371 37.2263 35.0453 37.2272 35.0532C37.229 35.0662 37.2305 35.0788 37.2323 35.0911C37.2332 35.0975 37.234 35.1039 37.2347 35.1101C37.2358 35.1187 37.2369 35.1271 37.238 35.1355C37.2387 35.1399 37.2391 35.1443 37.2398 35.1487C37.2437 35.1778 37.2475 35.2054 37.2512 35.2314C37.2517 35.2338 37.2519 35.2362 37.2523 35.2384C37.2537 35.2473 37.2548 35.2561 37.2561 35.2647C37.2561 35.2649 37.2561 35.2651 37.2561 35.2653C37.2583 35.281 37.2605 35.2958 37.2625 35.3101C37.2629 35.313 37.2634 35.3158 37.2638 35.3185L31.919 34.7589L26.329 34.1735L21.8574 33.7052L21.7145 33.6902C21.6117 33.6794 21.5194 33.7541 21.5086 33.8571C21.5066 33.8754 21.5075 33.8932 21.5108 33.9104C21.5114 33.9144 21.5123 33.9182 21.5134 33.9219C21.5138 33.9239 21.5143 33.9259 21.515 33.9281C21.5158 33.9312 21.5169 33.9343 21.518 33.9373C21.5189 33.94 21.5198 33.9426 21.5209 33.9453C21.5218 33.9477 21.5229 33.9501 21.524 33.9526C21.5253 33.9556 21.5269 33.959 21.5284 33.9618C21.5293 33.9636 21.5304 33.9656 21.5313 33.9673C21.5333 33.9709 21.5352 33.9742 21.5374 33.9775C21.5383 33.9788 21.5392 33.9803 21.5403 33.9817C21.5427 33.9852 21.5454 33.9887 21.548 33.9922C21.5489 33.9933 21.5498 33.9944 21.5507 33.9956C21.5538 33.9991 21.5568 34.0026 21.5602 34.0061C21.5608 34.007 21.5617 34.0077 21.5624 34.0086C21.5663 34.0125 21.5705 34.0165 21.5749 34.0202C21.5796 34.024 21.5842 34.0277 21.5893 34.0311C21.5897 34.0313 21.5901 34.0317 21.5906 34.0319C21.595 34.0348 21.5994 34.0377 21.604 34.0401C21.6054 34.0408 21.6065 34.0414 21.6078 34.0421C21.6117 34.0443 21.6157 34.0463 21.6199 34.048C21.6212 34.0487 21.6225 34.0491 21.6239 34.0498C21.6283 34.0516 21.6327 34.0533 21.6371 34.0546C21.6382 34.0551 21.6391 34.0553 21.6402 34.0555C21.6455 34.0571 21.6508 34.0586 21.6563 34.0597C21.6567 34.0597 21.6569 34.0597 21.6574 34.0599C21.6636 34.0613 21.6697 34.0621 21.6759 34.0628L21.681 34.0632L37.4673 35.7162C37.4739 35.7169 37.4805 35.7173 37.4872 35.7173C37.4949 35.7173 37.5024 35.7167 37.5096 35.7158C37.5112 35.7158 37.5125 35.7153 37.5141 35.7151C37.5209 35.714 37.5277 35.7127 37.5343 35.7112C37.5354 35.7109 37.5366 35.7107 37.5379 35.7103H37.539C37.539 35.7103 37.5399 35.7096 37.5403 35.7096C37.541 35.7096 37.5416 35.7092 37.5423 35.7089C37.5471 35.7074 37.552 35.7056 37.5568 35.7039C37.5571 35.7039 37.5575 35.7039 37.5577 35.7037L38.9574 35.1308L40.3678 34.5534L44.184 32.9915V32.5864V14.8223L38.2448 15.6794C38.2432 15.6794 38.2419 15.6796 38.2403 15.6798L38.2399 15.6805Z" fill="#2ABD81"/>
<path d="M36.515 13.4727C36.4842 13.4313 36.4374 13.4046 36.386 13.3986L34.9758 13.2379L30.7451 12.7557C30.6468 12.7445 30.5566 12.8117 30.5394 12.9092L30.4984 13.1409L29.4346 19.1767L29.6088 19.1952L29.6215 19.1965L29.8083 19.2166L35.0821 19.7804L35.2688 19.8005L35.324 19.8064L35.4558 19.8205L35.4699 19.8221C35.4657 19.8196 35.4613 19.8174 35.4567 19.8154L36.2527 15.3023L36.517 13.8028V13.8021L36.5496 13.6178C36.5519 13.605 36.5527 13.5922 36.5523 13.5797C36.5512 13.5415 36.5384 13.5043 36.515 13.4732V13.4727Z" fill="#6194F6"/>
<path d="M35.6485 23.2674C35.6192 23.1265 35.5848 22.9924 35.5451 22.8663C35.4777 22.6522 35.4347 22.4331 35.4162 22.2108C35.41 22.1367 35.4064 22.0622 35.4058 21.9877C35.4049 21.888 35.4087 21.7879 35.4175 21.6876L35.5471 20.207L35.2162 20.1718L35.1743 20.1673L35.0442 21.655C35.0343 21.7676 35.0299 21.8801 35.031 21.9919C35.0343 22.3274 35.0865 22.6582 35.1875 22.979C35.3055 23.354 35.374 23.8082 35.3908 24.3056C35.3941 24.4051 35.3954 24.5063 35.3945 24.609C35.3928 24.8143 35.3826 25.0253 35.3639 25.2398C35.3138 25.8116 35.2069 26.3577 35.0546 26.8368C35.0345 26.8997 35.0138 26.9612 34.9924 27.0216C34.928 27.2028 34.8568 27.3728 34.7792 27.5287C34.579 27.9313 34.4581 28.3535 34.4207 28.7835L34.2778 30.4155L34.2694 30.5105C34.2604 30.6137 34.3367 30.7046 34.4398 30.7136C34.4454 30.7141 34.4509 30.7143 34.4564 30.7143C34.5525 30.7143 34.6343 30.6406 34.6429 30.5432L34.6506 30.4552L34.7827 28.9469L34.7942 28.8159C34.8277 28.4329 34.9355 28.0559 35.115 27.6954C35.2153 27.4936 35.3059 27.2707 35.3855 27.0319C35.3934 27.0081 35.4014 26.9841 35.4091 26.9598C35.5716 26.4514 35.6849 25.874 35.7376 25.2725C35.7575 25.046 35.768 24.8227 35.7696 24.6053C35.7722 24.2245 35.7475 23.8611 35.6959 23.5282C35.6823 23.4391 35.6664 23.352 35.649 23.2676L35.6485 23.2674Z" fill="#6194F6"/>
<path d="M10.307 29.1923C10.2627 29.1563 10.1961 29.1543 10.1573 29.1881C10.1315 29.2106 10.105 29.2326 10.0792 29.2549C10.0347 29.293 9.9906 29.3314 9.9454 29.3691C9.89469 29.4116 9.8431 29.4533 9.7915 29.4952C9.77034 29.5124 9.74983 29.5298 9.72867 29.5468C9.68832 29.5792 9.69207 29.6363 9.73815 29.6747C9.75204 29.6861 9.76791 29.6945 9.78445 29.6998C9.82348 29.7122 9.86625 29.7073 9.89447 29.6842C9.90483 29.6758 9.91498 29.6672 9.92512 29.6586C9.98708 29.6072 10.0486 29.5556 10.1092 29.5034C10.1432 29.4743 10.1769 29.4449 10.2104 29.4154C10.2468 29.3834 10.283 29.3514 10.3189 29.3193C10.3571 29.2851 10.3513 29.2282 10.3068 29.1923H10.307Z" fill="#6194F6"/>
<path d="M10.5782 28.9422C10.5912 28.9526 10.6064 28.9599 10.6219 28.9641C10.6585 28.9738 10.6981 28.966 10.7235 28.9413C10.7892 28.8774 10.854 28.8128 10.9182 28.7478C10.9821 28.6827 11.0454 28.6172 11.1078 28.5511C11.1422 28.5145 11.1354 28.4585 11.0933 28.4256C11.0514 28.393 10.9896 28.3952 10.9546 28.4311C10.8915 28.4962 10.8276 28.5608 10.763 28.6249C10.6981 28.6891 10.6327 28.7526 10.5661 28.8157C10.5295 28.8505 10.5343 28.9072 10.5782 28.942V28.9422Z" fill="#6194F6"/>
<path d="M9.28043 29.8914C9.20414 29.9477 9.12697 30.0032 9.04892 30.0581C8.98608 30.1024 8.92236 30.1461 8.85842 30.1895C8.84298 30.1999 8.82799 30.2107 8.81256 30.2211C8.76868 30.2506 8.77132 30.3086 8.81939 30.3507C8.83108 30.3608 8.8443 30.3686 8.85842 30.3747C8.86172 30.3763 8.86481 30.378 8.86834 30.3794C8.90979 30.3946 8.95565 30.3928 8.98608 30.3716C9.06501 30.3167 9.14306 30.2614 9.22045 30.2054C9.29784 30.1494 9.37435 30.0927 9.44998 30.0354C9.49165 30.0037 9.48702 29.9461 9.4405 29.9069C9.39398 29.8676 9.32254 29.8608 9.28021 29.8916L9.28043 29.8914Z" fill="#6194F6"/>
<path d="M11.3371 28.1595C11.3494 28.169 11.3636 28.1754 11.3781 28.1785C11.4121 28.1857 11.4487 28.1756 11.4714 28.1494C11.5104 28.1042 11.549 28.059 11.5873 28.0133C11.6067 27.9904 11.6261 27.9675 11.6453 27.9443C11.7024 27.8755 11.7587 27.8065 11.814 27.7368C11.8444 27.6985 11.8367 27.6429 11.797 27.6129C11.7576 27.5829 11.7009 27.5891 11.6698 27.627C11.6136 27.6958 11.5567 27.7642 11.4987 27.8321C11.446 27.8938 11.3927 27.9551 11.3386 28.0162C11.3331 28.0224 11.3278 28.0285 11.3225 28.0345C11.2897 28.0715 11.2956 28.1275 11.3371 28.1593V28.1595Z" fill="#6194F6"/>
<path d="M8.48358 30.5529C8.43508 30.518 8.36783 30.5092 8.32594 30.5352C8.25163 30.5811 8.17645 30.6265 8.10082 30.6711C8.02519 30.7158 7.94891 30.7599 7.87218 30.8036C7.82499 30.8303 7.82654 30.8889 7.87637 30.9348C7.89136 30.9484 7.90878 30.9595 7.9273 30.9672C7.97051 30.9855 8.01924 30.9868 8.05209 30.9676C8.12838 30.9229 8.20423 30.8777 8.27941 30.8318C8.34799 30.7899 8.41589 30.7476 8.48358 30.7048C8.48998 30.7008 8.49659 30.6969 8.50299 30.6927C8.54819 30.6638 8.54488 30.6056 8.49615 30.5624C8.49218 30.5588 8.48777 30.556 8.48358 30.5529Z" fill="#6194F6"/>
<path d="M11.3902 29.3067C11.3514 29.2802 11.2928 29.2727 11.2637 29.3036C11.2608 29.2957 11.2105 29.3334 11.2013 29.3351C11.192 29.3371 11.1462 29.3874 11.149 29.3953C11.1281 29.437 11.1069 29.4787 11.0857 29.5203C11.0344 29.5825 10.9821 29.6445 10.9294 29.7062C10.8988 29.7364 10.9102 29.7946 10.9506 29.8226C10.9625 29.831 10.9775 29.8401 10.9914 29.8431C11.024 29.8502 11.0617 29.8504 11.0829 29.829C11.0851 29.8345 11.1199 29.8094 11.1263 29.8107C11.1292 29.8114 11.1446 29.7986 11.1475 29.7979C11.157 29.7962 11.2037 29.7457 11.2004 29.7377C11.2213 29.6959 11.2421 29.654 11.2626 29.6121C11.3133 29.549 11.3633 29.4857 11.4127 29.4222C11.4414 29.3909 11.4286 29.3332 11.3898 29.3069L11.3902 29.3067Z" fill="#6194F6"/>
<path d="M12.7312 28.3877C12.7211 28.3818 12.7101 28.3776 12.6984 28.3751C12.6827 28.3718 12.6669 28.3718 12.6525 28.3756C12.6382 28.3795 12.6256 28.3873 12.617 28.3996C12.6159 28.3972 12.6104 28.4005 12.6031 28.4062C12.5903 28.4124 12.5771 28.4197 12.5696 28.4223C12.5555 28.4274 12.5279 28.4684 12.5249 28.4893C12.5196 28.4986 12.5163 28.5063 12.5171 28.5088C12.5022 28.5493 12.4872 28.5901 12.4719 28.6307C12.4303 28.6975 12.3877 28.7643 12.3447 28.8307C12.3194 28.864 12.3341 28.9195 12.3732 28.9427C12.3849 28.9497 12.399 28.9566 12.4118 28.9581C12.4305 28.9601 12.4508 28.9592 12.4675 28.9524C12.4726 28.955 12.4777 28.9572 12.4823 28.9579C12.5066 28.9605 12.5379 28.966 12.5518 28.9471C12.5568 28.9577 12.5868 28.9387 12.5989 28.9398C12.604 28.9402 12.6177 28.9283 12.6228 28.9266C12.64 28.9208 12.6748 28.8659 12.6675 28.8509C12.6719 28.7994 12.6763 28.7478 12.6807 28.6962C12.7092 28.6335 12.7374 28.5707 12.7652 28.5079C12.7725 28.4973 12.774 28.4823 12.7716 28.4671C12.7738 28.4371 12.7581 28.4038 12.731 28.3879L12.7312 28.3877Z" fill="#6194F6"/>
<path d="M11.7463 28.4827C11.7377 28.4849 11.6963 28.5372 11.6989 28.5451C11.6802 28.5877 11.6612 28.63 11.6423 28.6726C11.5955 28.737 11.5483 28.8011 11.5005 28.8648C11.4727 28.8961 11.4842 28.9539 11.5221 28.9799C11.5333 28.9876 11.5474 28.996 11.5605 28.9985C11.5909 29.004 11.6257 29.0026 11.6451 28.9804C11.6473 28.9859 11.6791 28.9592 11.6852 28.9601C11.6879 28.9605 11.702 28.9471 11.7046 28.9464C11.7135 28.9442 11.7558 28.8917 11.7527 28.884C11.7715 28.8415 11.79 28.7987 11.8083 28.7561C11.8541 28.6911 11.8993 28.6258 11.9439 28.5601C11.9699 28.5277 11.9571 28.4706 11.9207 28.4461C11.8843 28.4214 11.8301 28.4166 11.8036 28.4486C11.801 28.4408 11.7551 28.4805 11.7465 28.4827H11.7463Z" fill="#6194F6"/>
<path d="M10.1604 30.9559C10.1167 30.9255 10.0492 30.9112 10.0151 30.9392C10.012 30.9308 9.95796 30.9597 9.94738 30.9606C9.93679 30.9614 9.88741 31.0036 9.89049 31.0119C9.86822 31.0492 9.84595 31.0865 9.82346 31.1237C9.769 31.1758 9.71388 31.2274 9.65854 31.2787C9.62282 31.3058 9.63429 31.3665 9.67927 31.3987C9.69272 31.4084 9.70925 31.4192 9.72513 31.4236C9.76195 31.4339 9.80494 31.4384 9.82964 31.419C9.83184 31.4249 9.86822 31.4062 9.8755 31.4081C9.87881 31.409 9.896 31.3982 9.89931 31.398C9.91034 31.3971 9.96017 31.355 9.95686 31.3464C9.97891 31.3089 10.001 31.2714 10.0228 31.2337C10.0766 31.1811 10.1299 31.1279 10.1829 31.0746C10.2168 31.0461 10.204 30.9861 10.1604 30.9557V30.9559Z" fill="#6194F6"/>
<path d="M10.8108 30.1507C10.8081 30.1485 10.8059 30.1461 10.8031 30.1441C10.7618 30.1159 10.699 30.1053 10.667 30.1348C10.6642 30.1267 10.6095 30.162 10.5996 30.1635C10.5896 30.165 10.5396 30.2131 10.5425 30.2213C10.5209 30.2592 10.4992 30.2969 10.4776 30.3346C10.4759 30.3375 10.4743 30.3405 10.4726 30.3434C10.4719 30.3443 10.471 30.345 10.4704 30.3458C10.4148 30.4049 10.3588 30.4638 10.3024 30.5222C10.2691 30.5509 10.2805 30.61 10.3233 30.6402C10.3361 30.6492 10.3517 30.6589 10.3667 30.6627C10.4016 30.6715 10.4419 30.6735 10.4648 30.6532C10.4653 30.6543 10.4675 30.6541 10.4704 30.6532C10.4816 30.6499 10.5063 30.6356 10.5116 30.6369C10.5147 30.6375 10.5314 30.6256 10.5345 30.6252C10.5449 30.6239 10.5956 30.5756 10.5923 30.5672C10.615 30.5269 10.6377 30.4865 10.6602 30.4462C10.6606 30.4455 10.6609 30.4448 10.6613 30.4442C10.7166 30.3835 10.7715 30.3225 10.8258 30.2609C10.8355 30.2517 10.8406 30.2396 10.8423 30.2266C10.8458 30.2005 10.8342 30.1708 10.811 30.1507H10.8108Z" fill="#6194F6"/>
<path d="M13.7935 29.073C13.7605 29.0584 13.7091 29.0516 13.6919 29.0805C13.6835 29.0661 13.6379 29.1023 13.6213 29.1096C13.6048 29.1169 13.5724 29.1764 13.581 29.1909C13.5801 29.2386 13.579 29.2864 13.5781 29.334C13.5633 29.3709 13.5483 29.4075 13.5334 29.4441C13.5415 29.4083 13.5494 29.3726 13.5574 29.3367C13.5708 29.3153 13.5435 29.2582 13.5184 29.2467C13.4932 29.235 13.4449 29.2125 13.4315 29.2339C13.4189 29.2121 13.3695 29.2322 13.3442 29.2425C13.3186 29.2529 13.2888 29.3085 13.3012 29.3305C13.3113 29.3894 13.3215 29.448 13.3318 29.5069C13.3177 29.5649 13.3034 29.6227 13.2888 29.6806C13.2747 29.7018 13.3016 29.7594 13.3276 29.7715C13.3354 29.775 13.3492 29.786 13.3574 29.7863C13.3768 29.7869 13.4086 29.7999 13.4183 29.7849C13.4275 29.8004 13.4595 29.7889 13.4791 29.7891C13.4875 29.7891 13.5016 29.779 13.5095 29.7757C13.536 29.7649 13.5658 29.7089 13.5525 29.687C13.5481 29.6652 13.5439 29.6434 13.5397 29.6216C13.54 29.6216 13.5402 29.6218 13.5404 29.622C13.5508 29.6266 13.5651 29.6343 13.5759 29.6343C13.6015 29.6346 13.6341 29.6359 13.6467 29.6156C13.6529 29.6257 13.6835 29.6024 13.6963 29.6024C13.7018 29.6024 13.7153 29.5887 13.7203 29.5863C13.7375 29.5788 13.7702 29.519 13.7611 29.5045C13.7613 29.4568 13.7616 29.409 13.7618 29.3614C13.7862 29.2977 13.8105 29.2337 13.8341 29.1698C13.8511 29.1407 13.8266 29.0875 13.7935 29.0728V29.073Z" fill="#6194F6"/>
<path d="M12.4627 29.3239C12.4305 29.3056 12.3778 29.291 12.3571 29.3177C12.35 29.3025 12.3011 29.3314 12.2832 29.3367C12.2653 29.3422 12.2274 29.3956 12.2345 29.411C12.2285 29.4624 12.2226 29.5137 12.2166 29.5653C12.1844 29.6268 12.1518 29.6884 12.1187 29.7497C12.0969 29.7759 12.1161 29.8343 12.1498 29.8535C12.1597 29.8592 12.1738 29.8692 12.1851 29.8705C12.2111 29.8738 12.2451 29.88 12.2601 29.8614C12.2654 29.8722 12.298 29.8537 12.311 29.8553C12.3165 29.8559 12.3313 29.8442 12.3368 29.8427C12.3553 29.8372 12.3935 29.7834 12.386 29.768C12.391 29.7164 12.3963 29.665 12.4016 29.6134C12.4329 29.5514 12.464 29.4893 12.4947 29.4269C12.5152 29.4 12.4951 29.3422 12.4629 29.3239H12.4627Z" fill="#6194F6"/>
<path d="M11.8308 31.1427C11.7937 31.1226 11.7329 31.1041 11.7086 31.1299C11.7007 31.1142 11.6473 31.137 11.6266 31.1414C11.6061 31.1458 11.5651 31.1938 11.573 31.2095C11.5677 31.2584 11.5625 31.3074 11.5572 31.3563C11.5234 31.411 11.4895 31.4655 11.4551 31.5197C11.4299 31.5449 11.4518 31.6057 11.4899 31.6267C11.5014 31.6328 11.5175 31.6441 11.5303 31.6458C11.56 31.6505 11.5991 31.6593 11.6167 31.6414C11.6226 31.6527 11.6573 31.6388 11.6723 31.6408C11.6786 31.6416 11.6952 31.6313 11.7016 31.63C11.7227 31.6253 11.7638 31.577 11.7554 31.5612C11.7598 31.5122 11.7644 31.4631 11.7688 31.4141C11.8017 31.359 11.8343 31.3039 11.8667 31.2485C11.8908 31.2225 11.868 31.1625 11.831 31.1425L11.8308 31.1427Z" fill="#6194F6"/>
<path d="M12.1611 30.236C12.1265 30.2171 12.0698 30.201 12.0473 30.2272C12.0398 30.2118 11.9871 30.2394 11.9677 30.2442C11.9485 30.2491 11.9075 30.3017 11.9148 30.3172C11.9091 30.3602 11.9035 30.4032 11.8978 30.4459C11.8967 30.4543 11.8956 30.4627 11.8945 30.4711C11.8594 30.5319 11.824 30.5926 11.788 30.653C11.7644 30.6788 11.7847 30.7379 11.8206 30.7579C11.8312 30.7639 11.8464 30.7743 11.8583 30.7758C11.8863 30.7798 11.9227 30.7868 11.939 30.7687C11.9446 30.7798 11.9798 30.7621 11.9937 30.7639C11.9997 30.7645 12.0156 30.7535 12.0215 30.752C12.0416 30.7469 12.0828 30.694 12.0749 30.6786C12.0808 30.6272 12.0868 30.5758 12.0927 30.5242C12.1073 30.4982 12.1214 30.4722 12.1357 30.4459C12.1551 30.4107 12.175 30.3752 12.1941 30.3399C12.2164 30.3134 12.1952 30.2552 12.1606 30.236H12.1611Z" fill="#6194F6"/>
<path d="M13.3565 28.8315C13.3636 28.8351 13.3764 28.8461 13.3841 28.8463C13.4019 28.8468 13.4313 28.8598 13.4405 28.845C13.4489 28.8604 13.4787 28.849 13.4968 28.8492C13.5045 28.8492 13.5177 28.839 13.525 28.8357C13.5497 28.8249 13.577 28.7687 13.5647 28.7471C13.5539 28.6884 13.5433 28.63 13.5329 28.5714C13.5442 28.5178 13.5554 28.4642 13.5664 28.4104C13.5673 28.4058 13.5684 28.4014 13.5693 28.3967C13.5786 28.3809 13.5669 28.3454 13.551 28.3235C13.5455 28.3158 13.5393 28.3099 13.5336 28.3068C13.5331 28.3068 13.5327 28.3063 13.5325 28.3061C13.5091 28.2944 13.4659 28.273 13.4535 28.294C13.4421 28.2722 13.3964 28.2925 13.3731 28.3028C13.3556 28.3105 13.3362 28.3427 13.3316 28.3679C13.3301 28.3769 13.3301 28.3851 13.3332 28.3908C13.3424 28.4494 13.3517 28.5083 13.3612 28.567C13.3479 28.6249 13.3347 28.6829 13.321 28.7407C13.3078 28.7619 13.3327 28.8194 13.3567 28.8313L13.3565 28.8315Z" fill="#6194F6"/>
<path d="M13.4965 31.3795C13.5095 31.3263 13.5223 31.2732 13.5349 31.2199C13.5503 31.1985 13.5175 31.1398 13.4886 31.1281C13.4597 31.1164 13.4024 31.0922 13.387 31.1136C13.3724 31.0915 13.3175 31.1087 13.288 31.1189C13.2586 31.1292 13.2264 31.1815 13.2408 31.2038C13.2542 31.2606 13.2677 31.3177 13.2816 31.3746C13.2679 31.4275 13.2538 31.4805 13.2399 31.5334C13.2236 31.5545 13.2562 31.6139 13.286 31.626C13.295 31.6295 13.3111 31.6412 13.3206 31.6414C13.3429 31.6421 13.3801 31.6564 13.3914 31.6414C13.4019 31.6569 13.437 31.648 13.4593 31.6483C13.4688 31.6483 13.4849 31.6386 13.4939 31.6352C13.5243 31.6244 13.5561 31.5713 13.5409 31.5495C13.5259 31.4928 13.5111 31.4361 13.4963 31.3795H13.4965Z" fill="#6194F6"/>
<path d="M13.5029 30.1867C13.476 30.1752 13.4238 30.1525 13.4092 30.1737C13.3958 30.1518 13.3424 30.1719 13.3151 30.182C13.2878 30.1924 13.2556 30.2477 13.2688 30.2698C13.2798 30.3284 13.2911 30.3873 13.3023 30.446C13.3023 30.446 13.3023 30.446 13.3023 30.4462C13.2873 30.5042 13.2719 30.5619 13.2567 30.6197C13.2415 30.6409 13.2708 30.6986 13.2986 30.7105C13.3069 30.7141 13.3217 30.7251 13.3307 30.7255C13.3515 30.7262 13.3857 30.7392 13.3962 30.7244C13.4062 30.7399 13.4406 30.7284 13.4615 30.7288C13.4703 30.7288 13.486 30.7187 13.4943 30.7154C13.523 30.7046 13.5548 30.6486 13.5404 30.6268C13.5279 30.5681 13.5153 30.5097 13.5032 30.451C13.5036 30.4493 13.5041 30.4477 13.5043 30.446C13.5179 30.3895 13.5316 30.3331 13.5451 30.2766C13.5594 30.2552 13.5298 30.1981 13.5029 30.1864V30.1867Z" fill="#6194F6"/>
<path d="M14.3734 28.6902C14.3835 28.6896 14.3968 28.6807 14.406 28.6757C14.4373 28.6589 14.4574 28.602 14.4391 28.5742C14.4124 28.5107 14.3864 28.4472 14.3606 28.3835C14.358 28.3319 14.3553 28.2803 14.3525 28.2287C14.3595 28.214 14.328 28.1577 14.3125 28.1511C14.2969 28.1445 14.2546 28.1123 14.2475 28.1271C14.2305 28.0991 14.1825 28.1099 14.1527 28.126C14.1229 28.1421 14.102 28.1983 14.119 28.2265C14.143 28.2907 14.1675 28.3549 14.1924 28.419C14.1944 28.4706 14.1961 28.5222 14.1981 28.5738C14.1906 28.5886 14.2219 28.645 14.2385 28.6519C14.2433 28.6538 14.2559 28.6664 14.261 28.6662C14.2729 28.6655 14.3013 28.6863 14.3066 28.6759C14.3192 28.6955 14.35 28.6915 14.3736 28.6902H14.3734Z" fill="#6194F6"/>
<path d="M15.1866 31.1369C15.1811 31.0895 15.1755 31.0421 15.17 30.9949C15.1784 30.9795 15.1356 30.924 15.1158 30.9184C15.0959 30.9131 15.0399 30.8821 15.0316 30.8973C15.0091 30.8706 14.9504 30.8827 14.9136 30.9008C14.9057 30.9048 14.8988 30.9105 14.8924 30.9171C14.8691 30.9416 14.8585 30.9804 14.8759 31.0016C14.8814 31.0115 14.8869 31.0214 14.8924 31.0313C14.9207 31.0825 14.9489 31.1336 14.9775 31.1848C14.9824 31.2322 14.987 31.2796 14.9919 31.327C14.9831 31.3422 15.0261 31.3984 15.0466 31.404C15.0527 31.4057 15.0693 31.4178 15.0757 31.4172C15.0902 31.4159 15.1277 31.4359 15.1339 31.4251C15.1504 31.4439 15.1872 31.4394 15.2166 31.4364C15.2291 31.435 15.245 31.4253 15.2565 31.4196C15.2946 31.4004 15.3169 31.3442 15.2931 31.3177C15.2571 31.2575 15.2216 31.1974 15.1866 31.1369Z" fill="#6194F6"/>
<path d="M14.6223 29.616C14.6334 29.6152 14.6475 29.6059 14.6574 29.6008C14.6909 29.5832 14.7123 29.5259 14.692 29.4987C14.6627 29.4359 14.6336 29.3728 14.6049 29.3098C14.6014 29.2582 14.5979 29.2066 14.5946 29.1552C14.602 29.1402 14.5674 29.0849 14.5505 29.0785C14.5335 29.0723 14.487 29.041 14.4795 29.0558C14.4605 29.028 14.4087 29.0401 14.3765 29.0567C14.3584 29.0661 14.3439 29.088 14.3377 29.1105C14.3328 29.1279 14.3328 29.1457 14.341 29.1581C14.3679 29.2218 14.3952 29.2855 14.423 29.349C14.4257 29.4006 14.4283 29.4522 14.431 29.5038C14.4228 29.5188 14.4576 29.5746 14.4755 29.581C14.4808 29.583 14.4945 29.5951 14.5 29.5949C14.5128 29.5942 14.5438 29.6143 14.5494 29.6037C14.5582 29.616 14.5749 29.6187 14.5923 29.6182C14.6023 29.6182 14.6126 29.6171 14.6219 29.6165L14.6223 29.616Z" fill="#6194F6"/>
<path d="M14.9006 30.5366C14.9123 30.5355 14.9275 30.526 14.9383 30.5205C14.9742 30.5022 14.9965 30.4444 14.9747 30.4175C14.9469 30.3639 14.9195 30.3103 14.8924 30.2568C14.8924 30.2568 14.8924 30.2568 14.8924 30.2565C14.888 30.2477 14.8834 30.2391 14.8792 30.2305C14.8781 30.2166 14.877 30.2027 14.8757 30.1889C14.8768 30.1889 14.8777 30.1889 14.8788 30.1889C14.8788 30.1889 14.8788 30.1889 14.879 30.1889C14.8968 30.1893 14.916 30.1902 14.9224 30.1785C14.9337 30.1926 14.9661 30.1763 14.9861 30.1743C14.9947 30.1734 15.0086 30.1609 15.0163 30.1567C15.0424 30.1428 15.0673 30.0817 15.051 30.0616C15.0344 30.0096 15.0179 29.9578 15.0018 29.9057C15.0099 29.8482 15.0181 29.7907 15.0258 29.7331C15.0371 29.7102 15.0044 29.6597 14.9771 29.6513C14.9498 29.6429 14.8995 29.6293 14.888 29.652C14.8726 29.6317 14.823 29.6595 14.7978 29.6729C14.7727 29.6864 14.7476 29.7468 14.763 29.7673C14.7782 29.8195 14.7934 29.8718 14.8091 29.9241C14.8056 29.9468 14.8018 29.9695 14.7981 29.9922C14.791 29.9889 14.7835 29.9853 14.776 29.9825C14.7599 29.9759 14.7451 29.9721 14.7412 29.9796C14.7204 29.9523 14.6647 29.9655 14.63 29.9827C14.6003 29.9977 14.5791 30.042 14.5868 30.0716C14.5882 30.0764 14.5899 30.0808 14.5928 30.0848C14.6226 30.1478 14.6528 30.2111 14.6834 30.274C14.6869 30.3256 14.6902 30.3771 14.6938 30.4285C14.6916 30.4323 14.6924 30.4389 14.6953 30.4464C14.7035 30.4684 14.7284 30.5002 14.7427 30.5048C14.7485 30.5066 14.7632 30.5185 14.7692 30.518C14.7828 30.5169 14.8166 30.5363 14.8225 30.5258C14.8362 30.543 14.8666 30.5403 14.8926 30.5377C14.8955 30.5374 14.8982 30.5372 14.9008 30.5368L14.9006 30.5366Z" fill="#6194F6"/>
<path d="M15.0007 28.2109C15.0163 28.2543 15.0322 28.2977 15.0481 28.3412C15.0448 28.3489 15.0831 28.4036 15.0913 28.4062C15.0937 28.4071 15.1065 28.421 15.1092 28.4208C15.1149 28.4201 15.1442 28.4488 15.1464 28.4433C15.1638 28.4664 15.1967 28.4699 15.2258 28.466C15.2382 28.4644 15.2518 28.4567 15.2626 28.4497C15.2994 28.4256 15.3125 28.369 15.2873 28.3361C15.2443 28.2697 15.2022 28.2032 15.1605 28.1363C15.1442 28.0931 15.1281 28.0499 15.112 28.0065C15.1149 27.999 15.0774 27.9443 15.0695 27.9414C15.0615 27.9388 15.0196 27.8965 15.0168 27.904C14.9932 27.8707 14.9416 27.8724 14.9065 27.8951C14.8715 27.9178 14.8569 27.9741 14.8803 28.0076C14.9198 28.0755 14.9601 28.143 15.0009 28.2104L15.0007 28.2109Z" fill="#6194F6"/>
<path d="M16.8199 30.694C16.7979 30.6561 16.776 30.6179 16.7542 30.58C16.7573 30.5718 16.7048 30.5207 16.6947 30.5191C16.6845 30.5176 16.627 30.4795 16.6239 30.4876C16.5919 30.4578 16.528 30.4664 16.4852 30.4942C16.478 30.4991 16.4718 30.5048 16.4663 30.511C16.4665 30.4971 16.4632 30.4843 16.4546 30.4761C16.4193 30.423 16.3842 30.3699 16.3496 30.3167C16.3424 30.2711 16.3351 30.2252 16.328 30.1796C16.3324 30.1772 16.3366 30.1745 16.3406 30.1719C16.3825 30.1443 16.3953 30.0861 16.3646 30.0557C16.3121 29.9933 16.2601 29.9307 16.2087 29.8678C16.188 29.8262 16.1673 29.7843 16.1468 29.7424C16.1499 29.7344 16.1038 29.6833 16.0943 29.6813C16.0848 29.6793 16.0341 29.6409 16.031 29.6489C16.0019 29.6176 15.9415 29.6246 15.9014 29.6506C15.8613 29.6767 15.8467 29.7342 15.8756 29.7657C15.925 29.8299 15.9748 29.8938 16.0253 29.9576C16.0454 29.9997 16.0656 30.0416 16.0861 30.0837C16.0848 30.0865 16.0901 30.0947 16.0974 30.1042C16.0917 30.1071 16.0861 30.1101 16.0811 30.1134C16.0476 30.1348 16.0297 30.1952 16.0537 30.2204C16.087 30.2744 16.1205 30.3284 16.1545 30.3822C16.1613 30.4309 16.1684 30.4795 16.1752 30.5282C16.1682 30.5441 16.2094 30.5912 16.2297 30.595C16.2356 30.5961 16.2511 30.6054 16.257 30.604C16.2709 30.6014 16.3049 30.6146 16.3097 30.6034C16.3271 30.6206 16.3633 30.6104 16.3909 30.6047C16.4028 30.6023 16.4173 30.5906 16.4277 30.584C16.4334 30.5802 16.4383 30.5754 16.4429 30.5699C16.4436 30.5848 16.4486 30.599 16.4596 30.6095C16.5141 30.6708 16.569 30.7319 16.6246 30.7925C16.646 30.8309 16.6676 30.8691 16.6892 30.9072C16.6856 30.9154 16.739 30.9667 16.7496 30.9681C16.7527 30.9685 16.7703 30.9813 16.7734 30.9806C16.7805 30.9791 16.8204 31.0049 16.8228 30.9991C16.8459 31.0199 16.8865 31.0192 16.9224 31.0108C16.9379 31.0073 16.954 30.9978 16.9672 30.989C17.0113 30.9592 17.0239 30.9015 16.9904 30.8724C16.9328 30.8133 16.8757 30.7535 16.8195 30.6938L16.8199 30.694Z" fill="#6194F6"/>
<path d="M17.796 30.5776C17.7731 30.541 17.7504 30.5042 17.7277 30.4673C17.7303 30.459 17.6809 30.4175 17.6706 30.4168C17.66 30.4162 17.6068 30.3882 17.604 30.3963C17.5698 30.369 17.5048 30.3842 17.4635 30.4153C17.4221 30.4464 17.4117 30.5064 17.4454 30.5344C17.4984 30.5868 17.5519 30.6389 17.6057 30.6907C17.628 30.7277 17.6505 30.7648 17.673 30.8016C17.6701 30.81 17.72 30.8514 17.7308 30.8523C17.7341 30.8525 17.7504 30.8624 17.7532 30.8613C17.7603 30.8591 17.7971 30.8781 17.7991 30.8721C17.8238 30.8911 17.8652 30.886 17.901 30.875C17.9162 30.8704 17.9321 30.8594 17.9448 30.8494C17.9874 30.8166 17.9967 30.7562 17.9612 30.7295C17.9056 30.679 17.8505 30.6283 17.796 30.5774V30.5776Z" fill="#6194F6"/>
<path d="M15.6562 29.0128C15.6377 28.9702 15.6194 28.9277 15.6011 28.8851C15.6042 28.8774 15.5623 28.8245 15.5537 28.8221C15.5448 28.8196 15.4988 28.7793 15.4957 28.787C15.4692 28.7546 15.4134 28.759 15.3755 28.783C15.3378 28.8073 15.3235 28.8642 15.3495 28.8968C15.394 28.963 15.439 29.0289 15.4846 29.0946C15.5025 29.1374 15.5206 29.1801 15.5387 29.2229C15.5354 29.2308 15.5779 29.2838 15.587 29.2862C15.5896 29.2868 15.6039 29.3005 15.6066 29.3001C15.6128 29.2992 15.6449 29.3265 15.6474 29.321C15.6668 29.3435 15.7025 29.3453 15.7338 29.3402C15.7472 29.338 15.7616 29.3298 15.7735 29.3221C15.8127 29.2965 15.8257 29.239 15.798 29.2073C15.7501 29.1429 15.7029 29.078 15.6564 29.013L15.6562 29.0128Z" fill="#6194F6"/>
<path d="M15.7825 27.9445C15.8396 28.0133 15.8976 28.0817 15.9565 28.1494C15.9792 28.1756 16.0158 28.1857 16.0498 28.1785C16.0643 28.1754 16.0784 28.169 16.0908 28.1595C16.1322 28.1275 16.1382 28.0715 16.1053 28.0347C16.0458 27.9677 15.9869 27.9002 15.9292 27.8323C15.8714 27.7644 15.8143 27.696 15.7581 27.6273C15.727 27.5893 15.6703 27.5829 15.6308 27.6131C15.5914 27.6431 15.5832 27.6987 15.6139 27.7371C15.6692 27.8067 15.7254 27.8757 15.7825 27.9445Z" fill="#6194F6"/>
<path d="M16.5095 28.7475C16.5734 28.8126 16.6385 28.8772 16.7042 28.9411C16.7297 28.9658 16.7692 28.9735 16.8058 28.9638C16.8215 28.9597 16.8365 28.9524 16.8495 28.942C16.8931 28.9072 16.8982 28.8503 16.8616 28.8157C16.7952 28.7526 16.7295 28.6889 16.6647 28.625C16.5999 28.5608 16.5359 28.4962 16.4731 28.4312C16.4383 28.3952 16.3765 28.3928 16.3344 28.4256C16.2923 28.4585 16.2855 28.5145 16.3199 28.5511C16.3823 28.617 16.4453 28.6827 16.5095 28.7478V28.7475Z" fill="#6194F6"/>
<path d="M18.6151 30.221C18.5355 30.1675 18.4568 30.113 18.379 30.0581C18.3011 30.0032 18.224 29.9476 18.1475 29.8914C18.1053 29.8603 18.0337 29.8674 17.9872 29.9066C17.9404 29.9459 17.936 30.0034 17.9777 30.0352C18.0533 30.0925 18.1298 30.1492 18.2072 30.2052C18.2846 30.2612 18.3627 30.3167 18.4416 30.3714C18.472 30.3926 18.5181 30.3946 18.5593 30.3791C18.577 30.3725 18.5939 30.363 18.6081 30.3505C18.6561 30.3086 18.6588 30.2506 18.6149 30.2208L18.6151 30.221Z" fill="#6194F6"/>
<path d="M17.6434 29.6998C17.6602 29.6945 17.6761 29.6862 17.6897 29.6747C17.7358 29.6363 17.7396 29.579 17.6992 29.5468C17.626 29.4882 17.5539 29.4288 17.4825 29.3691C17.411 29.3093 17.3405 29.2489 17.2706 29.1881C17.232 29.1546 17.1654 29.1565 17.1209 29.1923C17.0766 29.2282 17.0708 29.2851 17.1088 29.3193C17.178 29.3812 17.2479 29.4425 17.3187 29.5034C17.3894 29.5642 17.4611 29.6244 17.5334 29.6842C17.5614 29.7073 17.6042 29.7122 17.6434 29.6998Z" fill="#6194F6"/>
<path d="M19.5555 30.8036C19.4786 30.7599 19.4025 30.7158 19.3269 30.6711C19.2512 30.6263 19.1763 30.5811 19.102 30.5352C19.0563 30.507 18.9805 30.5196 18.9317 30.5624C18.883 30.6054 18.8797 30.6638 18.9249 30.6927C18.9988 30.7396 19.0733 30.7859 19.1483 30.8318C19.2235 30.8777 19.2991 30.9229 19.3756 30.9676C19.4084 30.9868 19.4569 30.9855 19.5004 30.9672C19.5189 30.9595 19.5365 30.9484 19.5513 30.9348C19.6011 30.8891 19.6027 30.8303 19.5555 30.8036Z" fill="#6194F6"/>
<path d="M23.1831 37.2737C22.6747 36.8874 22.0245 36.6894 21.3046 36.702C20.7111 36.7122 20.0847 36.8639 19.5407 37.1291C18.76 37.5099 18.6063 37.4989 18.0968 37.462C18.0231 37.4567 17.9393 37.4506 17.8472 37.4453C17.0636 37.4003 16.9207 37.2398 16.8955 37.1917C16.866 37.1348 16.9086 37.0438 16.9493 36.9772C17.2929 36.4191 17.9369 36.3916 18.5051 36.3675C18.5944 36.3638 18.6788 36.3603 18.7598 36.3545C19.4514 36.3056 19.778 35.6496 19.7914 35.6216C19.8366 35.5288 19.798 35.4172 19.7052 35.3718C19.6126 35.3264 19.5004 35.3648 19.4545 35.4572C19.4521 35.462 19.2062 35.9471 18.7333 35.9806C18.6577 35.9859 18.5759 35.9894 18.4892 35.9932C17.8937 36.0185 17.0779 36.0531 16.6303 36.781C16.584 36.8561 16.554 36.9256 16.5355 36.9893C16.1622 36.8023 15.4818 36.4597 14.7954 36.1058C14.7948 36.1056 14.7943 36.1052 14.7937 36.1049C14.7926 36.1043 14.7915 36.1038 14.7904 36.1032C14.3677 35.8851 13.9432 35.6631 13.5874 35.4704C13.2163 35.2695 12.9197 35.1006 12.7771 35.0021C12.619 34.8927 12.6567 34.829 12.671 34.8052C12.7052 34.7479 12.783 34.6918 12.8902 34.6517C12.8955 34.6497 12.9006 34.6478 12.9061 34.646C13.1224 34.5704 13.4494 34.5598 13.7785 34.7267L16.1748 35.9713C16.2665 36.019 16.3798 35.9832 16.4275 35.8915C16.4751 35.7996 16.4394 35.6865 16.3476 35.6388L13.9496 34.3933C13.652 34.2425 13.3153 34.1874 13.002 34.2379C12.9916 34.2396 12.9813 34.2416 12.9709 34.2436C12.9751 34.2368 12.9804 34.2299 12.9866 34.2224C13.1345 34.0443 13.6216 33.9378 14.0769 34.1682L16.4731 35.4128C16.5007 35.4272 16.5302 35.434 16.5593 35.434C16.627 35.434 16.6925 35.3972 16.7258 35.333C16.7734 35.2411 16.7377 35.128 16.646 35.0803L14.3661 33.8963C14.4572 33.8992 14.5527 33.9129 14.649 33.9396C14.6495 33.9396 14.6499 33.9396 14.6503 33.9398C14.7262 33.9609 14.8027 33.9898 14.8781 34.028L17.2743 35.2726C17.3019 35.2869 17.3314 35.2938 17.3606 35.2938C17.4282 35.2938 17.4937 35.257 17.527 35.1928C17.5746 35.1009 17.5389 34.9877 17.4472 34.9401L15.9622 34.1689C16.0718 34.1905 16.1803 34.2275 16.2822 34.2791L17.8659 35.0918C17.8674 35.0927 17.8692 35.0931 17.8708 35.094C17.8732 35.0951 17.8754 35.0964 17.878 35.0975C18.2277 35.2468 18.4681 35.1379 18.7723 35.0001C19.092 34.8552 19.5299 34.6568 20.3834 34.612C21.8029 34.5373 22.9289 35.6025 22.9402 35.6133C22.9765 35.6483 23.0233 35.6657 23.0703 35.6657C23.1172 35.6657 23.1684 35.6466 23.2052 35.6084C23.2771 35.5339 23.2751 35.4153 23.2006 35.3434C23.1503 35.2949 21.9495 34.1543 20.364 34.2376C19.44 34.2862 18.9452 34.5102 18.6178 34.6586C18.3272 34.7902 18.2154 34.8323 18.0297 34.7545L16.4526 33.9451C16.0888 33.7607 15.6752 33.7202 15.318 33.8337C15.318 33.8337 15.3178 33.8337 15.3175 33.8337L15.0494 33.6944C14.9983 33.6684 14.9458 33.6454 14.8927 33.6251C14.7709 33.5788 14.645 33.5475 14.5178 33.5319C14.5128 33.5312 14.5077 33.5308 14.5026 33.5303C14.4898 33.529 14.477 33.5275 14.4643 33.5264C14.4565 33.5257 14.4486 33.5253 14.4409 33.5246C14.4299 33.5237 14.4186 33.5231 14.4076 33.5226C14.3996 33.5222 14.3917 33.522 14.3838 33.5215C14.3721 33.5211 14.3606 33.5208 14.3489 33.5208C14.3419 33.5208 14.3348 33.5206 14.3278 33.5208C14.3092 33.5208 14.2907 33.5213 14.2724 33.522C14.2484 33.5228 14.2246 33.5246 14.201 33.5268C14.1977 33.527 14.1944 33.5272 14.1911 33.5277C14.1686 33.5299 14.1463 33.5325 14.1243 33.5358C14.1203 33.5365 14.1163 33.5369 14.1126 33.5376C14.0905 33.5409 14.0687 33.5449 14.0471 33.5493C14.0442 33.55 14.0414 33.5506 14.0385 33.5511C13.9935 33.5605 13.9496 33.5722 13.9073 33.5859C13.9047 33.5868 13.9018 33.5877 13.8991 33.5885C13.8789 33.5954 13.8592 33.6024 13.8398 33.6101C13.8367 33.6115 13.8337 33.6126 13.8306 33.6139C13.8112 33.6218 13.792 33.63 13.7735 33.6388C13.7715 33.6397 13.7695 33.6408 13.7677 33.6417C13.7483 33.6509 13.7296 33.6609 13.7113 33.671C13.7111 33.671 13.7109 33.671 13.7106 33.671C13.6848 33.6679 13.659 33.6657 13.6335 33.6639C13.6317 33.6639 13.6302 33.6637 13.6284 33.6635C13.5768 33.6602 13.5261 33.6595 13.4763 33.6613C13.4738 33.6613 13.4716 33.6613 13.4692 33.6615C13.4198 33.6635 13.3717 33.6679 13.3248 33.6747C13.3224 33.6752 13.3199 33.6754 13.3175 33.6758C13.2959 33.6792 13.2745 33.6827 13.2533 33.6871C13.2516 33.6875 13.2498 33.6878 13.2481 33.6882C13.2253 33.6928 13.2031 33.6979 13.1812 33.7036C13.1795 33.7041 13.1779 33.7045 13.1762 33.705C13.1568 33.71 13.1376 33.7155 13.1188 33.7215C13.1153 33.7226 13.1116 33.7237 13.108 33.7248C13.0679 33.7378 13.0296 33.7528 12.9929 33.7693C12.9888 33.7711 12.9848 33.7731 12.9806 33.7751C12.9647 33.7826 12.9491 33.7903 12.9341 33.7982C12.9321 33.7993 12.9299 33.8004 12.9279 33.8015C12.9111 33.8106 12.8951 33.82 12.8794 33.8298C12.8757 33.8322 12.8719 33.8346 12.8684 33.8368C12.8558 33.8447 12.8437 33.8531 12.832 33.8615C12.8285 33.8639 12.8249 33.8663 12.8216 33.869C12.8075 33.8796 12.7939 33.8904 12.7806 33.9014C12.7782 33.9036 12.7758 33.9056 12.7733 33.9078C12.7625 33.9173 12.7522 33.9268 12.7423 33.9367C12.739 33.94 12.7356 33.9431 12.7326 33.9464C12.7209 33.9583 12.7096 33.9704 12.6993 33.983C12.6909 33.9931 12.6832 34.0033 12.6757 34.0136C12.6737 34.0163 12.6717 34.0191 12.6699 34.0218C12.6629 34.0322 12.656 34.0425 12.6497 34.0529C12.6488 34.0542 12.6481 34.0557 12.6472 34.0571C12.6419 34.0661 12.6369 34.0754 12.6322 34.0849C12.6303 34.0886 12.6285 34.0923 12.6267 34.0961C12.6225 34.1049 12.6186 34.1137 12.615 34.1226C12.6131 34.1276 12.6111 34.1327 12.6093 34.1378C12.6069 34.1444 12.6047 34.151 12.6025 34.1578C12.6007 34.1633 12.5992 34.1686 12.5976 34.1741C12.5961 34.1794 12.595 34.185 12.5937 34.1902C12.5912 34.2006 12.589 34.211 12.5875 34.2213C12.5868 34.2249 12.5864 34.2284 12.5859 34.2319C12.5848 34.2392 12.5839 34.2467 12.5833 34.254C12.5833 34.2546 12.5833 34.2551 12.5833 34.2557C12.582 34.2718 12.5815 34.2879 12.582 34.304C12.582 34.3051 12.582 34.3062 12.582 34.3071C12.5828 34.3325 12.5857 34.3576 12.591 34.3827C12.591 34.3827 12.591 34.3832 12.591 34.3834C12.591 34.3834 12.5908 34.3834 12.5906 34.3836C12.5778 34.3913 12.5652 34.3993 12.5529 34.4076C12.5529 34.4076 12.5529 34.4076 12.5526 34.4076C12.5405 34.4158 12.5286 34.4244 12.5171 34.433C12.5167 34.4332 12.5165 34.4337 12.516 34.4339C12.5048 34.4423 12.494 34.4509 12.4836 34.4597C12.4827 34.4606 12.4816 34.4614 12.4808 34.4623C12.4711 34.4707 12.4616 34.4791 12.4523 34.4879C12.4506 34.4897 12.4488 34.4914 12.447 34.4932C12.4389 34.5011 12.4309 34.5091 12.4232 34.5172C12.4203 34.5203 12.4179 34.5234 12.4153 34.5263C12.4089 34.5333 12.4025 34.5406 12.3965 34.5479C12.3926 34.5527 12.389 34.5578 12.3851 34.5629C12.3807 34.5686 12.3763 34.5743 12.3721 34.5801C12.3654 34.5893 12.3595 34.599 12.3535 34.6085C12.3524 34.6103 12.3513 34.6118 12.3502 34.6136C12.3161 34.6709 12.2925 34.737 12.285 34.8076C12.2836 34.8193 12.2828 34.8312 12.2825 34.8431C12.2788 34.995 12.3531 35.1639 12.565 35.3105C12.5745 35.3171 12.5846 35.324 12.5952 35.331C12.5983 35.333 12.6016 35.3352 12.6049 35.3374C12.6126 35.3425 12.6203 35.3476 12.6287 35.3529C12.6331 35.3557 12.638 35.3588 12.6424 35.3617C12.6499 35.3665 12.6576 35.3714 12.6655 35.3765C12.6708 35.3798 12.6761 35.3831 12.6816 35.3864C12.6896 35.3912 12.6975 35.3961 12.7057 35.4012C12.7116 35.4047 12.7176 35.4084 12.7237 35.4122C12.7319 35.4172 12.7405 35.4223 12.7491 35.4274C12.7555 35.4314 12.7621 35.4351 12.7687 35.4391C12.7775 35.4444 12.7864 35.4497 12.7954 35.455C12.8022 35.4591 12.8091 35.4631 12.8163 35.4673C12.8256 35.4728 12.8351 35.4783 12.8448 35.4838C12.8523 35.4882 12.8596 35.4924 12.8671 35.4968C12.8768 35.5026 12.8869 35.5083 12.8968 35.514C12.9045 35.5185 12.9123 35.5229 12.9202 35.5275C12.9319 35.5341 12.9438 35.5409 12.9559 35.5478C12.9691 35.5553 12.9826 35.563 12.9963 35.5707C13.0079 35.5773 13.0194 35.5839 13.0313 35.5905C13.0419 35.5965 13.0529 35.6027 13.0639 35.6088C13.073 35.6139 13.0818 35.6188 13.0908 35.6241C13.1025 35.6305 13.1144 35.6371 13.1261 35.6437C13.1349 35.6485 13.1438 35.6536 13.1528 35.6585C13.1651 35.6653 13.1775 35.6721 13.1901 35.679C13.1989 35.6838 13.2077 35.6887 13.2165 35.6935C13.2293 35.7006 13.2425 35.7078 13.2555 35.7149C13.2644 35.7198 13.2732 35.7246 13.282 35.7295C13.2957 35.737 13.3096 35.7444 13.3235 35.7522C13.3318 35.7566 13.34 35.7612 13.3484 35.7658C13.3631 35.7738 13.3779 35.7819 13.3929 35.7901C13.3951 35.7912 13.3971 35.7923 13.3993 35.7936C13.4046 35.7965 13.4101 35.7993 13.4154 35.8024C13.4317 35.8113 13.448 35.8201 13.4646 35.8291C13.4688 35.8313 13.4732 35.8337 13.4774 35.836C13.5541 35.8774 13.6332 35.9197 13.7148 35.9632C13.749 35.9815 13.7838 35.9998 13.8187 36.0183C13.8213 36.0196 13.824 36.0212 13.8264 36.0225C13.8482 36.0342 13.8705 36.0456 13.8925 36.0575C13.8961 36.0593 13.8994 36.0613 13.9029 36.063C13.9252 36.0747 13.9474 36.0864 13.9697 36.0983C13.9728 36.0999 13.9759 36.1016 13.9792 36.1032C13.9955 36.1118 14.0116 36.1202 14.0279 36.1288C14.0347 36.1323 14.0416 36.136 14.0486 36.1396C14.0506 36.1407 14.0526 36.1418 14.0546 36.1426C14.0786 36.1552 14.1029 36.168 14.1271 36.1806C14.128 36.181 14.1291 36.1815 14.13 36.1821C14.2581 36.2491 14.3884 36.3168 14.5189 36.3845C14.5813 36.4169 14.6439 36.4491 14.7063 36.4813C14.769 36.5137 14.8316 36.5457 14.8938 36.5777C15.6972 36.9898 16.4347 37.358 16.6215 37.4508C16.7974 37.6673 17.1771 37.7826 17.8273 37.8199C17.9168 37.825 17.9991 37.8309 18.0714 37.8362C18.2096 37.8461 18.3269 37.8547 18.4398 37.8547C18.7684 37.8547 19.0581 37.7828 19.7065 37.4664C20.2022 37.2248 20.7723 37.0865 21.3123 37.0773C21.9482 37.0663 22.5166 37.2378 22.9576 37.5727C23.04 37.6353 23.1576 37.6192 23.2202 37.537C23.2828 37.4545 23.2667 37.337 23.1845 37.2744L23.1831 37.2737Z" fill="#FE9B9B"/>
<path d="M20.921 38.6923C20.5437 38.5455 20.0084 38.4143 19.3297 38.3025C18.1221 38.1036 16.5673 37.983 14.8924 37.9561V37.6691C14.8924 37.6691 14.8924 37.6673 14.8924 37.6664V36.577C14.8303 36.545 14.7679 36.5131 14.705 36.4806C14.6426 36.4485 14.58 36.4163 14.5176 36.3839C14.3871 36.3164 14.2568 36.2485 14.1287 36.1814C14.1278 36.181 14.1267 36.1806 14.1258 36.1799C14.1016 36.1671 14.0775 36.1545 14.0533 36.142C14.0513 36.1409 14.0493 36.1398 14.0473 36.1389C14.0405 36.1354 14.0337 36.1316 14.0266 36.1281C14.0103 36.1195 13.9942 36.1111 13.9779 36.1025C13.9748 36.101 13.9717 36.0992 13.9684 36.0977C13.9459 36.086 13.9236 36.0741 13.9016 36.0624C13.8981 36.0606 13.8947 36.0586 13.8912 36.0569C13.8692 36.0452 13.8469 36.0335 13.8251 36.0218C13.8224 36.0205 13.8198 36.0189 13.8174 36.0176C13.7823 35.9991 13.7477 35.9808 13.7135 35.9625C13.6321 35.9193 13.5528 35.8767 13.476 35.8353C13.4719 35.8331 13.4674 35.8307 13.4633 35.8284C13.4467 35.8194 13.4304 35.8106 13.4141 35.8018C13.4088 35.7989 13.4033 35.796 13.398 35.793L14.5174 37.7162V39.9191L14.1726 40.2611L14.0954 40.3376H11.3058L10.8675 39.8525L10.845 39.8278V30.4455H11.8978C11.9035 30.4025 11.9091 30.3595 11.9148 30.3167C11.9073 30.3011 11.9483 30.2486 11.9677 30.2438C11.9871 30.2389 12.0398 30.2114 12.0473 30.2268C12.0698 30.2006 12.1265 30.2166 12.1611 30.2356C12.1957 30.2548 12.2168 30.313 12.1946 30.3395C12.1754 30.375 12.1556 30.4102 12.1362 30.4455H13.3023C13.2908 30.3869 13.2798 30.328 13.2688 30.2693C13.2556 30.2473 13.2875 30.1917 13.3151 30.1816C13.3426 30.1712 13.3958 30.1512 13.4092 30.1732C13.4238 30.1518 13.476 30.1745 13.5029 30.1862C13.5298 30.1979 13.5594 30.2548 13.5451 30.2764C13.5316 30.3328 13.5179 30.3893 13.5043 30.4457H14.5176V33.5308C14.6448 33.5464 14.7707 33.5777 14.8924 33.624V31.0309C14.8869 31.021 14.8814 31.0111 14.8759 31.0011C14.8583 30.9797 14.8691 30.9412 14.8924 30.9167V30.5372C14.8664 30.5397 14.836 30.5425 14.8223 30.5253C14.8164 30.5359 14.7826 30.5165 14.769 30.5176C14.763 30.518 14.7482 30.5061 14.7425 30.5044C14.7282 30.5 14.7035 30.4682 14.6951 30.4459C14.6922 30.4385 14.6914 30.4321 14.6936 30.4281C14.69 30.3765 14.6867 30.3249 14.6832 30.2735C14.6526 30.2105 14.6223 30.1474 14.5926 30.0844C14.5897 30.0806 14.588 30.076 14.5866 30.0711C14.5789 30.0416 14.6001 29.9973 14.6298 29.9823C14.6642 29.9649 14.72 29.9518 14.741 29.9792C14.7449 29.9715 14.7599 29.9754 14.7758 29.982L14.5928 29.618C14.5752 29.6182 14.5586 29.6156 14.5498 29.6035C14.5443 29.6141 14.5132 29.5938 14.5004 29.5947C14.4949 29.5951 14.4812 29.5827 14.4759 29.5808C14.4581 29.5744 14.4233 29.5186 14.4314 29.5036C14.4288 29.452 14.4261 29.4004 14.4235 29.3488C14.3957 29.2853 14.3683 29.2216 14.3415 29.1579C14.3333 29.1455 14.3333 29.1279 14.3381 29.1102L13.8579 28.1542L13.9144 27.4293V27.4282L13.923 27.3197C14.2442 27.3708 14.5375 27.3916 14.8014 27.3916C15.8205 27.3916 16.4006 27.0849 16.4594 27.0522C16.4599 27.0522 16.4601 27.0518 16.4603 27.0518C16.4612 27.0514 16.4623 27.0507 16.463 27.0502C16.4645 27.0494 16.4658 27.0483 16.4674 27.0474C16.4707 27.0454 16.474 27.0434 16.4771 27.0412C16.4795 27.0394 16.4817 27.0377 16.4841 27.0359C16.4866 27.0342 16.489 27.0322 16.4914 27.0302C16.4941 27.028 16.4965 27.0258 16.4989 27.0233C16.5009 27.0216 16.5027 27.0198 16.5046 27.0178C16.5071 27.0154 16.5093 27.0128 16.5115 27.0101C16.5132 27.0081 16.515 27.0062 16.5168 27.0039C16.5187 27.0015 16.5205 26.9991 16.5223 26.9965C16.524 26.9938 16.526 26.9914 16.5276 26.9887C16.5289 26.9867 16.5302 26.9845 16.5313 26.9823C16.5333 26.979 16.5353 26.9757 16.537 26.9722C16.5377 26.9707 16.5386 26.9691 16.5393 26.9676C16.5412 26.9634 16.5432 26.9592 16.5448 26.955C16.5452 26.9541 16.5454 26.9532 16.5456 26.9524C16.5474 26.9475 16.5492 26.9424 16.5505 26.9374C16.5505 26.9371 16.5505 26.9367 16.5507 26.9365C16.5525 26.9299 16.5538 26.923 16.5549 26.9162C16.5553 26.9129 16.5558 26.9096 16.5562 26.9061C16.5567 26.9025 16.5569 26.899 16.5569 26.8955C16.5569 26.8926 16.5576 26.8897 16.5576 26.8869V26.3872C16.5576 26.3793 16.5569 26.3718 16.556 26.3643C16.5558 26.3623 16.5553 26.3603 16.5551 26.3584C16.5542 26.3526 16.5531 26.3469 16.5516 26.3412C16.5512 26.3394 16.5507 26.3376 16.5503 26.3357C16.5461 26.3211 16.5404 26.3072 16.5331 26.2944C16.5322 26.2929 16.5313 26.2916 16.5304 26.29C16.5273 26.2849 16.5243 26.2801 16.5207 26.2755C16.5196 26.2739 16.5183 26.2722 16.5172 26.2706C16.5126 26.2649 16.5079 26.2591 16.5027 26.2541C16.5027 26.2541 16.5027 26.2541 16.5024 26.2541C16.4974 26.249 16.4916 26.2442 16.4859 26.2397C16.4844 26.2386 16.4828 26.2373 16.4813 26.2362C16.4762 26.2325 16.4711 26.2292 16.4656 26.2259C16.4647 26.2254 16.4641 26.2247 16.4632 26.2243L14.6155 25.1684C14.5873 25.1523 14.5551 25.1437 14.5225 25.1437H11.0472C10.9916 25.1437 10.9389 25.1684 10.9034 25.211L8.5279 28.0561C8.49174 28.0993 8.47873 28.154 8.48689 28.2056C8.48535 28.2151 8.48447 28.2248 8.48447 28.2347V30.5524C8.48866 30.5555 8.49307 30.5584 8.49703 30.5619C8.54576 30.6051 8.54907 30.6633 8.50387 30.6922C8.49748 30.6962 8.49086 30.7002 8.48447 30.7044V39.9092C8.48447 39.989 8.53496 40.06 8.61036 40.0863L10.3851 40.7023C10.4049 40.7091 10.4256 40.7127 10.4466 40.7127H14.1734C16.1199 40.7127 17.9515 40.5876 19.3304 40.3605C20.009 40.2487 20.5444 40.1176 20.9216 39.9707C21.3853 39.7901 21.6109 39.5809 21.6109 39.3313C21.6109 39.0817 21.3855 38.8725 20.9216 38.6919L20.921 38.6923ZM11.1343 25.519H14.4722L15.9386 26.357C15.8039 26.3985 15.6309 26.4413 15.4216 26.4717C14.9149 26.5456 14.0881 26.5608 13.019 26.2166L12.1604 25.6671C12.0733 25.6114 11.9573 25.6367 11.9016 25.724C11.8912 25.7403 11.8835 25.7578 11.8786 25.7756C11.8738 25.7935 11.8716 25.8116 11.872 25.8296C11.8736 25.8898 11.9038 25.948 11.9584 25.9831L12.8373 26.5456C12.8507 26.5542 12.8651 26.561 12.8803 26.5658C13.6302 26.8101 14.274 26.8919 14.8007 26.8919C14.8016 26.8919 14.8023 26.8919 14.8031 26.8919C14.8391 26.8919 14.8744 26.8915 14.9092 26.8906C14.9209 26.8904 14.9326 26.89 14.9443 26.8895C14.9681 26.8889 14.9919 26.888 15.0153 26.8871C15.028 26.8864 15.0408 26.886 15.0534 26.8853C15.0759 26.8842 15.0979 26.8829 15.1198 26.8814C15.1317 26.8807 15.1436 26.8798 15.155 26.8789C15.1806 26.8772 15.2058 26.875 15.2304 26.8728C15.2375 26.8721 15.2448 26.8717 15.2518 26.871C15.2831 26.8681 15.314 26.8648 15.3442 26.8613C15.3533 26.8602 15.3619 26.8591 15.3709 26.858C15.3923 26.8553 15.4137 26.8527 15.4346 26.8498C15.4452 26.8483 15.4558 26.8467 15.4664 26.8454C15.4856 26.8428 15.5043 26.8399 15.523 26.8368C15.533 26.8353 15.5429 26.8337 15.5528 26.832C15.5733 26.8287 15.5934 26.8251 15.6132 26.8216C15.6203 26.8203 15.6273 26.8192 15.6342 26.8179C15.6608 26.8128 15.6871 26.8077 15.7124 26.8024C15.7157 26.8018 15.7188 26.8011 15.7221 26.8004C15.7442 26.7958 15.766 26.7912 15.7872 26.7863C15.794 26.7848 15.8006 26.7832 15.8072 26.7817C15.8251 26.7775 15.8425 26.7733 15.8597 26.7691C15.8661 26.7676 15.8725 26.766 15.8787 26.7643C15.897 26.7596 15.9151 26.755 15.9325 26.7502C15.9364 26.7491 15.9406 26.748 15.9444 26.7469C15.9889 26.7347 16.0306 26.7224 16.0694 26.71C16.0707 26.7096 16.0718 26.7092 16.0729 26.7089C16.0912 26.7032 16.1086 26.6975 16.1258 26.6917C16.1278 26.6911 16.1296 26.6904 16.1316 26.6898C16.1488 26.6838 16.1655 26.6781 16.1814 26.6723C16.1814 26.6723 16.1818 26.6723 16.1821 26.6723V26.7691C16.1821 26.7691 16.1812 26.7696 16.1807 26.7698C16.1737 26.7729 16.1662 26.776 16.1583 26.7793C16.1574 26.7797 16.1565 26.7799 16.1556 26.7804C16.1468 26.7839 16.1375 26.7876 16.1278 26.7916C16.1188 26.7951 16.1093 26.7989 16.0994 26.8026C16.097 26.8035 16.0945 26.8044 16.0919 26.8055C16.0837 26.8086 16.0751 26.8117 16.0665 26.8148C16.0641 26.8157 16.0617 26.8165 16.0593 26.8174C16.0485 26.8214 16.0372 26.8254 16.0255 26.8293C16.0231 26.8302 16.0205 26.8311 16.0178 26.832C16.0085 26.8351 15.9991 26.8384 15.9894 26.8414C15.9852 26.8428 15.9812 26.8441 15.977 26.8454C15.9675 26.8485 15.9578 26.8516 15.9477 26.8547C15.9442 26.8558 15.9406 26.8569 15.9371 26.858C15.9241 26.862 15.9104 26.8661 15.8968 26.8701C15.8928 26.8712 15.8886 26.8723 15.8846 26.8736C15.874 26.8767 15.8635 26.8796 15.8524 26.8827C15.8474 26.884 15.8421 26.8855 15.8368 26.8869C15.8251 26.89 15.8132 26.893 15.8011 26.8963C15.7973 26.8975 15.7936 26.8983 15.7896 26.8994C15.7742 26.9034 15.7583 26.9074 15.742 26.9111C15.7369 26.9124 15.7316 26.9135 15.7265 26.9147C15.7144 26.9175 15.7021 26.9204 15.6895 26.923C15.6835 26.9244 15.6778 26.9257 15.6719 26.927C15.6569 26.9303 15.6417 26.9334 15.6262 26.9365C15.6234 26.9371 15.6205 26.9378 15.6174 26.9382C15.5993 26.942 15.5808 26.9455 15.5618 26.9488C15.5561 26.9499 15.5502 26.9508 15.5444 26.9519C15.5303 26.9546 15.516 26.957 15.5012 26.9594C15.495 26.9605 15.4889 26.9614 15.4825 26.9625C15.4631 26.9656 15.4434 26.9687 15.4234 26.9718C15.4227 26.9718 15.4218 26.972 15.4212 26.9722C15.3963 26.9757 15.3716 26.979 15.3466 26.9823C14.5555 27.0827 13.7845 26.9416 13.2154 26.7773C13.1469 26.7574 13.0809 26.7374 13.0183 26.7173L12.1597 26.1679C12.1597 26.1679 12.1582 26.167 12.1573 26.1665C12.154 26.1646 12.1509 26.1628 12.1476 26.161C12.1454 26.1599 12.1432 26.1586 12.141 26.1575C12.1377 26.156 12.1346 26.1544 12.1313 26.1531C12.1298 26.1524 12.1284 26.152 12.1269 26.1513C12.1258 26.1509 12.1247 26.1504 12.1236 26.15C12.1207 26.1489 12.1176 26.148 12.1148 26.1471C12.1119 26.1463 12.109 26.1454 12.1062 26.1445C12.1035 26.1438 12.1009 26.1434 12.0982 26.1427C12.0967 26.1425 12.0951 26.1421 12.0938 26.1418C12.0921 26.1414 12.0903 26.141 12.0883 26.1407C12.0859 26.1403 12.0832 26.1401 12.0808 26.1399C12.0775 26.1394 12.074 26.139 12.0707 26.139C12.0682 26.139 12.0656 26.139 12.0632 26.139C12.0596 26.139 12.0563 26.139 12.0528 26.139C12.0502 26.139 12.0473 26.1394 12.0447 26.1396C12.0447 26.1396 12.0447 26.1396 12.0444 26.1396C12.044 26.1396 12.0438 26.1396 12.0433 26.1396C12.0407 26.1399 12.0378 26.1401 12.0352 26.1405C12.0321 26.141 12.0292 26.1414 12.0261 26.1421C12.0261 26.1421 12.0261 26.1421 12.0259 26.1421C12.0255 26.1421 12.025 26.1421 12.0246 26.1423C12.0222 26.1427 12.02 26.1432 12.0178 26.1436C12.0144 26.1443 12.0114 26.1454 12.0083 26.1463C12.0076 26.1463 12.0067 26.1467 12.0061 26.1469C12.0043 26.1474 12.0025 26.1478 12.0008 26.1485C11.9975 26.1496 11.9944 26.1509 11.9913 26.152C11.9897 26.1526 11.9882 26.1533 11.9867 26.1538C11.9858 26.1542 11.9849 26.1544 11.984 26.1549C11.9809 26.1562 11.9781 26.1577 11.9752 26.1593C11.9734 26.1601 11.9717 26.161 11.9699 26.1621C11.9692 26.1626 11.9684 26.1628 11.9677 26.1632C11.9651 26.1648 11.9626 26.1663 11.96 26.1679C11.9573 26.1696 11.9545 26.1714 11.9518 26.1732C11.9496 26.1747 11.9476 26.1765 11.9454 26.178C11.9426 26.1802 11.9399 26.1824 11.9373 26.1846C11.9353 26.1862 11.9335 26.1881 11.9318 26.1897C11.9291 26.1923 11.9265 26.1948 11.9238 26.1976C11.9232 26.1983 11.9225 26.199 11.9218 26.1996C11.9205 26.2009 11.9196 26.2025 11.9183 26.2038C11.9168 26.2056 11.9154 26.2073 11.9141 26.2089C11.9135 26.2098 11.9126 26.2106 11.9119 26.2115C11.9099 26.2142 11.9077 26.217 11.906 26.2199C11.9049 26.2214 11.9038 26.2228 11.9029 26.2243C11.9024 26.225 11.902 26.2259 11.9016 26.2267C11.8996 26.23 11.8976 26.2333 11.8958 26.2367C11.8954 26.2375 11.8949 26.2384 11.8943 26.2395C11.8936 26.2408 11.893 26.2419 11.8923 26.2433C11.8919 26.2444 11.8912 26.2455 11.8908 26.2466C11.8896 26.2488 11.8888 26.251 11.8879 26.2532C11.8868 26.2556 11.8859 26.258 11.885 26.2605C11.8839 26.2636 11.8828 26.2666 11.8819 26.2697C11.881 26.2726 11.8802 26.2755 11.8795 26.2783C11.8788 26.2808 11.8784 26.2832 11.878 26.2856C11.878 26.286 11.878 26.2865 11.8777 26.2869C11.8771 26.29 11.8764 26.2933 11.876 26.2964C11.876 26.2971 11.876 26.298 11.8758 26.2986C11.8755 26.3006 11.8753 26.3024 11.8751 26.3043C11.8747 26.3077 11.8744 26.311 11.8742 26.3143C11.8742 26.3169 11.8742 26.3196 11.8742 26.3222C11.8742 26.3246 11.874 26.3271 11.8742 26.3297C11.8742 26.3306 11.8742 26.3312 11.8742 26.3321C11.8742 26.335 11.8747 26.3379 11.8749 26.3407C11.8751 26.3438 11.8753 26.3469 11.8758 26.35C11.8758 26.35 11.876 26.3513 11.8762 26.352C11.8766 26.3544 11.8771 26.3568 11.8775 26.3592C11.878 26.3621 11.8784 26.3648 11.8791 26.3674C11.8795 26.3689 11.8799 26.3705 11.8804 26.372C11.8808 26.3738 11.8813 26.3753 11.8817 26.3771C11.8824 26.3795 11.883 26.3822 11.8839 26.3846C11.885 26.3879 11.8863 26.391 11.8874 26.3941C11.8883 26.3965 11.8894 26.3989 11.8903 26.4014C11.8916 26.4042 11.8932 26.4073 11.8945 26.4102C11.8958 26.4126 11.8971 26.4152 11.8985 26.4177C11.9 26.4203 11.9016 26.4227 11.9031 26.4252C11.9049 26.4278 11.9066 26.4307 11.9084 26.4333C11.9099 26.4355 11.9115 26.4375 11.9132 26.4397C11.9154 26.4426 11.9176 26.4455 11.9201 26.4481C11.9216 26.4499 11.9234 26.4516 11.9251 26.4534C11.9278 26.456 11.9304 26.4589 11.9331 26.4613C11.9337 26.462 11.9344 26.4627 11.9351 26.4633L12.8139 27.2608C12.828 27.2736 12.8439 27.2842 12.8613 27.2921C13.0853 27.3955 13.3094 27.4822 13.5298 27.5514L13.4957 27.9906L11.5889 28.0129C11.5505 28.0583 11.512 28.1037 11.4729 28.1489C11.4502 28.1752 11.4138 28.1855 11.3797 28.178C11.3651 28.1749 11.351 28.1686 11.3387 28.1591C11.2972 28.1271 11.2913 28.0711 11.3241 28.0343C11.3296 28.0281 11.3349 28.0219 11.3402 28.016L10.1035 28.0305L9.90638 28.0327L11.3706 26.1956C11.3988 26.1601 11.4121 26.1178 11.4114 26.0757C11.4105 26.0217 11.3863 25.9685 11.3409 25.9322C11.2599 25.8676 11.142 25.881 11.0776 25.9619L9.42263 28.0382L9.02796 28.0429L11.1358 25.5183L11.1343 25.519ZM10.4772 40.3383L9.4782 39.9914L8.85819 39.7762V30.3747C8.8443 30.3686 8.83085 30.3608 8.81916 30.3507C8.7711 30.3088 8.76845 30.2508 8.81233 30.2211C8.82776 30.2107 8.84276 30.1999 8.85819 30.1895V28.4203L8.91243 28.4197L9.35825 28.9652L9.79151 29.4952C9.8431 29.4533 9.89469 29.4117 9.94541 29.3691C9.99061 29.3314 10.0347 29.293 10.0792 29.2549L9.39221 28.4142L9.75579 28.41L12.6525 28.376C12.6669 28.3721 12.683 28.3721 12.6984 28.3756L13.3314 28.3681C13.336 28.3427 13.3554 28.3105 13.3729 28.303C13.3964 28.2927 13.4421 28.2724 13.4533 28.2942C13.4657 28.2733 13.5091 28.2947 13.5323 28.3064C13.5327 28.3064 13.5332 28.3068 13.5334 28.307C13.5393 28.3101 13.5453 28.3161 13.5508 28.3238C13.5667 28.3458 13.5783 28.3811 13.5691 28.397C13.5682 28.4016 13.5671 28.406 13.5662 28.4106L13.8251 28.9259L14.4005 30.0716H10.7462L10.2102 29.4158C10.1767 29.4452 10.143 29.4747 10.109 29.5038C10.0484 29.5561 9.98686 29.6077 9.9249 29.659L10.4699 30.326V30.3463C10.4699 30.3463 10.4715 30.3447 10.4721 30.3439C10.4739 30.341 10.4755 30.3379 10.4772 30.335C10.4988 30.2973 10.5207 30.2596 10.542 30.2217C10.5392 30.2136 10.5892 30.1655 10.5991 30.1639C10.6091 30.1626 10.6637 30.1273 10.6666 30.1353C10.6986 30.1057 10.7614 30.1163 10.8027 30.1445C10.8055 30.1465 10.8077 30.149 10.8104 30.1512C10.8335 30.1712 10.8452 30.2008 10.8417 30.227C10.8399 30.24 10.8348 30.2521 10.8251 30.2614C10.7709 30.3227 10.7162 30.3838 10.6607 30.4446C10.6602 30.4453 10.66 30.446 10.6596 30.4466C10.6371 30.487 10.6144 30.5273 10.5916 30.5677C10.595 30.5758 10.5442 30.6241 10.5339 30.6256C10.5308 30.6261 10.514 30.638 10.511 30.6373C10.5054 30.636 10.4807 30.6506 10.4697 30.6536V39.901C10.4697 39.9024 10.4697 39.9037 10.4697 39.905C10.4697 39.9077 10.4699 39.9103 10.4702 39.9129C10.4702 39.9138 10.4702 39.9145 10.4702 39.9154C10.4702 39.9182 10.4706 39.9209 10.4708 39.9238C10.4708 39.9244 10.471 39.9253 10.4713 39.926C10.4717 39.9284 10.4719 39.9308 10.4724 39.9332C10.4726 39.9348 10.473 39.9361 10.4732 39.9376C10.4735 39.939 10.4737 39.9405 10.4741 39.9418C10.4748 39.9447 10.4757 39.9476 10.4763 39.9507C10.477 39.9533 10.4779 39.9559 10.4788 39.9588C10.4788 39.9588 10.4788 39.959 10.4788 39.9593C10.4794 39.961 10.4801 39.9628 10.4807 39.9643C10.4812 39.9654 10.4816 39.9665 10.4821 39.9676C10.4825 39.9685 10.4827 39.9694 10.4832 39.9703C10.4838 39.9723 10.4847 39.9742 10.4856 39.976C10.4867 39.9789 10.488 39.9815 10.4896 39.9842C10.4896 39.9846 10.49 39.985 10.4902 39.9855C10.4913 39.9879 10.4927 39.9901 10.4938 39.9923C10.4951 39.9948 10.4966 39.9972 10.4982 39.9996C10.4993 40.0011 10.5001 40.0027 10.5013 40.0042C10.5019 40.0053 10.5028 40.0067 10.5035 40.0078C10.505 40.01 10.5068 40.0122 10.5083 40.0142C10.5105 40.0168 10.5125 40.0197 10.5149 40.0223C10.5158 40.0232 10.5165 40.0243 10.5173 40.0254L10.6589 40.1819L10.7993 40.3374H10.4761L10.4772 40.3383Z" fill="#231815"/>
<path d="M36.9271 31.0818C36.9284 31.1237 36.93 31.1654 36.9315 31.2068C36.93 31.1654 36.9287 31.1237 36.9271 31.0818Z" fill="#231815"/>
<path d="M37.5347 35.7116L37.5357 35.7114C37.5351 35.7115 37.5345 35.7116 37.5337 35.7119C37.5339 35.7119 37.5343 35.7119 37.5346 35.7117L37.5347 35.7116Z" fill="#231815"/>
<path d="M36.9326 31.2393C36.9331 31.2496 36.9333 31.26 36.9337 31.2703C36.9333 31.26 36.9329 31.2496 36.9326 31.2393Z" fill="#231815"/>
<path d="M49.5107 32.2985C49.5025 32.2078 49.4304 32.1364 49.3398 32.1287L44.5584 31.7254V14.6067C44.5584 14.6067 44.5584 14.6065 44.5584 14.6062C44.5584 14.5999 44.5579 14.5932 44.5573 14.5871C44.5573 14.5855 44.5568 14.5842 44.5566 14.5829C44.5559 14.5778 44.5553 14.573 44.5542 14.5681C44.5537 14.5661 44.5533 14.5641 44.5526 14.5621C44.5515 14.558 44.5504 14.5538 44.5491 14.5496C44.5484 14.5472 44.5476 14.5449 44.5467 14.5425C44.5453 14.539 44.544 14.5355 44.5425 14.5319C44.5414 14.5293 44.5401 14.5269 44.5387 14.5242C44.5372 14.5211 44.5356 14.5183 44.5341 14.5152C44.5326 14.5125 44.531 14.5099 44.5293 14.5072C44.5275 14.5046 44.5259 14.502 44.5242 14.4995C44.5222 14.4969 44.5204 14.4942 44.5184 14.4916C44.5167 14.4892 44.5147 14.487 44.5127 14.4845C44.5105 14.4821 44.5083 14.4795 44.5061 14.477C44.5039 14.4748 44.5015 14.4726 44.4993 14.4704C44.4975 14.4687 44.4957 14.4669 44.4938 14.4651C44.4933 14.4647 44.4929 14.4645 44.4922 14.464C44.4893 14.4616 44.4865 14.4594 44.4834 14.4572C44.4832 14.457 44.4827 14.4568 44.4825 14.4565C44.4807 14.4552 44.479 14.4537 44.477 14.4523C44.4744 14.4506 44.4717 14.449 44.4691 14.4475C44.4664 14.446 44.464 14.4442 44.4611 14.4426C44.4611 14.4426 44.4594 14.4418 44.4585 14.4413C44.4567 14.4404 44.4549 14.4396 44.4532 14.4387C44.4514 14.4378 44.4499 14.4371 44.4481 14.4363C44.4466 14.4356 44.4452 14.4349 44.4439 14.4343C44.4408 14.4329 44.4375 14.4318 44.4342 14.4307C44.4316 14.4299 44.4287 14.4288 44.4261 14.4279C44.4223 14.4268 44.4186 14.4259 44.4148 14.425C44.4124 14.4243 44.41 14.4239 44.4078 14.4232C44.4036 14.4224 44.3994 14.4219 44.3952 14.4213C44.3877 14.4204 44.38 14.4199 44.3725 14.4197C44.38 14.4197 44.3875 14.4202 44.395 14.4213C44.3934 14.4213 44.3921 14.4208 44.3906 14.4206L37.2929 13.6773L37.2276 14.0473L42.8536 14.6365L38.2143 15.3058L37.0277 15.1817L36.9624 15.5517L38.002 15.6606C38.0121 15.596 38.0221 15.5314 38.0324 15.4664C38.0298 15.4842 38.0293 15.5027 38.0322 15.5217C38.0443 15.605 38.1096 15.6679 38.1887 15.6802C38.1925 15.6809 38.1962 15.6811 38.1998 15.6813C38.2048 15.6818 38.2099 15.682 38.215 15.6822C38.2167 15.6822 38.2185 15.6822 38.2205 15.6822C38.224 15.6822 38.2276 15.682 38.2311 15.6818C38.2339 15.6816 38.237 15.6813 38.2399 15.6809C38.2414 15.6809 38.2428 15.6809 38.2443 15.6805L44.1835 14.8234V32.5875V32.9926L40.3674 34.5545L38.9569 35.1319L37.5573 35.7047C37.5573 35.7047 37.5566 35.7047 37.5564 35.705C37.5515 35.707 37.5467 35.7085 37.5418 35.71C37.5412 35.71 37.5405 35.7105 37.5399 35.7107C37.5394 35.7107 37.539 35.7109 37.5385 35.7111L49.3733 32.4965C49.4611 32.4726 49.5191 32.3893 49.5109 32.2987L49.5107 32.2985ZM44.3696 14.4193C44.361 14.4193 44.3526 14.4199 44.344 14.421C44.3526 14.4197 44.361 14.4193 44.3696 14.4193Z" fill="#231815"/>
<path d="M36.9377 31.3722C36.9388 31.4013 36.9399 31.4304 36.9412 31.4593C36.9401 31.4304 36.9388 31.4015 36.9377 31.3722Z" fill="#231815"/>
<path d="M21.6744 34.0635L21.6792 34.0639C21.6717 34.0633 21.6642 34.0623 21.657 34.0608C21.6628 34.0621 21.6686 34.0629 21.6744 34.0635Z" fill="#231815"/>
<path d="M29.8613 14.6366C29.8613 14.6366 29.8613 14.6366 29.8613 14.6364V14.6373H29.8612C29.8612 14.6371 29.8612 14.6368 29.8612 14.6367L29.8613 14.6366Z" fill="#231815"/>
<path d="M35.9962 19.8778L35.8223 19.8593L35.4697 19.8216L35.4556 19.8201L35.3237 19.806L35.2686 19.8L35.0819 19.7799L29.8081 19.2162L29.6213 19.1961L29.6085 19.1948L29.4343 19.1762L29.0677 19.137L28.6942 19.0971L22.0027 18.3818C22.0117 18.2994 22.0212 18.2167 22.0307 18.1336C22.0311 18.1303 22.0313 18.1272 22.0318 18.1241C22.0404 18.048 22.0492 17.9717 22.058 17.8952C22.0593 17.8829 22.0609 17.8708 22.0622 17.8584C22.0706 17.7867 22.0789 17.7149 22.0875 17.6428C22.0895 17.6256 22.0915 17.6084 22.0937 17.5912C22.1019 17.5222 22.1102 17.4527 22.1188 17.3833C22.1213 17.3628 22.1239 17.3425 22.1263 17.322C22.1345 17.2545 22.1429 17.187 22.1515 17.1191C22.1543 17.0962 22.1572 17.0735 22.1601 17.0505C22.1685 16.984 22.1768 16.9169 22.1854 16.8499C22.1885 16.8261 22.1914 16.8025 22.1945 16.7787C22.2031 16.7117 22.2117 16.6446 22.2205 16.5772C22.2236 16.5533 22.2267 16.5293 22.23 16.5055C22.2388 16.4378 22.2478 16.3701 22.2569 16.3022C22.26 16.2786 22.2633 16.255 22.2664 16.2312C22.2756 16.1622 22.2849 16.0932 22.2944 16.0237C22.2972 16.0019 22.3003 15.9801 22.3034 15.9583C22.3131 15.8868 22.323 15.8152 22.3329 15.7433C22.3356 15.7248 22.338 15.7062 22.3407 15.6877C22.3512 15.6119 22.3618 15.5358 22.3728 15.4595C22.3742 15.4496 22.3757 15.4397 22.377 15.43C22.4416 14.9762 22.5104 14.5147 22.5839 14.0453L29.4582 14.7652L29.493 14.5672L29.5234 14.3952L23.9436 13.8109L28.5833 13.1416L29.7234 13.2608L29.7887 12.8909L28.5991 12.7663C28.5991 12.7663 28.5972 12.7663 28.5963 12.7663C28.5923 12.7658 28.5881 12.7658 28.5842 12.7656C28.5817 12.7656 28.5791 12.7656 28.5764 12.7656C28.5731 12.7656 28.5696 12.7658 28.5663 12.7661C28.5632 12.7663 28.5599 12.7665 28.5568 12.7669C28.5555 12.7669 28.5542 12.7669 28.5526 12.7674L22.3993 13.6551C22.3993 13.6551 22.3975 13.6555 22.3967 13.6557C22.3876 13.657 22.379 13.659 22.3704 13.6617C22.3695 13.6619 22.3687 13.6623 22.3678 13.6626C22.3601 13.665 22.3526 13.6681 22.3453 13.6716C22.3437 13.6723 22.342 13.6731 22.3404 13.6738C22.3329 13.6776 22.3259 13.682 22.319 13.6866C22.3173 13.6877 22.3157 13.689 22.314 13.6903C22.3071 13.6954 22.3005 13.7009 22.2946 13.7069C22.2944 13.7071 22.2941 13.7075 22.2937 13.7078C22.2877 13.7137 22.2822 13.7201 22.2772 13.7269C22.2761 13.7283 22.2752 13.7296 22.2741 13.7309C22.269 13.738 22.2644 13.7452 22.2604 13.753C22.2597 13.7541 22.2593 13.7552 22.2586 13.7565C22.2549 13.7642 22.2514 13.7721 22.2487 13.7803C22.2485 13.781 22.2483 13.7816 22.2481 13.7823C22.2452 13.7909 22.2432 13.7997 22.2417 13.8085C22.2417 13.8094 22.2412 13.8103 22.241 13.8112C21.9777 15.4745 21.7718 17.0424 21.6117 18.5075C21.6102 18.5144 21.6091 18.5212 21.6082 18.528C21.6075 18.5349 21.6071 18.5419 21.6071 18.5487C21.1348 22.8908 21.0669 26.3262 21.1148 28.6547C21.1842 32.042 21.507 33.8917 21.5103 33.91C21.5103 33.9102 21.5103 33.9107 21.5103 33.9109C21.5072 33.8937 21.5063 33.8758 21.5081 33.8575C21.5189 33.7545 21.6113 33.6798 21.714 33.6906L21.8569 33.7056C21.7901 33.2677 21.591 31.8019 21.5105 29.4269L35.1061 30.8803L36.9265 31.075C36.9223 30.9515 36.9185 30.8252 36.915 30.6968L34.6499 30.4548L34.6422 30.5427C34.6336 30.6402 34.5518 30.7138 34.4557 30.7138C34.4502 30.7138 34.4447 30.7136 34.4392 30.7132C34.336 30.7041 34.2597 30.6133 34.2687 30.5101L34.2771 30.4151L21.4988 29.0489C21.4953 28.9175 21.492 28.7837 21.4891 28.6472C21.4891 28.6371 21.4887 28.6269 21.4885 28.6168C21.4878 28.5848 21.4872 28.5526 21.4867 28.5202C21.4863 28.5002 21.4861 28.4799 21.4856 28.4596C21.4852 28.4355 21.4847 28.4113 21.4843 28.3868C21.4838 28.3665 21.4836 28.3463 21.4834 28.326C21.483 28.2984 21.4825 28.2706 21.4823 28.2428C21.4821 28.2201 21.4816 28.1976 21.4814 28.1747C21.481 28.139 21.4805 28.1028 21.4801 28.0665C21.4801 28.0468 21.4797 28.027 21.4794 28.0071C21.4792 27.9802 21.479 27.9533 21.4788 27.9262C21.4788 27.9055 21.4783 27.885 21.4783 27.864C21.4781 27.8316 21.4779 27.799 21.4777 27.7662C21.4777 27.7417 21.4775 27.7172 21.4772 27.6925C21.4772 27.6586 21.477 27.6244 21.4768 27.59C21.4768 27.5688 21.4768 27.5477 21.4768 27.5265C21.4768 27.4983 21.4768 27.4698 21.4768 27.4414C21.4768 27.4198 21.4768 27.3982 21.4768 27.3763C21.4768 27.3404 21.4768 27.3042 21.4768 27.2679C21.4768 27.2392 21.4768 27.2103 21.4768 27.1814C21.4768 27.1514 21.4768 27.1215 21.477 27.0912C21.477 27.0668 21.4772 27.0421 21.4775 27.0172C21.4775 26.9907 21.4777 26.9642 21.4779 26.9376C21.4779 26.9124 21.4781 26.8873 21.4783 26.8619C21.4786 26.8271 21.479 26.7918 21.4792 26.7565C21.4797 26.7199 21.4799 26.6831 21.4803 26.6463C21.4805 26.6207 21.4808 26.5949 21.4812 26.5691C21.4816 26.5407 21.4819 26.512 21.4823 26.4834C21.4825 26.4596 21.483 26.4357 21.4832 26.4119C21.4836 26.3822 21.4841 26.3524 21.4845 26.3224C21.4847 26.3043 21.4852 26.2863 21.4854 26.2682C21.4863 26.208 21.4874 26.1476 21.4885 26.0867C21.4889 26.0666 21.4891 26.0464 21.4896 26.0261C21.4902 25.9921 21.4909 25.9582 21.4916 25.924C21.492 25.9053 21.4924 25.8863 21.4927 25.8676C21.4953 25.7489 21.4982 25.6288 21.5013 25.5071C21.5017 25.4912 21.5021 25.4755 21.5026 25.4597C21.5037 25.4204 21.5048 25.3812 21.5059 25.3415C21.5063 25.3293 21.5066 25.3174 21.507 25.3053C21.5107 25.1737 21.5152 25.0405 21.5198 24.9056C21.5202 24.8941 21.5207 24.8824 21.5209 24.871C21.5224 24.8262 21.524 24.7814 21.5257 24.7362C21.5257 24.7332 21.526 24.7301 21.5262 24.727C21.5315 24.5804 21.5374 24.4317 21.5438 24.2814C21.544 24.2748 21.5445 24.2681 21.5447 24.2615C21.5535 24.0567 21.5632 23.8483 21.5738 23.6365C21.5738 23.6343 21.574 23.632 21.5742 23.6298C21.6481 22.1707 21.7705 20.5406 21.9616 18.754L28.828 19.488L30.4656 19.6631L35.1738 20.1662L35.2157 20.1706L35.5467 20.2059L36.9156 20.3523L37.3767 20.4017C37.3899 20.2782 37.4034 20.1539 37.4173 20.0291L36.1953 19.8983L35.9958 19.877L35.9962 19.8778Z" fill="#231815"/>
<path d="M14.8814 30.1957C14.8814 30.1957 14.8807 30.1939 14.8805 30.1933C14.8799 30.1917 14.8794 30.1902 14.8788 30.1886C14.8788 30.1886 14.8788 30.1886 14.8785 30.1886C14.8774 30.1886 14.8766 30.1886 14.8755 30.1886C14.8766 30.2025 14.8777 30.2164 14.879 30.2303C14.8834 30.2391 14.888 30.2477 14.8922 30.2563C14.8922 30.2563 14.8922 30.2563 14.8922 30.2566C14.8922 30.2424 14.8902 30.229 14.8874 30.2158C14.8874 30.2151 14.8869 30.2144 14.8869 30.2138C14.8854 30.2076 14.8836 30.2014 14.8814 30.1955V30.1957Z" fill="#231815"/>
<path d="M38.2178 15.6818C38.2112 15.6818 38.2048 15.6813 38.198 15.6807L37.359 15.5929C37.2561 15.5821 37.1813 15.49 37.1921 15.387C37.2029 15.284 37.2953 15.2093 37.3981 15.2201L38.237 15.3078C38.34 15.3186 38.4147 15.4108 38.4039 15.5138C38.3938 15.6101 38.3124 15.6818 38.2178 15.6818Z" fill="#231815"/>
</svg>
