<svg width="81" height="81" viewBox="0 0 81 81" fill="none" xmlns="http://www.w3.org/2000/svg">
<path d="M53.1503 46.8328V49.1523C53.3715 49.0944 53.561 48.9576 53.6869 48.7738V48.149C53.6869 48.0326 53.7536 47.9317 53.8506 47.882V47.7401C53.8506 47.3052 53.5528 46.9383 53.1503 46.8328Z" fill="#2ABD81"/>
<path d="M55.1848 46.8021H55.061C54.5438 46.8021 54.1229 47.223 54.1229 47.7405V48.245C54.1229 48.4407 54.1833 48.6231 54.2866 48.7738C54.4559 49.0207 54.7396 49.183 55.061 49.183H55.1848C55.5062 49.183 55.7901 49.0207 55.9591 48.7738C56.0625 48.6231 56.1228 48.4407 56.1228 48.245V47.7405C56.1228 47.2233 55.702 46.8021 55.1848 46.8021Z" fill="#2ABD81"/>
<path d="M57.4574 48.0975H57.3335C57.0122 48.0975 56.7285 48.2598 56.5592 48.5067C56.4558 48.6573 56.3955 48.8397 56.3955 49.0355V49.54C56.3955 49.7361 56.4562 49.9182 56.5592 50.0688C56.7285 50.3158 57.0122 50.478 57.3335 50.478H57.4574C57.7788 50.478 58.0627 50.3158 58.2317 50.0688C58.3351 49.9182 58.3954 49.7358 58.3954 49.54V49.0355C58.3954 48.5184 57.9745 48.0975 57.4574 48.0975Z" fill="#2ABD81"/>
<path d="M39.4696 52.038H42.6509V51.7071C42.6509 51.5889 42.7194 51.487 42.8189 51.4383H39.47V52.038H39.4696Z" fill="#B580D8"/>
<path d="M53.1496 31.1582C53.1496 31.1518 53.1493 31.1458 53.1486 31.1395C53.1486 31.136 53.1479 31.1328 53.1472 31.1293C53.1472 31.1268 53.1464 31.124 53.1461 31.1215C53.1454 31.1176 53.145 31.1141 53.1443 31.1102C53.1436 31.1056 53.1422 31.1014 53.1412 31.0968C53.1401 31.0919 53.1387 31.0866 53.1373 31.0816C53.1359 31.077 53.1341 31.0725 53.1327 31.0682C53.1309 31.0636 53.1295 31.0587 53.1274 31.0541C53.1263 31.0516 53.1253 31.0495 53.1242 31.0471C53.1235 31.0453 53.1225 31.0432 53.1214 31.0414C53.1214 31.0414 53.1214 31.0407 53.121 31.0407C53.1189 31.0365 53.1172 31.0319 53.1147 31.0277C53.1122 31.0231 53.1094 31.0185 53.1066 31.0139C53.1055 31.0118 53.1045 31.0097 53.1031 31.0079C53.102 31.0061 53.1009 31.0044 53.0999 31.003C53.0967 30.998 53.0932 30.9934 53.0896 30.9888C53.0875 30.986 53.0858 30.9832 53.0837 30.9804C53.0833 30.98 53.0829 30.9793 53.0822 30.979C53.0815 30.9783 53.0812 30.9776 53.0808 30.9769C53.0798 30.9758 53.0787 30.9747 53.0777 30.9737C53.0755 30.9712 53.0734 30.9691 53.0713 30.9666C53.0681 30.9631 53.0653 30.9599 53.0621 30.9564C53.0604 30.9546 53.0586 30.9532 53.0568 30.9518C53.0561 30.9511 53.0558 30.9507 53.0551 30.95C53.0526 30.9479 53.0501 30.9455 53.0477 30.9433C53.0417 30.938 53.0357 30.9338 53.0293 30.9289C53.0265 30.9268 53.0237 30.9239 53.0205 30.9218C53.0198 30.9215 53.0194 30.9208 53.0187 30.9204C53.0187 30.9204 53.0184 30.9204 53.018 30.9201C53.018 30.9201 53.018 30.9201 53.0177 30.9201C53.0163 30.919 53.0145 30.9183 53.0131 30.9172C53.0036 30.9112 52.9944 30.9056 52.9845 30.9007C52.9835 30.9003 52.9828 30.8996 52.9817 30.8992C52.9803 30.8985 52.9789 30.8982 52.9775 30.8975C52.9757 30.8968 52.9739 30.8957 52.9722 30.895C52.9701 30.894 52.9679 30.8929 52.9662 30.8922C52.9609 30.8901 52.9552 30.8883 52.9499 30.8862C52.9485 30.8858 52.9471 30.8851 52.9457 30.8848C52.9443 30.8844 52.9429 30.8837 52.9415 30.883C52.9404 30.883 52.9394 30.8823 52.9387 30.882C52.9309 30.8795 52.9228 30.8774 52.9143 30.8756C52.9111 30.8749 52.9083 30.8742 52.9051 30.8738C52.902 30.8731 52.8991 30.8728 52.896 30.8724C52.891 30.8717 52.8861 30.8707 52.8812 30.8703C52.8787 30.8703 52.8762 30.8703 52.8734 30.87C52.8713 30.87 52.8688 30.87 52.8667 30.8696C52.8639 30.8696 52.8607 30.8693 52.8579 30.8689C52.8558 30.8689 52.8533 30.8689 52.8512 30.8689C52.8508 30.8689 52.8505 30.8689 52.8498 30.8689H51.4383V31.4686H51.9713L51.4383 31.8807L51.0305 32.1957H38.7104L40.0171 31.427C40.0171 31.427 40.0203 31.4249 40.0217 31.4238V30.9126C39.9304 30.8569 39.8118 30.8516 39.713 30.9098L37.4574 32.2366C37.4531 32.2391 37.4496 32.2419 37.4457 32.2444C37.4436 32.2458 37.4419 32.2469 37.4397 32.2483C37.4334 32.2528 37.427 32.2574 37.421 32.2624C37.42 32.2634 37.4186 32.2645 37.4175 32.2652C37.4112 32.2705 37.4048 32.2761 37.3988 32.2821C37.3981 32.2828 37.3974 32.2835 37.3967 32.2842C37.3907 32.2902 37.3851 32.2966 37.3794 32.3033C37.3787 32.304 37.378 32.3051 37.3773 32.3058C37.372 32.3121 37.3671 32.3188 37.3625 32.3259C37.3614 32.3273 37.3607 32.3287 37.3597 32.3298C37.3554 32.3361 37.3515 32.3428 37.3477 32.3495C37.3466 32.3516 37.3456 32.3537 37.3441 32.3559C37.341 32.3619 37.3378 32.3682 37.335 32.3746C37.3336 32.3774 37.3325 32.3802 37.3314 32.3834C37.329 32.3894 37.3269 32.3954 37.3247 32.4014C37.3237 32.4049 37.3226 32.4081 37.3216 32.4116C37.3198 32.4176 37.3184 32.4236 37.317 32.4299C37.3163 32.4335 37.3156 32.4366 37.3149 32.4402C37.3138 32.4469 37.3127 32.4532 37.3117 32.4599C37.3113 32.4628 37.311 32.4659 37.3106 32.4687C37.3099 32.4762 37.3096 32.4836 37.3096 32.491C37.3096 32.4924 37.3096 32.4941 37.3096 32.4956V36.8291L37.9093 37.0609V32.7954H50.8382V50.3613C50.8382 50.3613 50.8403 50.3613 50.8414 50.3613H50.9652C51.0241 50.3613 51.082 50.3669 51.1381 50.3775C51.2457 50.3976 51.3466 50.436 51.4379 50.4897C51.4591 50.502 51.4799 50.5154 51.5004 50.5295C51.7438 50.6992 51.9036 50.9811 51.9036 51.2996V51.4083H52.1756V51.2996C52.1756 50.9941 52.3227 50.7222 52.5495 50.5507C52.5577 50.5443 52.5665 50.5384 52.5749 50.5324C52.6578 50.4741 52.7503 50.4286 52.8494 50.3997C52.9334 50.375 53.0219 50.3616 53.1136 50.3616H53.1493V31.1691C53.1493 31.1659 53.1489 31.1628 53.1489 31.1596L53.1496 31.1582Z" fill="#B580D8"/>
<path d="M65.3081 35.3128C64.6368 34.6994 64.151 33.1507 64.151 32.406C64.151 32.2405 64.0166 32.1061 63.8511 32.1061C63.6857 32.1061 63.5513 32.2405 63.5513 32.406C63.5513 33.1507 63.0655 34.699 62.3942 35.3128C61.9214 35.745 61.6501 36.3521 61.6501 36.9779V50.8781C61.7313 50.8576 61.8163 50.8467 61.9038 50.8467H64.805V37.6599C64.805 37.1811 64.6537 36.718 64.3898 36.3888C64.3411 36.3281 64.3507 36.2392 64.4117 36.1906C64.4724 36.1419 64.5613 36.1514 64.6099 36.2124C64.9133 36.5906 65.0873 37.1184 65.0873 37.6599V50.8467H65.7526H65.7985C65.8859 50.8467 65.971 50.8576 66.0525 50.8781V36.9779C66.0525 36.3521 65.7812 35.745 65.3084 35.3128H65.3081Z" fill="#6194F6"/>
<path d="M28.2439 57.2842H27.9155V57.8839H28.2439V57.2842Z" fill="#6194F6"/>
<path d="M22.6114 57.2842H21.8516V57.8839H22.6114V57.2842Z" fill="#6194F6"/>
<path d="M31.0601 57.2842H30.7317V57.8839H31.0601V57.2842Z" fill="#6194F6"/>
<path d="M25.4277 57.2842H25.0992V57.8839H25.4277V57.2842Z" fill="#6194F6"/>
<path d="M36.3698 40.4814C36.3698 40.4814 36.3698 40.4782 36.3694 40.4768C36.3687 40.469 36.3673 40.4613 36.3659 40.4535C36.3656 40.451 36.3652 40.4489 36.3645 40.4465C36.3631 40.4398 36.3613 40.4334 36.3596 40.4271C36.3585 40.4239 36.3578 40.4207 36.3571 40.4175C36.3553 40.4119 36.3532 40.4062 36.3511 40.4006C36.3497 40.3971 36.3486 40.3935 36.3469 40.39C36.3444 40.3847 36.3419 40.3794 36.3391 40.3741C36.3373 40.371 36.3359 40.3674 36.3342 40.3643C36.331 40.3586 36.3275 40.353 36.3239 40.3473C36.3222 40.3449 36.3208 40.3424 36.3193 40.3399C36.3151 40.3339 36.3105 40.3279 36.3059 40.3219C36.3045 40.3205 36.3035 40.3188 36.3024 40.317C36.2975 40.311 36.2922 40.3054 36.2865 40.2997C36.2851 40.2983 36.2841 40.2972 36.283 40.2958C36.2777 40.2905 36.2721 40.2856 36.2664 40.281C36.2647 40.2796 36.2629 40.2778 36.2611 40.2764C36.2562 40.2725 36.2509 40.2687 36.246 40.2651C36.2432 40.263 36.24 40.2609 36.2372 40.2588C36.2329 40.256 36.2287 40.2535 36.2241 40.251C36.2199 40.2486 36.2153 40.2457 36.2107 40.2433C36.2072 40.2415 36.2036 40.2397 36.2001 40.2383C36.1945 40.2355 36.1885 40.233 36.1828 40.2306C36.1818 40.2302 36.1807 40.2295 36.1797 40.2292L36.0714 40.1872L32.7461 38.9024C32.744 38.9016 32.7415 38.9009 32.7394 38.9002C32.7334 38.8981 32.7274 38.896 32.721 38.8942C32.7168 38.8932 32.7129 38.8921 32.7087 38.8911C32.7034 38.8897 32.6981 38.8886 32.6928 38.8875C32.6875 38.8865 32.6822 38.8858 32.6769 38.8851C32.6727 38.8844 32.6685 38.884 32.6642 38.8837C32.6579 38.883 32.6515 38.883 32.6452 38.8826C32.6427 38.8826 32.6402 38.8822 32.6378 38.8822H16.4855C16.4855 38.8822 16.4841 38.8822 16.4834 38.8822C16.4799 38.8822 16.4767 38.8826 16.4732 38.8826C16.4612 38.883 16.4495 38.8844 16.4379 38.8865C16.4361 38.8865 16.434 38.8872 16.4322 38.8875C16.4083 38.8918 16.3857 38.8988 16.3642 38.9084C16.3627 38.9091 16.3613 38.9098 16.3599 38.9105C16.349 38.9154 16.3384 38.9211 16.3282 38.9274C16.3282 38.9274 16.3282 38.9274 16.3278 38.9274C16.3183 38.9334 16.3095 38.9397 16.3007 38.9468C16.2982 38.9486 16.2961 38.9503 16.294 38.9525C16.2855 38.9595 16.2774 38.9669 16.27 38.975C16.2682 38.9768 16.2668 38.9789 16.265 38.9807C16.2583 38.9881 16.2516 38.9962 16.2456 39.0043C16.2446 39.0061 16.2432 39.0075 16.2421 39.0089C16.235 39.0188 16.2287 39.029 16.223 39.0399C16.2227 39.0406 16.222 39.0414 16.2216 39.0424C16.2213 39.0431 16.2209 39.0442 16.2206 39.0449C16.2142 39.0569 16.2086 39.0696 16.204 39.0826C16.2036 39.084 16.2033 39.0854 16.2026 39.0869C16.1983 39.0999 16.1945 39.1133 16.192 39.1271C16.192 39.1281 16.192 39.1295 16.1913 39.1306C16.1899 39.1391 16.1885 39.1475 16.1878 39.156C16.1878 39.1578 16.1878 39.1599 16.1878 39.1616C16.1874 39.1687 16.1867 39.1754 16.1867 39.1825V55.5982C16.1867 55.6004 16.1867 55.6021 16.1867 55.6042C16.1867 55.6042 16.1867 55.6046 16.1867 55.6049C16.1867 55.6148 16.1878 55.6243 16.1888 55.6339C16.1895 55.6406 16.1909 55.6473 16.192 55.654C16.1927 55.6568 16.1927 55.6596 16.1934 55.6625C16.1948 55.6695 16.1969 55.6766 16.1991 55.6836C16.1998 55.6861 16.2001 55.6882 16.2008 55.6907C16.2029 55.6974 16.2054 55.7037 16.2079 55.7101C16.2089 55.7125 16.2096 55.7154 16.211 55.7178C16.2135 55.7235 16.2163 55.7291 16.2192 55.7348C16.2209 55.7379 16.2223 55.7411 16.2237 55.7443C16.2266 55.7492 16.2294 55.7538 16.2326 55.7584C16.2347 55.7619 16.2368 55.7655 16.2393 55.769C16.2424 55.7736 16.2456 55.7775 16.2491 55.782C16.252 55.7856 16.2541 55.7891 16.2569 55.7923C16.2633 55.7997 16.27 55.8067 16.2767 55.8134C16.2767 55.8134 16.2767 55.8134 16.277 55.8134C16.2841 55.8201 16.2915 55.8268 16.2992 55.8328C16.2992 55.8328 16.2992 55.8328 16.2996 55.8332L17.7174 56.9547H18.684L16.785 55.4525V39.6795L18.696 40.6895V56.9547H19.2957V40.8084H35.7708V57.2838H33.5476V57.8835H36.0706C36.2361 57.8835 36.3705 57.7491 36.3705 57.5837V40.5086C36.3705 40.5086 36.3705 40.5078 36.3705 40.5071C36.3705 40.4983 36.3698 40.4895 36.3691 40.481L36.3698 40.4814ZM19.071 40.209L17.6952 39.482H32.5824L34.4637 40.209H19.071Z" fill="#6194F6"/>
<path d="M47.7956 53.3288C47.7927 53.3288 47.7903 53.3288 47.7874 53.3288H47.6636C47.4932 53.3288 47.3334 53.3747 47.1958 53.4544C46.915 53.6167 46.7256 53.9201 46.7256 54.2672V54.7717C46.7256 54.9315 46.7658 55.0821 46.8367 55.2141C46.8529 55.2441 46.8706 55.273 46.8896 55.3009C47.059 55.5478 47.3426 55.7101 47.664 55.7101H47.7878C48.1092 55.7101 48.3932 55.5478 48.5621 55.3009V54.6761C48.5621 54.6549 48.5643 54.6345 48.5685 54.6147C48.5872 54.5247 48.6465 54.45 48.7258 54.4094V54.2679C48.7258 53.7532 48.3092 53.3341 47.7956 53.3299V53.3288Z" fill="#FF6021"/>
<path d="M50.0678 53.3288C50.065 53.3288 50.0625 53.3288 50.0597 53.3288H49.9358C49.7654 53.3288 49.6056 53.3747 49.4681 53.4544C49.1872 53.6167 48.9978 53.9201 48.9978 54.2672V54.7717C48.9978 54.9315 49.038 55.0821 49.1089 55.2141C49.1248 55.2441 49.1424 55.273 49.1618 55.3009C49.3312 55.5478 49.6148 55.7101 49.9362 55.7101H50.06C50.3814 55.7101 50.6654 55.5478 50.8344 55.3009V54.6761C50.8344 54.6549 50.8365 54.6345 50.8407 54.6147C50.8594 54.5247 50.9187 54.45 50.998 54.4094V54.2679C50.998 53.7532 50.5814 53.3341 50.0678 53.3299V53.3288Z" fill="#FF6021"/>
<path d="M52.3404 53.3288C52.3375 53.3288 52.3351 53.3288 52.3326 53.3288H52.2088C52.0384 53.3288 51.8789 53.3747 51.741 53.4544C51.4602 53.6167 51.2708 53.9201 51.2708 54.2672V54.7717C51.2708 54.9315 51.311 55.0821 51.3819 55.2141C51.3977 55.2441 51.4154 55.273 51.4348 55.3009C51.6041 55.5478 51.8878 55.7101 52.2091 55.7101H52.333C52.6543 55.7101 52.9383 55.5478 53.1073 55.3009V54.6761C53.1073 54.6549 53.1094 54.6345 53.1137 54.6147C53.1324 54.5247 53.1916 54.45 53.271 54.4094V54.2679C53.271 53.7532 52.8544 53.3341 52.3407 53.3299L52.3404 53.3288Z" fill="#FF6021"/>
<path d="M55.4871 53.9476C55.4801 53.9285 55.4727 53.9098 55.4642 53.8912C55.4085 53.7642 55.3252 53.6516 55.2222 53.5613C55.0589 53.4184 54.8461 53.3309 54.613 53.3288C54.6101 53.3288 54.6077 53.3288 54.6052 53.3288H54.4814C54.3956 53.3288 54.3127 53.3405 54.2341 53.362C54.1561 53.3835 54.082 53.4146 54.0136 53.4541C53.7328 53.6163 53.5433 53.9197 53.5433 54.2669V54.7713C53.5433 54.9311 53.5836 55.0818 53.6545 55.2137C53.6707 55.2437 53.6883 55.2726 53.7074 55.3005C53.8767 55.5474 54.1603 55.7097 54.4817 55.7097H54.6055C54.9269 55.7097 55.2109 55.5474 55.3799 55.3005V54.6757C55.3799 54.6362 55.3877 54.5985 55.4018 54.5639C55.4289 54.4965 55.4797 54.4415 55.5439 54.4087V54.2672C55.5439 54.2591 55.5436 54.251 55.5432 54.2429C55.5404 54.1395 55.5214 54.0404 55.4878 53.948L55.4871 53.9476Z" fill="#FF6021"/>
<path d="M56.8771 53.3288H56.7533C56.5716 53.3288 56.4023 53.3807 56.2583 53.4703C56.1613 53.5306 56.0763 53.6082 56.0071 53.6989C55.901 53.8382 55.8329 54.0076 55.8181 54.1924C55.8159 54.2171 55.8149 54.2418 55.8149 54.2672V54.7717C55.8149 54.9678 55.8756 55.1499 55.9786 55.3005C56.1479 55.5474 56.4315 55.7097 56.7529 55.7097H56.8767C57.1981 55.7097 57.4821 55.5474 57.6511 55.3005C57.7545 55.1499 57.8148 54.9678 57.8148 54.7717V54.2672C57.8148 53.75 57.3939 53.3288 56.8767 53.3288H56.8771Z" fill="#FF6021"/>
<path d="M32.8861 47.1323H31.7223C31.5568 47.1323 31.4224 47.2667 31.4224 47.4322V49.9443H33.186V47.4322C33.186 47.2667 33.0516 47.1323 32.8861 47.1323Z" fill="#F0C104"/>
<path d="M30.0699 47.1323H28.9061C28.7406 47.1323 28.6062 47.2667 28.6062 47.4322V49.9443H30.3697V47.4322C30.3697 47.2667 30.2353 47.1323 30.0699 47.1323Z" fill="#F0C104"/>
<path d="M27.2537 47.1323H26.0898C25.9244 47.1323 25.79 47.2667 25.79 47.4322V49.9443H27.5535V47.4322C27.5535 47.2667 27.4191 47.1323 27.2537 47.1323Z" fill="#F0C104"/>
<path d="M24.4374 47.1323H23.2736C23.1082 47.1323 22.9738 47.2667 22.9738 47.4322V49.9439H24.7373V47.4322C24.7373 47.2667 24.6029 47.1323 24.4374 47.1323Z" fill="#F0C104"/>
<path d="M44.2335 58.7302H43.692C43.6973 58.7538 43.7019 58.7785 43.7061 58.8032C43.7061 58.8039 43.7061 58.8043 43.7061 58.805C43.71 58.83 43.7135 58.8551 43.7164 58.8808C43.7188 58.9059 43.7209 58.9309 43.7224 58.956C43.7224 58.9577 43.7224 58.9599 43.7224 58.9616C43.7238 58.987 43.7245 59.0124 43.7245 59.0382C43.7245 59.0639 43.7238 59.0879 43.7227 59.1123C43.7224 59.12 43.7217 59.1274 43.7213 59.1348C43.7202 59.1518 43.7188 59.1687 43.7174 59.1856C43.7167 59.1937 43.7157 59.2019 43.7149 59.21C43.7142 59.2153 43.7135 59.2202 43.7128 59.2255C43.7114 59.2368 43.71 59.2481 43.7082 59.2594C43.7072 59.2664 43.7061 59.2735 43.7051 59.2802C43.7012 59.3028 43.697 59.3253 43.692 59.3468H44.2335C44.3161 59.3468 44.3933 59.3147 44.4515 59.2565C44.4614 59.2467 44.4702 59.2361 44.4784 59.2255C44.5193 59.1719 44.5419 59.107 44.5419 59.0385C44.5419 58.8685 44.4036 58.7302 44.2335 58.7302Z" fill="#F0C104"/>
<path d="M42.4605 57.8903H41.9189C41.9242 57.9139 41.9288 57.9382 41.9331 57.9629C41.9331 57.9636 41.9331 57.9643 41.9334 57.965C41.9373 57.9897 41.9408 58.0151 41.9436 58.0405C41.9436 58.0405 41.9436 58.0405 41.9436 58.0409C41.9461 58.0656 41.9482 58.091 41.9496 58.116C41.9496 58.1178 41.9496 58.1199 41.9496 58.1217C41.951 58.1471 41.9518 58.1725 41.9518 58.1982C41.9518 58.224 41.951 58.2497 41.9496 58.2748C41.9496 58.2765 41.9496 58.2787 41.9493 58.2804C41.9479 58.3051 41.9461 58.3291 41.9436 58.3531C42.0262 58.2815 42.1193 58.2261 42.2188 58.1883C42.2202 58.1876 42.2216 58.1873 42.223 58.1866C42.2463 58.1778 42.27 58.1704 42.2939 58.1637C42.2968 58.1629 42.2992 58.1622 42.3021 58.1615C42.3253 58.1552 42.349 58.1499 42.373 58.1453C42.3761 58.1446 42.3793 58.1442 42.3825 58.1435C42.4065 58.1393 42.4308 58.1361 42.4552 58.1337C42.4576 58.1337 42.4601 58.1337 42.4629 58.133C42.4883 58.1308 42.5141 58.1294 42.5398 58.1294H42.7617C42.7307 57.9918 42.6076 57.8892 42.4608 57.8892L42.4605 57.8903Z" fill="#F0C104"/>
<path d="M59.3211 56.9187C59.0248 56.8559 58.6526 56.8157 58.2511 56.8023V54.6754C58.2511 54.5099 58.1167 54.3755 57.9513 54.3755H57.8151V54.7713C57.8151 54.9675 57.7544 55.1495 57.6514 55.3001V57.5819H55.9786V55.3001C55.8752 55.1495 55.8149 54.9671 55.8149 54.7713V54.2669C55.8149 54.2418 55.8163 54.2168 55.818 54.1921C55.8325 54.0076 55.9006 53.8379 56.0071 53.6985C56.0763 53.6079 56.1613 53.5303 56.2583 53.4699C56.107 53.4036 55.9457 53.3698 55.8526 53.3496C55.5147 53.278 55.0786 53.2357 54.6126 53.2293V51.7068C54.6126 51.6891 54.6108 51.6718 54.6077 51.6549H55.9591V52.6504C55.9591 52.8159 56.0936 52.9503 56.259 52.9503H58.5316C59.046 52.9503 59.5324 52.9073 59.9014 52.8289C60.1145 52.7838 60.6807 52.6635 60.6807 52.2582C60.6807 51.8528 60.1145 51.7325 59.9014 51.6874C59.6051 51.6246 59.2329 51.5843 58.8315 51.5709V49.444C58.8315 49.2786 58.6971 49.1442 58.5316 49.1442H58.3954V49.54C58.3954 49.7361 58.3348 49.9182 58.2317 50.0688V52.3506H56.5589V50.0688C56.4555 49.9182 56.3952 49.7358 56.3952 49.54V49.0355C56.3952 48.8394 56.4559 48.6574 56.5589 48.5067V48.1487C56.5589 47.9832 56.4245 47.8488 56.259 47.8488H56.1228V48.2446C56.1228 48.4408 56.0622 48.6228 55.9591 48.7734V51.0552H54.2863V48.7734C54.1833 48.6228 54.1226 48.4408 54.1226 48.2446V47.8488H53.9885C53.9885 47.8488 53.9871 47.8488 53.9864 47.8488H53.8503V47.8819C53.7532 47.9317 53.6866 48.0322 53.6866 48.149V48.7738V50.4749C53.5532 50.4022 53.4008 50.3609 53.2385 50.3609H53.1147C53.023 50.3609 52.9341 50.3743 52.8505 50.399C52.751 50.4283 52.6586 50.4735 52.576 50.5317C52.5676 50.5377 52.5591 50.5437 52.5506 50.55C52.3238 50.7215 52.1767 50.9934 52.1767 51.2989V51.4076H51.9047V51.2989C51.9047 50.9804 51.7449 50.6985 51.5015 50.5288C51.4813 50.5147 51.4605 50.5013 51.439 50.489C51.3476 50.4354 51.2468 50.3969 51.1392 50.3768C51.0831 50.3662 51.0256 50.3606 50.9663 50.3606H50.8425C50.8425 50.3606 50.8404 50.3606 50.8393 50.3606C50.3235 50.3623 49.9041 50.7825 49.9041 51.2986V51.4073H49.6321V51.2986C49.6321 50.7814 49.2112 50.3602 48.6941 50.3602H48.5702C48.0531 50.3602 47.6322 50.7811 47.6322 51.2986V51.4073H47.3602V51.2986C47.3602 50.7814 46.9393 50.3602 46.4222 50.3602H46.2983C45.7812 50.3602 45.3603 50.7811 45.3603 51.2986V51.4073H45.0883V51.2986C45.0883 50.7814 44.6675 50.3602 44.1503 50.3602H44.0265C43.5093 50.3602 43.0884 50.7811 43.0884 51.2986V51.4073H42.9523C42.9046 51.4073 42.8602 51.4185 42.8203 51.4383C42.7212 51.4873 42.6524 51.5889 42.6524 51.7071V53.2593C42.0259 52.812 40.7425 52.5859 39.471 52.5552V37.8617C39.471 37.8581 39.4707 37.8546 39.4703 37.8511C39.4654 37.7075 39.3596 37.59 39.2216 37.5664L37.9114 37.0602L37.3117 36.8284L35.8544 36.2653L35.8459 36.2622C35.8445 36.2615 35.8427 36.2611 35.8413 36.2608C35.8343 36.2583 35.8272 36.2558 35.8198 36.2537C35.817 36.253 35.8138 36.2523 35.811 36.2516C35.8046 36.2498 35.7979 36.2484 35.7916 36.2474C35.7877 36.2467 35.7838 36.2459 35.7796 36.2456C35.7739 36.2449 35.7683 36.2442 35.7627 36.2435C35.7581 36.2431 35.7531 36.2428 35.7482 36.2428C35.7447 36.2428 35.7411 36.2421 35.7376 36.2421H19.5857C19.5822 36.2421 19.579 36.2428 19.5755 36.2428C19.5691 36.2428 19.5631 36.2435 19.5568 36.2442C19.5487 36.2449 19.5405 36.2456 19.5328 36.247C19.5278 36.2481 19.5229 36.2491 19.518 36.2505C19.5095 36.2527 19.501 36.2544 19.4926 36.2572C19.4883 36.2586 19.4841 36.2608 19.4795 36.2622C19.4714 36.2653 19.4629 36.2682 19.4552 36.2721C19.4432 36.2777 19.4315 36.2844 19.4202 36.2918C19.4199 36.2918 19.4195 36.2922 19.4192 36.2925C19.4139 36.296 19.409 36.2999 19.404 36.3038C19.4012 36.3059 19.398 36.308 19.3952 36.3105C19.3927 36.3126 19.3906 36.3147 19.3881 36.3169C19.3719 36.331 19.3575 36.3468 19.3444 36.3645C19.3419 36.368 19.3391 36.3712 19.3366 36.3751C19.3349 36.3779 19.3335 36.3807 19.3317 36.3835C19.3282 36.3892 19.3243 36.3952 19.3211 36.4012C19.3211 36.4015 19.3208 36.4019 19.3204 36.4022C19.319 36.4047 19.3179 36.4075 19.3169 36.41C19.3141 36.416 19.3109 36.422 19.3084 36.428C19.3067 36.4319 19.3052 36.4361 19.3038 36.4403C19.3021 36.4453 19.3 36.4506 19.2985 36.4555C19.2968 36.4608 19.2957 36.4661 19.2943 36.4714C19.2932 36.4756 19.2922 36.4795 19.2915 36.4837C19.2901 36.4901 19.2894 36.4968 19.2887 36.5031C19.2883 36.5063 19.2876 36.5095 19.2873 36.513C19.2865 36.5204 19.2862 36.5278 19.2862 36.5352C19.2862 36.5377 19.2862 36.5398 19.2862 36.5419V38.8823H19.8859V37.0393L21.7969 38.049V38.8819H22.3966V38.1679H38.8717V54.6433H36.373V57.5837C36.373 57.7491 36.2386 57.8835 36.0731 57.8835C37.9393 57.8835 39.948 57.4623 39.948 56.5373C39.948 55.7983 38.665 55.3809 37.1967 55.243H39.1715C40.5361 55.243 41.9768 55.0176 42.6527 54.535V54.9132C42.6527 55.0786 42.7872 55.213 42.9526 55.213H46.2913V57.8814C46.2913 58.0469 46.4257 58.1813 46.5912 58.1813H57.9534C58.4678 58.1813 58.9542 58.1382 59.3232 58.0599C59.5363 58.0148 60.1025 57.8945 60.1025 57.4891C60.1025 57.0838 59.5363 56.9635 59.3232 56.9183L59.3211 56.9187ZM20.7933 36.8414H35.6801L37.5445 37.5618H36.071C36.0495 37.5618 36.0283 37.5643 36.0082 37.5685H22.1694L20.7933 36.8414ZM43.2503 52.3322C43.4197 52.5792 43.7033 52.7415 44.0247 52.7415H44.1485C44.4699 52.7415 44.7535 52.5792 44.9229 52.3322V54.614H43.25V52.3322H43.2503ZM53.6534 55.2137C53.5825 55.0818 53.5423 54.9311 53.5423 54.7713V54.3755H53.2703V54.4083C53.1906 54.4489 53.1316 54.524 53.1129 54.6136C53.1087 54.6334 53.1066 54.6542 53.1066 54.675V57.5819H51.4337V55.3001C51.4147 55.2723 51.397 55.2434 51.3808 55.2134C51.3099 55.0814 51.2697 54.9308 51.2697 54.771V54.3752H50.9977V54.408C50.918 54.4485 50.859 54.5237 50.8404 54.6133C50.8361 54.633 50.834 54.6539 50.834 54.6747V57.5816H49.1611V55.2998C49.1421 55.2719 49.1244 55.243 49.1082 55.213C49.0373 55.0811 48.9971 54.9304 48.9971 54.7706V54.3748H48.7251V54.4076C48.6454 54.4482 48.5865 54.5233 48.5678 54.6129C48.5635 54.6327 48.5614 54.6535 48.5614 54.6743V57.5812H46.8889V55.2994C46.8698 55.2716 46.8522 55.2426 46.836 55.2127C46.7651 55.0807 46.7249 54.9301 46.7249 54.7703V54.3745H46.5887C46.444 54.3745 46.3237 54.4768 46.2952 54.6129H45.5222V52.3312C45.6916 52.5781 45.9752 52.7404 46.2966 52.7404H46.4204C46.7418 52.7404 47.0258 52.5781 47.1948 52.3312V53.4534C47.3327 53.3736 47.4921 53.3278 47.6625 53.3278H47.7864C47.7892 53.3278 47.7917 53.3278 47.7945 53.3278V52.3308C47.9638 52.5778 48.2474 52.74 48.5688 52.74H48.6926C49.014 52.74 49.298 52.5778 49.467 52.3308V53.453C49.6049 53.3733 49.7644 53.3274 49.9348 53.3274H50.0586C50.0614 53.3274 50.0639 53.3274 50.0667 53.3274V52.3305C50.236 52.5774 50.5197 52.7397 50.8411 52.7397H50.9649C51.2863 52.7397 51.5702 52.5774 51.7392 52.3305V53.4527C51.8772 53.3729 52.0366 53.3271 52.207 53.3271H52.3308C52.3337 53.3271 52.3361 53.3271 52.3386 53.3271V52.3301C52.5079 52.5771 52.7916 52.7393 53.1129 52.7393H53.2368C53.5582 52.7393 53.8418 52.5771 54.0111 52.3301V53.4523C54.0796 53.4128 54.1536 53.3814 54.2316 53.3602C54.3106 53.3387 54.3932 53.3271 54.4789 53.3271H54.6027C54.6055 53.3271 54.608 53.3271 54.6105 53.3271C54.8437 53.3292 55.0564 53.4163 55.2197 53.5595C55.3227 53.6499 55.406 53.7624 55.4617 53.8894C55.4698 53.9077 55.4776 53.9268 55.4847 53.9458C55.5182 54.0383 55.5376 54.1374 55.5401 54.2408C55.5401 54.2489 55.5408 54.257 55.5408 54.2651V54.4066C55.4766 54.4394 55.4258 54.4944 55.3986 54.5618C55.3848 54.5964 55.3767 54.6341 55.3767 54.6736V57.5805H53.7042V55.2987C53.6852 55.2709 53.6675 55.2419 53.6513 55.212L53.6534 55.2137Z" fill="#231815"/>
<path d="M34.8511 58.1742C34.4934 58.1382 34.0386 58.116 33.5479 58.1093V50.2438C33.5479 50.0783 33.4135 49.9439 33.2481 49.9439H31.36C31.1945 49.9439 31.0601 50.0783 31.0601 50.2438V58.1305H30.7317V50.2438C30.7317 50.0783 30.5973 49.9439 30.4318 49.9439H28.5438C28.3783 49.9439 28.2439 50.0783 28.2439 50.2438V58.1305H27.9155V50.2438C27.9155 50.0783 27.7811 49.9439 27.6156 49.9439H25.7276C25.5621 49.9439 25.4277 50.0783 25.4277 50.2438V58.1305H25.0993V50.2434C25.0993 50.078 24.9649 49.9436 24.7994 49.9436H22.911C22.7455 49.9436 22.6111 50.078 22.6111 50.2434V58.3301H21.8512V57.2542C21.8512 57.0887 21.7168 56.9543 21.5514 56.9543H12.9383C12.7729 56.9543 12.6385 57.0887 12.6385 57.2542V57.3166H10.1263C9.96089 57.3166 9.82648 57.451 9.82648 57.6165V58.7803C9.82648 58.9457 9.96089 59.0802 10.1263 59.0802H12.6385V59.1426C12.6385 59.308 12.7729 59.4425 12.9383 59.4425H13.5384V60.1558C13.5384 60.3212 13.6728 60.4556 13.8383 60.4556H16.3504V60.5181C16.3504 60.6835 16.4848 60.8179 16.6502 60.8179H25.2633C25.8055 60.8179 26.3174 60.7939 26.7037 60.7509C27.0822 60.7086 27.5532 60.6557 27.5532 60.2951C27.5532 59.9346 27.0822 59.882 26.7037 59.8393C26.3894 59.8041 25.9921 59.7818 25.5632 59.7748V59.1563H33.2481C33.2632 59.1563 33.2784 59.1549 33.2929 59.1525C33.8799 59.1514 34.4316 59.1278 34.8507 59.0858C35.3037 59.0403 35.7722 58.9934 35.7722 58.6297C35.7722 58.2659 35.3037 58.219 34.8507 58.1735L34.8511 58.1742ZM31.6599 57.5858V50.5436H32.9482V58.557H31.6599V57.5858ZM30.132 58.557H28.8436V50.5436H30.132V58.557ZM24.9634 60.0725V60.2186H16.9501V58.9302H24.9634V60.0725ZM14.0386 59.0159H15.9503C16.0477 59.0159 16.1267 59.095 16.1267 59.1923C16.1267 59.2294 16.1151 59.2639 16.0957 59.2922C16.0639 59.3384 16.0107 59.3687 15.9503 59.3687H14.0386C13.9413 59.3687 13.8622 59.2897 13.8622 59.1923C13.8622 59.095 13.9413 59.0159 14.0386 59.0159ZM23.2112 57.5837V50.5433H24.4999V58.3301H23.2112V57.5837ZM26.0274 58.1305V50.5436H27.3158V58.557H26.0274V58.1305ZM12.3838 57.9167C12.352 57.9629 12.2987 57.9932 12.2384 57.9932H10.3267C10.2293 57.9932 10.1503 57.9142 10.1503 57.8169C10.1503 57.7195 10.2293 57.6405 10.3267 57.6405H12.2384C12.3358 57.6405 12.4148 57.7195 12.4148 57.8169C12.4148 57.8539 12.4032 57.8885 12.3838 57.9167ZM13.2385 58.8431V57.5544H21.2519V58.3305H16.6506C16.4851 58.3305 16.3507 58.4649 16.3507 58.6304V58.6928H13.8386C13.7275 58.6928 13.6308 58.7535 13.579 58.8431H13.2385Z" fill="#231815"/>
<path d="M45.2358 59.2258H45.1225C45.1352 59.1648 45.1419 59.1024 45.1419 59.0389C45.1419 58.5379 44.7345 58.1308 44.2339 58.1308H43.3661C43.3311 57.6616 42.9385 57.2909 42.4608 57.2909H40.7672C40.5248 57.2909 40.2969 57.3851 40.1247 57.5565C39.9529 57.7283 39.8584 57.9562 39.8584 58.1989C39.8584 58.6999 40.2659 59.107 40.7668 59.107H41.6343C41.66 59.453 41.8805 59.7455 42.186 59.8753C42.246 59.9201 42.3204 59.9469 42.4009 59.9469H45.2358C45.4347 59.9469 45.5963 59.785 45.5963 59.5864C45.5963 59.3878 45.4347 59.2258 45.2358 59.2258ZM42.2312 59.0389C42.2312 58.9987 42.2389 58.9592 42.2545 58.9221C42.2545 58.9221 42.2545 58.9221 42.2545 58.9218C42.2545 58.9218 42.2545 58.9214 42.2545 58.921C42.2696 58.8837 42.2929 58.8487 42.3201 58.8212C42.379 58.7626 42.457 58.7302 42.5392 58.7302H43.5103C43.5149 58.7468 43.5192 58.7644 43.523 58.7831C43.5245 58.7891 43.5255 58.7951 43.5269 58.8015C43.5283 58.8085 43.5298 58.8159 43.5308 58.8233C43.5322 58.8318 43.5336 58.8406 43.535 58.8494C43.5357 58.8554 43.5368 58.8611 43.5375 58.8671C43.5393 58.8819 43.541 58.8971 43.5424 58.9126C43.5428 58.9179 43.5432 58.9235 43.5439 58.9288C43.5449 58.9412 43.5456 58.9535 43.5463 58.9666C43.5463 58.9722 43.547 58.9775 43.547 58.9831C43.5477 59.0011 43.5481 59.0198 43.5481 59.0389C43.5481 59.0636 43.547 59.0879 43.546 59.1123C43.546 59.1182 43.5453 59.1239 43.5449 59.1299C43.5432 59.1539 43.5414 59.1775 43.5386 59.2004C43.5375 59.2089 43.5361 59.2174 43.535 59.2258C43.5329 59.2407 43.5308 59.2558 43.528 59.2699C43.5273 59.2745 43.5262 59.2788 43.5255 59.283C43.5213 59.3049 43.5163 59.326 43.5111 59.3465C43.5111 59.3465 43.5111 59.3469 43.5111 59.3472H42.5402C42.4467 59.3472 42.3628 59.3052 42.306 59.2393C42.2598 59.1853 42.2315 59.1154 42.2315 59.0389H42.2312ZM44.2339 58.7305C44.4039 58.7305 44.5422 58.8688 44.5422 59.0389C44.5422 59.1073 44.5196 59.1726 44.4787 59.2258C44.4703 59.2368 44.4618 59.2474 44.4519 59.2569C44.3937 59.3151 44.3164 59.3472 44.2339 59.3472H43.6924C43.6973 59.3257 43.7016 59.3031 43.7054 59.2805C43.7065 59.2738 43.7076 59.2668 43.7086 59.2597C43.7104 59.2484 43.7118 59.2371 43.7132 59.2258C43.7139 59.2206 43.7146 59.2156 43.7153 59.2103C43.7164 59.2022 43.7171 59.1941 43.7178 59.186C43.7195 59.1694 43.7206 59.1525 43.7217 59.1352C43.722 59.1278 43.7227 59.12 43.7231 59.1126C43.7241 59.0883 43.7248 59.0636 43.7248 59.0385C43.7248 59.0135 43.7241 58.9874 43.7227 58.962C43.7227 58.9602 43.7227 58.9581 43.7227 58.9563C43.7213 58.9309 43.7195 58.9059 43.7167 58.8812C43.7139 58.8554 43.7107 58.8304 43.7065 58.8053C43.7065 58.8046 43.7065 58.8043 43.7065 58.8036C43.7023 58.7789 43.6977 58.7542 43.6924 58.7305H44.2339ZM42.4605 57.8906C42.6072 57.8906 42.7304 57.9936 42.7614 58.1308H42.5395C42.5138 58.1308 42.488 58.1322 42.4626 58.1344C42.4601 58.1344 42.4577 58.1344 42.4548 58.1351C42.4305 58.1372 42.4062 58.1407 42.3822 58.1449C42.379 58.1456 42.3758 58.146 42.3726 58.1467C42.3486 58.1513 42.325 58.1566 42.3017 58.1629C42.2989 58.1636 42.2964 58.1643 42.2936 58.165C42.2696 58.1717 42.246 58.1795 42.2227 58.188C42.2213 58.1887 42.2199 58.189 42.2185 58.1897C42.119 58.2275 42.0259 58.2829 41.9433 58.3545C41.9458 58.3305 41.9475 58.3065 41.949 58.2818C41.949 58.2801 41.949 58.2779 41.9493 58.2762C41.9507 58.2508 41.9514 58.2254 41.9514 58.1996C41.9514 58.1739 41.9507 58.1485 41.9493 58.1231C41.9493 58.1213 41.9493 58.1192 41.9493 58.1174C41.9479 58.092 41.9461 58.067 41.9433 58.0423C41.9433 58.0423 41.9433 58.0423 41.9433 58.0419C41.9405 58.0165 41.9373 57.9911 41.9331 57.9664C41.9331 57.9657 41.9331 57.965 41.9327 57.9643C41.9288 57.9396 41.9239 57.9153 41.9186 57.8916H42.4601L42.4605 57.8906ZM40.4578 58.1989C40.4578 58.1164 40.4899 58.0391 40.5481 57.9809C40.6066 57.9227 40.6843 57.8902 40.7668 57.8902H41.7376C41.7422 57.9068 41.7465 57.9245 41.7503 57.9432C41.7518 57.9491 41.7528 57.9551 41.7542 57.9615C41.7556 57.9685 41.757 57.976 41.7581 57.9834C41.7595 57.9918 41.7609 58.0007 41.7623 58.0095C41.763 58.0155 41.7641 58.0211 41.7648 58.0271C41.7666 58.0419 41.7683 58.0571 41.7697 58.0726C41.7701 58.0779 41.7705 58.0832 41.7712 58.0888C41.7722 58.1012 41.7729 58.1139 41.7736 58.1266C41.7736 58.1319 41.7743 58.1375 41.7743 58.1432C41.775 58.1612 41.7754 58.1799 41.7754 58.1989C41.7754 58.2236 41.7743 58.248 41.7733 58.2723C41.7733 58.2783 41.7726 58.2839 41.7722 58.2899C41.7705 58.3139 41.7687 58.3376 41.7659 58.3605C41.763 58.3845 41.7592 58.4074 41.7549 58.43C41.7542 58.4342 41.7532 58.4384 41.7525 58.4427C41.7482 58.4649 41.7433 58.4864 41.7376 58.5069H40.7672C40.5968 58.5069 40.4585 58.3686 40.4585 58.1986L40.4578 58.1989Z" fill="#231815"/>
<path d="M68.1966 60.5565C67.9648 60.5177 67.7119 60.4842 67.4434 60.4549V60.3755C67.4434 59.9713 66.9873 59.6834 66.0517 59.4975V57.3C66.734 57.2132 67.3178 57.087 67.7514 56.9317C67.9818 56.8492 68.6831 56.598 68.6831 56.0717V55.3107C68.6831 54.7847 67.9818 54.5336 67.7514 54.4507C67.3178 54.2954 66.734 54.1691 66.0517 54.0824V52.9044C66.2338 52.8593 66.4003 52.7654 66.5361 52.6296C66.7333 52.4324 66.8423 52.1699 66.8423 51.8909C66.8423 51.4027 66.5054 50.9917 66.0517 50.8781C65.9702 50.8576 65.8852 50.8467 65.7977 50.8467H61.9031C61.8156 50.8467 61.7306 50.8576 61.6494 50.8781C61.1957 50.9917 60.8588 51.4027 60.8588 51.8913C60.8588 52.3798 61.1961 52.7908 61.6498 52.9044V54.0827C60.9675 54.1695 60.3833 54.2958 59.9497 54.451C59.719 54.5336 59.0177 54.7847 59.0177 55.3111V56.072C59.0177 56.598 59.7194 56.8492 59.9497 56.9321C60.3833 57.0873 60.9671 57.2136 61.6498 57.3004V59.4978C60.7142 59.6837 60.2577 59.9716 60.2577 60.3759V61.255C60.2577 61.3132 60.2679 61.3686 60.287 61.4219C60.3226 61.7877 60.7908 62.0205 61.8325 62.1945C62.6852 62.337 63.8151 62.4153 65.0146 62.4153C66.214 62.4153 67.3439 62.337 68.1966 62.1945C69.2818 62.0131 69.7446 61.7683 69.7446 61.3757C69.7446 60.983 69.2818 60.7382 68.1966 60.5569V60.5565ZM62.2495 57.3635C62.4908 57.3843 62.7377 57.4006 62.9896 57.4115C63.0097 57.4126 63.0302 57.4133 63.0503 57.4143C63.094 57.4161 63.1385 57.4175 63.1826 57.4193C63.2168 57.4203 63.251 57.4214 63.2852 57.4224C63.3223 57.4235 63.3597 57.4246 63.3971 57.4253C63.4426 57.4263 63.4881 57.427 63.534 57.4277C63.5629 57.4281 63.5915 57.4288 63.6207 57.4291C63.6969 57.4299 63.7735 57.4306 63.8504 57.4306C63.9273 57.4306 64.0039 57.4299 64.0801 57.4291C64.109 57.4291 64.1379 57.4281 64.1668 57.4277C64.2123 57.427 64.2582 57.4263 64.3037 57.4253C64.3411 57.4246 64.3785 57.4235 64.4155 57.4224C64.4498 57.4214 64.4843 57.4203 64.5182 57.4193C64.5623 57.4179 64.6064 57.4161 64.6505 57.4143C64.671 57.4136 64.6911 57.4126 64.7112 57.4115C64.9631 57.4002 65.2104 57.3843 65.4517 57.3632V60.7449C65.4111 60.7502 65.3702 60.7555 65.3282 60.7608C65.2862 60.7661 65.2432 60.771 65.1998 60.7756C64.7729 60.8215 64.3192 60.8447 63.8507 60.8447C63.3823 60.8447 62.9282 60.8215 62.5024 60.7756C62.488 60.7738 62.4739 60.7724 62.4594 60.7707C62.4308 60.7675 62.4019 60.7643 62.3737 60.7608C62.3317 60.7555 62.2901 60.7502 62.2495 60.7449V57.3632V57.3635ZM62.5021 61.6551C62.4665 61.6512 62.4315 61.6473 62.3977 61.6431C62.3871 61.6417 62.3768 61.6406 62.3666 61.6392C62.3433 61.6364 62.32 61.6335 62.2975 61.6307C62.2841 61.629 62.2714 61.6272 62.2583 61.6254C62.2389 61.623 62.2195 61.6205 62.2008 61.6177C62.1888 61.6159 62.1775 61.6141 62.1659 61.6127C62.1465 61.6099 62.1271 61.6071 62.1084 61.6043C62.0964 61.6025 62.0847 61.6007 62.0728 61.5986C62.0551 61.5958 62.0371 61.5933 62.0198 61.5905C62.0082 61.5887 61.9969 61.5866 61.9856 61.5849C61.9687 61.582 61.9514 61.5792 61.9348 61.5764C61.9246 61.5746 61.9147 61.5729 61.9048 61.5711C61.8879 61.5679 61.8706 61.5651 61.854 61.5619C61.8434 61.5602 61.8336 61.5581 61.8233 61.5559C61.8078 61.5531 61.7919 61.5499 61.7768 61.5471C61.7672 61.5454 61.7581 61.5432 61.7489 61.5415C61.7334 61.5383 61.7179 61.5351 61.7027 61.5319C61.6942 61.5302 61.6858 61.5284 61.6776 61.5263C61.6625 61.5231 61.6473 61.52 61.6328 61.5164C61.624 61.5143 61.6159 61.5125 61.6074 61.5104C61.5937 61.5073 61.5799 61.5041 61.5665 61.5009C61.558 61.4988 61.5503 61.497 61.5418 61.4949C61.5288 61.4917 61.5157 61.4886 61.503 61.4854C61.4953 61.4833 61.4875 61.4815 61.4797 61.4794C61.4674 61.4762 61.455 61.473 61.443 61.4699C61.4353 61.4677 61.4282 61.4656 61.4208 61.4639C61.4092 61.4607 61.3979 61.4575 61.3866 61.4543C61.3792 61.4522 61.3725 61.4501 61.3654 61.448C61.3545 61.4448 61.3436 61.4416 61.3333 61.4385C61.3263 61.4363 61.3199 61.4342 61.3132 61.4321C61.3033 61.4289 61.2931 61.4258 61.2836 61.4229C61.2769 61.4208 61.2702 61.4187 61.2635 61.4162C61.2543 61.4134 61.2451 61.4102 61.2367 61.4074C61.23 61.4053 61.2236 61.4028 61.2173 61.4007C61.2092 61.3979 61.2007 61.3951 61.1929 61.3922C61.1862 61.3898 61.1799 61.3877 61.1735 61.3852C61.1661 61.3824 61.1587 61.3799 61.152 61.3771C61.1457 61.3746 61.1393 61.3721 61.1333 61.3697C61.127 61.3672 61.1202 61.3647 61.1139 61.3623C61.1075 61.3598 61.1019 61.3573 61.0959 61.3549C61.0924 61.3534 61.0885 61.3517 61.085 61.3503C61.0829 61.3496 61.0807 61.3485 61.0786 61.3478C61.0726 61.3453 61.067 61.3429 61.0613 61.3404C61.0564 61.3383 61.0511 61.3362 61.0465 61.3337C61.0405 61.3309 61.0349 61.3284 61.0292 61.3259C61.025 61.3238 61.0208 61.322 61.0165 61.3199C61.0109 61.3171 61.0052 61.3143 61 61.3118C60.9964 61.3101 60.9929 61.3083 60.9894 61.3065C60.9837 61.3037 60.9784 61.3009 60.9735 61.2981C60.9707 61.2966 60.9675 61.2949 60.965 61.2935C60.9597 61.2907 60.9544 61.2878 60.9495 61.285C60.9474 61.2836 60.9449 61.2825 60.9428 61.2811C60.9375 61.278 60.9329 61.2751 60.928 61.2723C60.9262 61.2712 60.9248 61.2702 60.9231 61.2695C60.9181 61.2663 60.9135 61.2635 60.9093 61.2607C60.9082 61.26 60.9068 61.2593 60.9058 61.2585C60.9012 61.2554 60.8969 61.2526 60.8927 61.2494C60.892 61.249 60.8913 61.2483 60.8906 61.248C60.8864 61.2448 60.8825 61.242 60.879 61.2391C60.8786 61.2391 60.8782 61.2384 60.8779 61.2381C60.874 61.2349 60.8708 61.2321 60.8677 61.2293C60.8677 61.2293 60.8677 61.2293 60.8673 61.2289C60.8641 61.2261 60.861 61.2233 60.8585 61.2204V61.0264C60.8952 61.0419 60.9336 61.0571 60.9735 61.0716C61.0035 61.0825 61.0342 61.0931 61.0659 61.1037C61.0684 61.1044 61.0712 61.1054 61.0737 61.1061C61.0906 61.1118 61.1083 61.1174 61.1259 61.1227C61.1287 61.1238 61.1319 61.1245 61.1347 61.1256C61.1866 61.1414 61.2409 61.1569 61.2977 61.1721C61.3055 61.1742 61.3132 61.1763 61.321 61.1781C61.3358 61.182 61.351 61.1859 61.3661 61.1894C61.3767 61.1922 61.3877 61.1947 61.3986 61.1975C61.4127 61.201 61.4265 61.2042 61.4409 61.2077C61.455 61.2109 61.4695 61.2144 61.4843 61.2176C61.496 61.2204 61.5076 61.2229 61.5196 61.2257C61.521 61.2257 61.5224 61.2264 61.5238 61.2268C61.5482 61.2321 61.5729 61.2374 61.5979 61.2427C61.6085 61.2448 61.6191 61.2469 61.6297 61.249C61.6484 61.2529 61.6671 61.2564 61.6858 61.2603C61.6967 61.2624 61.708 61.2645 61.7189 61.2667C61.739 61.2705 61.7595 61.2741 61.7799 61.2779C61.7898 61.2797 61.7993 61.2815 61.8092 61.2832C61.8396 61.2885 61.8703 61.2938 61.9017 61.2991C62.066 61.3266 62.2467 61.351 62.4389 61.3721C62.8866 61.4205 63.3618 61.4448 63.8518 61.4448C64.3418 61.4448 64.817 61.4205 65.2654 61.3721C65.4573 61.3513 65.6383 61.3266 65.802 61.2995C65.8334 61.2942 65.864 61.2889 65.8944 61.2836C65.9043 61.2818 65.9141 61.2801 65.924 61.2783C65.9445 61.2748 65.9646 61.2709 65.9847 61.267C65.996 61.2649 66.0069 61.2628 66.0182 61.2607C66.0373 61.2571 66.0556 61.2533 66.0743 61.2497C66.0849 61.2476 66.0958 61.2455 66.1064 61.2434C66.1329 61.2381 66.159 61.2324 66.1844 61.2268C66.1964 61.224 66.208 61.2215 66.22 61.2187C66.2345 61.2155 66.2486 61.2123 66.2627 61.2088C66.2768 61.2056 66.2909 61.2021 66.305 61.1986C66.316 61.1958 66.3269 61.1933 66.3378 61.1905C66.353 61.1866 66.3678 61.1831 66.3826 61.1792C66.3904 61.1771 66.3982 61.1749 66.4059 61.1732C66.4627 61.158 66.517 61.1425 66.5689 61.1266C66.5717 61.1256 66.5745 61.1248 66.5777 61.1238C66.5954 61.1181 66.6126 61.1128 66.6296 61.1072C66.6324 61.1061 66.6349 61.1054 66.6377 61.1044C66.7121 61.0797 66.7813 61.0539 66.8451 61.0271V61.2212C66.8427 61.224 66.8395 61.2268 66.8363 61.2296C66.8363 61.2296 66.8363 61.2296 66.8359 61.23C66.8328 61.2328 66.8292 61.2356 66.8257 61.2388C66.8254 61.2388 66.825 61.2395 66.8247 61.2398C66.8211 61.2427 66.8173 61.2458 66.813 61.2487C66.8123 61.249 66.8116 61.2497 66.8109 61.2504C66.807 61.2533 66.8028 61.2564 66.7982 61.2593C66.7971 61.26 66.7957 61.2607 66.7947 61.2614C66.7904 61.2642 66.7859 61.2674 66.7809 61.2702C66.7792 61.2712 66.7774 61.2723 66.776 61.2734C66.7714 61.2762 66.7665 61.279 66.7612 61.2822C66.759 61.2836 66.7566 61.2846 66.7545 61.2861C66.7495 61.2889 66.7446 61.2917 66.7393 61.2945C66.7365 61.2959 66.7336 61.2977 66.7308 61.2991C66.7255 61.3019 66.7202 61.3048 66.7146 61.3076C66.7114 61.3093 66.7079 61.3111 66.7044 61.3125C66.6987 61.3153 66.6934 61.3178 66.6874 61.3206C66.6832 61.3228 66.679 61.3245 66.6747 61.3266C66.6691 61.3291 66.6638 61.3319 66.6578 61.3344C66.6529 61.3365 66.6476 61.339 66.6426 61.3411C66.637 61.3436 66.6313 61.346 66.6253 61.3485C66.6197 61.351 66.6137 61.3534 66.6081 61.3556C66.6024 61.3577 66.5964 61.3605 66.5904 61.363C66.5841 61.3654 66.577 61.3683 66.5703 61.3707C66.5643 61.3732 66.5583 61.3753 66.5523 61.3778C66.5449 61.3806 66.5371 61.3834 66.5297 61.3863C66.5237 61.3884 66.5177 61.3908 66.5114 61.393C66.5033 61.3958 66.4948 61.399 66.4863 61.4018C66.48 61.4039 66.474 61.406 66.4676 61.4081C66.4588 61.4109 66.4497 61.4141 66.4405 61.4173C66.4338 61.4194 66.4274 61.4215 66.4207 61.4236C66.4109 61.4268 66.4003 61.43 66.39 61.4332C66.3837 61.4353 66.3773 61.4371 66.371 61.4392C66.3601 61.4423 66.3491 61.4455 66.3378 61.449C66.3311 61.4512 66.3244 61.4529 66.3177 61.455C66.3064 61.4582 66.2944 61.4614 66.2824 61.4649C66.2754 61.467 66.2683 61.4688 66.2613 61.4709C66.2493 61.4741 66.2366 61.4773 66.2242 61.4808C66.2165 61.4829 66.2094 61.4847 66.2017 61.4868C66.189 61.49 66.1756 61.4931 66.1621 61.4967C66.1544 61.4984 66.1466 61.5006 66.1385 61.5023C66.1247 61.5055 66.1103 61.509 66.0958 61.5122C66.0877 61.514 66.0803 61.5157 66.0722 61.5178C66.0577 61.521 66.0429 61.5242 66.0281 61.5274C66.0193 61.5291 66.0108 61.5312 66.002 61.533C65.9868 61.5362 65.9713 61.5394 65.9558 61.5425C65.9466 61.5443 65.9378 61.5464 65.9283 61.5482C65.912 61.5514 65.8951 61.5545 65.8785 61.5577C65.8693 61.5595 65.8605 61.5612 65.851 61.563C65.8341 61.5662 65.8164 61.5693 65.7988 61.5725C65.7893 61.5743 65.7797 61.576 65.7702 61.5778C65.7519 61.581 65.7328 61.5842 65.7141 61.5873C65.7046 61.5891 65.6951 61.5905 65.6855 61.5923C65.6679 61.5951 65.6496 61.5979 65.6312 61.6007C65.6196 61.6025 65.6083 61.6043 65.5966 61.606C65.579 61.6085 65.5607 61.6113 65.5427 61.6138C65.53 61.6156 65.5173 61.6177 65.5042 61.6194C65.4859 61.6219 65.4665 61.6244 65.4474 61.6272C65.434 61.629 65.4213 61.6307 65.4076 61.6325C65.3892 61.635 65.3702 61.6371 65.3515 61.6395C65.3366 61.6413 65.3222 61.6431 65.3074 61.6448C65.2731 61.6487 65.2386 61.6529 65.2029 61.6568C64.7786 61.7027 64.3249 61.7256 63.8539 61.7256C63.383 61.7256 62.9289 61.7023 62.5053 61.6568L62.5021 61.6551ZM66.2024 60.1459C66.2024 60.1459 66.2055 60.1466 66.2069 60.1469C66.2532 60.1586 66.2962 60.1706 66.3364 60.1822C66.3375 60.1822 66.3385 60.1829 66.3396 60.1833C66.3597 60.1893 66.3795 60.1949 66.3982 60.2009H66.3989C66.4366 60.2126 66.4715 60.2242 66.504 60.2358C66.505 60.2362 66.5065 60.2365 66.5075 60.2373C66.5389 60.2485 66.5682 60.2595 66.595 60.2704C66.5961 60.2708 66.5971 60.2711 66.5982 60.2718C66.6112 60.2771 66.6236 60.2824 66.6352 60.2874C66.6363 60.2881 66.6377 60.2884 66.6387 60.2888C66.662 60.299 66.6835 60.3089 66.7026 60.3184C66.704 60.3191 66.7058 60.3198 66.7072 60.3205C66.7164 60.3251 66.7252 60.3297 66.7333 60.3339C66.734 60.3343 66.7351 60.335 66.7358 60.3353C66.7432 60.3396 66.7506 60.3434 66.7573 60.3473C66.7583 60.348 66.7594 60.3487 66.7608 60.3491C66.7679 60.3533 66.7742 60.3572 66.7806 60.3611C66.782 60.3618 66.783 60.3625 66.7841 60.3636C66.7901 60.3674 66.7961 60.3713 66.8014 60.3748C66.7961 60.3784 66.7904 60.3822 66.7841 60.3861C66.7827 60.3868 66.7816 60.3875 66.7802 60.3886C66.777 60.3907 66.7739 60.3925 66.7703 60.3946C66.7672 60.3967 66.764 60.3985 66.7608 60.4006C66.7597 60.4013 66.7587 60.402 66.7576 60.4024C66.7509 60.4062 66.7435 60.4105 66.7361 60.4143C66.7351 60.4147 66.7343 60.4154 66.7333 60.4158C66.7252 60.4203 66.7164 60.4246 66.7072 60.4292C66.7058 60.4299 66.7044 60.4306 66.703 60.4313C66.6835 60.4408 66.6624 60.4507 66.6387 60.4613C66.6377 60.4616 66.6366 60.4623 66.6352 60.4627C66.6232 60.468 66.6109 60.4729 66.5978 60.4782C66.5968 60.4786 66.5961 60.4789 66.595 60.4793C66.5682 60.4902 66.5389 60.5011 66.5075 60.5124C66.5065 60.5128 66.505 60.5131 66.504 60.5138C66.4715 60.5255 66.4366 60.5371 66.3989 60.5488C66.3989 60.5488 66.3982 60.5488 66.3978 60.5488C66.3787 60.5548 66.3593 60.5604 66.3392 60.5664C66.3382 60.5664 66.3375 60.5671 66.3364 60.5671C66.2958 60.5787 66.2525 60.5907 66.2062 60.6024C66.2048 60.6024 66.2038 60.6031 66.2024 60.6034C66.1551 60.6154 66.105 60.6274 66.0514 60.6391V60.1085C66.1046 60.1201 66.1547 60.1321 66.202 60.1441L66.2024 60.1459ZM66.0517 54.6874C66.0856 54.692 66.1195 54.6965 66.1526 54.7011C66.154 54.7011 66.1551 54.7015 66.1561 54.7018C66.3205 54.7251 66.4779 54.7509 66.6271 54.7787C66.6338 54.7801 66.6405 54.7812 66.6472 54.7826C66.6712 54.7872 66.6948 54.7918 66.7185 54.7964C66.728 54.7981 66.7375 54.8003 66.747 54.802C66.7689 54.8063 66.7908 54.8108 66.8123 54.8154C66.8229 54.8175 66.8335 54.82 66.8441 54.8221C66.8645 54.8264 66.8853 54.8309 66.9054 54.8355C66.9164 54.838 66.927 54.8405 66.9379 54.8429C66.9697 54.85 67.001 54.8574 67.0317 54.8648C67.0483 54.8687 67.0649 54.8726 67.0808 54.8768C67.0942 54.8803 67.1076 54.8835 67.121 54.887C67.1376 54.8913 67.1542 54.8955 67.1704 54.8997C67.1827 54.9029 67.1951 54.9064 67.2074 54.9096C67.2244 54.9142 67.2413 54.9188 67.2579 54.9237C67.2692 54.9269 67.2801 54.9301 67.2914 54.9332C67.3097 54.9385 67.3274 54.9438 67.3454 54.9491C67.3542 54.9519 67.3633 54.9544 67.3722 54.9572C67.3986 54.9654 67.4247 54.9735 67.4501 54.9819C67.9236 55.1372 68.0495 55.2716 68.0777 55.3111C68.0495 55.3506 67.9236 55.485 67.4501 55.6402C67.4247 55.6487 67.3986 55.6568 67.3722 55.6649C67.3633 55.6677 67.3542 55.6702 67.3454 55.673C67.3277 55.6783 67.3097 55.6836 67.2914 55.6889C67.2804 55.6921 67.2692 55.6953 67.2579 55.6984C67.2413 55.703 67.2244 55.7076 67.2074 55.7125C67.1951 55.7157 67.1827 55.7192 67.1704 55.7224C67.1542 55.7266 67.1376 55.7309 67.121 55.7351C67.1076 55.7386 67.0945 55.7418 67.0808 55.7453C67.0645 55.7492 67.048 55.7535 67.0317 55.7573C67.001 55.7647 66.9697 55.7722 66.9379 55.7792C66.927 55.7817 66.9164 55.7842 66.9054 55.7866C66.8853 55.7912 66.8645 55.7954 66.8441 55.8C66.8335 55.8021 66.8229 55.8046 66.8123 55.8067C66.7908 55.8113 66.7689 55.8155 66.747 55.8201C66.7375 55.8219 66.728 55.824 66.7185 55.8258C66.6948 55.8304 66.6712 55.835 66.6472 55.8395C66.6405 55.8409 66.6338 55.842 66.6271 55.8434C66.4779 55.8713 66.3205 55.897 66.1561 55.9203C66.1547 55.9203 66.1537 55.9207 66.1526 55.9207C66.1191 55.9253 66.0856 55.9302 66.0517 55.9344V54.6877V54.6874ZM61.4586 51.8913C61.4586 51.6461 61.6579 51.4468 61.9031 51.4468H65.7977C66.0429 51.4468 66.2422 51.6461 66.2422 51.8913C66.2422 52.0101 66.196 52.1216 66.1117 52.2059C66.0277 52.2899 65.9163 52.3361 65.7974 52.3361H65.7515C65.5861 52.3361 65.4517 52.4705 65.4517 52.636V56.0008C65.276 56.0166 65.0964 56.0297 64.9144 56.0399C64.8943 56.041 64.8742 56.0424 64.8537 56.0434C64.8103 56.0459 64.7666 56.0477 64.7228 56.0498C64.6921 56.0512 64.6614 56.0526 64.6307 56.054C64.5919 56.0558 64.5531 56.0572 64.514 56.0586C64.4766 56.06 64.4388 56.0611 64.4011 56.0621C64.3665 56.0632 64.3323 56.0643 64.2977 56.065C64.2515 56.066 64.2049 56.0667 64.1587 56.0674C64.1312 56.0678 64.104 56.0685 64.0765 56.0688C64.0014 56.0695 63.9262 56.0703 63.8507 56.0703C63.7753 56.0703 63.6998 56.0699 63.625 56.0688C63.5975 56.0688 63.5699 56.0678 63.5424 56.0674C63.4959 56.0667 63.4496 56.066 63.4034 56.065C63.3689 56.0643 63.3343 56.0632 63.3001 56.0621C63.2623 56.0611 63.2246 56.06 63.1872 56.0586C63.148 56.0572 63.1092 56.0558 63.0704 56.054C63.0397 56.0526 63.009 56.0512 62.9787 56.0498C62.9349 56.0477 62.8912 56.0456 62.8478 56.0434C62.8273 56.0424 62.8072 56.041 62.7871 56.0399C62.6051 56.0293 62.4259 56.0166 62.2502 56.0008V52.636C62.2502 52.4705 62.1158 52.3361 61.9503 52.3361H61.9038C61.6586 52.3361 61.4593 52.1368 61.4593 51.8916L61.4586 51.8913ZM60.2507 54.9816C60.2761 54.9731 60.3022 54.965 60.3283 54.9569C60.3371 54.9541 60.3466 54.9516 60.3554 54.9488C60.3731 54.9435 60.3907 54.9382 60.4091 54.9329C60.4203 54.9297 60.4316 54.9265 60.4429 54.9234C60.4591 54.9188 60.4757 54.9142 60.4923 54.9096C60.505 54.9061 60.5177 54.9029 60.5304 54.8994C60.5463 54.8952 60.5625 54.8909 60.5791 54.8867C60.5925 54.8832 60.6059 54.8796 60.6197 54.8765C60.6355 54.8726 60.6514 54.8687 60.6676 54.8648C60.7001 54.8571 60.7333 54.8493 60.7668 54.8419C60.7763 54.8398 60.7855 54.8376 60.795 54.8355C60.8155 54.8309 60.8366 54.8264 60.8574 54.8221C60.8677 54.82 60.8779 54.8179 60.8881 54.8154C60.91 54.8108 60.9319 54.8063 60.9541 54.802C60.9633 54.8003 60.9728 54.7981 60.9823 54.7964C61.006 54.7918 61.0296 54.7872 61.0536 54.7826C61.0603 54.7812 61.067 54.7801 61.0737 54.7787C61.2229 54.7509 61.3802 54.7251 61.5446 54.7018C61.5461 54.7018 61.5471 54.7018 61.5482 54.7015C61.5817 54.6969 61.6152 54.692 61.6494 54.6877V55.9344C61.6156 55.9298 61.5817 55.9253 61.5482 55.9207C61.5468 55.9207 61.5457 55.9207 61.5446 55.9203C61.3802 55.897 61.2233 55.8713 61.0737 55.8434C61.067 55.842 61.0603 55.8409 61.0536 55.8395C61.0296 55.835 61.006 55.8304 60.9823 55.8258C60.9728 55.824 60.9636 55.8219 60.9541 55.8201C60.9319 55.8155 60.91 55.8113 60.8881 55.8067C60.8779 55.8046 60.8677 55.8025 60.8574 55.8C60.8366 55.7954 60.8155 55.7912 60.795 55.7866C60.7855 55.7845 60.7763 55.7824 60.7668 55.7803C60.7333 55.7729 60.7001 55.7651 60.6676 55.7573C60.6514 55.7535 60.6355 55.7496 60.6197 55.7457C60.6059 55.7422 60.5925 55.7386 60.5791 55.7355C60.5629 55.7312 60.5466 55.727 60.5304 55.7228C60.5177 55.7192 60.505 55.7161 60.4923 55.7125C60.4757 55.7079 60.4591 55.7034 60.4429 55.6988C60.4316 55.6956 60.42 55.6924 60.4091 55.6893C60.3911 55.684 60.3731 55.6787 60.3554 55.6734C60.3463 55.6706 60.3371 55.6681 60.3283 55.6653C60.3018 55.6571 60.2757 55.649 60.2507 55.6406C59.7772 55.4853 59.6513 55.3509 59.6231 55.3114C59.6513 55.2719 59.7772 55.1375 60.2507 54.9823V54.9816ZM60.6084 56.5031C60.5996 56.501 60.5911 56.4985 60.5826 56.4964C60.5276 56.4823 60.474 56.4682 60.4225 56.4534C60.4158 56.4516 60.4094 56.4495 60.4027 56.4474C60.3501 56.4322 60.2993 56.4167 60.2507 56.4008C60.2344 56.3955 60.2186 56.3902 60.203 56.3849C60.2006 56.3839 60.1981 56.3832 60.1953 56.3821C60.1826 56.3779 60.1699 56.3733 60.1579 56.3691C60.1561 56.3683 60.1543 56.3676 60.1526 56.3669C60.1399 56.3624 60.1272 56.3578 60.1152 56.3532C60.1124 56.3521 60.1099 56.3511 60.1074 56.3504C60.0965 56.3461 60.0856 56.3422 60.075 56.338C60.0707 56.3362 60.0669 56.3348 60.0626 56.3331C60.0538 56.3295 60.045 56.326 60.0365 56.3228C60.0333 56.3218 60.0305 56.3204 60.0277 56.3193C60.0185 56.3154 60.0094 56.3119 60.0005 56.308C59.9974 56.3066 59.9945 56.3056 59.9917 56.3041C59.9833 56.3006 59.9748 56.2967 59.9663 56.2932C59.9628 56.2918 59.96 56.2904 59.9564 56.2886C59.949 56.2854 59.9416 56.2819 59.9342 56.2787C59.9307 56.2773 59.9275 56.2756 59.9243 56.2742C59.9176 56.271 59.9106 56.2678 59.9042 56.2646C59.9018 56.2636 59.8993 56.2622 59.8968 56.2611C59.8898 56.2576 59.8827 56.2544 59.876 56.2509C59.8746 56.2502 59.8728 56.2495 59.8714 56.2484C59.864 56.2445 59.8566 56.241 59.8495 56.2371C59.8481 56.2364 59.8467 56.2357 59.8453 56.235C59.8383 56.2315 59.8316 56.2276 59.8252 56.2241C59.8238 56.2234 59.8227 56.2227 59.8213 56.2219C59.815 56.2184 59.8083 56.2149 59.8023 56.2114C59.8009 56.2107 59.7995 56.2096 59.798 56.2089C59.7924 56.2057 59.7864 56.2022 59.7811 56.199C59.7801 56.1983 59.7786 56.1976 59.7776 56.1969C59.7723 56.1937 59.7666 56.1902 59.7617 56.187C59.7606 56.1863 59.7596 56.1856 59.7585 56.1849C59.7536 56.1817 59.7483 56.1786 59.7437 56.1754C59.743 56.1747 59.742 56.1743 59.7412 56.1736C59.7363 56.1704 59.7317 56.1673 59.7271 56.1641C59.7264 56.1637 59.7257 56.163 59.725 56.1627C59.7204 56.1595 59.7162 56.1563 59.712 56.1535C59.7113 56.1532 59.7109 56.1528 59.7102 56.1521C59.706 56.1489 59.7021 56.1461 59.6982 56.1433C59.6975 56.1429 59.6971 56.1426 59.6964 56.1419C59.6929 56.139 59.689 56.1362 59.6859 56.1334C59.6852 56.133 59.6848 56.1323 59.6841 56.132C59.6809 56.1295 59.6777 56.1267 59.6749 56.1242C59.6746 56.1239 59.6739 56.1235 59.6735 56.1232C59.6707 56.1207 59.6675 56.1182 59.665 56.1158C59.6643 56.1151 59.664 56.1147 59.6633 56.114C59.6608 56.1119 59.6583 56.1098 59.6562 56.1076C59.6555 56.1069 59.6552 56.1066 59.6545 56.1059C59.6523 56.1038 59.6502 56.102 59.6485 56.0999C59.6481 56.0995 59.6474 56.0988 59.6471 56.0985C59.6453 56.0967 59.6435 56.0946 59.6418 56.0928C59.6418 56.0925 59.6411 56.0921 59.6407 56.0918C59.6389 56.09 59.6375 56.0882 59.6358 56.0865C59.6351 56.0858 59.6347 56.0854 59.6344 56.0847C59.6333 56.0833 59.6319 56.0819 59.6308 56.0808C59.6305 56.0801 59.6298 56.0798 59.6294 56.0791C59.6284 56.078 59.6277 56.0766 59.6266 56.0755C59.6259 56.0748 59.6255 56.0741 59.6252 56.0738C59.6245 56.0731 59.6238 56.072 59.6234 56.0713C59.6227 56.0706 59.6224 56.0699 59.622 56.0692C59.6217 56.0685 59.6213 56.0681 59.6209 56.0674C59.6202 56.0667 59.6199 56.066 59.6195 56.0653C59.6195 56.0653 59.6192 56.0646 59.6188 56.0643C59.6181 56.0632 59.6178 56.0625 59.6174 56.0618V56.0322C59.7173 56.0812 59.8114 56.1186 59.8838 56.1454C59.8852 56.1457 59.8862 56.1465 59.8877 56.1468C59.8979 56.1507 59.9074 56.1542 59.9169 56.1574C59.9187 56.1581 59.9205 56.1588 59.9222 56.1595C59.9321 56.163 59.9413 56.1662 59.9497 56.1694C60.439 56.3447 61.1195 56.483 61.9172 56.5691C61.9172 56.5691 61.9179 56.5691 61.9182 56.5691C61.9186 56.5691 61.9189 56.5691 61.9196 56.5691C61.9204 56.5691 61.9211 56.5691 61.9218 56.5691C61.9969 56.5772 62.0728 56.585 62.1493 56.592C62.1497 56.592 62.15 56.592 62.1507 56.592C62.2664 56.6029 62.3832 56.6125 62.5017 56.6209C62.6199 56.6294 62.7395 56.6368 62.8605 56.6428C62.8704 56.6432 62.8806 56.6435 62.8905 56.6442C62.9614 56.6477 63.0323 56.6509 63.1039 56.6537C63.1244 56.6545 63.1448 56.6548 63.1653 56.6559C63.2267 56.658 63.2881 56.6601 63.3502 56.6619C63.3957 56.6629 63.4415 56.6636 63.487 56.6643C63.5244 56.665 63.5615 56.6661 63.5992 56.6664C63.6828 56.6675 63.7664 56.6679 63.8507 56.6679C63.9351 56.6679 64.019 56.6675 64.1023 56.6664C64.1393 56.6661 64.176 56.665 64.2131 56.6643C64.2593 56.6636 64.3055 56.6629 64.3513 56.6619C64.4131 56.6604 64.4745 56.6583 64.5358 56.6562C64.5563 56.6555 64.5775 56.6552 64.5979 56.6541C64.6695 56.6513 64.7405 56.6481 64.8114 56.6446C64.8212 56.6442 64.8315 56.6439 64.8413 56.6432C64.962 56.6368 65.0816 56.6298 65.1998 56.6213C65.3179 56.6128 65.4351 56.6033 65.5504 56.5924C65.5511 56.5924 65.5518 56.5924 65.5525 56.5924C65.6287 56.5853 65.7042 56.5775 65.779 56.5694C65.7801 56.5694 65.7811 56.5694 65.7822 56.5694C65.7826 56.5694 65.7829 56.5694 65.7836 56.5694C65.7836 56.5694 65.7843 56.5694 65.7847 56.5694C66.5823 56.4834 67.2628 56.3451 67.7521 56.1697C67.7606 56.1666 67.7698 56.1634 67.7793 56.1599C67.781 56.1592 67.7832 56.1584 67.7849 56.1577C67.7944 56.1542 67.8043 56.1507 67.8146 56.1468C67.8156 56.1465 67.8163 56.1461 67.8174 56.1457C67.89 56.1189 67.9842 56.0815 68.0841 56.0325V56.0621C68.0837 56.0628 68.0834 56.0636 68.0827 56.0646C68.0827 56.0646 68.0823 56.0653 68.082 56.0657C68.0816 56.0664 68.0809 56.0671 68.0805 56.0678C68.0805 56.0681 68.0798 56.0685 68.0795 56.0692C68.0788 56.0699 68.0784 56.0706 68.0777 56.0717C68.077 56.0724 68.0763 56.0734 68.076 56.0741C68.0756 56.0748 68.0749 56.0755 68.0745 56.0762C68.0738 56.0773 68.0728 56.0784 68.0717 56.0798C68.0714 56.0805 68.0707 56.0808 68.0703 56.0815C68.0693 56.083 68.0682 56.084 68.0668 56.0854C68.0661 56.0861 68.0657 56.0865 68.0654 56.0872C68.064 56.0886 68.0626 56.0904 68.0611 56.0921C68.0608 56.0928 68.0601 56.0932 68.0597 56.0935C68.058 56.0953 68.0562 56.0971 68.0544 56.0988C68.0537 56.0995 68.0534 56.0999 68.053 56.1006C68.0513 56.1024 68.0491 56.1045 68.047 56.1066C68.0463 56.1073 68.046 56.1076 68.0453 56.1084C68.0428 56.1105 68.0403 56.1129 68.0379 56.1151C68.0375 56.1154 68.0372 56.1158 68.0365 56.1161C68.0336 56.1186 68.0308 56.1211 68.028 56.1235C68.0276 56.1239 68.0269 56.1242 68.0266 56.1246C68.0238 56.127 68.0206 56.1295 68.0174 56.1323C68.0167 56.133 68.016 56.1334 68.0156 56.1338C68.0125 56.1366 68.0089 56.139 68.0051 56.1419C68.0043 56.1422 68.004 56.1429 68.0033 56.1433C67.9994 56.1465 67.9948 56.1496 67.9906 56.1528C67.9906 56.1528 67.9899 56.1532 67.9899 56.1535C67.9856 56.1567 67.9814 56.1595 67.9768 56.1627C67.9761 56.163 67.9754 56.1637 67.9747 56.1641C67.9701 56.1673 67.9655 56.1704 67.9606 56.1736C67.9599 56.1743 67.9588 56.1747 67.9581 56.1754C67.9532 56.1786 67.9475 56.1821 67.9423 56.1856C67.9416 56.186 67.9408 56.1863 67.9401 56.187C67.9345 56.1905 67.9285 56.1941 67.9225 56.198C67.9218 56.1983 67.9211 56.1987 67.9207 56.199C67.9151 56.2022 67.9095 56.2057 67.9035 56.2092C67.902 56.21 67.901 56.2107 67.8996 56.2117C67.8939 56.2149 67.8879 56.2184 67.8819 56.2216C67.8802 56.2227 67.8788 56.2234 67.877 56.2244C67.871 56.2276 67.8646 56.2311 67.8583 56.2343C67.8562 56.2354 67.8544 56.2364 67.8527 56.2375C67.8459 56.241 67.8389 56.2445 67.8315 56.2484C67.8297 56.2491 67.828 56.2502 67.8262 56.2509C67.8191 56.2544 67.8117 56.2579 67.8043 56.2615C67.8022 56.2625 67.8001 56.2636 67.798 56.2646C67.7902 56.2682 67.7824 56.272 67.7743 56.2756C67.7722 56.2766 67.7701 56.2777 67.768 56.2787C67.7606 56.2823 67.7525 56.2858 67.7447 56.2893C67.7419 56.2907 67.7391 56.2918 67.7359 56.2932C67.7278 56.2967 67.7193 56.3003 67.7108 56.3038C67.7077 56.3052 67.7048 56.3063 67.7017 56.3077C67.6928 56.3112 67.6837 56.3151 67.6745 56.319C67.6713 56.3204 67.6685 56.3214 67.6653 56.3228C67.6569 56.3264 67.648 56.3295 67.6396 56.3331C67.6353 56.3348 67.6315 56.3362 67.6272 56.338C67.6166 56.3419 67.6061 56.3461 67.5951 56.3504C67.5923 56.3514 67.5898 56.3525 67.587 56.3535C67.575 56.3581 67.5623 56.3627 67.55 56.3669C67.5482 56.3676 67.5464 56.3683 67.5443 56.3691C67.5323 56.3733 67.5196 56.3779 67.5069 56.3821C67.5041 56.3832 67.5016 56.3839 67.4992 56.3849C67.4836 56.3902 67.4678 56.3955 67.4515 56.4008C67.424 56.4096 67.3962 56.4188 67.3676 56.4273C67.32 56.4417 67.2702 56.4562 67.2191 56.4699C67.2088 56.4728 67.199 56.4756 67.1887 56.4784C67.127 56.495 67.0628 56.5109 66.9965 56.5267C66.631 56.6125 66.1995 56.6834 65.7229 56.7349C65.7229 56.7349 65.7229 56.7349 65.7226 56.7349C65.7222 56.7349 65.7219 56.7349 65.7215 56.7349C65.1342 56.7984 64.5055 56.8305 63.8525 56.8305C63.1995 56.8305 62.5709 56.7984 61.9838 56.7349C61.9835 56.7349 61.9831 56.7349 61.9828 56.7349C61.9828 56.7349 61.9828 56.7349 61.9824 56.7349C61.4628 56.6788 60.9964 56.5998 60.6108 56.5031H60.6084ZM60.916 60.3639C60.916 60.3639 60.9185 60.3625 60.9195 60.3614C60.9259 60.3576 60.9322 60.3537 60.9393 60.3494C60.9403 60.3487 60.9414 60.3484 60.9425 60.3477C60.9492 60.3438 60.9566 60.3396 60.9643 60.3353C60.965 60.335 60.9657 60.3346 60.9668 60.3339C60.9749 60.3293 60.9837 60.3251 60.9933 60.3202C60.9947 60.3195 60.9961 60.3187 60.9975 60.318C61.0169 60.3085 61.0381 60.2986 61.0617 60.2881C61.0627 60.2877 61.0638 60.287 61.0649 60.2866C61.0769 60.2814 61.0892 60.2761 61.1023 60.2708C61.103 60.2704 61.104 60.2701 61.1051 60.2697C61.1319 60.2588 61.1612 60.2478 61.1929 60.2365C61.1943 60.2362 61.1954 60.2355 61.1968 60.2351C61.2293 60.2235 61.2642 60.2119 61.3019 60.2002C61.3019 60.2002 61.3026 60.2002 61.303 60.2002C61.3217 60.1942 61.3414 60.1886 61.3616 60.1826C61.3626 60.1826 61.3637 60.1819 61.3651 60.1815C61.4053 60.1699 61.4487 60.1579 61.4945 60.1462C61.496 60.1459 61.4974 60.1455 61.4991 60.1452C61.5224 60.1392 61.5464 60.1335 61.5711 60.1275C61.5711 60.1275 61.5711 60.1275 61.5715 60.1275C61.5969 60.1215 61.623 60.1155 61.6498 60.1095V60.6401C61.623 60.6341 61.5969 60.6281 61.5715 60.6221C61.5715 60.6221 61.5715 60.6221 61.5711 60.6221C61.5566 60.6186 61.5429 60.6151 61.5288 60.6116C61.5189 60.6091 61.5094 60.6066 61.4995 60.6041C61.4981 60.6038 61.4967 60.6034 61.4949 60.6031C61.4487 60.5914 61.4056 60.5794 61.3654 60.5678C61.3644 60.5678 61.3633 60.5671 61.3619 60.5668C61.3418 60.5608 61.322 60.5551 61.3033 60.5491C61.3033 60.5491 61.3026 60.5491 61.3023 60.5491C61.2645 60.5375 61.2296 60.5258 61.1972 60.5142C61.1957 60.5138 61.1947 60.5131 61.1933 60.5128C61.1615 60.5015 61.1322 60.4905 61.1054 60.4796C61.1044 60.4793 61.1037 60.4789 61.1026 60.4786C61.0896 60.4733 61.0769 60.468 61.0652 60.4627C61.0642 60.4623 61.0631 60.4616 61.062 60.4613C61.0384 60.451 61.0172 60.4412 60.9978 60.4313C60.9964 60.4306 60.995 60.4299 60.9936 60.4292C60.9844 60.4246 60.9756 60.42 60.9671 60.4154C60.9664 60.4151 60.9657 60.4147 60.9647 60.414C60.9569 60.4098 60.9499 60.4059 60.9428 60.4017C60.9417 60.4009 60.9407 60.4006 60.9396 60.3999C60.9326 60.3957 60.9262 60.3918 60.9199 60.3879C60.9185 60.3872 60.9174 60.3865 60.9163 60.3854C60.9103 60.3815 60.9044 60.3777 60.8991 60.3741C60.9044 60.3706 60.9103 60.3667 60.9163 60.3628L60.916 60.3639Z" fill="#231815"/>
<path d="M40.6222 25.7208C40.6222 25.1998 41.0462 24.7757 41.5673 24.7757H48.8052C49.3263 24.7757 49.7503 25.1998 49.7503 25.7208V32.1946H50.35V25.7208C50.35 24.8689 49.6568 24.176 48.8052 24.176H42.0834C42.2453 24.0525 42.4457 23.9806 42.6563 23.9806H49.8942C50.4153 23.9806 50.8393 24.4046 50.8393 24.9257V32.1946H51.0312L51.439 31.8796V24.9257C51.439 24.0737 50.7458 23.3809 49.8942 23.3809H42.6563C42.0844 23.3809 41.5574 23.704 41.2921 24.2011C40.571 24.3312 40.0225 24.9631 40.0225 25.7208V32.1946H40.6222V25.7208Z" fill="#231815"/>
<path d="M43.916 26.0595H42.222C41.7211 26.0595 41.3136 26.467 41.3136 26.9679C41.3136 27.4688 41.7211 27.8763 42.222 27.8763H43.916C44.417 27.8763 44.8244 27.4688 44.8244 26.9679C44.8244 26.467 44.417 26.0595 43.916 26.0595ZM43.916 27.2766H42.222C42.052 27.2766 41.9133 27.1383 41.9133 26.9679C41.9133 26.7975 42.0516 26.6592 42.222 26.6592H43.916C44.0861 26.6592 44.2247 26.7975 44.2247 26.9679C44.2247 27.1383 44.0864 27.2766 43.916 27.2766Z" fill="#231815"/>
<path d="M48.1504 26.0595H46.4564C45.9554 26.0595 45.548 26.467 45.548 26.9679C45.548 27.4688 45.9554 27.8763 46.4564 27.8763H48.1504C48.6514 27.8763 49.0588 27.4688 49.0588 26.9679C49.0588 26.467 48.6514 26.0595 48.1504 26.0595ZM48.1504 27.2766H46.4564C46.2863 27.2766 46.1477 27.1383 46.1477 26.9679C46.1477 26.7975 46.286 26.6592 46.4564 26.6592H48.1504C48.3205 26.6592 48.4591 26.7975 48.4591 26.9679C48.4591 27.1383 48.3208 27.2766 48.1504 27.2766Z" fill="#231815"/>
<path d="M43.916 28.4845H42.222C41.7211 28.4845 41.3136 28.8919 41.3136 29.3929C41.3136 29.8938 41.7211 30.3013 42.222 30.3013H43.916C44.417 30.3013 44.8244 29.8938 44.8244 29.3929C44.8244 28.8919 44.417 28.4845 43.916 28.4845ZM43.916 29.7016H42.222C42.052 29.7016 41.9133 29.5633 41.9133 29.3929C41.9133 29.2225 42.0516 29.0842 42.222 29.0842H43.916C44.0861 29.0842 44.2247 29.2225 44.2247 29.3929C44.2247 29.5633 44.0864 29.7016 43.916 29.7016Z" fill="#231815"/>
<path d="M48.1504 28.4845H46.4564C45.9554 28.4845 45.548 28.8919 45.548 29.3929C45.548 29.8938 45.9554 30.3013 46.4564 30.3013H48.1504C48.6514 30.3013 49.0588 29.8938 49.0588 29.3929C49.0588 28.8919 48.6514 28.4845 48.1504 28.4845ZM48.1504 29.7016H46.4564C46.2863 29.7016 46.1477 29.5633 46.1477 29.3929C46.1477 29.2225 46.286 29.0842 46.4564 29.0842H48.1504C48.3205 29.0842 48.4591 29.2225 48.4591 29.3929C48.4591 29.5633 48.3208 29.7016 48.1504 29.7016Z" fill="#231815"/>
<path d="M43.916 30.9095H42.222C41.7211 30.9095 41.3136 31.3169 41.3136 31.8179C41.3136 31.9523 41.3432 32.08 41.3958 32.195H44.7419C44.7944 32.08 44.8241 31.9523 44.8241 31.8179C44.8241 31.3169 44.4166 30.9095 43.9157 30.9095H43.916ZM43.916 32.1266H42.222C42.052 32.1266 41.9133 31.9883 41.9133 31.8179C41.9133 31.6475 42.0516 31.5092 42.222 31.5092H43.916C44.0861 31.5092 44.2247 31.6475 44.2247 31.8179C44.2247 31.9883 44.0864 32.1266 43.916 32.1266Z" fill="#231815"/>
<path d="M48.1504 30.9095H46.4564C45.9554 30.9095 45.548 31.3169 45.548 31.8179C45.548 31.9523 45.5776 32.08 45.6302 32.195H48.9763C49.0288 32.08 49.0585 31.9523 49.0585 31.8179C49.0585 31.3169 48.651 30.9095 48.1501 30.9095H48.1504ZM48.1504 32.1266H46.4564C46.2863 32.1266 46.1477 31.9883 46.1477 31.8179C46.1477 31.6475 46.286 31.5092 46.4564 31.5092H48.1504C48.3205 31.5092 48.4591 31.6475 48.4591 31.8179C48.4591 31.9883 48.3208 32.1266 48.1504 32.1266Z" fill="#231815"/>
<path d="M43.916 26.6592H42.222C42.052 26.6592 41.9133 26.7975 41.9133 26.9679C41.9133 27.1383 42.0516 27.2766 42.222 27.2766H43.916C44.0861 27.2766 44.2247 27.1383 44.2247 26.9679C44.2247 26.7975 44.0864 26.6592 43.916 26.6592Z" fill="#FE9B9B"/>
<path d="M46.4564 27.2766H48.1504C48.3205 27.2766 48.4591 27.1383 48.4591 26.9679C48.4591 26.7975 48.3208 26.6592 48.1504 26.6592H46.4564C46.2863 26.6592 46.1477 26.7975 46.1477 26.9679C46.1477 27.1383 46.286 27.2766 46.4564 27.2766Z" fill="#FE9B9B"/>
<path d="M43.916 29.0842H42.222C42.052 29.0842 41.9133 29.2225 41.9133 29.3929C41.9133 29.5633 42.0516 29.7016 42.222 29.7016H43.916C44.0861 29.7016 44.2247 29.5633 44.2247 29.3929C44.2247 29.2225 44.0864 29.0842 43.916 29.0842Z" fill="#FE9B9B"/>
<path d="M48.1504 29.0842H46.4564C46.2863 29.0842 46.1477 29.2225 46.1477 29.3929C46.1477 29.5633 46.286 29.7016 46.4564 29.7016H48.1504C48.3205 29.7016 48.4591 29.5633 48.4591 29.3929C48.4591 29.2225 48.3208 29.0842 48.1504 29.0842Z" fill="#FE9B9B"/>
<path d="M43.916 31.5092H42.222C42.052 31.5092 41.9133 31.6475 41.9133 31.8179C41.9133 31.9883 42.0516 32.1266 42.222 32.1266H43.916C44.0861 32.1266 44.2247 31.9883 44.2247 31.8179C44.2247 31.6475 44.0864 31.5092 43.916 31.5092Z" fill="#FE9B9B"/>
<path d="M48.1504 31.5092H46.4564C46.2863 31.5092 46.1477 31.6475 46.1477 31.8179C46.1477 31.9883 46.286 32.1266 46.4564 32.1266H48.1504C48.3205 32.1266 48.4591 31.9883 48.4591 31.8179C48.4591 31.6475 48.3208 31.5092 48.1504 31.5092Z" fill="#FE9B9B"/>
<path d="M12.2388 57.6405H10.3271C10.2297 57.6405 10.1507 57.7195 10.1507 57.8169C10.1507 57.9142 10.2297 57.9932 10.3271 57.9932H12.2388C12.2991 57.9932 12.3524 57.9629 12.3841 57.9167C12.4035 57.8881 12.4152 57.8539 12.4152 57.8169C12.4152 57.7195 12.3362 57.6405 12.2388 57.6405Z" fill="#FE9B9B"/>
<path d="M15.9507 59.0159H14.039C13.9416 59.0159 13.8626 59.095 13.8626 59.1923C13.8626 59.2897 13.9416 59.3687 14.039 59.3687H15.9507C16.011 59.3687 16.0643 59.3384 16.096 59.2922C16.1154 59.2636 16.1271 59.2294 16.1271 59.1923C16.1271 59.095 16.0481 59.0159 15.9507 59.0159Z" fill="#FE9B9B"/>
</svg>
