<svg width="29" height="28" viewBox="0 0 29 28" fill="none" xmlns="http://www.w3.org/2000/svg">
<path d="M20.0193 17.5001C19.4356 17.4999 18.8578 17.6168 18.3201 17.844C17.7824 18.0711 17.2958 18.4038 16.889 18.8224L11.8468 15.5816C12.2434 14.5646 12.2434 13.4356 11.8468 12.4185L16.889 9.17774C17.6464 9.95356 18.6648 10.4205 19.7469 10.4881C20.829 10.5557 21.8977 10.219 22.7457 9.54343C23.5937 8.86786 24.1606 7.90147 24.3366 6.83164C24.5125 5.7618 24.285 4.66474 23.698 3.75315C23.1111 2.84155 22.2066 2.18037 21.1598 1.8978C20.1131 1.61522 18.9987 1.73137 18.0328 2.22374C17.0668 2.71611 16.3181 3.54961 15.9317 4.56265C15.5454 5.57569 15.549 6.6961 15.9418 7.70665L10.8996 10.9474C10.2924 10.3241 9.51317 9.89595 8.66141 9.71777C7.80965 9.5396 6.92411 9.61948 6.11799 9.9472C5.31187 10.2749 4.62178 10.8356 4.13595 11.5575C3.65013 12.2795 3.39062 13.1299 3.39062 14.0001C3.39062 14.8703 3.65013 15.7207 4.13595 16.4426C4.62178 17.1646 5.31187 17.7253 6.11799 18.053C6.92411 18.3807 7.80965 18.4606 8.66141 18.2824C9.51317 18.1042 10.2924 17.6761 10.8996 17.0527L15.9418 20.2935C15.604 21.1647 15.554 22.1212 15.7992 23.0229C16.0443 23.9245 16.5717 24.724 17.3041 25.3043C18.0365 25.8845 18.9354 26.2151 19.8692 26.2475C20.8031 26.2799 21.7227 26.0124 22.4936 25.4843C23.2644 24.9562 23.8459 24.1952 24.153 23.3127C24.46 22.4302 24.4765 21.4726 24.1999 20.5801C23.9233 19.6875 23.3682 18.907 22.6159 18.3528C21.8637 17.7986 20.9537 17.4997 20.0193 17.5001ZM20.0193 3.50009C20.5385 3.50009 21.046 3.65404 21.4777 3.94248C21.9094 4.23092 22.2458 4.64089 22.4445 5.12054C22.6432 5.6002 22.6952 6.128 22.5939 6.6372C22.4926 7.1464 22.2426 7.61413 21.8755 7.98124C21.5084 8.34835 21.0406 8.59836 20.5314 8.69965C20.0222 8.80093 19.4944 8.74895 19.0148 8.55027C18.5351 8.35159 18.1251 8.01514 17.8367 7.58346C17.5483 7.15178 17.3943 6.64426 17.3943 6.12509C17.3943 5.42889 17.6709 4.76121 18.1632 4.26893C18.6554 3.77665 19.3231 3.50009 20.0193 3.50009ZM7.76931 16.6251C7.25013 16.6251 6.74261 16.4711 6.31093 16.1827C5.87926 15.8943 5.5428 15.4843 5.34412 15.0046C5.14544 14.525 5.09346 13.9972 5.19474 13.488C5.29603 12.9788 5.54604 12.511 5.91315 12.1439C6.28026 11.7768 6.74799 11.5268 7.25719 11.4255C7.76639 11.3242 8.29419 11.3762 8.77385 11.5749C9.25351 11.7736 9.66347 12.11 9.95191 12.5417C10.2404 12.9734 10.3943 13.4809 10.3943 14.0001C10.3943 14.6963 10.1177 15.364 9.62546 15.8562C9.13318 16.3485 8.4655 16.6251 7.76931 16.6251ZM20.0193 24.5001C19.5001 24.5001 18.9926 24.3461 18.5609 24.0577C18.1293 23.7693 17.7928 23.3593 17.5941 22.8796C17.3954 22.4 17.3435 21.8722 17.4447 21.363C17.546 20.8538 17.796 20.386 18.1632 20.0189C18.5303 19.6518 18.998 19.4018 19.5072 19.3005C20.0164 19.1992 20.5442 19.2512 21.0239 19.4499C21.5035 19.6486 21.9135 19.985 22.2019 20.4167C22.4904 20.8484 22.6443 21.3559 22.6443 21.8751C22.6443 22.5713 22.3677 23.239 21.8755 23.7312C21.3832 24.2235 20.7155 24.5001 20.0193 24.5001Z" fill="#343330"/>
</svg>
