<svg width="224" height="239" viewBox="0 0 224 239" fill="none" xmlns="http://www.w3.org/2000/svg">
<path id="Vector 44" d="M31.0368 38.1855L20.396 1.18555L1.04907 12.1855V25.1855L14.5919 45.1855L20.396 59.1855C23.9429 67.1855 31.0368 84.3855 31.0368 89.1855C31.0368 93.9855 37.4858 106.519 40.7103 112.186L56.1878 134.186L74.5674 153.186L97.7838 174.186L137.445 209.186C142.927 211.186 154.857 215.786 158.727 218.186C162.596 220.586 179.686 229.186 187.747 233.186L205.159 238.186H222.572V224.186L192.584 209.186L147.118 190.186L109.392 167.186L74.5674 134.186L48.4491 78.1855L31.0368 38.1855Z" fill="#6FAB53" fill-opacity="0.3" stroke="#6FAB53"/>
</svg>
