<svg width="215" height="257" viewBox="0 0 215 257" fill="none" xmlns="http://www.w3.org/2000/svg">
<path id="Vector 43" d="M154.682 107.186C161.453 89.5189 178.865 43.5855 194.343 1.18555L213.69 7.18555C207.241 20.8522 194.343 48.9855 194.343 52.1855C194.343 55.3855 179.51 90.1855 172.094 107.186L137.269 165.186C115.988 185.186 72.6507 225.786 69.5552 228.186C65.6858 231.186 46.3388 240.186 41.5021 246.186C36.6654 252.186 29.8939 249.186 15.3837 254.186C3.77558 258.186 0.873535 255.852 0.873535 254.186V240.186L29.8939 233.186L52.1429 216.186L94.7062 189.186L127.596 156.186L154.682 107.186Z" fill="#6FAB53" fill-opacity="0.3" stroke="#6FAB53"/>
</svg>
