<svg xmlns="http://www.w3.org/2000/svg" width="440" height="49" viewBox="0 0 440 49" fill="none">
  <path d="M36.9186 3.21332C40.5943 3.75436 43.9337 5.53839 47.6937 5.67699C48.4361 2.85816 55.6537 5.18555 57.3001 5.18555C59.3362 5.18555 59.9578 7.20382 62.5261 6.65777C64.3545 6.26902 66.6649 5.68555 68.536 5.68555C73.843 5.68555 78.8878 4.92979 84.2141 5.65777C85.4521 5.82698 86.5023 5.40735 86.798 6.96332C86.9245 7.62875 86.3732 9.57564 87.3497 9.68555C89.5146 9.92922 91.5911 10.1855 93.8822 10.1855H107.209C109.385 10.1855 111.985 11.3412 113.596 12.5744C115.178 13.7852 118.672 13.1855 120.535 13.1855C124.862 13.1855 127.722 17.1855 131.771 17.1855C137.513 17.1855 142.808 18.1855 148.61 18.1855C151.024 18.1855 152.686 17.8973 154.359 16.2967C155.532 15.1744 157.521 13.0719 159.207 12.7133C165.534 11.3682 172.274 13.1855 178.689 13.1855C181.814 13.1855 183.955 13.0103 186.644 14.2967C189.045 15.445 191.792 15.3395 194.454 15.6578C199.467 16.2573 204.198 17.6855 209.377 17.6855C210.688 17.6855 209.245 16.5615 210.422 15.9355C212.074 15.0577 215.312 15.6855 217.187 15.6855C220.61 15.6855 223.619 17.112 227.001 17.1855C228.362 17.2152 230.479 16.7429 231.588 17.6855C232.369 18.35 232.902 18.6855 233.94 18.6855C236.027 18.6855 238.343 17.9089 240.443 17.6578C241.076 17.582 243.546 17.4331 244.014 17.0744C247.863 14.1288 256.717 13.5104 261.144 15.4355C266.244 17.6536 271.914 16.1855 277.286 16.1855C280.151 16.1855 283.051 16.0034 285.648 16.7133C287.73 17.2824 286.155 21.4432 289.597 19.7967C291.132 19.0623 292.82 18.7625 294.416 18.1855C296.646 17.3795 299.634 15.7702 302.023 15.6855C303.931 15.6179 306.5 16.0589 308.149 16.9355C310.213 18.0326 313.999 17.3939 315.523 15.9355C318.686 12.9095 324.612 14.1855 328.676 14.1855C331.117 14.1855 332.916 15.1855 335.324 15.1855C337.606 15.1855 339.579 13.1855 341.973 13.1855C344.182 13.1855 347.48 14.0226 349.406 13.5744C354.114 12.4786 358.819 11.9126 363.313 10.4078C367.861 8.88471 372.211 9.18555 376.871 9.18555C379.5 9.18555 381.66 9.32563 383.897 7.96332C386.74 6.23252 394.129 5.49459 396.846 7.57444C397.721 8.24383 401.557 7.18555 402.74 7.18555C404.905 7.18555 407.111 7.30043 409.272 7.18555C413.479 6.96195 417.175 5.63741 421.583 6.57444C424.411 7.17582 426.594 7.21417 428.87 8.90777C431.704 11.0168 434.24 14.2554 436.041 17.1855C438.192 20.683 438.888 25.1825 436.709 28.9355C434.41 32.8949 431.201 34.1855 426.286 34.1855C417.432 34.1855 408.189 35.2153 399.343 35.6855C391.05 36.1263 382.896 37.488 375.042 39.1578C373.139 39.5623 372.039 40.1855 369.816 40.1855H365.896C365.494 40.1855 362.579 40.1297 364.329 40.1855C367.834 40.2973 357.645 42.6855 354.138 42.6855C352.213 42.6855 349.347 43.7319 347.344 44.1578C345.344 44.5831 343.253 43.7586 341.334 44.5744C339.897 45.1856 336.092 45.1856 334.534 45.1855H334.511C332.13 45.1855 330.085 45.6855 327.747 45.6855C318.766 45.6855 309.994 45.1855 301.094 45.1855C290.969 45.1855 281.251 44.1855 271.044 44.1855C266.719 44.1855 262.579 43.6855 258.241 43.6855C256.65 43.6855 254.986 43.9127 253.624 42.9355C253.364 42.7489 254.53 42.1855 254.205 42.1855H251.04C244.251 42.1855 237.635 41.6855 230.804 41.6855C225.863 41.6855 221.175 42.6855 216.316 42.6855C211.535 42.6855 206.507 41.6855 201.799 41.6855C197.846 41.6855 193.627 42.1855 189.518 42.1855C187.103 42.1855 184.807 41.6855 182.463 41.6855C180.77 41.6855 178.771 42.6855 176.976 42.6855C171.436 42.6855 166.011 43.1855 160.514 43.1855C156.557 43.1855 153.436 45.6855 149.539 45.6855C147.805 45.6855 145.322 46.3118 143.675 46.7967C141.256 47.5088 138.481 47.1855 135.952 47.1855C131.205 47.1855 126.133 47.6225 121.493 46.7967C118.449 46.2548 115.525 46.5229 112.551 45.5744C109.983 44.7556 107.386 44.3412 104.886 43.6578C100.739 42.5242 96.2864 41.382 92.0531 39.9355C88.0086 38.5536 84.39 37.427 80.5558 35.7967C78.92 35.1011 76.7519 34.6814 75.0395 34.2133C73.0851 33.6791 71.9655 34.1855 70.1038 34.1855C65.917 34.1855 62.545 32.6855 58.3453 32.6855C53.9252 32.6855 49.6031 32.1855 45.2802 32.1855C40.0092 32.1855 35.0154 30.6855 29.7473 30.6855C24.7789 30.6855 20.2785 29.731 15.4919 28.7133C11.3514 27.833 7.53172 26.7121 3.73335 24.5744C1.3347 23.2245 0.589382 16.3205 2.28168 14.2967C4.39563 11.7685 3.95705 7.70029 5.56246 4.93555C6.62471 3.10618 7.4697 1.18555 10.0046 1.18555H17.5823C19.7764 1.18555 22.071 1.68555 24.3761 1.68555C26.1135 1.68555 27.9742 3.18555 29.8634 3.18555C32.1405 3.18555 34.6771 2.88339 36.9186 3.21332Z" fill="#7BCA56" fill-opacity="0.2"/>
  <path d="M251.04 42.6855H253.114C253.107 42.708 253.101 42.7315 253.097 42.756C253.079 42.8497 253.08 42.9654 253.128 43.0842C253.176 43.2024 253.255 43.2862 253.333 43.3418C254.113 43.9016 254.968 44.1055 255.805 44.1753C256.368 44.2221 256.964 44.2089 257.525 44.1964C257.772 44.1909 258.013 44.1855 258.241 44.1855C260.392 44.1855 262.497 44.3095 264.618 44.4347L264.629 44.4354C266.741 44.56 268.868 44.6855 271.044 44.6855C276.133 44.6855 281.102 44.9348 286.074 45.1849L286.11 45.1867C291.067 45.436 296.029 45.6855 301.094 45.6855C305.527 45.6855 309.929 45.8098 314.35 45.9346L314.376 45.9353C318.803 46.0603 323.248 46.1855 327.747 46.1855C328.939 46.1855 330.054 46.059 331.143 45.9353L331.169 45.9324C332.274 45.807 333.353 45.6855 334.511 45.6855H334.534H334.538C335.316 45.6856 336.668 45.6856 338.008 45.6084C338.679 45.5697 339.354 45.5113 339.957 45.4224C340.552 45.3347 341.111 45.2129 341.53 45.0346C342.375 44.6752 343.275 44.6683 344.283 44.719C344.413 44.7256 344.546 44.7332 344.68 44.7409C345.554 44.7911 346.511 44.8461 347.448 44.6468C348.117 44.5046 348.891 44.2916 349.679 44.075C350.085 43.9631 350.495 43.8503 350.896 43.7458C352.105 43.4306 353.246 43.1855 354.138 43.1855C355.954 43.1855 359.427 42.5759 361.979 41.9637C363.249 41.659 364.35 41.3403 364.918 41.077C365.057 41.0126 365.207 40.9328 365.32 40.8337C365.357 40.8012 365.409 40.7507 365.454 40.6808C365.658 40.6836 365.821 40.6855 365.896 40.6855H369.816C370.98 40.6855 371.855 40.5213 372.675 40.3071C372.982 40.2271 373.268 40.1443 373.554 40.0616C374.051 39.9176 374.547 39.7742 375.146 39.6468C382.986 37.98 391.113 36.6237 399.37 36.1848C402.455 36.0208 405.577 35.79 408.708 35.5585C414.596 35.1232 420.515 34.6855 426.286 34.6855C428.782 34.6855 430.897 34.3587 432.695 33.4961C434.503 32.6286 435.95 31.2389 437.141 29.1866C439.439 25.2295 438.683 20.528 436.467 16.9237C434.648 13.9655 432.074 10.6684 429.169 8.50664C427.278 7.09973 425.407 6.76694 423.356 6.40223C422.814 6.30568 422.258 6.2069 421.687 6.08537C419.406 5.60039 417.317 5.7035 415.292 5.94838C414.594 6.03281 413.912 6.13242 413.234 6.23145C411.92 6.42338 410.621 6.61317 409.246 6.68625C407.82 6.76202 406.39 6.73682 404.944 6.71135C404.214 6.69848 403.479 6.68555 402.74 6.68555C402.396 6.68555 401.892 6.75989 401.362 6.84707C401.18 6.87693 400.993 6.90879 400.802 6.9413C400.413 7.00742 400.008 7.07625 399.604 7.13645C399.001 7.2261 398.43 7.29138 397.965 7.2961C397.732 7.29846 397.54 7.2854 397.392 7.25817C397.238 7.22976 397.17 7.1929 397.15 7.17739C396.381 6.58843 395.32 6.22485 394.163 6.02188C392.997 5.81753 391.69 5.76866 390.391 5.84065C387.812 5.98354 385.16 6.60938 383.637 7.53625C381.719 8.70398 379.881 8.69666 377.528 8.68727C377.314 8.68642 377.095 8.68555 376.871 8.68555C376.215 8.68555 375.562 8.67933 374.911 8.67313C370.985 8.63572 367.139 8.59907 363.154 9.93365C360.937 10.6759 358.662 11.1888 356.341 11.6542C355.654 11.7921 354.961 11.9261 354.264 12.0608C352.619 12.3789 350.953 12.7009 349.292 13.0875C348.426 13.289 347.205 13.2059 345.852 13.0513C345.56 13.0179 345.262 12.9812 344.962 12.9444C343.92 12.816 342.86 12.6855 341.973 12.6855C340.651 12.6855 339.463 13.2367 338.404 13.728L338.396 13.732C337.294 14.243 336.334 14.6855 335.324 14.6855C334.187 14.6855 333.189 14.4503 332.128 14.199L332.119 14.1969C331.07 13.9486 329.959 13.6855 328.676 13.6855C327.802 13.6855 326.839 13.6253 325.815 13.5613C325.672 13.5524 325.527 13.5433 325.382 13.5344C324.205 13.462 322.966 13.3957 321.749 13.426C319.334 13.486 316.899 13.9273 315.178 15.5743C314.52 16.204 313.307 16.7022 311.966 16.8991C310.627 17.0957 309.285 16.9733 308.384 16.494C306.637 15.5658 303.976 15.116 302.005 15.1859C300.722 15.2313 299.311 15.6824 297.979 16.1988C297.378 16.4321 296.781 16.6836 296.211 16.9238L296.016 17.0059C295.384 17.2719 294.79 17.5188 294.246 17.7153C293.644 17.933 293.032 18.109 292.402 18.2902C292.217 18.3434 292.031 18.3971 291.843 18.4523C291.024 18.6926 290.186 18.9603 289.381 19.3456C288.551 19.7428 288.184 19.7054 288.027 19.6343C287.87 19.5631 287.734 19.3763 287.587 18.9302C287.539 18.7824 287.497 18.6321 287.451 18.4683C287.43 18.3937 287.409 18.3162 287.385 18.2348C287.314 17.9873 287.23 17.718 287.116 17.4625C286.883 16.9426 286.499 16.4275 285.78 16.231C283.55 15.6214 281.1 15.6485 278.719 15.6749C278.238 15.6802 277.76 15.6855 277.286 15.6855C275.923 15.6855 274.544 15.7787 273.177 15.8817C272.99 15.8958 272.803 15.9101 272.616 15.9243C271.434 16.0147 270.262 16.1042 269.097 16.1426C266.399 16.2314 263.793 16.0426 261.343 14.977C259.024 13.9685 255.611 13.6444 252.319 13.9303C249.032 14.2158 245.745 15.12 243.711 16.6771C243.716 16.6732 243.686 16.6937 243.591 16.7259C243.503 16.7559 243.386 16.7867 243.243 16.8173C242.957 16.8782 242.602 16.9307 242.23 16.9758C241.86 17.0207 241.483 17.0571 241.156 17.0872C241.085 17.0938 241.016 17.1001 240.949 17.1062C240.715 17.1274 240.514 17.1457 240.384 17.1613C239.525 17.264 238.629 17.4526 237.752 17.6372C237.529 17.6842 237.306 17.731 237.086 17.776C235.986 18.0011 234.928 18.1855 233.94 18.1855C233.48 18.1855 233.162 18.1124 232.878 17.981C232.582 17.8442 232.297 17.6321 231.912 17.3047C231.213 16.7102 230.246 16.5967 229.391 16.5932C228.958 16.5914 228.52 16.6187 228.12 16.6436L228.105 16.6446C227.692 16.6703 227.327 16.6925 227.011 16.6857C225.42 16.6511 223.908 16.3059 222.337 15.947L222.221 15.9205C220.623 15.5558 218.963 15.1855 217.187 15.1855C216.741 15.1855 216.206 15.148 215.609 15.1026L215.435 15.0892C214.894 15.0478 214.314 15.0034 213.74 14.9817C212.494 14.9346 211.145 14.9851 210.188 15.494C209.788 15.7066 209.554 15.9993 209.463 16.3462C209.387 16.6358 209.427 16.9207 209.451 17.0859L209.455 17.114C209.458 17.1403 209.461 17.1632 209.464 17.1832C209.44 17.1846 209.411 17.1855 209.377 17.1855C206.832 17.1855 204.388 16.8346 201.94 16.404C201.301 16.2917 200.661 16.1737 200.018 16.0552C198.207 15.7215 196.376 15.3841 194.513 15.1613C193.836 15.0803 193.156 15.0265 192.488 14.9738L192.48 14.9732C191.812 14.9205 191.156 14.8688 190.51 14.792C189.214 14.6378 187.989 14.3856 186.86 13.8456C184.358 12.6489 182.284 12.6632 179.687 12.681C179.363 12.6833 179.031 12.6855 178.689 12.6855C176.382 12.6855 174.043 12.4489 171.668 12.2085C170.77 12.1176 169.867 12.0262 168.958 11.9469C165.67 11.6598 162.342 11.5356 159.103 12.2243C158.132 12.4308 157.133 13.1174 156.271 13.8342C155.593 14.3982 154.95 15.0249 154.429 15.5326C154.28 15.6781 154.14 15.8137 154.013 15.9354C153.231 16.6838 152.467 17.1134 151.622 17.3616C150.765 17.6133 149.803 17.6855 148.61 17.6855C145.735 17.6855 142.983 17.4378 140.213 17.1876L140.182 17.1847C137.429 16.936 134.657 16.6855 131.771 16.6855C129.913 16.6855 128.311 15.7764 126.536 14.7689L126.504 14.7507C124.756 13.7588 122.849 12.6855 120.535 12.6855C120.094 12.6855 119.569 12.7177 119.022 12.7512C118.967 12.7545 118.912 12.7579 118.857 12.7612C118.243 12.7986 117.596 12.8347 116.961 12.834C116.325 12.8333 115.717 12.7955 115.182 12.6901C114.644 12.5843 114.212 12.4162 113.9 12.1774C112.231 10.8999 109.527 9.68555 107.209 9.68555H93.8822C91.7917 9.68555 89.8823 9.4692 87.8854 9.24293C87.7261 9.22488 87.5662 9.20676 87.4056 9.18868C87.4031 9.18841 87.4008 9.1882 87.3985 9.188C87.3747 9.18588 87.3601 9.18458 87.3302 9.11362C87.2829 9.00101 87.2551 8.80985 87.2551 8.53271C87.2551 8.31377 87.2712 8.0857 87.2877 7.85171C87.2916 7.79725 87.2954 7.74247 87.2991 7.68741C87.3167 7.42636 87.3351 7.11151 87.2892 6.86998C87.2051 6.42742 87.0571 6.06845 86.8199 5.7974C86.5763 5.5191 86.2777 5.37783 85.9778 5.30473C85.6927 5.23523 85.3857 5.22317 85.1143 5.21459C85.0877 5.21375 85.0612 5.21294 85.0349 5.21213C84.7776 5.20427 84.5338 5.19682 84.2818 5.16237C81.5758 4.79253 78.9492 4.8007 76.3489 4.89902C75.5036 4.93098 74.6645 4.97222 73.8265 5.01341C72.0725 5.09961 70.3238 5.18555 68.536 5.18555C66.893 5.18555 64.9304 5.61806 63.2804 5.98167C62.9829 6.04723 62.6956 6.11056 62.4221 6.1687C61.85 6.29034 61.4066 6.26596 61.0332 6.17293C60.6536 6.07834 60.3215 5.90704 59.9698 5.69709C59.8828 5.6452 59.7938 5.58994 59.7021 5.53305C59.08 5.14699 58.3365 4.68555 57.3001 4.68555C56.9487 4.68555 56.2521 4.55457 55.3019 4.37466C54.3845 4.20095 53.2861 3.99435 52.2121 3.87716C51.1467 3.76089 50.0572 3.72647 49.1685 3.92278C48.4057 4.09128 47.7024 4.4549 47.3552 5.15907C45.6743 5.04923 44.0637 4.61237 42.4186 4.11728C42.1797 4.0454 41.9398 3.97217 41.6988 3.8986C40.1799 3.43496 38.6172 2.95797 36.9914 2.71865C35.8262 2.54715 34.5963 2.54141 33.39 2.57592C32.944 2.58867 32.5053 2.60667 32.0731 2.62441C31.3181 2.65538 30.583 2.68555 29.8634 2.68555C29.0337 2.68555 28.1878 2.35475 27.2518 1.97264C27.2191 1.95928 27.1862 1.94584 27.1532 1.93234C26.2885 1.57872 25.327 1.18555 24.3761 1.18555C23.2553 1.18555 22.1322 1.06398 20.9923 0.938546L20.9374 0.932508C19.8249 0.810069 18.6935 0.685547 17.5823 0.685547H10.0046C8.58285 0.685547 7.60984 1.23531 6.86558 2.03356C6.27714 2.66469 5.82229 3.46705 5.39456 4.22156C5.30554 4.3786 5.2177 4.53356 5.13007 4.68447C4.36994 5.99353 4.04381 7.57195 3.7364 9.05973C3.69878 9.24183 3.66143 9.42257 3.62361 9.6013C3.2669 11.2867 2.86585 12.8186 1.8981 13.9759C1.38582 14.5886 1.09732 15.5106 0.961886 16.4986C0.824359 17.5019 0.835498 18.6416 0.977446 19.7517C1.1193 20.8611 1.39451 21.9622 1.79867 22.8843C2.19704 23.7933 2.74997 24.5947 3.48812 25.0102C7.34901 27.1831 11.224 28.3171 15.3879 29.2024C20.1681 30.2187 24.7184 31.1855 29.7473 31.1855C32.3391 31.1855 34.8689 31.5545 37.4404 31.9303L37.4563 31.9326C40.0113 32.306 42.608 32.6855 45.2802 32.6855C47.4152 32.6855 49.5524 32.8085 51.7185 32.933L51.7476 32.9347C53.9189 33.0596 56.1186 33.1855 58.3453 33.1855C60.389 33.1855 62.2358 33.55 64.1321 33.926L64.155 33.9305C66.0338 34.3031 67.9628 34.6855 70.1038 34.6855C70.7665 34.6855 71.3628 34.6216 71.9005 34.564C72.1369 34.5386 72.362 34.5145 72.5763 34.4975C73.2948 34.4407 74.0022 34.4481 74.9076 34.6956C75.4204 34.8358 75.9595 34.9688 76.5054 35.1035C77.8457 35.4341 79.2268 35.7749 80.3602 36.2568C83.4217 37.5586 86.3509 38.5426 89.4442 39.5818C90.2471 39.8515 91.0612 40.125 91.8914 40.4087C95.4252 41.6162 99.1123 42.6129 102.631 43.564C103.346 43.7575 104.055 43.949 104.754 44.1401C105.802 44.4265 106.868 44.6665 107.928 44.9052C108.146 44.9543 108.365 45.0034 108.582 45.0529C109.863 45.3438 111.137 45.6483 112.399 46.0508C113.942 46.5431 115.464 46.7165 116.955 46.8364C117.266 46.8614 117.575 46.8841 117.882 46.9066C119.063 46.9933 120.222 47.0783 121.405 47.2889C124.914 47.9135 128.684 47.8263 132.319 47.7422C133.55 47.7137 134.766 47.6855 135.952 47.6855C136.54 47.6855 137.143 47.7033 137.76 47.7215L137.87 47.7247C138.523 47.7439 139.191 47.7623 139.857 47.7581C141.188 47.7498 142.54 47.6518 143.816 47.2763C145.466 46.7906 147.886 46.1855 149.539 46.1855C151.566 46.1855 153.384 45.5406 155.117 44.9257L155.171 44.9068C156.944 44.278 158.634 43.6855 160.514 43.6855C163.269 43.6855 166.003 43.5606 168.73 43.436L168.752 43.435C171.489 43.3099 174.219 43.1855 176.976 43.1855C177.951 43.1855 178.964 42.915 179.887 42.6686C180.841 42.4136 181.695 42.1855 182.463 42.1855C183.6 42.1855 184.728 42.3063 185.897 42.4313L185.911 42.4327C187.076 42.5573 188.28 42.6855 189.518 42.6855C191.59 42.6855 193.687 42.5595 195.747 42.4346L195.799 42.4315C197.847 42.3074 199.857 42.1855 201.799 42.1855C204.118 42.1855 206.521 42.4314 208.964 42.6814L208.979 42.6829C211.418 42.9325 213.896 43.1855 216.316 43.1855C218.761 43.1855 221.16 42.9354 223.539 42.6872L223.581 42.6828C225.982 42.4325 228.364 42.1855 230.804 42.1855C234.209 42.1855 237.562 42.3101 240.919 42.4352L240.939 42.4359C244.288 42.5606 247.642 42.6855 251.04 42.6855ZM209.58 17.1658C209.58 17.1659 209.579 17.1667 209.575 17.1678C209.578 17.1663 209.58 17.1657 209.58 17.1658Z" stroke="#7BCA56" stroke-opacity="0.3" stroke-linecap="square"/>
</svg>