<svg width="42" height="28" viewBox="0 0 42 28" fill="none" xmlns="http://www.w3.org/2000/svg">
<path d="M3.5 14.4057L0.5 2.93925L3.5 0.446533H8H17.5L25 2.93925L27.5 6.9276L30.5 10.9159C34 16.8985 33.3 12.1124 36.5 18.8926C39.0589 22.7198 41.0423 25.7394 41.7343 26.3708H42C42 26.5373 41.9077 26.529 41.7343 26.3708H38H34C32.1667 26.8693 27.8 27.5673 25 26.3708C22.2 25.1743 18.8333 23.5457 17.5 22.881C15 21.5515 9.6 18.4938 8 16.8985C6.4 15.3031 4.33333 14.5719 3.5 14.4057Z" fill="#CA566B" fill-opacity="0.3"/>
</svg>
