<svg width="209" height="168" viewBox="0 0 209 168" fill="none" xmlns="http://www.w3.org/2000/svg">
<path id="Vector 46" d="M201.347 57.1855C199.412 50.1855 197.477 38.1855 194.575 28.1855C194.575 23.5189 186.45 11.5855 153.947 1.18555C153.947 5.18555 148.788 2.85221 146.208 1.18555L122.992 21.1855C117.187 26.1855 113.318 28.1855 71.7223 34.1855H42.7019C34.9632 34.1855 33.0285 39.1855 15.6161 34.1855H2.07328V44.1855C3.04062 48.5189 4.39491 58.3855 2.07328 63.1855C-0.828763 69.1855 3.04062 71.1855 15.6161 111.186V135.186C17.5508 140.186 24.3223 149.186 64.9508 167.186H71.7223C74.9467 163.519 82.3631 154.786 86.2325 149.186C90.1019 143.586 94.2937 142.852 95.9059 143.186L100.743 135.186H113.318H122.992C131.698 137.186 150.077 141.586 153.947 143.186C158.783 145.186 168.457 149.186 186.837 149.186C193.608 146.186 194.575 142.186 194.575 135.186C194.575 129.586 199.09 122.852 201.347 120.186C203.281 114.519 207.344 100.986 208.118 92.1855C209.086 81.1855 203.281 64.1855 201.347 57.1855Z" fill="#6FAB53" fill-opacity="0.3" stroke="#6FAB53"/>
</svg>
