<svg xmlns="http://www.w3.org/2000/svg" width="476" height="42" viewBox="0 0 476 42" fill="none">
  <path d="M14.08 4.18557H14.6371H17.2503H20.9085H24.0441H30.838C35.0806 4.18557 39.0074 1.03988 43.1236 2.06809C44.9705 2.52948 46.904 3.2083 48.6064 4.18557C50.9746 5.54504 55.6403 4.18557 58.3709 4.18557H64.2845C67.9427 4.18557 74.2139 6.68555 79.4399 9.18555C84.666 11.6855 84.1434 9.18555 94.5954 9.18555H109.228C111.841 9.18555 117.067 12.1855 119.68 12.1855H126.474H129.61H135.358H148.946C152.082 12.1855 158.353 9.18555 161.488 9.18555H164.101H177.689C181.87 9.18555 184.483 9.18555 192.845 6.68555C194.549 6.17606 201.573 6.68555 203.351 6.68555H214.794H228.904H241.447H249.808H256.079H268.099H278.029H287.436H301.023C306.772 6.68555 312.52 6.68555 319.837 9.18555C327.153 11.6855 324.018 9.18555 327.153 9.18555H338.128H354.851C356.543 9.18555 362.777 6.68555 364.469 6.68555H367.916H375.233H382.026H383.833C385.74 6.68555 387.623 6.25843 389.343 5.43556C391.063 4.61269 392.946 4.18557 394.853 4.18557H397.705H401.424C402.773 4.18557 404.119 4.04903 405.441 3.77804L416.098 1.59307C417.42 1.32209 418.766 1.18555 420.115 1.18555H425.925H440.035H447.874H461.462C463.232 1.18555 464.594 1.48174 465.62 1.90314C467.789 2.7941 469.187 4.99519 470.956 6.53425C472.945 8.26368 474.426 10.5383 474.711 13.1582C475.06 16.3695 475.094 20.7563 474.004 25.1855C471.914 33.6855 471.391 29.1855 461.462 29.1855C458.949 29.1855 457.444 29.5467 456.604 29.9435C455.896 30.2778 455.449 30.9888 454.935 31.5789C453.77 32.9173 452.082 33.6855 450.307 33.6855H448.658C445.836 33.6855 443.175 32.4418 441.231 30.3964C440.799 29.9419 440.386 29.5208 440.035 29.1855C438.467 27.6855 432.196 29.1855 429.583 29.1855C423.447 29.1855 412.381 28.3774 406.25 28.1271C404.2 28.0434 402.012 27.6283 399.795 26.6855C390.388 22.6855 392.165 29.1855 386.73 29.1855C384.238 29.1855 378.892 29.1855 369.334 30.4873C368.392 30.6155 367.437 30.6855 366.487 30.6855H363.213H358.964C358.136 30.6855 357.464 31.3571 357.464 32.1855C357.464 33.014 356.793 33.6855 355.964 33.6855H354.851H347.012H345.512C343.742 33.6855 341.989 33.3401 340.351 32.6685L340.21 32.6108C337.188 31.3715 333.813 31.2961 330.738 32.3993L328.272 33.2841C327.541 33.5464 326.899 34.0098 326.42 34.621C325.072 36.341 322.622 36.6936 320.715 35.6262C318.882 34.6003 316.88 33.6855 315.656 33.6855C315.6 33.6855 315.544 33.6841 315.49 33.6812C313.116 33.5574 312.546 30.6855 310.169 30.6855C304.159 30.6855 305.01 39.3653 287.436 33.6855C287.251 33.6259 287.065 33.5653 286.879 33.5038C286.076 33.2393 274.045 33.2429 273.325 33.6855C271.235 35.0189 265.486 37.6855 259.215 37.6855C257.169 37.6855 256.322 36.6873 256.053 35.607C255.781 34.5138 255.345 33.3343 254.329 32.8481C252.532 31.9886 248.958 33.5797 247.25 34.6051C244.752 36.1053 240.432 37.333 234.13 37.6855C230.728 37.6855 227.455 36.528 224.353 35.1303C222.561 34.3229 220.61 33.6855 218.975 33.6855H205.387H192.845C189.117 33.6855 188.898 32.9791 189.881 32.1959C190.416 31.7698 190.192 30.6855 189.508 30.6855C189.307 30.6855 189.118 30.7842 189.002 30.9496L187.675 32.8551C187.293 33.4033 186.809 33.8733 186.235 34.216C183.885 35.6203 179.897 37.6855 177.689 37.6855C176.252 37.6855 175.203 36.8101 174.505 35.8117C173.647 34.5857 172.73 33.3131 171.38 32.6673L167.057 30.5992C165.686 29.9438 164.101 30.9426 164.101 32.4614C164.101 33.2162 163.693 33.9201 162.989 34.1942C159.959 35.3752 153.797 36.4395 146.341 33.8735C145.99 33.7526 145.659 33.5671 145.359 33.3479C144.568 32.7703 143.946 32.3951 143.461 32.1748C142.09 31.5513 140.523 33.6855 139.017 33.6855C137.623 33.6855 134.313 34.4855 132.223 37.6855C130.946 39.6404 127.717 40.6855 125.382 40.6855H124.99C123.922 40.6855 122.887 40.3154 122.061 39.6381L121.509 39.1855C120.327 38.2156 118.844 37.6855 117.315 37.6855H116.382C115.132 37.6855 113.916 37.2738 112.923 36.5138C110.774 34.8684 107.741 34.9741 105.342 36.2285C102.143 37.9013 97.2649 39.563 91.8434 38.2741C90.5265 37.961 89.3295 37.2942 88.2184 36.521C85.5654 34.6751 82.4135 33.6855 79.1815 33.6855H52.7872H45.7132C43.4038 33.6855 47.1531 31.1827 45.9934 29.1855C44.6845 27.1818 41.5121 26.7656 39.1716 27.2658C34.8901 28.1809 28.681 27.6424 23.5806 26.8845C18.0249 26.059 12.031 28.041 6.48471 28.9272C5.46885 29.0895 4.35454 29.1855 3.13985 29.1855C2.39232 29.2749 1.90932 29.1995 1.62551 29.0117C-0.786581 27.4155 3.13985 23.578 3.13985 20.6855V18.8979C3.13985 17.4275 2.95833 15.9652 2.76175 14.508C2.38181 11.6918 2.1833 7.54123 3.13985 4.18557C4.27161 0.215263 9.95149 4.18557 14.08 4.18557Z" fill="#7BCA56" fill-opacity="0.3" stroke="#7BCA56" stroke-opacity="0.4"/>
</svg>