<svg xmlns="http://www.w3.org/2000/svg" width="582" height="135" viewBox="0 0 582 135" fill="none">
  <path d="M26.357 81.1856L19.0407 71.1856L16.9098 67.7875C16.2415 66.7219 15.4742 65.7217 14.6181 64.8002L12.7407 62.7795C12.064 62.0513 11.3508 61.3402 10.8823 60.4635C9.38856 57.6681 6.54397 49.9462 2.65433 33.1521C2.4296 32.1818 2.12685 31.2205 1.78529 30.2849C-0.426 24.2277 2.31731 27.8624 2.31731 23.1856C2.31731 18.1856 2.83991 18.6855 2.31731 12.6855C1.95899 8.57162 7.73959 8.57067 11.8031 7.83547C15.203 7.22034 19.0976 6.6856 22.1762 6.6856C28.97 6.6856 30.5378 1.1856 33.6734 1.1856C36.809 1.1856 38.3768 0.685601 41.5125 1.1856C44.6481 1.6856 48.3063 4.1856 50.9193 6.6856C53.5323 9.1856 55.6227 9.18561 62.4165 15.6856C68.8993 21.888 72.527 23.0825 86.0134 27.5231L86.169 27.5744C87.3981 27.9791 88.5943 28.5043 89.7174 29.1469C97.3512 33.5146 100.667 35.8181 109.451 37.6856C118.858 39.6856 118.858 37.6856 122.516 37.6856H125.118C126.515 37.6856 127.906 37.8348 129.276 38.1101C136.262 39.5138 148.794 41.6856 155.962 41.6856H163.801H184.183H196.203H205.609H212.926C215.004 41.6856 226.071 39.8557 234.066 38.4697C236.952 37.9695 239.921 38.5023 242.444 39.9883C244.332 41.0996 246.48 41.6856 248.67 41.6856H264.663H269.367H285.568H298.633C302.813 41.6856 325.808 37.6856 331.557 37.6856C337.305 37.6856 334.17 37.6856 336.26 39.6856C338.35 41.6856 339.918 41.6856 343.576 41.6856H352.461H356.641C360.125 41.5189 367.616 41.2856 369.707 41.6856C372.32 42.1856 375.455 42.1856 386.952 37.6856C398.45 33.1856 391.656 37.6856 394.269 37.6856H408.902H414.65H432.419H438.167C439.561 37.8523 442.662 38.0856 443.916 37.6856C445.17 37.2856 458.375 36.1856 464.82 35.6856H482.066H513.945H534.849C537.036 35.6856 542.784 35.0419 549.679 32.5996C551.294 32.0272 552.708 30.9932 554.294 30.3438C555.942 29.6692 556.015 30.8091 555.753 31.6856L557.782 26.971C558.857 24.4736 559.327 21.7438 560.096 19.1359C560.687 17.1297 561.721 14.7478 563.418 12.3891C565.055 10.1144 567.702 8.49913 570.383 9.31475C574.017 10.4202 577.702 13.5566 577.702 15.6856C577.702 18.6856 581.36 20.6856 581.36 23.1856V31.6856C581.36 35.6856 580.838 37.1856 577.702 49.6856C574.567 62.1856 574.044 56.1856 566.205 71.1856C565.043 73.4086 550.405 92.772 548.454 94.3483C548.092 94.6409 547.737 94.921 547.391 95.1856C542.165 99.1856 541.643 99.1856 534.849 103.686C528.055 108.186 509.764 111.686 497.221 117.686C492.678 120.101 459.852 121.582 443.963 123.934C442.884 124.093 441.795 124.186 440.704 124.186H435.032C432.511 124.186 423.574 126.77 416.365 125.707C413.048 125.217 409.783 124.468 406.836 126.067C404.924 127.105 402.293 128.186 397.404 128.186C396.485 128.186 395.644 128.548 394.903 129.101C392.85 130.632 389.626 131.312 387.962 129.366C387.321 128.617 386.385 128.186 385.399 128.186H382.772H372.32C369.184 128.186 362.913 133.686 360.822 133.686H356.641H334.17C332.493 133.686 330.88 133.039 329.669 131.879L328.103 130.381C326.599 128.943 324.745 127.923 322.724 127.424L311.969 124.769C310.4 124.381 308.79 124.186 307.175 124.186H306.662C305.492 124.186 304.325 124.083 303.173 123.879L296.4 122.679C292.735 122.03 288.929 122.368 285.249 122.929C281.328 123.526 275.422 124.073 267.262 124.17C265.539 124.191 263.826 124.424 262.141 124.781C256.604 125.953 248.188 126.922 245.327 124.186C241.146 120.186 232.785 124.186 229.649 128.186C229.119 128.862 228.563 129.312 228.006 129.589C225.124 131.018 220.905 129.764 218.405 131.788C216.928 132.984 214.978 133.42 213.133 132.969L197.91 129.243C195.139 128.565 192.213 128.991 189.75 130.431C186.312 132.44 182.057 132.434 178.626 130.414L168.416 124.402C165.479 122.674 161.946 122.277 158.7 123.313C156.9 123.886 154.991 124.027 153.127 123.722L117.849 117.948C116.781 117.773 115.701 117.686 114.619 117.686H109.451C104.747 118.019 91.7869 116.486 85.9338 115.686C78.6174 114.686 73.3912 114.686 65.5521 111.686C64.285 111.201 55.0295 108.126 53.9453 107.31C48.2762 103.045 41.3666 97.76 38.3768 95.1856C34.196 91.5856 28.6216 84.3523 26.357 81.1856Z" fill="#CA566B" fill-opacity="0.2" stroke="#CA566B" stroke-opacity="0.4"/>
</svg>