<svg width="202" height="192" viewBox="0 0 202 192" fill="none" xmlns="http://www.w3.org/2000/svg">
<path id="Vector 45" d="M1.48975 82.1856L9.22852 40.1856V30.1855V10.1855C11.1632 7.18555 17.5477 1.18555 27.6081 1.18555H35.3469L45.9877 10.1855C49.2122 12.1856 57.0155 17.7856 62.4326 24.1856C69.204 32.1856 75.0081 24.1856 99.1918 24.1856C106.931 19.1856 106.931 24.1856 148.526 24.1856C178.514 24.1856 156.265 18.1856 166.906 16.1856C177.547 14.1856 176.58 14.1856 197.861 24.1856V89.1856C193.024 101.186 197.861 100.186 193.024 109.186C188.188 118.186 193.024 117.186 197.861 123.186C202.698 129.186 202.698 135.186 193.024 169.186C182.384 178.186 178.514 175.186 162.069 186.186C145.624 197.186 152.396 185.186 141.755 186.186C131.114 187.186 129.18 188.186 88.551 175.186C75.9755 167.186 78.8775 163.186 75.0081 160.186C71.9126 157.786 65.3346 148.519 62.4326 144.186H40.1836C30.5102 144.186 23.7387 147.186 15.0326 144.186C6.32648 141.186 1.48975 128.186 1.48975 117.186V82.1856Z" fill="#6FAB53" fill-opacity="0.3" stroke="#6FAB53"/>
</svg>
